<?xml version="1.0" standalone="no"?>
<!DOCTYPE svg PUBLIC "-//W3C//DTD SVG 1.1//EN" "http://www.w3.org/Graphics/SVG/1.1/DTD/svg11.dtd" >
<svg>
<metadata>
Created by FontForge 20110222 at Tue Apr 26 09:21:24 2011
 By www-data
Copyright (c) 1994, Ken O'Brien, designer. Produced by The Font Bureau, Inc.  Portions Copyright (c) 1997, 1998 The Font Bureau, Inc. All rights reserved.
</metadata>
<defs>
<font id="Ravie" horiz-adv-x="1671" >
  <font-face 
    font-family="Ravie"
    font-weight="400"
    font-stretch="semi-expanded"
    units-per-em="2048"
    panose-1="4 4 8 5 5 8 9 2 6 2"
    ascent="1638"
    descent="-410"
    x-height="1104"
    cap-height="1571"
    bbox="-66 -577 2761 2147.48"
    underline-thickness="120"
    underline-position="-212"
    unicode-range="U+0020-2122"
  />
    <missing-glyph />
    <glyph glyph-name="space" unicode=" " horiz-adv-x="819" 
 />
    <glyph glyph-name="exclam" unicode="!" horiz-adv-x="854" 
d="M805 1628q-70 -161 -112 -422q-42 -257 -42 -522q0 -139 17 -270q-54 -15 -133 -41q-86 -29 -140 -56q-110 220 -174 545q-37 187 -37 312q0 79 15 122q-136 -21 -195 -34q-12 30 -12 116q0 27 4 52q0 6 10 6q2 0 16 -1t21 -1q128 0 383 69q246 67 371 131q5 0 8 -6z
M774 90q0 -57 -122 -116q-103 -49 -220 -70q-45 -8 -82 -8q-96 0 -156.5 48t-60.5 113q0 75 138 125q116 41 231 41q124 0 201 -42q71 -38 71 -91z" />
    <glyph glyph-name="quotedbl" unicode="&#x22;" horiz-adv-x="971" 
d="M858 1421q0 -84 -63 -192q-66 -111 -76 -180q0 -11 -12 -11q-10 0 -31 19q-8 51 -78 168q-59 99 -59 176q0 86 31 152q39 83 112 83q80 0 130 -65q46 -61 46 -150zM430 1399q0 -86 -57 -185q-24 -39 -47 -79q-25 -46 -31 -86q-21 -19 -31 -19t-12 10q-13 70 -82 189
q-57 98 -57 178q0 92 49.5 156.5t130.5 64.5q69 0 107 -79q30 -64 30 -150z" />
    <glyph glyph-name="numbersign" unicode="#" horiz-adv-x="1296" 
d="M1223 512q-47 -159 -52 -258q0 -9 -16 -6q-93 15 -188 24q14 -98 37 -204q3 -17 -3 -19q-17 -7 -286 -106q11 113 28 338q-91 0 -180 -7q12 -161 31 -348q-175 65 -285 109q-7 3 -4 18q25 118 35 203q-87 -10 -266 -31q36 102 100 295q3 5 16 2q95 -20 172 -30
q5 120 5 174q-135 -13 -203 -27q-16 -3 -17 2q-3 87 -55 258q145 -21 266 -27q-4 92 -24 254q175 -57 254 -59q4 0 2 -14q-15 -89 -25 -187q60 0 178 8q-8 64 -24 193q0 16 2 16q98 7 254 58q-16 -119 -25 -244q106 17 152 31q15 4 18 -6l101 -289q-189 20 -279 29
q0 -94 6 -183q126 8 275 33zM758 594q0 13 -1 39.5t-1 40.5q-99 4 -146 4q-39 0 -57 -2q-2 -33 -2 -98q0 -68 2 -103q83 -6 164 -6q24 0 39 2q0 21 1 61.5t1 61.5z" />
    <glyph glyph-name="dollar" unicode="$" horiz-adv-x="1544" 
d="M1489 547q0 -87 -33 -211q-42 -159 -192 -254q-162 -102 -416 -105q96 -112 96 -167q0 -78 -201 -78q-43 0 -157 8q30 106 69 244q-319 8 -485 122q-125 87 -125 195q0 79 58 139q68 72 200 90q58 9 121 9q148 0 254 -48q94 -43 94 -90q0 -118 -160 -188
q-28 -12 -127 -43q-61 -18 -61 -35q0 -18 62 -31.5t147 -13.5q139 0 236 33q116 39 116 110v11q-8 106 -17 213q-14 114 -65 166q-65 67 -211 67q-37 0 -131 -9t-133 -9q-293 0 -293 229q0 75 29 178q81 291 522 326l-48 68q-38 61 -38 100q0 63 141 63q93 0 215 -18
q-92 -179 -92 -213q250 -10 401 -94q128 -71 142 -164q4 -27 4 -45q0 -184 -289 -184q-148 0 -265 55q-103 50 -103 96q0 88 159 143q117 41 117 54q0 24 -68 42.5t-153 18.5q-252 0 -252 -143q0 -36 14 -72q26 -79 52 -159q31 -83 90 -121q75 -48 229 -48q25 0 92.5 3.5
t102.5 3.5q174 0 249 -41q103 -54 103 -203z" />
    <glyph glyph-name="percent" unicode="%" horiz-adv-x="1620" 
d="M770 1276q0 -51 -12 -125q-21 -125 -90 -206q-94 -111 -262 -111q-143 0 -257 91q-120 97 -120 232q0 105 92 200q104 107 270 128q67 8 123 8q256 0 256 -217zM1417 1462q-184 -232 -469 -678q-125 -195 -232 -383q-112 -196 -112 -223q0 -31 51 -67q56 -39 56 -43
q0 -3 -82 -111q-74 23 -220 35q-127 9 -253 18q740 992 882 1327q17 39 17 52q0 55 -72 112q-10 8 0 19l61 71q167 -97 373 -129zM1585 418q0 -51 -12 -125q-21 -126 -90 -206q-94 -112 -262 -112q-143 0 -257 92q-120 97 -120 232q0 105 92 200q105 107 270 128q67 8 123 8
q256 0 256 -217zM672 1202q0 25 -25 43q-56 41 -196 41q-43 0 -66 -4q-78 -14 -156 -65q-82 -54 -82 -97q0 -38 68 -59q57 -19 131 -19q111 0 218.5 53.5t107.5 106.5zM1487 342q0 25 -25 43q-56 41 -196 41q-43 0 -66 -4q-78 -14 -156 -65q-81 -54 -81 -97q0 -38 67 -60
q57 -18 131 -18q111 0 218.5 53.5t107.5 106.5z" />
    <glyph glyph-name="ampersand" unicode="&#x26;" horiz-adv-x="1806" 
d="M1751 92q-144 -55 -274 -153q-146 -110 -230 -232q-15 -2 -20 -2q-27 0 -35 14q-65 127 -160 301q-103 -30 -206 -61q-167 -41 -353 -41q-255 0 -367 102q-104 96 -104 304q0 184 121 329q80 97 167 148q35 21 175 82q-75 67 -127 183q-49 108 -49 185q0 145 167 263
t361 118q178 0 295 -90t117 -225q0 -199 -137 -336q-96 -95 -265 -152q149 -134 433 -512q103 52 230.5 170t127.5 211q0 36 -17 36q-6 0 -12 -5q-198 -172 -315 -172q-54 0 -105 31q-36 22 -36 90q0 164 184 369q105 116 207 116q91 0 155 -84q72 -77 72 -258
q0 -247 -160 -436q-80 -95 -235 -199q21 -39 84 -129q40 46 81 91q70 69 138 98q31 -56 92 -154zM1042 1217q0 118 -176 118q-117 0 -222 -57q-116 -63 -116 -152q0 -30 15 -55q59 -102 166 -102q51 0 106 18q227 77 227 230zM942 188q-219 382 -358 551q-28 0 -68 -71
q-53 -93 -53 -228q0 -137 79 -215q74 -73 193 -73q69 0 139 15q57 12 68 21z" />
    <glyph glyph-name="quotesingle" unicode="'" horiz-adv-x="551" 
d="M438 1403q0 -81 -61 -186l-48 -82q-25 -48 -32 -88q-21 -19 -31 -19t-12 10q-13 73 -84 195q-57 98 -57 178q0 92 49.5 157.5t130.5 65.5q71 0 112 -80q33 -66 33 -151z" />
    <glyph glyph-name="parenleft" unicode="(" horiz-adv-x="840" 
d="M831 -322q-3 -3 -34 -13q-39 -11 -72 -11q-240 0 -429.5 378.5t-189.5 860.5q0 741 560 741q77 0 110 -32q-18 -62 -18 -66h-10q-21 0 -66 -20q-72 -33 -137 -204q-72 -192 -72 -415q0 -337 79 -683q88 -386 202 -390q10 0 30.5 2t22.5 2q6 -51 24 -150z" />
    <glyph glyph-name="parenright" unicode=")" horiz-adv-x="840" 
d="M721 926q0 -156 -65 -439q-77 -337 -188 -552q-141 -271 -304 -271q-51 0 -108 26q-43 20 -60 38q0 12 6.5 66.5t7.5 55.5q2 0 6.5 -1t10.5 -1q20 0 59 11q133 35 208 497q54 337 54 652q0 177 -72 335q-62 137 -126 164q-45 19 -76 17q0 35 -25 84q62 28 113 28
q559 0 559 -710z" />
    <glyph glyph-name="asterisk" unicode="*" horiz-adv-x="1182" 
d="M1147 1280q0 -141 -109 -141q-4 0 -36 3t-52 3q-96 0 -189 -24.5t-93 -49.5q0 -12 26 -20q78 -26 297 -35q60 -3 101 -47q38 -42 38 -92q0 -53 -40 -82q-98 -70 -162 -70q-62 0 -119 104q-83 154 -150 154q-43 0 -43 -51q0 -35 56 -119q67 -103 86 -151q8 -22 8 -44
q0 -65 -89 -106q-72 -33 -149 -33q-90 0 -90 111q0 77 35 174q2 6 44 112q22 55 22 74t-17 19q-10 0 -26 -6q-52 -20 -94 -110q-53 -113 -101 -159q-38 -37 -82 -37q-79 0 -143 93q-33 46 -33 102q0 117 147 129q174 14 193 16q67 8 86 21q14 10 14 26q0 20 -21 28.5
t-136 8.5q-123 0 -166 37q-80 69 -80 156q0 57 35 112q29 48 90 48q108 0 168 -97q14 -22 80 -144q37 -69 53 -69q9 0 14 15q27 67 27 112q0 53 -51 133q-50 77 -50 115q0 43 36 75q39 36 98 36q67 0 119.5 -47.5t52.5 -108.5q0 -47 -47 -129q-4 -6 -57 -84q-27 -41 -27 -67
q0 -35 26 -35q42 0 122 78q85 82 151 192q29 49 92 49q70 0 104 -57q31 -51 31 -121z" />
    <glyph glyph-name="plus" unicode="+" horiz-adv-x="1325" 
d="M1282 453q-175 29 -500 32q-2 -251 39 -483q4 -22 -4 -25q-191 -27 -307 -73q38 255 59 577q-185 -5 -393 -59q-15 -4 -18 2q-38 107 -113 321q166 -19 537 -51v74q0 171 -25 371q-3 23 0 26q159 19 283 56q-38 -204 -52 -535q208 3 418 53q14 4 19 -4q0 -85 57 -282z
" />
    <glyph glyph-name="comma" unicode="," horiz-adv-x="848" 
d="M698 96q0 -71 -43 -172q-47 -106 -98 -137q-63 -20 -88 -20q-23 0 -23 10q0 8 7 18q55 89 55 142q0 49 -70 49q-17 0 -57.5 -7.5t-63.5 -7.5q-71 0 -119 51t-48 134q0 75 102 114q76 29 166 29q128 0 204 -57.5t76 -145.5z" />
    <glyph glyph-name="hyphen" unicode="-" horiz-adv-x="1059" 
d="M956 750q0 -21 -20 -80q-22 -62 -23 -66q-122 12 -290 12q-59 0 -97 -2q-303 -16 -323 -16q-89 0 -97 20q-4 11 -4 35q0 102 78 203q382 -28 770 -94q6 0 6 -12z" />
    <glyph glyph-name="hyphen" unicode="&#x2010;" horiz-adv-x="1059" 
d="M956 750q0 -21 -20 -80q-22 -62 -23 -66q-122 12 -290 12q-59 0 -97 -2q-303 -16 -323 -16q-89 0 -97 20q-4 11 -4 35q0 102 78 203q382 -28 770 -94q6 0 6 -12z" />
    <glyph glyph-name="period" unicode="." horiz-adv-x="885" 
d="M735 90q0 -61 -124 -99q-103 -32 -218 -32q-102 0 -169 48q-74 54 -74 149q0 141 272 141q117 0 211 -56q102 -61 102 -151z" />
    <glyph glyph-name="slash" unicode="/" horiz-adv-x="1311" 
d="M1284 1464q-226 -284 -539 -788q-205 -333 -270 -481q-4 -10 -4 -21q0 -21 55 -63q52 -39 52 -43l-82 -111q-75 23 -220 36q-128 10 -256 19q349 465 558 772q142 210 244 392q98 174 98 213q0 58 -72 112q-10 11 2 21q17 13 61 69q165 -97 373 -127z" />
    <glyph glyph-name="zero" unicode="0" horiz-adv-x="1534" 
d="M1483 895q0 -346 -116 -597q-144 -311 -441 -392q-57 -15 -135 -15q-241 0 -448 177q-220 188 -280 485q-12 62 -12 129q0 234 138 434q152 221 421 316q234 81 410 81q463 0 463 -618zM1323 694q0 132 -167.5 234t-385.5 102q-159 0 -329 -101q-181 -108 -181 -229
q0 -140 174 -251q163 -105 336 -105q211 0 384 114q169 110 169 236z" />
    <glyph glyph-name="one" unicode="1" horiz-adv-x="1026" 
d="M1014 14q0 -14 -6 -14q-14 0 -61 4t-101 4q-315 0 -496 -82q-10 -5 -14 6q-10 64 -10 158q0 254 95 594q74 264 157 436q-142 -108 -283 -108q-154 0 -229 108q-50 71 -50 174q0 129 84 191q100 74 252 74q185 0 185 -111q0 -78 -63.5 -166.5t-151.5 -136.5
q-17 -9 -17 -17q0 -12 29 -12q84 0 200 115q120 119 181 274q78 19 225 60q9 3 11 -1t-1 -14q-151 -567 -151 -1015q0 -220 47 -328q14 -33 76 -43q27 -4 73 -21q19 -12 19 -129z" />
    <glyph glyph-name="two" unicode="2" horiz-adv-x="1626" 
d="M1606 305q0 -63 -4 -100q-14 -123 -133 -197q-111 -69 -263 -69q-114 0 -211 43q-336 149 -532 149q-102 0 -156 -43q-31 -24 -31 -82q0 -26 7 -57q-126 -12 -205 -62q-60 144 -60 295q0 245 142 408q158 181 440 190q163 6 239 57q97 65 154 250q39 126 39 199
q0 101 -79 137q-64 29 -232 31q-106 1 -197 -23q-86 -23 -86 -47q0 -11 21 -16q159 -38 238 -91q116 -76 116 -204q0 -68 -81 -109q-85 -42 -232 -42q-73 0 -152 10q-276 36 -276 213q0 156 133 267q188 157 596 157q307 0 504 -102q231 -118 231 -347q0 -479 -637 -499
q-298 -10 -457 -125q-145 -105 -147 -273q81 187 381 187q195 0 344 -70q36 -17 163 -97q80 -50 136 -50q94 0 94 61q0 103 -190 186q196 148 266 209q117 -117 117 -344z" />
    <glyph glyph-name="three" unicode="3" horiz-adv-x="1694" 
d="M1642 487q0 -260 -222 -403q-234 -150 -685 -150q-326 0 -527 120q-135 80 -175 179q-15 36 -15 72q0 87 67 155q79 80 226 101q71 10 158 10q166 0 272 -47q101 -45 101 -108q0 -123 -129 -200q-50 -30 -209 -85q-55 -19 -55 -37q0 -41 182 -41q216 0 333 58
q110 54 101 145q-26 270 -62 352q-75 172 -290 172q-49 0 -146 -14q-2 -2 -6 -2q-26 0 -45 51q-9 30 -18 59q440 74 549 375q16 46 16 78q0 84 -85 126q-72 36 -185 36q-99 0 -180 -24.5t-81 -53.5q0 -22 146 -65q166 -50 166 -154q0 -52 -116 -108q-132 -64 -298 -64
q-326 0 -326 205q0 30 7 55q17 109 207 198q217 101 532 101q347 0 530 -130q156 -111 156 -280q0 -161 -184 -233q-96 -37 -355 -70q283 -21 406 -66q239 -89 239 -313z" />
    <glyph glyph-name="four" unicode="4" horiz-adv-x="1944" 
d="M1954 344q-15 0 -96 -37q-86 -39 -123 -39q-19 0 -27 6q-12 9 -51 95q-35 74 -54 92q-25 24 -85 24q-19 0 -48 -2q21 -82 70 -329q11 -64 97 -105q69 -27 139 -53q-58 -66 -138 -156q-352 88 -682 88q-49 0 -75 -2q149 272 149 469q-50 0 -336 -68q-289 -69 -401 -108
q-9 -3 -27 2q-41 12 -140 83q-128 91 -134 95q206 251 445 615q222 338 280 475q11 27 33 31q209 39 403 106q24 8 27 8q6 0 14 -18q107 -243 176 -588q1 -3 62 -375q55 7 96 15q99 19 106 37q13 29 13 57q0 88 -125 156q104 44 278 98q16 0 20 -6q17 -26 17 -97
q0 -31 -4 -94.5t-4 -85.5q0 -61 50 -208q46 -136 75 -181zM1112 834q0 165 -162 165q-168 0 -338 -139q-166 -134 -166 -254q0 -82 154 -82q177 0 328 74q184 88 184 236z" />
    <glyph glyph-name="five" unicode="5" horiz-adv-x="1681" 
d="M1602 573q0 -101 -35 -239q-51 -200 -212 -294q-184 -108 -560 -108q-623 0 -752 238q-53 98 -53 162q0 74 73 124q70 48 231.5 89t289.5 41q247 0 247 -129q0 -221 -366 -353q-10 -2 -10 -12q0 -24 102 -41q99 -18 201 -14q204 7 269 38q99 48 99 201q0 49 -4 86
q-30 274 -62 339q-49 98 -204 98q-51 0 -135 -11q-188 -22 -418 -86q-15 -4 -24 -4q-13 0 -13 17v8q6 46 6 106q0 410 -219 666q-5 6 0 10q4 5 13 4q363 -14 579 -14q395 0 580 10q14 115 14 221q0 14 6 11q86 -46 232 -111q10 -3 4 -16q-90 -188 -140 -365q-4 -17 -16 -12
q-117 48 -401 72q-152 12 -199 12q-90 0 -88 -60q8 -204 8 -198q0 -138 -10 -174q43 13 87 26q104 26 251 29h98q254 0 372 -63q159 -84 159 -304z" />
    <glyph glyph-name="six" unicode="6" horiz-adv-x="1634" 
d="M1677 1210q0 -132 -136 -203q-125 -65 -337 -65q-161 0 -266 45q-98 43 -98 103q0 126 138 207q24 14 214 87q43 12 43 33q0 37 -137 37q-146 0 -283 -44q-165 -54 -221 -148q-154 -262 -164 -570q78 84 202 138q137 59 288 59q252 0 415 -154q117 -111 156 -258
q51 -193 51 -293q0 -145 -97 -213q-111 -77 -370 -77q-509 0 -736 172q-265 203 -265 712q0 344 80 492q90 166 297 234q180 59 510 59q410 0 591 -131q125 -90 125 -222zM1288 379q0 79 -167 148q-158 65 -308 65q-142 0 -271 -38q-155 -45 -155 -116q0 -74 143 -147
q147 -76 306 -76q191 0 313 39q139 44 139 125z" />
    <glyph glyph-name="seven" unicode="7" horiz-adv-x="1430" 
d="M1505 1386q0 -15 -14 -22q-194 -72 -329 -433q-118 -316 -118 -614q0 -94 17 -159q-3 0 35 9t73 9q27 0 58 -6q39 -8 33 -27q-9 -24 -46 -190q-157 20 -262 20q-212 0 -489 -82q-6 -1 -9 -2q-9 -2 -11.5 1t-2.5 14q16 416 189 793q188 408 504 632l-498 -20
q-217 -15 -270 -78q-23 -27 -23 -62q0 -24 20.5 -91.5t20.5 -112.5q0 -33 -10 -70q-7 -25 -98 -48q-86 -22 -154 -22q-3 0 -9 1t-8 1q2 33 2 103q0 148 -12 293q-10 118 -33 250q-1 10 9.5 16t27.5 6q467 -6 922 -6q295 0 440 2q3 0 13.5 1t13.5 1q18 0 18 -12v-95z" />
    <glyph glyph-name="eight" unicode="8" horiz-adv-x="1430" 
d="M1386 547q0 -110 -66 -264q-71 -162 -163 -238q-174 -145 -498 -145q-274 0 -463 154q-163 134 -178 294q-2 23 -2 47q0 306 377 420q-109 33 -183 130q-87 113 -87 274q0 158 125.5 246.5t361.5 88.5q647 0 647 -315q0 -306 -303 -385q182 -7 299 -79q133 -83 133 -228z
M1061 1182q0 53 -80 82.5t-213 29.5q-178 0 -315 -67q-131 -65 -131 -144q0 -94 264 -94q164 0 319.5 64t155.5 129zM1169 428q0 77 -136 146q-148 75 -349 75q-156 0 -274 -38q-136 -43 -136 -117q0 -81 168 -152q157 -68 306 -68q189 0 301 38q120 41 120 116z" />
    <glyph glyph-name="nine" unicode="9" horiz-adv-x="1630" 
d="M1559 690q0 -420 -156 -578q-184 -188 -711 -188q-420 0 -597 143q-109 88 -109 207q0 86 64 151q77 77 224 99q96 15 177 15q157 0 259 -45q97 -42 97 -101q0 -119 -124 -193q-60 -36 -202 -79q-59 -18 -59 -35q0 -41 156 -41q140 0 265 41q152 50 206 139
q149 249 159 557q-52 -69 -186 -126q-148 -64 -299 -64q-246 0 -404 151q-112 108 -151 252q-49 183 -49 285q0 144 96 211q108 76 363 76q505 0 726 -174q255 -200 255 -703zM1251 1032q0 74 -142 147q-145 74 -300 74q-196 0 -319 -44t-123 -117q0 -82 166 -148
q154 -61 309 -61q170 0 294 48q115 46 115 101z" />
    <glyph glyph-name="colon" unicode=":" horiz-adv-x="885" 
d="M739 928q0 -96 -105 -156q-92 -53 -212 -53q-99 0 -171 26q-99 37 -99 113q0 96 74 151q68 50 171 50q342 0 342 -131zM735 94q0 -64 -124 -103q-102 -32 -218 -32q-102 0 -169 48q-74 54 -74 149q0 76 93 113q73 28 179 28q125 0 219 -60t94 -143z" />
    <glyph glyph-name="semicolon" unicode=";" horiz-adv-x="848" 
d="M727 928q0 -88 -94.5 -148.5t-222.5 -60.5q-114 0 -187 33q-84 37 -84 106q0 95 75 150q68 51 171 51q342 0 342 -131zM698 96q0 -71 -43 -172q-47 -106 -98 -137q-63 -20 -88 -20q-23 0 -23 10q0 8 7 18q55 89 55 142q0 49 -70 49q-17 0 -57.5 -7.5t-63.5 -7.5
q-71 0 -119 51t-48 134q0 75 102 114q76 29 166 29q128 0 204 -57.5t76 -145.5z" />
    <glyph glyph-name="less" unicode="&#x3c;" horiz-adv-x="834" 
d="M850 86q7 -15 -4 -20q-77 -25 -135 -52q-42 -19 -105 -65q-9 -7 -14 2q-85 157 -230 315q-156 172 -274 254q-14 10 -14 19q0 12 14 20q115 94 126 104q76 65 126 123q91 107 141 326q94 -31 281 -96q12 -5 6 -19q-34 -95 -109 -274q-51 -105 -172 -184q137 -72 234 -222
q52 -80 129 -231z" />
    <glyph glyph-name="equal" unicode="=" horiz-adv-x="993" 
d="M922 954q0 -9 -20 -56q-22 -50 -25 -73q-2 -10 -15 -10q-22 2 -65 2q-64 0 -267 -10t-292 -10q-161 0 -166 26q-4 22 -4 35q0 63 37 139q33 65 42 64q566 -41 768 -94q7 -2 7 -13zM920 500q0 -84 -78 -201q-385 29 -770 94q-6 0 -6 10q0 16 22 68.5t23 65.5q0 8 10 8
q53 -8 108 -8q75 0 272.5 11t274.5 11q135 0 139.5 -22.5t4.5 -36.5z" />
    <glyph glyph-name="greater" unicode="&#x3e;" horiz-adv-x="834" 
d="M778 553q0 -8 -14 -18q-135 -102 -283 -283q-131 -161 -200 -303q-6 -11 -15 -2q-31 28 -108 61q-36 15 -138 47q-10 4 -2 21q34 74 119 233q101 166 228 230q-116 57 -179 178q-34 90 -118 270q-8 14 6 19q156 55 278 106q18 -167 133 -301q76 -87 279 -236
q14 -10 14 -22z" />
    <glyph glyph-name="question" unicode="?" horiz-adv-x="1513" 
d="M1452 1014q0 -117 -68 -180q-82 -78 -278 -78q-82 0 -176 12q-47 6 -84 6q-174 0 -199 -117q-4 -19 -4 -43q0 -70 68 -219q-95 -39 -176 -39q-50 0 -70 19q-211 192 -211 344q0 74 56.5 118t158.5 44q13 0 39 -1t39 -1q146 0 231 41q77 36 116 121q26 56 52 186
q6 30 6 55q0 168 -274 168q-101 0 -183.5 -21.5t-82.5 -48.5q0 -19 86 -45q209 -63 209 -161q0 -49 -110 -102q-125 -60 -284 -60q-307 0 -307 202q0 136 193 228q201 96 512 96q306 0 501 -109q170 -96 211 -243q29 -104 29 -172zM1026 137q0 -53 -125 -117
q-113 -58 -225 -79q-43 -9 -84 -9q-99 0 -161 50q-60 47 -60 116q0 86 155 133q127 39 213 39q100 0 189 -36q98 -41 98 -97z" />
    <glyph glyph-name="at" unicode="@" horiz-adv-x="1655" 
d="M1606 989q0 -152 -56 -338q-23 -78 -102 -227q-48 33 -148 33q-198 0 -366 -92q24 74 24 106q0 9 -6 6q-119 -104 -385 -104q-150 0 -215 61q-59 56 -59 172q0 203 87 337q100 155 284 155q180 0 325 -152q-33 131 -102 195q173 15 352 57q13 -15 29 -111
q16 -103 16 -190q0 -214 -55 -291q47 29 110 29q40 0 74 -12q41 111 41 227q0 267 -203 422q-185 141 -463 141q-251 0 -427 -179q-189 -194 -189 -507q0 -320 230 -473q166 -111 389 -111q226 0 380 66q78 33 234 143q-57 -152 -190 -256q-180 -141 -451 -141
q-293 0 -504 233.5t-211 565.5q0 312 212 548q236 263 611 263q386 0 574 -173q160 -147 160 -403zM1028 770q0 29 -71 49q-64 19 -140 19q-126 0 -242 -49q-110 -47 -110 -91q0 -77 248 -77q109 0 212 50.5t103 98.5z" />
    <glyph glyph-name="A" unicode="A" horiz-adv-x="1880" 
d="M1931 174q-32 -59 -100 -178q-164 8 -229 8q-225 0 -492 -45q25 172 25 340q0 185 -31 289q-165 16 -514 55q-33 -117 -76 -235q-49 -135 -106 -230q59 -14 305 -26q-19 -129 -19 -236q-227 76 -424 125q-131 33 -336 70q28 36 68 92l53 73q36 -15 115 -51
q151 208 272 604q128 415 138 682q149 18 276 45q131 29 283 80q148 -241 325 -727q81 -235 215 -622q19 -52 111 -81q71 -16 141 -32zM1167 1069q0 137 -186 137q-135 0 -244 -72q-114 -75 -114 -173q0 -130 223 -130q321 0 321 238z" />
    <glyph glyph-name="B" unicode="B" horiz-adv-x="1665" 
d="M1606 473q0 -210 -124 -360q-150 -181 -425 -181q-139 0 -399.5 44t-358.5 44q-133 0 -207 -49l4 254q30 13 76 13q74 0 152 -39q-131 463 -131 1028q0 8 1 25.5t1 25.5q0 68 -64 82q-65 9 -129 18q-18 6 -18 92q0 93 10 134q217 -134 518 -134q148 0 326 33
q133 25 229 25q209 0 305 -101q72 -75 72 -192q0 -312 -264 -397q14 2 45 2q192 0 295 -120q86 -100 86 -247zM1196 1153q0 52 -95 83q-85 28 -202 28q-140 0 -290 -59q-154 -61 -154 -124q0 -46 102 -84q99 -36 209 -36q123 0 268 56q162 63 162 136zM1378 430
q0 75 -152 131q-143 53 -306 53q-128 0 -239 -31q-128 -36 -128 -91q0 -67 147 -135q151 -70 308 -70q159 0 264.5 39.5t105.5 103.5z" />
    <glyph glyph-name="C" unicode="C" horiz-adv-x="1509" 
d="M1511 1073q0 -125 -71 -176t-250 -51q-206 0 -334 58q-123 56 -123 140q0 44 35 107q61 111 203 141q80 8 159 17q11 6 11 14q0 39 -98 94q-110 62 -228 62q-167 0 -253 -127q-75 -109 -75 -287q0 -88 17 -184q70 -415 166 -573q77 -128 202 -128q46 0 93 8
q166 29 260 128q46 48 137 210q12 8 12 2q6 -49 6 -84q0 -177 -76 -313q-100 -179 -305 -215q-164 -29 -288 -29q-668 0 -668 867q0 420 214 633q193 192 534 192q386 0 575 -175q145 -134 145 -331z" />
    <glyph glyph-name="D" unicode="D" horiz-adv-x="1724" 
d="M1714 512q0 -532 -663 -532q-104 0 -292.5 13t-269.5 13q-225 0 -331 -78l-21 256q74 49 154 49q54 0 104 -26q-170 446 -170 1036q0 74 -56 102q-6 3 -120 33q-20 8 -20 121t8 129q224 -192 653 -192q46 0 130 5t124 5q351 0 537 -221q138 -163 207 -488
q26 -126 26 -225zM1458 690q0 170 -148 266q-97 64 -309 115q-144 35 -313 35q-26 0 -35 -2q-22 -100 -22 -223q0 -252 65 -445q86 -47 289 -47q217 0 340 73q133 78 133 228z" />
    <glyph glyph-name="E" unicode="E" horiz-adv-x="1755" 
d="M1729 442q0 -22 -3 -32q-29 -266 -237 -375q-157 -82 -442 -82q-44 0 -369 16q-56 3 -198 18q-121 13 -183 13q-126 0 -195 -49l7 256q32 16 79 16q71 0 158 -41q-136 396 -143 1161q-1 69 -58 91q-58 9 -135 29q-22 12 -22 85q0 45 6 56q88 -30 417 -64q334 -35 552 -35
q248 0 602 15q-55 -103 -94 -223q-28 -101 -56 -201q-14 -1 -67 -6q-42 -5 -66 -5q-20 0 -22 13q-8 142 -46 200q-56 88 -313 88q-20 0 -201 -8q-59 -138 -59 -336q0 -36 3 -99t3 -89q79 6 136 12q138 16 143 31q8 26 8 53q0 45 -32 83l-54 54q46 25 87 43q99 42 161 44
q20 -41 20 -113q0 -22 -3 -66t-3 -65q0 -73 41 -246q4 -18 0 -23q-3 -3 -12 -2q-84 12 -288 20q-94 4 -187 7q19 -346 149 -475q113 -113 379 -113q84 0 158 33q65 29 65 51q0 11 -22 11q-18 0 -48 -2.5t-51 -2.5q-195 0 -256 150q-10 25 -10 51q0 78 96 139q102 65 287 93
q55 8 96 8q222 0 222 -187z" />
    <glyph glyph-name="F" unicode="F" horiz-adv-x="1581" 
d="M1561 1100q0 -136 -54 -198t-176 -62q-165 0 -323 71q-181 81 -181 197q0 87 91 149q88 60 206 60q151 0 262 -68q14 -8 17 -8q8 0 8 10q0 48 -91 106q-120 77 -314 77q-71 0 -125 -7q-260 -29 -260 -378q0 -135 34 -297q162 -11 324 -11q40 0 120 3.5t91 3.5
q21 0 18 -23q-6 -51 -6 -109q0 -121 23 -251q-26 0 -100.5 -13.5t-104.5 -13.5q-42 0 -53 16q-10 13 -21 108q-9 80 -57 93q-24 7 -193 31q110 -418 213 -625q-398 -78 -831 -174q-10 51 -10 80q0 36 8 49.5t39 20.5q149 30 149 104q0 -28 -28.5 255t-28.5 503q0 309 51 571
q-68 -24 -129 -24q-63 0 -104 22l18 250q109 -90 569 -90q462 0 811 61q11 2 17 -8q121 -211 121 -481z" />
    <glyph glyph-name="G" unicode="G" horiz-adv-x="1614" 
d="M1624 1100q0 -106 -72.5 -153.5t-236.5 -47.5q-196 0 -331 71q-126 67 -126 154q0 86 82 156q86 74 207 74q19 0 52 -1t40 -1h16q21 6 21 20q0 35 -76 71q-91 44 -227 44q-195 0 -326 -126q-155 -148 -155 -425q0 -78 14 -172q64 -418 115 -560q62 -173 176 -173
q172 0 172 184q0 82 -41 256q-17 71 -73 89l-118 20q-22 4 -29 60q-4 43 1 75q19 -10 827 -23q-137 -215 -137 -506q0 -53 6 -77q-33 -39 -157 -96q-183 -85 -445 -138q-122 -25 -221 -25q-541 0 -541 701q0 1055 803 1055q684 0 768 -400q12 -59 12 -106z" />
    <glyph glyph-name="H" unicode="H" horiz-adv-x="1845" 
d="M1798 18q-49 29 -147 29q-125 0 -281 -44q-160 -44 -283 -116q78 407 78 615v55q-104 -13 -501 -55q18 -287 122 -604q-240 108 -485 108q-148 0 -211 -51l6 233q33 15 80 15q77 0 160 -39q-73 192 -114 588q-32 316 -32 606q0 75 -64 100q-3 2 -128 25q-25 4 -25 82
q0 8 2 24.5t2 20.5q35 -6 871 -76q-103 -236 -141 -436q-28 -146 -33 -365q334 0 495 -16q2 20 2 49q0 357 -221 661q350 54 791 134q3 0 9.5 -39t6.5 -74q0 -44 -12 -59q-150 -49 -150 -103q0 18 20.5 -112.5t20.5 -305.5q0 -203 -29 -380.5t-73 -243.5q79 51 164 51
q42 0 71 -10z" />
    <glyph glyph-name="I" unicode="I" horiz-adv-x="1079" 
d="M1077 -18q0 -13 -14 -13q-11 0 -178.5 16.5t-278.5 16.5q-180 0 -633 -74q0 37 29 181q1 2 86 18q92 17 127 55q26 28 66 307q45 303 45 531q0 200 -41 276q-9 21 -41 21q-23 0 -61 -12.5t-44 -12.5q-17 0 -58.5 61t-41.5 91q0 14 37 14q134 0 435 33q345 37 507 80
q6 6 6 -51q0 -52 -18 -60q-133 -54 -177 -226q-24 -98 -47 -456q-4 -65 -4 -114q0 -346 80 -434q23 -25 64 -25q29 0 76.5 15.5t54.5 15.5q9 0 12 -29q12 -135 12 -225z" />
    <glyph glyph-name="J" unicode="J" horiz-adv-x="1575" 
d="M1524 553q0 -98 -23 -219q-71 -384 -514 -449q-84 -12 -153 -12q-257 0 -464 108q-236 123 -321 349q-31 82 -31 141q0 163 310 205q90 12 157 12q161 0 249.5 -47t80.5 -125q-21 -213 -381 -303q-10 -3 -10 -16q0 -44 106 -116q114 -77 209 -77q128 0 198 159
q64 145 64 376q0 429 -180 780q-178 -51 -309 -131q-29 -18 -29 -66q0 -25 15.5 -93.5t15.5 -84.5q0 -31 -70 -49q-62 -12 -157 -35q-25 236 -127 621q-3 10 12 10h236q479 0 804 16q18 1 21 -20q25 -189 166 -475q125 -253 125 -459z" />
    <glyph glyph-name="K" unicode="K" horiz-adv-x="1978" 
d="M1954 1157q0 -167 -289 -235q-113 -27 -205 -27q-116 0 -186 37q-73 39 -72 110q2 103 71 175q49 51 137 88q54 20 108 41q30 14 30 32q0 19 -57 19q-371 0 -666 -604h2q2 0 32.5 2t60.5 2q255 0 534 -140q434 -216 434 -669q-361 6 -579 6q-179 0 -217 -6q-11 30 -11 67
q0 46 21 51q91 27 122 43q60 32 60 80q0 116 -141 232q-165 135 -400 135q-26 0 -26 -25q23 -213 188 -673q-99 49 -279 101q-225 64 -372 64q-106 0 -158 -34l4 260q37 12 86 12q80 0 172 -43q-67 182 -112 444q-47 277 -47 517q0 12 1 34t1 35q0 57 -48 85q-36 21 -149 46
q-26 6 -24 109q367 33 841 96q-159 -360 -159 -731q0 -64 2 -94q140 366 295 530q203 213 522 213q295 0 430 -237q43 -76 43 -148z" />
    <glyph glyph-name="L" unicode="L" horiz-adv-x="1649" 
d="M1591 532q0 -151 -46 -295q-33 -104 -91 -202q-32 -50 -63 -101q-8 -13 -27 -10q-369 56 -702 56q-440 0 -529 -121l-45 252q54 36 139 36q43 0 99 -12q-138 345 -138 950q0 45 2.5 137.5t2.5 141.5q0 85 -91 102q-33 4 -102 17q-27 7 -27 96q0 23 4 43q19 -9 900 -90
q-85 -173 -155 -450q-75 -293 -75 -482q0 -453 346 -453q251 0 378 95q93 69 93 155q0 45 -22 45q-5 0 -10 -4q-153 -106 -314 -106q-147 0 -235 100q-39 44 -39 94q0 82 95 160q92 77 241 123q118 37 194 37q217 0 217 -314z" />
    <glyph glyph-name="M" unicode="M" horiz-adv-x="2617" 
d="M2542 905q0 -374 -402 -719l277 -55q21 -40 59 -119q-112 8 -322 8q-199 0 -423 -6q79 118 173 380q103 288 103 442q0 120 -70 120q-116 0 -259 -238q-123 -203 -191 -439q0 -261 26 -330q39 -17 148 -62q-11 -28 -37 -100q-342 72 -600 145q111 248 111 621
q0 401 -136 401q-90 0 -173 -159q-80 -154 -111 -371q2 -126 94 -494q-197 86 -414 86q-191 0 -264 -69l-10 239q37 21 92 21q61 0 139 -31q-64 194 -104 479q-39 272 -39 498v43q0 84 -67 99l-134 10q-37 6 -37 151q0 8 21 8q114 0 776 49q-100 -285 -100 -604
q0 -63 6 -106q138 493 524 680q89 43 154 43q213 0 213 -424q0 -152 -27 -332q59 133 223 338q186 231 408 231q158 0 265 -121q108 -124 108 -313z" />
    <glyph glyph-name="N" unicode="N" horiz-adv-x="1690" 
d="M1655 -115q-8 -24 -37 -102q-44 8 -316 80q-253 67 -286 78q131 285 131 677q0 162 -40.5 274t-102.5 112q-75 0 -178 -135q-112 -146 -152 -330q0 -151 102 -600q-215 90 -444 90q-175 0 -236 -64l-10 246q37 20 94 20q70 0 139 -30q-126 338 -126 907q0 40 4 117t4 114
q0 66 -78 84q-34 6 -113 21q-24 5 -24 94q0 18 6 43q95 -17 815 -74q-166 -228 -166 -589q0 -48 4 -80q60 230 206 417q118 151 270 247q128 81 204 81q131 0 199 -168q61 -151 61 -407q0 -161 -55 -475.5t-55 -473.5q0 -70 14 -110q39 -17 166 -64z" />
    <glyph glyph-name="O" unicode="O" 
d="M1628 997q0 -187 -96 -440q-111 -291 -278 -474q-228 -249 -523 -249q-271 0 -476 237q-212 246 -212 593q0 331 219 574q241 267 625 267q741 0 741 -508zM1356 719q0 140 -158 236q-154 96 -371 96q-196 0 -382 -110q-195 -115 -195 -253q0 -161 181 -267
q157 -91 335 -91q224 0 409 127q181 123 181 262z" />
    <glyph glyph-name="P" unicode="P" horiz-adv-x="1720" 
d="M1708 1106q0 -112 -49 -236q-165 -413 -541 -413q-154 0 -286 70q-74 40 -179 130q66 -315 242 -659q-410 -82 -838 -176q-10 36 -10 78q0 52 19 59q36 10 106 33q75 28 75 91q0 9 -1 19q-58 440 -58 707q0 281 54 545q-65 -23 -121 -23q-72 0 -121 31l18 252
q280 -141 564 -141q90 0 290.5 20t303.5 20q275 0 412 -122q120 -106 120 -285zM1479 1057q0 75 -121 119q-117 43 -309 43q-211 0 -381 -80q-164 -76 -164 -162q0 -54 145 -95q133 -38 277 -38q192 0 368 64q185 67 185 149z" />
    <glyph glyph-name="Q" unicode="Q" horiz-adv-x="1673" 
d="M1761 2q0 -157 -152 -237q-126 -66 -321 -66q-182 0 -267 57q-78 53 -97 172q7 0 -49 -5t-121 -5q-291 0 -496 223q-211 229 -211 574q0 324 213 569q236 272 614 272q367 0 563 -185q189 -179 189 -499q0 -138 -24 -266q-39 -197 -158 -359q-131 -179 -330 -270
q-8 -40 -8 -43q0 -63 65 -63q5 0 95 12q284 39 284 221q0 48 -18 84q63 28 154 70q23 -3 48 -82q27 -84 27 -174zM1411 657q0 132 -116 229q-154 128 -468 128q-259 0 -433 -137q-161 -128 -161 -295q0 -136 122.5 -253t312.5 -161q-82 89 -82 207q0 147 99 243.5t261 96.5
q138 0 220 -59q91 -66 91 -195q0 -67 -69 -178q223 109 223 374zM940 297q0 62 -36 100.5t-95 38.5q-48 0 -83 -24q-44 -32 -44 -93q0 -62 47 -147q25 -6 37 -6q76 0 154 37q20 51 20 94z" />
    <glyph glyph-name="R" unicode="R" horiz-adv-x="2157" 
d="M2130 459q0 -129 -97 -267q-136 -193 -397 -239q-175 -31 -295 -31q-358 0 -401 230q-13 72 -24 267q-8 138 -44 205q-49 95 -186 160q-8 -24 -8 -139q0 -291 106 -649l-472 -3q-327 -3 -339 -7q-1 5 -2 12q0 111 35 117l116 16q58 18 62 88q26 376 56 569
q54 337 172 625q-21 -4 -60 -4q-106 0 -168 57l64 236q176 -137 364 -193q158 -47 367 -47q90 0 294.5 13.5t250.5 13.5q221 0 333 -105q95 -89 95 -235q0 -220 -234 -348q-205 -113 -504 -113q-98 0 -208 12q224 -47 315 -113q74 -55 74 -138q0 -34 -16.5 -116.5
t-16.5 -129.5q0 -123 143 -123q114 0 257 56q139 54 139 91q0 13 -21 13q-14 0 -99 -19.5t-139 -19.5q-134 0 -169 87q-5 11 -5 27q0 67 85 146q94 88 249 147q75 29 137 29q91 0 145 -62q46 -52 46 -116zM1571 1010q0 84 -178.5 162.5t-372.5 78.5q-161 0 -280 -38.5
t-119 -94.5q0 -97 241 -167q194 -56 344 -56q148 0 249 27q116 32 116 88z" />
    <glyph glyph-name="S" unicode="S" horiz-adv-x="1661" 
d="M1636 575q0 -94 -37 -237q-49 -191 -270 -302q-230 -116 -594 -116q-357 0 -565 139q-174 115 -174 263q0 95 73 163q83 78 240 99q78 10 160 10q169 0 267 -49q95 -47 95 -125q0 -118 -126 -199q-60 -39 -205 -90q-56 -19 -56 -35q0 -49 207 -49q163 0 276 47
q140 58 140 168q0 16 -4 37q-57 292 -85 349q-60 118 -228 118q-44 0 -150.5 -11.5t-153.5 -11.5q-323 0 -323 261q0 83 33 202q44 162 197 258q183 115 499 115q325 0 507 -102q165 -93 165 -236q0 -213 -340 -213q-166 0 -282 55q-109 51 -109 117q0 95 145 150
q55 18 111 36q51 19 51 39q0 27 -70.5 47.5t-159.5 20.5q-110 0 -180 -35q-84 -42 -84 -125q0 -39 19 -86l54 -180q31 -96 92 -138q80 -55 249 -55q15 0 95 3.5t120 3.5q192 0 284 -55q117 -71 117 -251z" />
    <glyph glyph-name="T" unicode="T" horiz-adv-x="1796" 
d="M1792 467q0 -52 -33 -139q-85 -228 -326 -351q-211 -108 -475 -108q-357 0 -539 190q-165 172 -165 471q0 239 113 503q79 182 161 286q-286 -32 -512 -211q-12 -13 -16 2q-21 134 -55 436q1 6 12 10q792 -67 1649 -67q17 0 12 -21q-105 -413 -129 -661q-72 11 -186 37
q-54 18 -54 55q0 20 15.5 89.5t15.5 103.5q0 49 -31 69q-179 118 -284 133q-181 -341 -181 -755q0 -230 69 -378q74 -161 204 -161q97 0 213 77q108 73 108 118q0 18 -12 18q-151 23 -259 99q-128 89 -128 216q0 68 90.5 112t245.5 44q69 0 162 -12q315 -42 315 -205z" />
    <glyph glyph-name="U" unicode="U" horiz-adv-x="1753" 
d="M1749 1479q0 -52 -8 -101q-26 1 -76 9q-46 8 -63 8q-40 0 -41 -33q-23 -485 -24 -498q-20 -303 -67 -565q77 45 162 45q52 0 94 -14l15 -195q-9 0 -27.5 1t-27.5 1q-151 0 -353 -70q-183 -63 -307 -145q-21 -14 -34 -11q-11 3 -9 15q59 308 59 410q-149 -201 -347 -301
q-155 -78 -296 -78q-162 0 -259 97q-103 102 -103 284q0 291 185 583q120 190 286 339q-207 -4 -406 -23q-13 0 -10 8q55 109 74 164q3 9 14 8q255 -12 418 -12q157 0 363 6q-170 -229 -283 -493q-117 -272 -117 -453q0 -96 42 -157.5t114 -61.5q107 0 218 198
q118 209 181 543q53 282 53 555q0 17 -1 42t-1 28q0 20 27 14q192 -52 555 -147z" />
    <glyph glyph-name="V" unicode="V" horiz-adv-x="1950" 
d="M1935 1366q-503 -525 -503 -1202q0 -78 6 -164q-161 0 -594 -45q-150 135 -337 508q-214 428 -292 835q-10 55 -103 98q-72 27 -145 54l115 145q318 -111 553 -162q275 -59 571 -69q11 0 11 -12q0 -16 -30 -63q-42 -65 -50 -83q-25 2 -133 19q-91 14 -127 14
q-39 0 -39 -12q-2 -41 -2 -97q0 -276 85 -516q96 -271 277 -421q10 -11 33 -11q19 0 14 15q-10 64 -10 182q0 611 334 1032q-43 30 -128 67l-134 56q30 72 86 215q214 -154 289 -205q122 -83 249 -155q17 -10 4 -23z" />
    <glyph glyph-name="W" unicode="W" horiz-adv-x="2646" 
d="M2533 487q0 -197 -119.5 -323.5t-291.5 -126.5q-243 0 -441 252q-186 238 -211 313q-7 -349 -78 -497q-100 -209 -374 -209q-91 0 -213 24q-692 139 -692 592q0 321 350 748q-59 -23 -131 -23q-101 0 -201 37l55 270q114 -74 308 -118q189 -44 393 -44q11 0 32.5 1
t32.5 1q-288 -529 -288 -897q0 -148 65 -253q60 -95 129 -95q112 0 186 320q78 336 78 694q0 234 -41 383q220 22 645 98q10 -41 29 -116q-76 -17 -201 -54q-44 -64 -59 -321q42 -268 159 -480q118 -217 230 -217q86 0 86 164q0 160 -74 408q-69 231 -137 338q298 -6 525 -6
q102 0 225 4q-34 -68 -64 -115l-284 -47q372 -356 372 -705z" />
    <glyph glyph-name="X" unicode="X" horiz-adv-x="1905" 
d="M1919 61q-275 -27 -936 -182q-36 107 -90 178h35q129 0 159 49q19 30 19 66q0 85 -85 224q-64 105 -114 155q-237 -253 -348 -389q-12 -12 -12 -29q0 -43 84 -106q7 -8 -2 -21q-29 -33 -82 -96q-98 27 -309 76q-38 7 -254 55q239 207 778 696q-97 141 -194 281
q-142 177 -308 248q-40 0 -188 -37q-4 30 -21 160q484 67 893 241q17 -60 66 -211q-131 17 -154 17q-57 0 -57 -21q0 -10 12 -37q27 -60 121 -208l106 -164q267 269 336 385q12 20 12 47q0 63 -57 82q-12 4 -4 24q5 13 45 86q183 -48 526 -137q-314 -254 -716 -659
q122 -139 290 -358q162 -211 182.5 -234t55.5 -23q45 0 178 21q7 -62 33 -179z" />
    <glyph glyph-name="Y" unicode="Y" horiz-adv-x="1903" 
d="M1843 868q0 -324 -561 -364q7 -299 234 -383q54 -21 122 -21q21 0 82 6q0 -8 -27 -54q-34 -59 -83 -118q-245 64 -486 64q-269 0 -641 -80q-66 73 -143 172q-16 21 10 21q-2 0 45 -4.5t92 -4.5q150 0 183 23q86 59 86 158q0 78 -62 215q-20 -4 -49 -4q-260 0 -430 135
q-158 126 -158 293q0 239 344 397q5 2 4 5q-2 4 -10 5q-115 16 -338 82q-14 3 -8 21q35 93 86 153q9 11 23 6q214 -80 633 -227q22 -7 4 -16q-287 -142 -287 -355q0 -233 391 -233q77 0 123 4q423 38 444 309q2 8 2 27q0 67 -30 148q-32 86 -82 143q24 0 -283 8
q-34 83 -61 194q257 -19 809 -47q-21 -58 -60 -147q-9 -1 -205 -4q287 -303 287 -527z" />
    <glyph glyph-name="Z" unicode="Z" horiz-adv-x="1901" 
d="M1878 332q0 -43 -14 -88q-40 -125 -197 -214q-177 -100 -424 -100q-129 0 -383.5 38t-384.5 38q-211 0 -459 -39q-7 -1 -11 3t-3 14q36 339 184 569q170 263 453 317q559 108 592 486q-106 5 -281 61q-120 39 -217 39q-61 0 -112.5 -14.5t-51.5 -30.5q0 -13 19 -16
q297 -56 297 -209q0 -74 -112 -121q-107 -45 -263 -45q-346 0 -346 182q0 35 14 74q100 272 606 272q114 0 337 -39t337 -39q62 0 228 19q12 3 12 -25q0 -338 -149 -521q-143 -176 -451 -236q-228 -45 -367 -234q-93 -126 -127 -278q21 2 58 2q123 0 282 -55
q178 -60 264 -68q22 -2 66 -2q160 0 160 47q0 29 -160 63q-104 22 -157 57q-81 52 -103 156q-2 10 -2 23q0 82 116 137q121 57 314 57q45 0 114 -6q156 -14 243 -93q79 -74 79 -181z" />
    <glyph glyph-name="bracketleft" unicode="[" horiz-adv-x="811" 
d="M819 -270q-225 -49 -581 -121q-203 551 -203 1317q0 241 38 435q17 84 74 275l605 -86q-11 -52 -27 -129q-98 6 -131 6q-47 0 -70 -6q-97 -27 -118 -460q-3 -42 -3 -76q0 -330 70 -666q78 -377 180 -377q68 0 125 13q41 -110 41 -125z" />
    <glyph glyph-name="backslash" unicode="\" horiz-adv-x="1311" 
d="M1284 12q-128 -9 -255 -19q-146 -13 -220 -36q-47 63 -76 96q-11 14 8 29q93 70 93 98q0 24 -120 234q-122 215 -247 409q-271 421 -447 641q208 30 373 127q45 -56 62 -69q13 -11 2 -21q-72 -58 -72 -112q0 -90 320 -570q189 -285 579 -807z" />
    <glyph glyph-name="bracketright" unicode="]" horiz-adv-x="811" 
d="M752 926q0 -899 -154 -1317q-279 58 -582 121q0 9 45 129q58 -13 125 -13q100 0 154 375q43 296 43 664q0 34 -2 76q-9 181 -45 308q-38 137 -92 152q-37 11 -74 11q-66 0 -127 -11l-27 133q20 0 291 33.5t322 42.5q123 -362 123 -704z" />
    <glyph glyph-name="asciicircum" unicode="^" horiz-adv-x="1008" 
d="M930 590q14 -18 -8 -31q-91 -52 -211 -76q-30 -6 -41 15q-121 207 -148 309q-105 -222 -291 -309q-50 49 -143 127q-11 7 8 24q132 121 188 192q61 77 130 214q30 -2 106 -2q51 0 113 10q12 2 18 -12q101 -236 279 -461z" />
    <glyph glyph-name="underscore" unicode="_" horiz-adv-x="1612" 
d="M1632 -285q0 -104 -4 -153q-133 4 -442 4q-769 0 -1198 -35q-2 16 -2 215q0 76 2 88q215 -18 821 -18q678 0 819 18q4 -31 4 -119z" />
    <glyph glyph-name="grave" unicode="`" horiz-adv-x="1075" 
d="M721 1098q0 -24 -2 -33q-3 -14 -23 -2q-49 29 -121 43q-58 11 -117 22q-65 14 -106 41q-123 82 -123 199q0 57 30 98q35 47 93 47q141 0 207 -100q69 -103 98 -194q24 -74 64 -121z" />
    <glyph glyph-name="a" unicode="a" horiz-adv-x="1712" 
d="M1716 -6q-47 33 -153 33q-128 0 -289 -42t-252 -98q35 168 35 224q0 17 -6 16q-4 -1 -13 -8q-168 -138 -401 -168q-111 -14 -188 -14q-228 0 -327 97q-89 87 -89 267q0 94 18 207q37 224 160 370q148 173 379 173q250 0 487 -230q0 50 -28 141q-31 97 -70 158
q492 75 680 144q18 -63 18 -127q0 -52 -12 -64q-147 -50 -147 -90v-2q0 -33 3 -104t3 -109q0 -321 -82 -530q66 41 157 41q48 0 89 -11zM1135 553q0 42 -84 70q-89 30 -232 30q-187 0 -360 -70q-168 -69 -168 -139q0 -56 119 -90q107 -30 254 -30q167 0 323 80
q148 77 148 149z" />
    <glyph glyph-name="b" unicode="b" horiz-adv-x="1616" 
d="M1583 672q0 -38 -8 -84q-43 -243 -166 -405q-142 -187 -342 -187q-246 0 -408 96q-1 -3 -1 -9q0 -41 51 -183q-227 108 -445 108q-136 0 -196 -51l6 233q32 15 76 15q73 0 153 -39q-135 495 -135 1235q0 78 -88 94q-32 5 -94 18q-25 8 -25 82q0 15 2 30t2 17
q55 -15 830 -77q-170 -376 -201 -781l78 98q60 70 134 112q98 57 230 75q62 8 123 8q237 0 345 -143q79 -105 79 -262zM1356 492q0 63 -142 116q-138 51 -290 51q-151 0 -271.5 -38.5t-120.5 -88.5q0 -57 142 -119.5t266 -62.5q145 0 271 36q145 42 145 106z" />
    <glyph glyph-name="c" unicode="c" horiz-adv-x="1485" 
d="M1497 713q0 -230 -348 -230q-174 0 -288 62q-107 58 -107 137q0 125 131 197q115 63 276 63q10 0 10 4q0 15 -74 39q-86 29 -177 29q-404 0 -404 -363q0 -39 6 -92q30 -253 108 -348q58 -70 167 -70q169 0 317 67q132 59 211 152q5 1 8 -6q-93 -393 -463 -442
q-93 -12 -190 -12q-649 0 -649 604q0 294 160 435q151 133 489 167q82 8 160 8q282 0 468 -100q165 -89 183 -211q6 -42 6 -90z" />
    <glyph glyph-name="d" unicode="d" horiz-adv-x="1577" 
d="M1593 27q-49 34 -147 34q-235 0 -483 -147q51 185 51 227q0 16 -8 9q-86 -77 -242 -121.5t-334 -44.5q-219 0 -314 90q-85 81 -85 252q0 82 18 194q35 210 147 348q143 176 375 176q123 0 256 -64q124 -60 217 -157q0 4 1.5 15.5t1.5 13.5q0 339 -285 661q355 49 790 123
q15 -48 15 -112q0 -47 -13 -62q-142 -46 -142 -104q0 -6 1 -12q51 -254 51 -472q0 -338 -123 -622q85 51 162 51q41 0 62 -10zM1102 553q0 44 -105 73q-92 25 -202 25q-176 0 -344 -67t-168 -135q0 -48 97 -80q102 -33 269 -33q155 0 307 78q146 74 146 139z" />
    <glyph glyph-name="e" unicode="e" horiz-adv-x="1481" 
d="M1470 618q0 -51 -4 -120q0 -12 -10 -9q-170 38 -557 101q-344 55 -360 55q-23 0 -23 -188q0 -237 104 -354q79 -89 203 -95q70 -3 129 21q23 9 23 18q0 6 -12 10q-131 24 -214 97.5t-83 175.5q0 64 72.5 103.5t197.5 39.5q86 0 182 -18q258 -50 258 -207q0 -44 -24 -90
q-67 -126 -166 -180q-144 -78 -438 -78q-338 0 -540 250q-173 213 -173 481q0 495 809 495q469 0 577 -235q49 -107 49 -273zM1087 848q0 56 -73 91.5t-193 35.5q-140 0 -243 -26q-121 -30 -121 -81q0 -129 413 -129q217 0 217 109z" />
    <glyph glyph-name="f" unicode="f" horiz-adv-x="1511" 
d="M1532 1210q0 -146 -266 -209q-123 -28 -224 -28q-114 0 -179.5 34t-65.5 91q0 196 254 274q84 26 84 43q0 37 -87 78q-91 43 -186 43q-225 0 -225 -432q0 -141 30 -318q26 -158 42 -174q110 -6 190 -6q95 0 117 12q4 19 4 48q0 37 -26 72l-56 65q132 55 260 74
q14 -32 14 -74q0 -30 -9 -91.5t-9 -90.5q0 -60 26 -173.5t48 -152.5q-52 -17 -104 -35q-67 -22 -99 -22q-22 0 -33 10q-14 13 -40 109q-22 80 -66 85q-71 11 -185 25q0 -46 110 -231q104 -174 224 -340h-57q-186 0 -350 -44q-180 -49 -217 -124l-86 215q69 55 172 55
q26 0 57 -6q-172 196 -281 483q-101 0 -276 -67q-12 79 -12 165q0 58 8 111q97 -39 229 -51q-92 289 -92 463q0 538 612 538q310 0 504 -97q149 -75 207 -191q39 -78 39 -136z" />
    <glyph glyph-name="g" unicode="g" horiz-adv-x="1540" 
d="M1544 1034l-22 -225q-31 -10 -56 -10q-61 0 -139 43q166 -294 166 -637q0 -84 -12 -164q-46 -299 -192 -416q-170 -137 -580 -137q-354 0 -539 124q-110 75 -143 177q-25 77 -25 127q0 152 252 201q106 20 207 20q144 0 233 -41q86 -41 86 -106q0 -148 -198 -215
q-132 -45 -156 -56q-47 -22 -47 -47q0 -37 158 -37q197 0 337 70q117 58 170 282q35 150 35 324q0 41 -4 62q-33 -78 -162 -125q-115 -41 -254 -41q-210 0 -332 149q-90 109 -116 273q-23 141 -23 209q0 130 64 191q73 71 248 71q82 0 207 -19q214 -31 319 -123q10 -8 10 5
q0 30 -39 178q223 -135 426 -135q81 0 121 28zM1128 575q0 65 -141 132q-126 59 -258 59q-128 0 -212 -24q-95 -27 -95 -76q0 -59 140.5 -116.5t295.5 -57.5q122 0 196 23.5t74 59.5z" />
    <glyph glyph-name="h" unicode="h" horiz-adv-x="1581" 
d="M1579 -90q-12 -33 -35 -100q-189 44 -586 133q93 179 93 460q0 173 -21 235q-19 58 -72 58q-89 0 -178 -111q-91 -115 -125 -278q2 -97 93 -366q-216 98 -429 98q-143 0 -225 -53l2 237q33 15 82 15q71 0 150 -37q-72 232 -119 635q-41 347 -41 585q0 53 -35 75
q-21 14 -82 24q-31 5 -71 12q-25 5 -25 88q0 33 4 41q71 -12 412 -35l434 -29q-184 -463 -184 -958q0 -66 4 -131q72 242 218 438q116 154 234 230q80 51 144 51q113 0 170 -162q47 -132 47 -336q0 -97 -6 -156q-33 -309 -33 -421q0 -140 28 -197q74 -30 152 -45z" />
    <glyph glyph-name="i" unicode="i" horiz-adv-x="1020" 
d="M1022 1393q0 -67 -154 -114q-136 -42 -288 -42q-142 0 -233 53q-105 62 -105 178q0 150 346 150q192 0 317 -71q117 -66 117 -154zM1030 -25q-203 37 -432 37q-221 0 -618 -73q15 74 34 172q160 19 208.5 76.5t81.5 213.5q32 148 32 289q0 150 -127 150q-40 0 -76 -9
q-55 121 -55 173q410 3 766 135q4 -3 4 -17q0 -22 -10 -80q-64 -354 -64 -589q0 -163 39 -213q24 -31 68 -31q50 0 114 27q18 7 21 -17q11 -87 14 -244z" />
    <glyph glyph-name="j" unicode="j" horiz-adv-x="1395" 
d="M1378 1327q0 -74 -164 -119q-137 -39 -290 -39q-138 0 -227 56q-99 63 -99 176q0 147 342 147q183 0 312 -65q126 -64 126 -152v-4zM1272 342q0 -325 -83 -513q-100 -226 -310 -226q-389 0 -595 113q-224 122 -288 403q-6 27 -6 51q0 113 111 183q99 61 229 61
q360 0 360 -211q0 -130 -81 -217q-69 -73 -216 -131q-22 -9 -22 -23q0 -31 74 -62q83 -34 194 -34q115 0 156 120q24 71 24 218q0 155 -31 333q-27 160 -55 216q-91 184 -291 184q-59 0 -157 -25q-18 26 -38 79t-20 75h23q102 0 397 29q310 31 529 65q11 0 14 -10
q11 -33 51 -295q31 -199 31 -383z" />
    <glyph glyph-name="k" unicode="k" horiz-adv-x="1737" 
d="M1726 846q0 -164 -251 -221q-109 -25 -201 -25q-244 0 -244 133q0 102 109 178q37 27 98 51q83 33 100 42q23 11 23 24q0 21 -62 21q-39 0 -88 -11q-176 -37 -320 -222q-96 -124 -134 -238q45 4 69 4q301 0 573 -156q308 -175 322 -434l-725 4q-8 20 -8 53q0 43 21 49
q86 25 100 32q53 23 53 58q0 10 -6 25q-46 113 -199 170q-118 45 -258 45h-36q0 -51 73 -258q64 -184 101 -260q-128 62 -303 106q-181 45 -310 45q-112 0 -151 -36l6 235q32 12 76 12q75 0 155 -39q-70 194 -116 525q-43 303 -43 536q0 6 1 27t1 35q0 44 -54.5 73
t-130.5 33q-16 1 -16 107q414 21 829 69q-174 -436 -174 -852q0 -104 10 -178q49 150 122 262q175 269 440 308q71 10 125 10q169 0 273 -80q66 -50 120 -152q30 -58 30 -110z" />
    <glyph glyph-name="l" unicode="l" horiz-adv-x="840" 
d="M758 -66q-133 58 -264 58q-175 0 -369 -94q-14 -7 -18 -5q-5 3 -1 19q132 532 132 872q0 297 -76 570q-12 41 -56 58q-34 12 -116 18q-38 34 -31 163q6 -2 35 -2q148 0 653 56q68 -238 68 -529q0 -536 -201 -934q72 35 145 35q58 0 99 -18v-267z" />
    <glyph glyph-name="m" unicode="m" horiz-adv-x="2451" 
d="M2431 711q0 -289 -363 -572l273 -43q21 -28 57 -88q-78 4 -291 4q-197 0 -428 -4q73 85 155 280q89 212 89 333q0 102 -70 102q-114 0 -243 -192q-105 -156 -170 -353q0 -199 26 -250q41 -16 136 -37q-11 -19 -39 -98l-545 125q96 188 96 481q0 133 -5 168
q-17 121 -83 121q-25 0 -65 -20q-166 -83 -242 -383q2 -95 92 -361q-216 99 -469 99q-165 0 -227 -54l4 232q32 12 78 12q76 0 149 -33q-84 202 -151 699q-10 67 -76 79q-61 3 -121 7q-37 5 -37 122h21q114 0 802 37q-106 -216 -106 -483q0 -58 6 -98q119 392 455 602
q88 55 153 55q187 0 187 -418q0 -123 -13 -221q95 163 211 279q201 198 416 198q146 0 242 -91.5t96 -235.5z" />
    <glyph glyph-name="n" unicode="n" horiz-adv-x="1569" 
d="M1604 -115q-15 -39 -37 -98l-615 115q103 164 103 510v92q-7 164 -86 164q-25 0 -66 -21q-167 -84 -237 -366q2 -97 92 -365q-228 102 -457 102q-152 0 -211 -53l2 236q32 14 80 14q71 0 150 -37q-56 79 -101 392q-27 194 -37 343q-5 80 -96 95q-30 3 -88 14
q-27 8 -27 88q0 25 4 41q19 -10 791 -61q-129 -204 -129 -537q122 377 444 586q89 57 156 57q117 0 174 -158q47 -128 47 -331q0 -78 -8 -156q-29 -274 -29 -422q0 -139 27 -192q56 -22 154 -52z" />
    <glyph glyph-name="o" unicode="o" horiz-adv-x="1442" 
d="M1409 698q0 -94 -23 -227q-40 -236 -176 -394q-176 -204 -469 -204q-266 0 -481 170q-227 180 -227 432q0 198 170 376q193 202 502 241q99 12 229 12q260 0 373 -106q102 -96 102 -300zM1237 553q0 77 -128 121q-116 39 -298 39q-200 0 -389 -110q-178 -104 -178 -197
q0 -64 114 -107t277 -43q206 0 404 97t198 200z" />
    <glyph glyph-name="p" unicode="p" horiz-adv-x="1575" 
d="M1544 733q0 -83 -18 -194q-33 -201 -157 -329q-145 -151 -378 -151q-263 0 -444 185q51 -233 66 -288q48 -170 135 -364q-562 -76 -732 -112q-12 49 -12 84q0 44 14 49q170 58 170 131q0 -5 -6 80.5t-6 210.5q0 476 82 762q-84 -52 -164 -52q-32 0 -55 9l-23 247
q59 -18 146 -18q242 0 473 123q-41 -149 -41 -195q171 117 373 142q100 12 186 12q215 0 308 -87q83 -78 83 -245zM1268 604q0 49 -98 79q-101 32 -273 32q-141 0 -286.5 -74.5t-145.5 -140.5q0 -37 70 -64q82 -30 229 -30q178 0 341 65t163 133z" />
    <glyph glyph-name="q" unicode="q" horiz-adv-x="1612" 
d="M1630 -438q0 -39 -39 -92q-44 9 -414 61q-351 49 -393 53q137 214 194 344q75 169 75 314q-183 -187 -453 -187q-258 0 -408 179q-110 130 -137 311q-16 109 -16 194q0 172 84 253q94 89 313 89q88 0 191 -12q225 -27 379 -147q0 49 -45 208q259 -133 522 -133
q81 0 139 21l-25 -242q-23 -8 -55 -8q-80 0 -166 53q88 -214 88 -663q0 -191 -24 -426q-5 -50 43 -86q40 -31 137 -66q10 -2 10 -18zM1126 506q0 67 -150 142q-156 77 -310 77q-143 0 -244 -29q-113 -33 -113 -88q0 -74 172 -138q163 -62 326 -62q119 0 210 23
q109 27 109 75z" />
    <glyph glyph-name="r" unicode="r" horiz-adv-x="1577" 
d="M1597 702q0 -140 -254 -206q-147 -39 -266 -39q-217 0 -217 118q0 134 112 227q89 74 226 107q12 3 12 17q0 23 -50 49q-57 29 -132 29q-136 0 -239 -76q-127 -94 -127 -266q0 -142 90 -433q8 -25 104 -45q106 -21 268 -32q-14 -63 -34 -152q-39 2 -115 2
q-460 0 -909 -115q-30 45 -50 142q-2 11 11 16q120 50 122 50q53 28 56 67q13 105 26 209q23 202 23 313q0 120 -27 139q-33 25 -96 25q-23 0 -82 -10q-16 -3 -16 4q0 15 -12.5 108.5t-12.5 104.5q0 14 17 10q85 -23 172 -23q212 0 442 154q-13 -79 -33 -205
q160 150 445 150q387 0 510 -291q36 -88 36 -148z" />
    <glyph glyph-name="s" unicode="s" horiz-adv-x="1524" 
d="M1462 362q0 -41 -6 -81q-29 -191 -283 -297q-235 -99 -593 -99q-245 0 -400 68q-133 58 -162 143q-20 61 -20 103q0 145 276 182q93 12 172 12q144 0 228 -36t84 -99q0 -66 -61 -117q-76 -64 -230 -86q-92 -13 -92 -39q0 -28 162 -28q63 0 112 6q141 17 207 49
q100 47 96 141q-13 305 -301 305q-29 0 -117.5 -7t-125.5 -7q-302 0 -302 207q0 49 9 88q33 159 181 254q170 109 460 109q281 0 415 -51q117 -44 156 -142q25 -61 25 -96q0 -113 -240 -129q-45 -2 -98 -2q-318 0 -318 110q0 96 111 144q14 6 166 43q18 4 18 14
q0 35 -155 35q-295 0 -295 -176q0 -41 16 -88q37 -106 116 -148q65 -35 179 -35q39 0 126 5.5t130 5.5q168 0 252 -51q102 -61 102 -210z" />
    <glyph glyph-name="t" unicode="t" horiz-adv-x="1614" 
d="M1573 428q0 -63 -51 -156q-155 -279 -742 -307q-85 -4 -100 -4q-232 0 -342 80q-135 98 -135 342q0 259 153 625q-132 -6 -336 -52q-12 -2 -16 13q-2 8 -2 55q0 134 27 217q127 -55 331 -65q-3 81 -26 182q-23 97 -23 100q0 9 3 10.5t8 1.5q66 0 311 20t371 36q21 2 22 0
q0 -5 -74 -126q-87 -142 -131 -247h68q255 2 262.5 23.5t7.5 44.5q0 67 -74 122q183 100 246 105q19 -32 19 -96q0 -27 -3.5 -79t-3.5 -73q0 -57 33 -170.5t70 -189.5q-42 -20 -84 -39q-66 -29 -98 -29q-19 0 -27 8q-12 8 -55 109q-41 94 -92 98q-26 2 -314 2
q-19 -15 -49 -192q-35 -197 -35 -365q0 -356 160 -356q84 0 190.5 46t106.5 79q0 10 -10 16q-60 14 -203 78q-133 79 -133 215q0 63 71 103q76 42 207 42q97 0 222 -26q270 -58 270 -201z" />
    <glyph glyph-name="u" unicode="u" horiz-adv-x="1618" 
d="M1686 1096q0 -92 -15 -103q-82 17 -143 17q-81 0 -88 -37q-21 -101 -41 -298q-23 -218 -23 -356v-43q56 27 125 27q61 0 113 -18l14 -164h-22q-125 0 -339 -89q-162 -67 -311 -155q-22 -13 -24 -12q-6 2 2 35q39 158 53 311q-139 -161 -305 -239q-129 -60 -246 -60
q-144 0 -236 68q-102 76 -102 213q0 221 152 443q106 154 258 275q-14 0 -44 1t-44 1q-175 0 -359 -14q12 23 80 162q246 -19 434 -19q87 0 369 9q-128 -158 -218 -355q-95 -208 -95 -346q0 -80 37 -129q34 -45 84 -45q94 0 208 273q120 289 148 641q7 87 8 129
q90 -22 570 -123z" />
    <glyph glyph-name="v" unicode="v" horiz-adv-x="1538" 
d="M1776 1192q-10 -88 -27 -178q-29 19 -158 88q-161 -110 -264 -475q-81 -290 -118 -694l-3 -35q-2 -27 -22 -23q-235 45 -465 45h-57q-313 505 -424 868q-21 -17 -98 -37t-122 -20q-14 0 -12 14q10 64 23 189q0 12 12 12q3 0 32.5 -1t45.5 -1q224 0 663 115q-2 -31 -2 -88
q0 -491 246 -742q209 726 209 916q0 34 -41 49q-51 18 -193 18q13 44 31 123q2 11 12 11q362 -74 707 -129q27 -5 25 -25z" />
    <glyph glyph-name="w" unicode="w" horiz-adv-x="2327" 
d="M2255 328q0 -147 -93.5 -236.5t-236.5 -89.5q-217 0 -412 197q-81 82 -192 258v-45q0 -256 -98 -401q-111 -163 -332 -163q-107 0 -229 35q-592 169 -592 514q0 237 288 564q-18 -5 -55 -5q-104 0 -190 56l53 219q101 -85 269 -136t343 -51q31 0 45 3
q-104 -132 -179 -314q-85 -205 -85 -371q0 -125 54.5 -221t129.5 -96q77 0 139 130q58 122 76 300q19 175 19 348q0 200 -23 316q154 35 516 125q5 -25 21 -117q-21 -10 -137 -55q-33 -45 -33 -193v-53q9 -85 117 -267q132 -223 254 -223q73 0 73 105q0 116 -84 316
q-78 185 -149 267h704l-55 -88l-260 -41q334 -308 334 -587z" />
    <glyph glyph-name="x" unicode="x" horiz-adv-x="1665" 
d="M1665 -2q-507 -66 -842 -137q-33 56 -94 164q71 0 138 11q83 15 83 40q0 96 -184 264q-131 -115 -299 -268q-12 -13 -12 -27q0 -39 67 -100q10 -9 -4 -23q-29 -27 -78 -78q-87 31 -276 88q-80 24 -223 66q104 80 349 251q227 160 347 255q-315 346 -424 399q-21 10 -41 2
q-36 -15 -115 -59q-11 76 -34 184q237 22 411 60q148 32 373 122q21 -70 57 -182h-45q-106 0 -106 -20t75 -121q68 -91 121 -150q133 114 172 151q55 52 88 99q15 21 15 49q0 52 -43 70q-15 6 -2 29l41 69q81 -26 238.5 -91t238.5 -91q-335 -210 -619 -442q84 -79 199 -205
q96 -105 193 -210q41 -44 65 -44q34 0 127 29q4 -16 43 -154z" />
    <glyph glyph-name="y" unicode="y" horiz-adv-x="1745" 
d="M1821 936l-11 -117q-134 44 -157 43q-37 -2 -60 -125q-17 -91 -41 -350q-25 -273 -55 -373q-63 -207 -174 -293q-144 -110 -449 -110q-467 0 -673 139q-65 44 -111 136q-45 89 -45 167q0 102 105 156q99 51 272 51q178 0 299 -66q110 -60 110 -135q0 -152 -213 -213
q-18 -5 -152 -31q-73 -15 -73 -34q0 -43 221 -43q166 0 236 37q117 62 182 198q47 97 47 164q-3 24 -341 285q-346 268 -457 326q-38 0 -226 -101q-16 -9 -16 8q0 42 1 109t1 88v57q497 81 762 221q25 -45 78 -135q-50 -13 -168 -30q0 -108 195 -297q165 -159 280 -217
q55 82 142 272q85 186 85 221q-210 -1 -305 4q15 63 55 203q292 -11 656 -215z" />
    <glyph glyph-name="z" unicode="z" horiz-adv-x="1686" 
d="M1679 219q0 -131 -141 -227q-159 -107 -424 -107q-117 0 -347.5 37t-348.5 37q-167 0 -410 -41q-8 -1 -10.5 2t-1.5 12q34 263 134 415q138 210 425 282q291 73 379 121q137 74 160 227q-85 3 -230 53q-113 39 -198 39q-58 0 -106 -12.5t-48 -26.5q0 -17 115 -31
q78 -9 123 -49.5t45 -95.5q0 -66 -129 -105q-119 -35 -304 -34q-221 1 -221 153q0 118 121 192q144 89 426 89q127 0 309.5 -35t302.5 -35q87 0 207 17q11 1 15 -4.5t4 -16.5q-13 -285 -156 -426q-123 -121 -389 -172q-176 -33 -307 -161q-107 -104 -131 -207q18 2 53 2
q106 0 273 -51.5t270 -51.5q143 0 143 39q0 24 -66 40l-126 24q-187 34 -187 161q0 65 106.5 109.5t274.5 44.5q395 0 395 -207z" />
    <glyph glyph-name="braceleft" unicode="{" horiz-adv-x="1106" 
d="M1085 -354q-103 -95 -239 -95q-183 0 -310 175q-136 188 -190 555q-17 118 -144 203q-103 69 -171 69l-19 106q81 22 167 100q119 105 132 240q37 366 158 497q109 118 365 118q143 0 204 -45l-20 -88h-84q-133 0 -207 -127q-70 -120 -70 -324q0 -186 -156 -299
q-125 -91 -292 -106q482 -28 500 -410q25 -537 217 -537q64 0 123 64q36 -86 36 -96z" />
    <glyph glyph-name="bar" unicode="|" horiz-adv-x="668" 
d="M514 1114q0 -683 -102 -1507q-152 -6 -228 -6q67 700 66 1038q0 441 -78 958l322 33q20 -225 20 -516z" />
    <glyph glyph-name="braceright" unicode="}" horiz-adv-x="1106" 
d="M1081 711q-6 -37 -14 -109q-284 -76 -307 -280q-81 -719 -490 -719q-153 0 -227 88q20 64 33 92q73 -57 131 -57q84 0 134 114q58 134 58 402q0 213 161 325q125 88 325 103q-161 14 -279 83q-176 104 -184 304q-8 185 -83 302q-78 120 -198 120q-69 0 -118 -6
q-8 32 -23 90q116 51 229 51q271 0 379 -110q116 -117 162 -464q31 -230 311 -329z" />
    <glyph glyph-name="asciitilde" unicode="~" horiz-adv-x="1100" 
d="M1053 1008q0 -109 -51 -235q-77 -193 -228 -193q-116 0 -272 106q-111 76 -180 76q-71 0 -120 -42.5t-102 -146.5q-44 11 -73 29q25 161 112 274q98 125 230 125q84 0 196 -67q170 -103 240 -103q88 0 180 193z" />
    <glyph glyph-name="Adieresis" unicode="&#xc4;" horiz-adv-x="1880" 
d="M1931 174q-32 -59 -100 -178q-164 8 -229 8q-225 0 -492 -45q25 172 25 340q0 185 -31 289q-165 16 -514 55q-33 -117 -76 -235q-49 -135 -106 -230q59 -14 305 -26q-19 -129 -19 -236q-227 76 -424 125q-131 33 -336 70q28 36 68 92l53 73q36 -15 115 -51
q151 208 272 604q128 415 138 682q149 18 276 45q131 29 283 80q148 -241 325 -727q81 -235 215 -622q19 -52 111 -81q71 -16 141 -32zM1167 1069q0 137 -186 137q-135 0 -244 -72q-114 -75 -114 -173q0 -130 223 -130q321 0 321 238zM1385 1802q0 -51 -84 -81
q-75 -27 -180 -27q-81 0 -133 38q-58 42 -58 115q0 109 209 109q96 0 171 -47.5t75 -106.5zM828 1800q0 -52 -92 -83q-77 -25 -174 -25q-79 0 -131 39q-56 42 -56 114q0 109 209 109q100 0 174 -50q70 -47 70 -104z" />
    <glyph glyph-name="Aring" unicode="&#xc5;" horiz-adv-x="1880" 
d="M1053 1882q0 -89 -51 -155q-66 -84 -193 -84q-100 0 -161 70q-56 64 -56 157t61 156q65 69 173 69q105 0 169 -69q58 -61 58 -144zM907 1870q0 82 -81 82q-84 0 -84 -82q0 -84 86 -84q34 0 56.5 24.5t22.5 59.5zM1931 174q-32 -59 -100 -178q-164 8 -229 8
q-225 0 -492 -45q25 172 25 340q0 185 -31 289q-165 16 -514 55q-33 -117 -76 -235q-49 -135 -106 -230q59 -14 305 -26q-19 -129 -19 -236q-227 76 -424 125q-131 33 -336 70q28 36 68 92l53 73q36 -15 115 -51q151 208 272 604q128 415 138 682q149 18 276 45
q131 29 283 80q148 -241 325 -727q81 -235 215 -622q19 -52 111 -81q71 -16 141 -32zM1167 1069q0 137 -186 137q-135 0 -244 -72q-114 -75 -114 -173q0 -130 223 -130q321 0 321 238z" />
    <glyph glyph-name="Ccedilla" unicode="&#xc7;" horiz-adv-x="1509" 
d="M1511 1073q0 -125 -71 -176t-250 -51q-206 0 -334 58q-123 56 -123 140q0 44 35 107q61 111 203 141q80 8 159 17q11 6 11 14q0 39 -98 94q-110 62 -228 62q-167 0 -253 -127q-75 -109 -75 -287q0 -88 17 -184q70 -415 166 -573q77 -128 202 -128q46 0 93 8
q166 29 260 128q46 48 137 210q12 8 12 2q6 -49 6 -84q0 -177 -76 -313q-100 -179 -305 -215q-164 -29 -288 -29q-668 0 -668 867q0 420 214 633q193 192 534 192q386 0 575 -175q145 -134 145 -331zM1047 -301q0 -104 -69 -183q-80 -93 -216 -93q-82 0 -151 40
q-85 50 -113 146q48 22 80 27q52 -70 166 -70q178 0 178 82q0 66 -125 66q-75 0 -147 -35q-91 33 -109 100q52 58 129 156l164 -8q-39 -35 -129 -113l4 -8q51 39 133 39q87 0 146 -42t59 -104z" />
    <glyph glyph-name="Eacute" unicode="&#xc9;" horiz-adv-x="1755" 
d="M1729 442q0 -22 -3 -32q-29 -266 -237 -375q-157 -82 -442 -82q-44 0 -369 16q-56 3 -198 18q-121 13 -183 13q-126 0 -195 -49l7 256q32 16 79 16q71 0 158 -41q-136 396 -143 1161q-1 69 -58 91q-58 9 -135 29q-22 12 -22 85q0 45 6 56q88 -30 417 -64q334 -35 552 -35
q248 0 602 15q-55 -103 -94 -223q-28 -101 -56 -201q-14 -1 -67 -6q-42 -5 -66 -5q-20 0 -22 13q-8 142 -46 200q-56 88 -313 88q-20 0 -201 -8q-59 -138 -59 -336q0 -36 3 -99t3 -89q79 6 136 12q138 16 143 31q8 26 8 53q0 45 -32 83l-54 54q46 25 87 43q99 42 161 44
q20 -41 20 -113q0 -22 -3 -66t-3 -65q0 -73 41 -246q4 -18 0 -23q-3 -3 -12 -2q-84 12 -288 20q-94 4 -187 7q19 -346 149 -475q113 -113 379 -113q84 0 158 33q65 29 65 51q0 11 -22 11q-18 0 -48 -2.5t-51 -2.5q-195 0 -256 150q-10 25 -10 51q0 78 96 139q102 65 287 93
q55 8 96 8q222 0 222 -187zM1108 1952q0 -116 -125 -199q-44 -29 -124 -45q-129 -26 -138 -28q-48 -14 -71 -29q-17 -8 -21 -8q-13 0 -12 39q32 37 55 102q49 139 105 213q75 100 206 100q59 0 91 -43q34 -46 34 -102z" />
    <glyph glyph-name="Ntilde" unicode="&#xd1;" horiz-adv-x="1690" 
d="M1655 -115q-8 -24 -37 -102q-44 8 -316 80q-253 67 -286 78q131 285 131 677q0 162 -40.5 274t-102.5 112q-75 0 -178 -135q-112 -146 -152 -330q0 -151 102 -600q-215 90 -444 90q-175 0 -236 -64l-10 246q37 20 94 20q70 0 139 -30q-126 338 -126 907q0 40 4 117t4 114
q0 66 -78 84q-34 6 -113 21q-24 5 -24 94q0 18 6 43q95 -17 815 -74q-166 -228 -166 -589q0 -48 4 -80q60 230 206 417q118 151 270 247q128 81 204 81q131 0 199 -168q61 -151 61 -407q0 -161 -55 -475.5t-55 -473.5q0 -70 14 -110q39 -17 166 -64zM1280 1915
q-79 -303 -221 -303q-98 0 -242 117q-103 84 -147 84q-38 0 -75 -44q-12 -15 -79 -116q-53 27 -53 47q21 122 93 219q76 103 157 103q78 0 200 -99q50 -40 101.5 -80t83.5 -40q34 0 63 40q33 54 66 107q30 -12 53 -35z" />
    <glyph glyph-name="Odieresis" unicode="&#xd6;" 
d="M1628 997q0 -187 -96 -440q-111 -291 -278 -474q-228 -249 -523 -249q-271 0 -476 237q-212 246 -212 593q0 331 219 574q241 267 625 267q741 0 741 -508zM1356 719q0 140 -158 236q-154 96 -371 96q-196 0 -382 -110q-195 -115 -195 -253q0 -161 181 -267
q157 -91 335 -91q224 0 409 127q181 123 181 262zM1374 1751q0 -51 -84 -81q-75 -27 -180 -27q-81 0 -133 38q-58 42 -58 115q0 109 209 109q96 0 171 -47.5t75 -106.5zM817 1749q0 -52 -92 -83q-77 -25 -174 -25q-79 0 -131 39q-56 42 -56 114q0 109 209 109q100 0 174 -50
q70 -47 70 -104z" />
    <glyph glyph-name="Udieresis" unicode="&#xdc;" horiz-adv-x="1753" 
d="M1749 1479q0 -52 -8 -101q-26 1 -76 9q-46 8 -63 8q-40 0 -41 -33q-23 -485 -24 -498q-20 -303 -67 -565q77 45 162 45q52 0 94 -14l15 -195q-9 0 -27.5 1t-27.5 1q-151 0 -353 -70q-183 -63 -307 -145q-21 -14 -34 -11q-11 3 -9 15q59 308 59 410q-149 -201 -347 -301
q-155 -78 -296 -78q-162 0 -259 97q-103 102 -103 284q0 291 185 583q120 190 286 339q-207 -4 -406 -23q-13 0 -10 8q55 109 74 164q3 9 14 8q255 -12 418 -12q157 0 363 6q-170 -229 -283 -493q-117 -272 -117 -453q0 -96 42 -157.5t114 -61.5q107 0 218 198
q118 209 181 543q53 282 53 555q0 17 -1 42t-1 28q0 20 27 14q192 -52 555 -147zM1503 1782q0 -51 -84 -81q-75 -27 -180 -27q-81 0 -133 38q-58 42 -58 115q0 109 209 109q96 0 171 -47.5t75 -106.5zM946 1780q0 -52 -92 -83q-77 -25 -174 -25q-79 0 -131 39
q-56 42 -56 114q0 109 209 109q100 0 174 -50q70 -47 70 -104z" />
    <glyph glyph-name="aacute" unicode="&#xe1;" horiz-adv-x="1712" 
d="M1716 -6q-47 33 -153 33q-128 0 -289 -42t-252 -98q35 168 35 224q0 17 -6 16q-4 -1 -13 -8q-168 -138 -401 -168q-111 -14 -188 -14q-228 0 -327 97q-89 87 -89 267q0 94 18 207q37 224 160 370q148 173 379 173q250 0 487 -230q0 50 -28 141q-31 97 -70 158
q492 75 680 144q18 -63 18 -127q0 -52 -12 -64q-147 -50 -147 -90v-2q0 -33 3 -104t3 -109q0 -321 -82 -530q66 41 157 41q48 0 89 -11zM1135 553q0 42 -84 70q-89 30 -232 30q-187 0 -360 -70q-168 -69 -168 -139q0 -56 119 -90q107 -30 254 -30q167 0 323 80
q148 77 148 149zM1042 1532q0 -116 -125 -199q-44 -29 -124 -45q-129 -26 -138 -28q-48 -14 -71 -29q-17 -8 -21 -8q-13 0 -12 39q32 37 55 102q49 139 105 213q75 100 206 100q59 0 91 -43q34 -46 34 -102z" />
    <glyph glyph-name="agrave" unicode="&#xe0;" horiz-adv-x="1712" 
d="M1716 -6q-47 33 -153 33q-128 0 -289 -42t-252 -98q35 168 35 224q0 17 -6 16q-4 -1 -13 -8q-168 -138 -401 -168q-111 -14 -188 -14q-228 0 -327 97q-89 87 -89 267q0 94 18 207q37 224 160 370q148 173 379 173q250 0 487 -230q0 50 -28 141q-31 97 -70 158
q492 75 680 144q18 -63 18 -127q0 -52 -12 -64q-147 -50 -147 -90v-2q0 -33 3 -104t3 -109q0 -321 -82 -530q66 41 157 41q48 0 89 -11zM1135 553q0 42 -84 70q-89 30 -232 30q-187 0 -360 -70q-168 -69 -168 -139q0 -56 119 -90q107 -30 254 -30q167 0 323 80
q148 77 148 149zM1047 1260q0 -24 -2 -33q-3 -14 -23 -2q-49 29 -121 43q-58 11 -117 22q-65 14 -106 41q-123 82 -123 199q0 57 30 98q35 47 93 47q141 0 207 -100q69 -103 98 -194q24 -74 64 -121z" />
    <glyph glyph-name="acircumflex" unicode="&#xe2;" horiz-adv-x="1712" 
d="M1716 -6q-47 33 -153 33q-128 0 -289 -42t-252 -98q35 168 35 224q0 17 -6 16q-4 -1 -13 -8q-168 -138 -401 -168q-111 -14 -188 -14q-228 0 -327 97q-89 87 -89 267q0 94 18 207q37 224 160 370q148 173 379 173q250 0 487 -230q0 50 -28 141q-31 97 -70 158
q492 75 680 144q18 -63 18 -127q0 -52 -12 -64q-147 -50 -147 -90v-2q0 -33 3 -104t3 -109q0 -321 -82 -530q66 41 157 41q48 0 89 -11zM1135 553q0 42 -84 70q-89 30 -232 30q-187 0 -360 -70q-168 -69 -168 -139q0 -56 119 -90q107 -30 254 -30q167 0 323 80
q148 77 148 149zM1198 1268q-57 -55 -213 -90q-134 179 -168 270q-35 -83 -115 -166q-84 -87 -143 -96l-156 143q243 161 319 295q16 29 56 25q50 -4 137 -15q38 -8 47 -30q74 -186 236 -336z" />
    <glyph glyph-name="adieresis" unicode="&#xe4;" horiz-adv-x="1712" 
d="M1716 -6q-47 33 -153 33q-128 0 -289 -42t-252 -98q35 168 35 224q0 17 -6 16q-4 -1 -13 -8q-168 -138 -401 -168q-111 -14 -188 -14q-228 0 -327 97q-89 87 -89 267q0 94 18 207q37 224 160 370q148 173 379 173q250 0 487 -230q0 50 -28 141q-31 97 -70 158
q492 75 680 144q18 -63 18 -127q0 -52 -12 -64q-147 -50 -147 -90v-2q0 -33 3 -104t3 -109q0 -321 -82 -530q66 41 157 41q48 0 89 -11zM1135 553q0 42 -84 70q-89 30 -232 30q-187 0 -360 -70q-168 -69 -168 -139q0 -56 119 -90q107 -30 254 -30q167 0 323 80
q148 77 148 149zM1301 1335q0 -51 -84 -81q-75 -27 -180 -27q-81 0 -133 38q-58 42 -58 115q0 109 209 109q96 0 171 -47.5t75 -106.5zM744 1333q0 -52 -92 -83q-77 -25 -174 -25q-79 0 -131 39q-56 42 -56 114q0 109 209 109q100 0 174 -50q70 -47 70 -104z" />
    <glyph glyph-name="atilde" unicode="&#xe3;" horiz-adv-x="1712" 
d="M1716 -6q-47 33 -153 33q-128 0 -289 -42t-252 -98q35 168 35 224q0 17 -6 16q-4 -1 -13 -8q-168 -138 -401 -168q-111 -14 -188 -14q-228 0 -327 97q-89 87 -89 267q0 94 18 207q37 224 160 370q148 173 379 173q250 0 487 -230q0 50 -28 141q-31 97 -70 158
q492 75 680 144q18 -63 18 -127q0 -52 -12 -64q-147 -50 -147 -90v-2q0 -33 3 -104t3 -109q0 -321 -82 -530q66 41 157 41q48 0 89 -11zM1135 553q0 42 -84 70q-89 30 -232 30q-187 0 -360 -70q-168 -69 -168 -139q0 -56 119 -90q107 -30 254 -30q167 0 323 80
q148 77 148 149zM1206 1493q-79 -303 -221 -303q-98 0 -242 117q-103 84 -147 84q-38 0 -75 -44q-12 -15 -79 -116q-53 27 -53 47q21 122 93 219q76 103 157 103q78 0 200 -99q50 -40 101.5 -80t83.5 -40q34 0 63 40q33 54 66 107q30 -12 53 -35z" />
    <glyph glyph-name="aring" unicode="&#xe5;" horiz-adv-x="1712" 
d="M1043 1427q0 -89 -51 -155q-66 -84 -193 -84q-100 0 -161 70q-56 64 -56 157t61 156q65 69 173 69q105 0 169 -69q58 -61 58 -144zM897 1415q0 82 -81 82q-84 0 -84 -82q0 -84 86 -84q34 0 56.5 24.5t22.5 59.5zM1716 -6q-47 33 -153 33q-128 0 -289 -42t-252 -98
q35 168 35 224q0 17 -6 16q-4 -1 -13 -8q-168 -138 -401 -168q-111 -14 -188 -14q-228 0 -327 97q-89 87 -89 267q0 94 18 207q37 224 160 370q148 173 379 173q250 0 487 -230q0 50 -28 141q-31 97 -70 158q492 75 680 144q18 -63 18 -127q0 -52 -12 -64q-147 -50 -147 -90
v-2q0 -33 3 -104t3 -109q0 -321 -82 -530q66 41 157 41q48 0 89 -11zM1135 553q0 42 -84 70q-89 30 -232 30q-187 0 -360 -70q-168 -69 -168 -139q0 -56 119 -90q107 -30 254 -30q167 0 323 80q148 77 148 149z" />
    <glyph glyph-name="ccedilla" unicode="&#xe7;" horiz-adv-x="1485" 
d="M1497 713q0 -230 -348 -230q-174 0 -288 62q-107 58 -107 137q0 125 131 197q115 63 276 63q10 0 10 4q0 15 -74 39q-86 29 -177 29q-404 0 -404 -363q0 -39 6 -92q30 -253 108 -348q58 -70 167 -70q169 0 317 67q132 59 211 152q5 1 8 -6q-93 -393 -463 -442
q-93 -12 -190 -12q-649 0 -649 604q0 294 160 435q151 133 489 167q82 8 160 8q282 0 468 -100q165 -89 183 -211q6 -42 6 -90zM1016 -282q0 -104 -69 -183q-80 -93 -216 -93q-82 0 -151 40q-85 50 -113 146q48 22 80 27q52 -70 166 -70q178 0 178 82q0 66 -125 66
q-75 0 -147 -35q-91 33 -109 100q52 58 129 156l164 -8q-39 -35 -129 -113l4 -8q51 39 133 39q87 0 146 -42t59 -104z" />
    <glyph glyph-name="eacute" unicode="&#xe9;" horiz-adv-x="1481" 
d="M1470 618q0 -51 -4 -120q0 -12 -10 -9q-170 38 -557 101q-344 55 -360 55q-23 0 -23 -188q0 -237 104 -354q79 -89 203 -95q70 -3 129 21q23 9 23 18q0 6 -12 10q-131 24 -214 97.5t-83 175.5q0 64 72.5 103.5t197.5 39.5q86 0 182 -18q258 -50 258 -207q0 -44 -24 -90
q-67 -126 -166 -180q-144 -78 -438 -78q-338 0 -540 250q-173 213 -173 481q0 495 809 495q469 0 577 -235q49 -107 49 -273zM1087 848q0 56 -73 91.5t-193 35.5q-140 0 -243 -26q-121 -30 -121 -81q0 -129 413 -129q217 0 217 109zM964 1534q0 -116 -125 -199
q-44 -29 -124 -45q-129 -26 -138 -28q-48 -14 -71 -29q-17 -8 -21 -8q-13 0 -12 39q32 37 55 102q49 139 105 213q75 100 206 100q59 0 91 -43q34 -46 34 -102z" />
    <glyph glyph-name="egrave" unicode="&#xe8;" horiz-adv-x="1481" 
d="M1470 618q0 -51 -4 -120q0 -12 -10 -9q-170 38 -557 101q-344 55 -360 55q-23 0 -23 -188q0 -237 104 -354q79 -89 203 -95q70 -3 129 21q23 9 23 18q0 6 -12 10q-131 24 -214 97.5t-83 175.5q0 64 72.5 103.5t197.5 39.5q86 0 182 -18q258 -50 258 -207q0 -44 -24 -90
q-67 -126 -166 -180q-144 -78 -438 -78q-338 0 -540 250q-173 213 -173 481q0 495 809 495q469 0 577 -235q49 -107 49 -273zM1087 848q0 56 -73 91.5t-193 35.5q-140 0 -243 -26q-121 -30 -121 -81q0 -129 413 -129q217 0 217 109zM1010 1264q0 -24 -2 -33q-3 -14 -23 -2
q-49 29 -121 43q-58 11 -117 22q-65 14 -106 41q-123 82 -123 199q0 57 30 98q35 47 93 47q141 0 207 -100q69 -103 98 -194q24 -74 64 -121z" />
    <glyph glyph-name="ecircumflex" unicode="&#xea;" horiz-adv-x="1481" 
d="M1470 618q0 -51 -4 -120q0 -12 -10 -9q-170 38 -557 101q-344 55 -360 55q-23 0 -23 -188q0 -237 104 -354q79 -89 203 -95q70 -3 129 21q23 9 23 18q0 6 -12 10q-131 24 -214 97.5t-83 175.5q0 64 72.5 103.5t197.5 39.5q86 0 182 -18q258 -50 258 -207q0 -44 -24 -90
q-67 -126 -166 -180q-144 -78 -438 -78q-338 0 -540 250q-173 213 -173 481q0 495 809 495q469 0 577 -235q49 -107 49 -273zM1087 848q0 56 -73 91.5t-193 35.5q-140 0 -243 -26q-121 -30 -121 -81q0 -129 413 -129q217 0 217 109zM1174 1286q-57 -55 -213 -90
q-134 179 -168 270q-35 -83 -115 -166q-84 -87 -143 -96l-156 143q243 161 319 295q16 29 56 25q50 -4 137 -15q38 -8 47 -30q74 -186 236 -336z" />
    <glyph glyph-name="edieresis" unicode="&#xeb;" horiz-adv-x="1481" 
d="M1470 618q0 -51 -4 -120q0 -12 -10 -9q-170 38 -557 101q-344 55 -360 55q-23 0 -23 -188q0 -237 104 -354q79 -89 203 -95q70 -3 129 21q23 9 23 18q0 6 -12 10q-131 24 -214 97.5t-83 175.5q0 64 72.5 103.5t197.5 39.5q86 0 182 -18q258 -50 258 -207q0 -44 -24 -90
q-67 -126 -166 -180q-144 -78 -438 -78q-338 0 -540 250q-173 213 -173 481q0 495 809 495q469 0 577 -235q49 -107 49 -273zM1087 848q0 56 -73 91.5t-193 35.5q-140 0 -243 -26q-121 -30 -121 -81q0 -129 413 -129q217 0 217 109zM1219 1335q0 -51 -84 -81
q-75 -27 -180 -27q-81 0 -133 38q-58 42 -58 115q0 109 209 109q96 0 171 -47.5t75 -106.5zM662 1333q0 -52 -92 -83q-77 -25 -174 -25q-79 0 -131 39q-56 42 -56 114q0 109 209 109q100 0 174 -50q70 -47 70 -104z" />
    <glyph glyph-name="iacute" unicode="&#xed;" horiz-adv-x="1020" 
d="M1030 -25q-203 37 -432 37q-221 0 -618 -73q15 74 34 172q160 19 208.5 76.5t81.5 213.5q32 148 32 289q0 150 -127 150q-40 0 -76 -9q-55 121 -55 173q410 3 766 135q4 -3 4 -17q0 -22 -10 -80q-64 -354 -64 -589q0 -163 39 -213q24 -31 68 -31q50 0 114 27q18 7 21 -17
q11 -87 14 -244zM704 1509q0 -116 -125 -199q-44 -29 -124 -45q-129 -26 -138 -28q-48 -14 -71 -29q-17 -8 -21 -8q-13 0 -12 39q32 37 55 102q49 139 105 213q75 100 206 100q59 0 91 -43q34 -46 34 -102z" />
    <glyph glyph-name="igrave" unicode="&#xec;" horiz-adv-x="1020" 
d="M1030 -25q-203 37 -432 37q-221 0 -618 -73q15 74 34 172q160 19 208.5 76.5t81.5 213.5q32 148 32 289q0 150 -127 150q-40 0 -76 -9q-55 121 -55 173q410 3 766 135q4 -3 4 -17q0 -22 -10 -80q-64 -354 -64 -589q0 -163 39 -213q24 -31 68 -31q50 0 114 27q18 7 21 -17
q11 -87 14 -244zM758 1264q0 -24 -2 -33q-3 -14 -23 -2q-49 29 -121 43q-58 11 -117 22q-65 14 -106 41q-123 82 -123 199q0 57 30 98q35 47 93 47q141 0 207 -100q69 -103 98 -194q24 -74 64 -121z" />
    <glyph glyph-name="icircumflex" unicode="&#xee;" horiz-adv-x="1020" 
d="M1030 -25q-203 37 -432 37q-221 0 -618 -73q15 74 34 172q160 19 208.5 76.5t81.5 213.5q32 148 32 289q0 150 -127 150q-40 0 -76 -9q-55 121 -55 173q410 3 766 135q4 -3 4 -17q0 -22 -10 -80q-64 -354 -64 -589q0 -163 39 -213q24 -31 68 -31q50 0 114 27q18 7 21 -17
q11 -87 14 -244zM891 1293q-57 -55 -213 -90q-134 179 -168 270q-35 -83 -115 -166q-84 -87 -143 -96l-156 143q243 161 319 295q16 29 56 25q50 -4 137 -15q38 -8 47 -30q74 -186 236 -336z" />
    <glyph glyph-name="idieresis" unicode="&#xef;" horiz-adv-x="1020" 
d="M1030 -25q-203 37 -432 37q-221 0 -618 -73q15 74 34 172q160 19 208.5 76.5t81.5 213.5q32 148 32 289q0 150 -127 150q-40 0 -76 -9q-55 121 -55 173q410 3 766 135q4 -3 4 -17q0 -22 -10 -80q-64 -354 -64 -589q0 -163 39 -213q24 -31 68 -31q50 0 114 27q18 7 21 -17
q11 -87 14 -244zM961 1335q0 -51 -84 -81q-75 -27 -180 -27q-81 0 -133 38q-58 42 -58 115q0 109 209 109q96 0 171 -47.5t75 -106.5zM404 1333q0 -52 -92 -83q-77 -25 -174 -25q-79 0 -131 39q-56 42 -56 114q0 109 209 109q100 0 174 -50q70 -47 70 -104z" />
    <glyph glyph-name="ntilde" unicode="&#xf1;" horiz-adv-x="1569" 
d="M1604 -115q-15 -39 -37 -98l-615 115q103 164 103 510v92q-7 164 -86 164q-25 0 -66 -21q-167 -84 -237 -366q2 -97 92 -365q-228 102 -457 102q-152 0 -211 -53l2 236q32 14 80 14q71 0 150 -37q-56 79 -101 392q-27 194 -37 343q-5 80 -96 95q-30 3 -88 14
q-27 8 -27 88q0 25 4 41q19 -10 791 -61q-129 -204 -129 -537q122 377 444 586q89 57 156 57q117 0 174 -158q47 -128 47 -331q0 -78 -8 -156q-29 -274 -29 -422q0 -139 27 -192q56 -22 154 -52zM1163 1499q-79 -303 -221 -303q-98 0 -242 117q-103 84 -147 84
q-38 0 -75 -44q-12 -15 -79 -116q-53 27 -53 47q21 122 93 219q76 103 157 103q78 0 200 -99q50 -40 101.5 -80t83.5 -40q34 0 63 40q33 54 66 107q30 -12 53 -35z" />
    <glyph glyph-name="oacute" unicode="&#xf3;" horiz-adv-x="1442" 
d="M1409 698q0 -94 -23 -227q-40 -236 -176 -394q-176 -204 -469 -204q-266 0 -481 170q-227 180 -227 432q0 198 170 376q193 202 502 241q99 12 229 12q260 0 373 -106q102 -96 102 -300zM1237 553q0 77 -128 121q-116 39 -298 39q-200 0 -389 -110q-178 -104 -178 -197
q0 -64 114 -107t277 -43q206 0 404 97t198 200zM938 1534q0 -116 -125 -199q-44 -29 -124 -45q-129 -26 -138 -28q-48 -14 -71 -29q-17 -8 -21 -8q-13 0 -12 39q32 37 55 102q49 139 105 213q75 100 206 100q59 0 91 -43q34 -46 34 -102z" />
    <glyph glyph-name="ograve" unicode="&#xf2;" horiz-adv-x="1442" 
d="M1409 698q0 -94 -23 -227q-40 -236 -176 -394q-176 -204 -469 -204q-266 0 -481 170q-227 180 -227 432q0 198 170 376q193 202 502 241q99 12 229 12q260 0 373 -106q102 -96 102 -300zM1237 553q0 77 -128 121q-116 39 -298 39q-200 0 -389 -110q-178 -104 -178 -197
q0 -64 114 -107t277 -43q206 0 404 97t198 200zM1028 1264q0 -24 -2 -33q-3 -14 -23 -2q-49 29 -121 43q-58 11 -117 22q-65 14 -106 41q-123 82 -123 199q0 57 30 98q35 47 93 47q141 0 207 -100q69 -103 98 -194q24 -74 64 -121z" />
    <glyph glyph-name="ocircumflex" unicode="&#xf4;" horiz-adv-x="1442" 
d="M1409 698q0 -94 -23 -227q-40 -236 -176 -394q-176 -204 -469 -204q-266 0 -481 170q-227 180 -227 432q0 198 170 376q193 202 502 241q99 12 229 12q260 0 373 -106q102 -96 102 -300zM1237 553q0 77 -128 121q-116 39 -298 39q-200 0 -389 -110q-178 -104 -178 -197
q0 -64 114 -107t277 -43q206 0 404 97t198 200zM1149 1305q-57 -55 -213 -90q-134 179 -168 270q-35 -83 -115 -166q-84 -87 -143 -96l-156 143q243 161 319 295q16 29 56 25q50 -4 137 -15q38 -8 47 -30q74 -186 236 -336z" />
    <glyph glyph-name="odieresis" unicode="&#xf6;" horiz-adv-x="1442" 
d="M1409 698q0 -94 -23 -227q-40 -236 -176 -394q-176 -204 -469 -204q-266 0 -481 170q-227 180 -227 432q0 198 170 376q193 202 502 241q99 12 229 12q260 0 373 -106q102 -96 102 -300zM1237 553q0 77 -128 121q-116 39 -298 39q-200 0 -389 -110q-178 -104 -178 -197
q0 -64 114 -107t277 -43q206 0 404 97t198 200zM1237 1335q0 -51 -84 -81q-75 -27 -180 -27q-81 0 -133 38q-58 42 -58 115q0 109 209 109q96 0 171 -47.5t75 -106.5zM680 1333q0 -52 -92 -83q-77 -25 -174 -25q-79 0 -131 39q-56 42 -56 114q0 109 209 109q100 0 174 -50
q70 -47 70 -104z" />
    <glyph glyph-name="otilde" unicode="&#xf5;" horiz-adv-x="1442" 
d="M1409 698q0 -94 -23 -227q-40 -236 -176 -394q-176 -204 -469 -204q-266 0 -481 170q-227 180 -227 432q0 198 170 376q193 202 502 241q99 12 229 12q260 0 373 -106q102 -96 102 -300zM1237 553q0 77 -128 121q-116 39 -298 39q-200 0 -389 -110q-178 -104 -178 -197
q0 -64 114 -107t277 -43q206 0 404 97t198 200zM1176 1505q-79 -303 -221 -303q-98 0 -242 117q-103 84 -147 84q-38 0 -75 -44q-12 -15 -79 -116q-53 27 -53 47q21 122 93 219q76 103 157 103q78 0 200 -99q50 -40 101.5 -80t83.5 -40q34 0 63 40q33 54 66 107
q30 -12 53 -35z" />
    <glyph glyph-name="uacute" unicode="&#xfa;" horiz-adv-x="1618" 
d="M1686 1096q0 -92 -15 -103q-82 17 -143 17q-81 0 -88 -37q-21 -101 -41 -298q-23 -218 -23 -356v-43q56 27 125 27q61 0 113 -18l14 -164h-22q-125 0 -339 -89q-162 -67 -311 -155q-22 -13 -24 -12q-6 2 2 35q39 158 53 311q-139 -161 -305 -239q-129 -60 -246 -60
q-144 0 -236 68q-102 76 -102 213q0 221 152 443q106 154 258 275q-14 0 -44 1t-44 1q-175 0 -359 -14q12 23 80 162q246 -19 434 -19q87 0 369 9q-128 -158 -218 -355q-95 -208 -95 -346q0 -80 37 -129q34 -45 84 -45q94 0 208 273q120 289 148 641q7 87 8 129
q90 -22 570 -123zM1103 1534q0 -116 -125 -199q-44 -29 -124 -45q-129 -26 -138 -28q-48 -14 -71 -29q-17 -8 -21 -8q-13 0 -12 39q32 37 55 102q49 139 105 213q75 100 206 100q59 0 91 -43q34 -46 34 -102z" />
    <glyph glyph-name="ugrave" unicode="&#xf9;" horiz-adv-x="1618" 
d="M1686 1096q0 -92 -15 -103q-82 17 -143 17q-81 0 -88 -37q-21 -101 -41 -298q-23 -218 -23 -356v-43q56 27 125 27q61 0 113 -18l14 -164h-22q-125 0 -339 -89q-162 -67 -311 -155q-22 -13 -24 -12q-6 2 2 35q39 158 53 311q-139 -161 -305 -239q-129 -60 -246 -60
q-144 0 -236 68q-102 76 -102 213q0 221 152 443q106 154 258 275q-14 0 -44 1t-44 1q-175 0 -359 -14q12 23 80 162q246 -19 434 -19q87 0 369 9q-128 -158 -218 -355q-95 -208 -95 -346q0 -80 37 -129q34 -45 84 -45q94 0 208 273q120 289 148 641q7 87 8 129
q90 -22 570 -123zM1040 1264q0 -24 -2 -33q-3 -14 -23 -2q-49 29 -121 43q-58 11 -117 22q-65 14 -106 41q-123 82 -123 199q0 57 30 98q35 47 93 47q141 0 207 -100q69 -103 98 -194q24 -74 64 -121z" />
    <glyph glyph-name="ucircumflex" unicode="&#xfb;" horiz-adv-x="1618" 
d="M1686 1096q0 -92 -15 -103q-82 17 -143 17q-81 0 -88 -37q-21 -101 -41 -298q-23 -218 -23 -356v-43q56 27 125 27q61 0 113 -18l14 -164h-22q-125 0 -339 -89q-162 -67 -311 -155q-22 -13 -24 -12q-6 2 2 35q39 158 53 311q-139 -161 -305 -239q-129 -60 -246 -60
q-144 0 -236 68q-102 76 -102 213q0 221 152 443q106 154 258 275q-14 0 -44 1t-44 1q-175 0 -359 -14q12 23 80 162q246 -19 434 -19q87 0 369 9q-128 -158 -218 -355q-95 -208 -95 -346q0 -80 37 -129q34 -45 84 -45q94 0 208 273q120 289 148 641q7 87 8 129
q90 -22 570 -123zM1419 1323q-57 -55 -213 -90q-134 179 -168 270q-35 -83 -115 -166q-84 -87 -143 -96l-156 143q243 161 319 295q16 29 56 25q50 -4 137 -15q38 -8 47 -30q74 -186 236 -336z" />
    <glyph glyph-name="udieresis" unicode="&#xfc;" horiz-adv-x="1618" 
d="M1686 1096q0 -92 -15 -103q-82 17 -143 17q-81 0 -88 -37q-21 -101 -41 -298q-23 -218 -23 -356v-43q56 27 125 27q61 0 113 -18l14 -164h-22q-125 0 -339 -89q-162 -67 -311 -155q-22 -13 -24 -12q-6 2 2 35q39 158 53 311q-139 -161 -305 -239q-129 -60 -246 -60
q-144 0 -236 68q-102 76 -102 213q0 221 152 443q106 154 258 275q-14 0 -44 1t-44 1q-175 0 -359 -14q12 23 80 162q246 -19 434 -19q87 0 369 9q-128 -158 -218 -355q-95 -208 -95 -346q0 -80 37 -129q34 -45 84 -45q94 0 208 273q120 289 148 641q7 87 8 129
q90 -22 570 -123zM1495 1354q0 -51 -84 -81q-75 -27 -180 -27q-81 0 -133 38q-58 42 -58 115q0 109 209 109q96 0 171 -47.5t75 -106.5zM938 1352q0 -52 -92 -83q-77 -25 -174 -25q-79 0 -131 39q-56 42 -56 114q0 109 209 109q100 0 174 -50q70 -47 70 -104z" />
    <glyph glyph-name="dagger" unicode="&#x2020;" horiz-adv-x="1319" 
d="M1286 1008q2 -104 -25 -176q-34 -92 -106 -91q-105 3 -139 109q-12 35 -49 49q-24 14 -246 25q7 -172 25 -233q16 -55 67 -103q11 -11 8 -27q-82 -246 -82 -344q0 -100 21.5 -234.5t44.5 -187.5q6 -15 -2 -20q-66 -45 -168 -45q-56 0 -98 16q-9 3 -5 18q41 134 41 441
q0 185 -88 354q-11 22 2 29q52 41 69.5 103t25.5 233q-196 -7 -234 -41q-18 -14 -18 -29q-9 -55 -52.5 -90t-103.5 -35q-68 0 -102 95q-25 69 -25 155q0 91 44 166q49 84 122 84q32 0 57 -43q6 -10 45 -101q10 -22 54 -26q59 -6 217 -6q0 212 -35 252q-15 17 -47 30
q-109 46 -109 152q0 121 232 121q96 0 177 -47q89 -52 89 -129q0 -50 -129 -97q-29 -10 -33 -51.5t-8 -228.5q183 6 252 41q36 18 53 57q43 100 92 100q69 0 119 -83q45 -76 47 -162z" />
    <glyph glyph-name="degree" unicode="&#xb0;" horiz-adv-x="758" 
d="M768 1372q0 -48 -10 -110q-18 -109 -79 -182q-84 -101 -230 -101q-128 0 -231 81q-109 86 -109 206q0 84 67 161q120 138 365 138q227 0 227 -193zM682 1303q0 73 -197 73q-91 0 -183 -52q-87 -50 -87 -91q0 -31 56 -50q52 -18 126 -18q91 0 186 44q99 46 99 94z" />
    <glyph glyph-name="cent" unicode="&#xa2;" horiz-adv-x="1440" 
d="M1384 823q0 -150 -219 -194q-81 -17 -151 -17q-141 0 -232 52q-84 47 -84 112q0 227 351 262q12 0 12 6q0 14 -60 29q-66 17 -143 17q-165 0 -247 -55q-117 -78 -117 -279q0 -243 80 -341q60 -73 182 -73q300 0 487 211q2 -12 2 -37q0 -149 -169 -274
q-157 -117 -314 -117q35 -44 69 -88q39 -56 39 -100q0 -87 -221 -87q-109 0 -176 11q29 97 80 266q-512 52 -512 483q0 528 524 572q-110 143 -110 209q0 71 166 71q65 0 151 -10l88 -12q-43 -105 -98 -252q545 -15 604 -246q18 -72 18 -119z" />
    <glyph glyph-name="sterling" unicode="&#xa3;" horiz-adv-x="1585" 
d="M1597 250q0 -156 -82 -253q-101 -120 -311 -120q-113 0 -211 43l-226 100q-136 50 -282 50q-57 0 -151 -95q-86 54 -148 60q137 299 140 450q-135 -17 -222 -12q5 33 5 67q0 71 -23 175q79 0 184 10q-52 98 -103 195q-56 115 -56 219q0 227 219 338q184 92 493 92
q408 0 582 -143q119 -97 119 -252q0 -108 -124 -182q-118 -70 -276 -70q-144 0 -232 51q-81 47 -81 117q0 126 116 195q70 42 238 83q21 5 21 16q0 24 -85 47q-92 24 -198 23q-171 -2 -238 -31q-85 -37 -85 -137q0 -35 43 -198q46 -173 53 -295q115 29 186 55
q35 -79 35 -166q0 -31 -6 -45q-52 -26 -240 -78q-37 -142 -92 -246q68 27 168 27q161 0 291 -61q33 -16 163 -98q80 -50 136 -50q94 0 94 96q0 53 -33 86q-36 37 -143 84q105 61 258 123q42 -29 72 -103q32 -80 32 -167z" />
    <glyph glyph-name="section" unicode="&#xa7;" horiz-adv-x="1448" 
d="M1378 289q0 -183 -144 -318q-178 -166 -507 -166q-598 0 -598 314q0 79 86 123q82 43 219 43q144 0 236 -36q96 -38 96 -99q0 -102 -98 -148q-45 -21 -158 -47q-16 -7 -16 -14q0 -14 46.5 -25.5t106.5 -11.5q293 0 293 192q0 122 -92.5 208.5t-216.5 86.5q-40 0 -127 -5
t-129 -5q-133 0 -214 79.5t-81 221.5q0 125 131 244q-139 69 -139 225q0 185 128 311q163 158 490 158q353 0 491 -100q103 -74 103 -226q0 -78 -84 -110q-76 -29 -252 -29q-319 0 -319 123q0 108 110 160q37 17 166 47q19 7 19 14q0 14 -46.5 25.5t-107.5 11.5
q-293 0 -293 -193q0 -43 17 -96q36 -116 116 -162q63 -36 176 -36q40 0 127 5t129 5q130 0 216 -80q100 -91 100 -256q0 -126 -88 -221q108 -68 108 -213zM1024 594q0 163 -162 248q-122 63 -276 63q-50 0 -125 -10q-6 -37 -6 -53q0 -303 372 -303q24 0 87 4q71 5 100 6
q10 27 10 45z" />
    <glyph glyph-name="bullet" unicode="&#x2022;" horiz-adv-x="1071" 
d="M922 573q0 -92 -159 -154q-135 -52 -284 -52q-138 0 -228 67q-101 77 -101 217q0 112 134 164q97 37 234 37q168 0 279 -69q125 -76 125 -210z" />
    <glyph glyph-name="paragraph" unicode="&#xb6;" horiz-adv-x="1460" 
d="M1456 1288q-51 -39 -131 -39q-45 0 -106 19q110 -538 127 -1344q-39 10 -287 -35q33 246 33 574q0 422 -56 809q-20 4 -61 4q-44 0 -80 -10q53 -441 53 -801q0 -283 -37 -604q-6 5 -120 30.5t-164 32.5q60 197 86 479q14 155 20 486q-155 -74 -297 -74q-255 0 -348 236
q-39 99 -39 176q0 254 352 254q56 0 273 -22.5t319 -22.5q240 0 445 102z" />
    <glyph glyph-name="germandbls" unicode="&#xdf;" horiz-adv-x="2515" 
d="M2454 375q0 -230 -249 -355q-229 -114 -614 -114q-337 0 -494 106q-116 79 -116 199q0 197 455 197q139 0 220 -36t81 -98q0 -128 -234 -182q-137 -32 -137 -51q0 -12 51 -23q55 -12 123 -12q148 0 262 41q142 51 142 143q0 140 -75 224q-84 96 -249 96q-46 0 -129 -7
t-117 -7q-301 0 -301 206q0 36 10 89q48 246 301 348q13 3 13 26q0 95 -114 230q-134 157 -290 157q-305 0 -305 -481q0 -208 55 -450q99 -434 218 -670q-87 12 -183 12q-154 0 -271 -30q-128 -32 -165 -91l-66 221q62 41 150 41q47 0 82 -12q-70 115 -197 508
q-125 -14 -260 -76q-26 116 -26 232q0 8 1 23.5t1 21.5q114 -41 247 -41q-57 172 -57 344q0 237 122 377q158 180 507 180q53 0 110 -4q548 -39 672 -350q35 -88 35 -136q0 -57 -49 -84q-109 -57 -109 -167q0 -47 21 -105q64 -184 317 -184q40 0 127 5t129 5q355 0 355 -266
z" />
    <glyph glyph-name="registered" unicode="&#xae;" 
d="M1620 975q0 -157 -55 -342q-90 -301 -286 -491q-223 -215 -517 -212q-293 3 -502 238t-209 567q0 320 214 557q236 262 616 262q390 0 578 -173q161 -149 161 -406zM1468 854q0 248 -206 403q-191 144 -457 144q-225 0 -391 -135q145 -95 346 -95q45 0 153 8.5t158 8.5
q246 0 246 -193q0 -31 -10 -69q-19 -69 -119 -126q-120 -67 -291 -67q-62 0 -117 8q219 -46 219 -143q0 -20 -9 -67.5t-9 -86.5q0 -55 82 -55q65 0 144 31.5t79 52.5q0 8 -10 8t-57.5 -12t-77.5 -12q-99 0 -99 65q0 38 48 83q52 49 141 83q37 14 74 14q112 0 112 -96
q0 -3 -1 -9.5t-1 -10.5q53 120 53 268zM1100 920q0 48 -104 91.5t-210 43.5q-89 0 -157 -23t-68 -53q0 -43 105 -85q109 -44 227 -44q207 0 207 70zM1262 362q-120 -65 -285 -65q-209 0 -234 133q-10 107 -20 213q-18 94 -125 145q0 4 -2 -23t-2 -54q0 -185 61 -369l-364 -2
q86 -110 226 -168q110 -46 220 -49h19q276 0 506 239zM442 1145q-10 -2 -28 -2q-53 0 -92 28q-148 -187 -148 -464q0 -145 72 -295q35 4 46 10q21 11 23 45q14 213 31 324q30 191 96 354z" />
    <glyph glyph-name="copyright" unicode="&#xa9;" 
d="M1620 975q0 -382 -222 -694q-251 -351 -636 -351q-293 0 -502 236.5t-209 570.5q0 341 238 579t592 238q390 0 578 -173q161 -149 161 -406zM1468 850q0 256 -206 410q-190 141 -465 141q-254 0 -431 -181q-192 -195 -192 -511q0 -273 183 -438q166 -148 399 -148
q268 0 490 227.5t222 499.5zM1337 911q0 -122 -168 -155q-61 -13 -125 -13q-108 0 -174 39q-63 36 -63 90q0 99 97 153q72 41 175 48q8 1 8 6q0 10 -45 22q-52 13 -110 13q-127 0 -192 -43q-93 -61 -93 -219q0 -320 205 -320q218 0 371 156q4 5 7 3q2 -1 1 -9
q-43 -145 -110 -212q-109 -108 -330 -108q-494 0 -494 381q0 233 126 341q120 104 370 104q299 0 427 -71q117 -64 117 -206z" />
    <glyph glyph-name="trademark" unicode="&#x2122;" horiz-adv-x="1878" 
d="M1876 1292q0 -162 -162 -358l127 -25l27 -51q-37 2 -133 2q-90 0 -193 -2q37 52 80 169q47 127 47 196q0 57 -39 53q-61 -7 -133 -142q-60 -111 -65 -159v-27q0 -92 12 -119q21 -11 67 -28q-3 -6 -16 -45q-49 11 -283 35q62 120 62 305q0 178 -62 178q-39 0 -77.5 -71.5
t-51.5 -164.5q0 -89 41 -219q-94 39 -188 39q-84 0 -115 -31l-4 107q24 10 41 10q29 0 64 -14q-35 64 -58 450q-2 37 -42 45q-35 2 -70 5q-32 -127 -43 -224q-43 7 -101 25q-10 7 -6 26q12 59 12 72q0 23 -12 31q-80 52 -129 57q-80 -153 -80 -336q0 -96 33 -160
q34 -67 88 -67q44 0 97 34q48 31 48 50q0 12 -20 14q-56 6 -103 39q-55 38 -55 90q0 70 150 70q213 0 213 -94q0 -28 -13 -60q-38 -99 -147 -152q-94 -46 -213 -46q-315 0 -315 288q0 105 43 218q31 83 63 125q-103 -13 -227 -109q-11 -8 -15 2q-20 101 -26 205q1 4 6 4
q174 -18 377 -25q132 -4 387 -4q88 0 342 19q-47 -132 -47 -301q0 -10 1 -26t1 -21q76 255 244 335q38 19 67 19q105 0 105 -209q0 -64 -11 -139q24 53 90 157q97 117 193 117q57 0 92 -43.5t35 -118.5z" />
    <glyph glyph-name="acute" unicode="&#xb4;" horiz-adv-x="1075" 
d="M827 1368q0 -116 -125 -199q-44 -29 -124 -45q-129 -26 -138 -28q-48 -14 -71 -29q-17 -8 -21 -8q-13 0 -12 39q32 37 55 102q49 139 105 213q75 100 206 100q59 0 91 -43q34 -46 34 -102z" />
    <glyph glyph-name="dieresis" unicode="&#xa8;" horiz-adv-x="1075" 
d="M1059 1243q0 -51 -84 -81q-75 -27 -180 -27q-81 0 -133 38q-58 42 -58 115q0 109 209 109q96 0 171 -47.5t75 -106.5zM502 1241q0 -52 -92 -83q-77 -25 -174 -25q-79 0 -131 39q-56 42 -56 114q0 109 209 109q100 0 174 -50q70 -47 70 -104z" />
    <glyph glyph-name="AE" unicode="&#xc6;" horiz-adv-x="2787" 
d="M2761 449q0 -16 -2 -35q-29 -265 -237 -374q-157 -81 -443 -81q-42 0 -367 16q-57 3 -199 18q-121 13 -184 13q-127 0 -192 -49l4 256q32 14 80 14q74 0 157 -39q-58 166 -92 406l-290 6q-188 6 -300 21q-85 -193 -272 -431q0 -11 297 -73q-4 -25 -4 -70q0 -18 1 -46
t1 -44q-392 134 -785 213l158 174q34 -21 105 -70q458 515 624 1045q6 20 6 33q0 49 -66 74l-126 32q-23 6 -23 86q0 48 4 53q126 -41 390 -59q428 -29 852 -29q447 0 739 17q-55 -103 -93 -223q-28 -101 -57 -201q-25 -1 -73.5 -6.5t-59.5 -5.5q-19 0 -22 14
q-8 143 -45 201q-57 88 -312 88q-14 0 -202 -9q-62 -130 -62 -331q0 -13 8 -193q79 6 137 12q137 16 142 31q8 26 8 51q0 46 -31 85q-28 27 -55 55q46 24 87 42q99 42 161 44q20 -41 20 -113q0 -21 -3 -65.5t-3 -65.5q0 -94 43 -242q5 -18 2 -24q-4 -6 -22 -4
q-147 14 -312 14q-12 0 -69.5 -1t-93.5 -1q16 -341 150 -467q114 -105 386 -107q83 0 156 33q65 29 65 51q0 11 -22 11q-6 0 -40 -2t-58 -2q-195 0 -256 149q-11 25 -11 51q0 78 97 139q102 65 288 93q56 8 95 8q221 0 221 -186zM1380 1042q0 74 -77 115q-70 37 -177 37
q-117 0 -206 -55.5t-89 -134.5q0 -85 102 -132q84 -38 204 -38q113 0 181 66q62 59 62 142z" />
    <glyph glyph-name="Oslash" unicode="&#xd8;" horiz-adv-x="1534" 
d="M1382 1575l-1083 -1800q-27 -45 -61 -45h-68q-21 0 -21 13q0 12 15 36l1091 1820q23 37 50 37h75q23 0 23 -13q0 -14 -21 -48zM1483 895q0 -346 -116 -597q-144 -311 -441 -392q-57 -15 -135 -15q-241 0 -448 177q-220 188 -280 485q-12 62 -12 129q0 234 138 434
q152 221 421 316q234 81 410 81q463 0 463 -618zM1323 694q0 132 -167.5 234t-385.5 102q-159 0 -329 -101q-181 -108 -181 -229q0 -140 174 -251q163 -105 336 -105q211 0 384 114q169 110 169 236z" />
    <glyph glyph-name="plusminus" unicode="&#xb1;" horiz-adv-x="838" 
d="M768 650h-289v-254h-119v254h-290v114h290v264h119v-264h289v-114zM772 190h-704v123h704v-123z" />
    <glyph glyph-name="yen" unicode="&#xa5;" horiz-adv-x="1796" 
d="M1720 954q0 -281 -557 -327v-45q310 6 488 16q8 -29 8 -55t-8 -39q-158 0 -482 -4q7 -49 19 -92l461 6q10 -29 10 -58q0 -23 -8 -37q-148 2 -443 5q58 -165 166 -205q49 -19 117 -19q16 0 78 6q-49 -98 -111 -172q-251 66 -477 66q-179 0 -518 -74q-100 110 -141 168
q-18 25 6 25q4 0 50 -5t93 -5q104 0 133 18q91 58 94 197q-194 0 -489 -5q-12 33 -12 60q0 24 10 35q123 -5 491 -8q-3 43 -12 86q-321 -8 -475 -15q-12 33 -12 60q0 24 10 34q23 0 90 -1t109 -1q38 0 126.5 1t137.5 1q-3 10 -21 50q-249 32 -394 145q-138 106 -138 248
q0 172 223 327q-214 26 -360 72q-5 1 -5 6q0 21 40 91t61 85q159 -55 647 -217q22 -7 4 -16q-289 -151 -289 -266q0 -143 461 -301q445 161 445 362q0 106 -113 234q-156 8 -242 8q-61 150 -61 194q97 -5 391 -28q153 -13 375 -19q0 -8 -58 -147q-20 -1 -204 -4
q286 -238 286 -441z" />
    <glyph glyph-name="mu" unicode="&#xb5;" horiz-adv-x="784" 
d="M676 0h-131v28q-68 -29 -184 -29q-94 0 -121 40v-408h-131v1342h131v-720q0 -139 138 -139q95 0 166 16v843h132v-973z" />
    <glyph glyph-name="mu" unicode="&#x3bc;" horiz-adv-x="784" 
d="M676 0h-131v28q-68 -29 -184 -29q-94 0 -121 40v-408h-131v1342h131v-720q0 -139 138 -139q95 0 166 16v843h132v-973z" />
    <glyph glyph-name="ordfeminine" unicode="&#xaa;" horiz-adv-x="1113" 
d="M1116 720q-31 21 -100 21q-83 0 -187.5 -27t-164.5 -63q23 109 23 145q0 11 -4 10q-3 -1 -8 -5q-109 -89 -261 -109q-72 -9 -122 -9q-271 0 -271 237q0 61 12 134q24 146 104 240q96 113 246 113q163 0 317 -149q0 95 -64 194q320 49 442 93q12 -40 12 -82q0 -34 -8 -42
q-96 -32 -96 -58v-1q0 -22 2 -68t2 -71q0 -208 -53 -345q43 27 103 27q31 0 57 -7zM737 1083q0 27 -54 46q-58 20 -151 20q-121 0 -234 -46q-109 -45 -109 -90q0 -37 78 -59q69 -20 164 -20q109 0 210 53q96 50 96 96z" />
    <glyph glyph-name="ordmasculine" unicode="&#xba;" horiz-adv-x="937" 
d="M916 1260q0 -62 -15 -148q-26 -154 -115 -256q-114 -133 -304 -133q-173 0 -313 110q-148 117 -148 281q0 129 111 245q125 131 326 156q64 8 149 8q169 0 242 -69q67 -62 67 -194zM804 1165q0 50 -83 78q-75 26 -194 26q-130 0 -253 -71q-116 -68 -116 -129
q0 -41 74.5 -69t180.5 -28q134 0 262.5 63t128.5 130z" />
    <glyph glyph-name="ae" unicode="&#xe6;" horiz-adv-x="2374" 
d="M2341 618q0 -51 -4 -120q-1 -12 -10 -9q-170 38 -558 101q-344 55 -360 55q-23 0 -23 -188q0 -237 104 -354q80 -89 204 -95q70 -3 129 21q23 9 23 18q0 6 -13 10q-131 24 -212 96q-85 75 -85 177q0 64 72.5 103.5t197.5 39.5q86 0 183 -18q258 -50 258 -207
q0 -44 -25 -90q-67 -126 -165 -180q-144 -78 -439 -78q-186 0 -347 91q-152 86 -229 220q-46 -100 -214 -202q-181 -109 -336 -109q-187 0 -312 103q-108 89 -108 192q0 170 246 277q214 93 591 128q-11 163 -104 279q-100 125 -246 125q-94 0 -148.5 -20t-54.5 -48
q0 -14 29 -14q127 0 200 -48q68 -44 68 -114q0 -68 -92 -110q-96 -44 -256 -44q-250 0 -250 164q0 133 116 234q140 122 390 122q400 0 555 -180q169 180 598 180q469 0 578 -235q49 -107 49 -273zM1958 848q0 56 -73 91.5t-193 35.5q-135 0 -224 -26q-100 -29 -100 -81
q0 -129 373 -129q217 0 217 109zM971 373q0 84 -109 84q-119 0 -225 -21q-99 -19 -166.5 -69.5t-67.5 -96.5q0 -41 37 -73.5t88 -32.5q150 0 300 75q143 72 143 134z" />
    <glyph glyph-name="oslash" unicode="&#xf8;" horiz-adv-x="1442" 
d="M1262 1237q-340 -541 -967 -1556q-24 -39 -59 -39h-68q-21 0 -21 13v2q1 11 15 34l981 1571q23 36 49 36h68q22 0 22 -13q0 -15 -20 -48zM1409 698q0 -94 -23 -227q-40 -236 -176 -394q-176 -204 -469 -204q-266 0 -481 170q-227 180 -227 432q0 198 170 376
q193 202 502 241q99 12 229 12q260 0 373 -106q102 -96 102 -300zM1237 553q0 77 -128 121q-116 39 -298 39q-200 0 -389 -110q-178 -104 -178 -197q0 -64 114 -107t277 -43q206 0 404 97t198 200z" />
    <glyph glyph-name="questiondown" unicode="&#xbf;" horiz-adv-x="1513" 
d="M55 457q0 116 68 180q83 78 278 78q82 0 177 -13q47 -6 84 -6q174 0 198 117q4 20 4 43q0 71 -67 219q95 39 176 39q49 0 69 -18q211 -192 211 -344q0 -74 -56 -118t-159 -44q-13 0 -38.5 1t-38.5 1q-147 0 -232 -41q-76 -37 -116 -122q-25 -55 -52 -185q-6 -30 -6 -56
q0 -168 274 -168q101 0 184 22t83 48q0 19 -86 45q-209 63 -209 162q0 49 110 102q124 60 283 60q307 0 307 -203q0 -135 -193 -228q-200 -96 -511 -96q-307 0 -502 110q-170 95 -211 243q-29 103 -29 172zM481 1333q0 53 125 117q113 59 225 80q44 8 84 8q99 0 162 -49
q60 -47 60 -117q0 -85 -156 -133q-126 -39 -213 -39q-100 0 -189 37q-98 40 -98 96z" />
    <glyph glyph-name="exclamdown" unicode="&#xa1;" horiz-adv-x="854" 
d="M51 -100q70 161 112 422q42 257 42 522q0 139 -17 270q54 14 134 41q86 29 139 55q110 -220 174 -544q37 -187 37 -312q0 -80 -15 -123q136 22 195 35q12 -30 12 -116q0 -27 -4 -52q0 -6 -10 -6q-2 0 -16 1t-21 1q-128 0 -383 -69q-246 -67 -371 -131q-5 0 -8 6zM82 1438
q0 57 122 115q103 50 220 71q45 8 82 8q96 0 158 -49q59 -47 59 -113q0 -74 -138 -124q-115 -41 -231 -41q-124 0 -201 42q-71 38 -71 91z" />
    <glyph glyph-name="logicalnot" unicode="&#xac;" horiz-adv-x="942" 
d="M823 332h-124v292h-580v124h704v-416z" />
    <glyph glyph-name="florin" unicode="&#x192;" horiz-adv-x="1610" 
d="M1606 1266q0 -124 -232 -176q-99 -23 -186 -23q-209 0 -209 117q0 162 184 219q94 29 94 43q0 20 -70 36.5t-151 16.5q-143 0 -221 -104q-72 -94 -72 -246q0 -226 140 -412q130 -6 174 -6q103 0 114 14q7 16 7 39q0 49 -78 134q57 24 243 69q13 -27 13 -72
q0 -28 -8.5 -85t-8.5 -82v-3q0 -54 25 -161.5t45 -145.5q-9 -2 -95 -32q-62 -21 -91 -21q-19 0 -30 9.5t-36 99.5q-22 78 -65 84q-56 6 -154 18q291 -355 291 -588q0 -303 -498 -354q-79 -8 -164 -8q-375 0 -510 202q-53 81 -53 140q0 126 225 207q161 57 275 57
q176 0 176 -121q0 -123 -124 -210q-73 -39 -146 -79q-11 -10 -11 -18q0 -29 67 -58q71 -30 150 -30q213 0 213 201q0 138 -102 349q-86 175 -199 318q-120 0 -276 -59q-10 85 -10 155q0 68 6 105q88 -37 217 -47q-113 180 -113 387q0 194 124 307q152 139 478 139
q304 0 454 -62q115 -48 165 -147q33 -65 33 -116z" />
    <glyph glyph-name="guillemotleft" unicode="&#xab;" horiz-adv-x="1485" 
d="M1458 78q3 -9 -8 -12q-43 -14 -135 -52q-78 -37 -105 -65q-6 -7 -14 2q-71 138 -225 311q-151 169 -279 258q-14 10 -14 19q0 12 14 20q94 75 132 108q77 68 128 130q121 145 131 309q1 11 11 6q44 -15 139 -49q48 -19 133 -47q11 -7 6 -19q-25 -47 -56 -139
q-33 -96 -52 -135q-60 -121 -160 -172q-12 -6 -12 -12q0 -3 14 -11q106 -39 219 -211q56 -85 133 -239zM819 78q3 -9 -8 -12q-43 -14 -135 -52q-78 -37 -105 -65q-6 -7 -14 2q-71 138 -225 311q-151 169 -279 258q-14 10 -14 19q0 12 14 20q94 75 132 108q77 68 128 130
q121 145 131 309q1 9 11 6q44 -15 139 -49q48 -19 133 -47q11 -7 6 -19q-25 -47 -56 -139q-33 -96 -52 -135q-60 -121 -160 -172q-12 -6 -12 -12q0 -3 14 -11q106 -39 219 -211q56 -85 133 -239z" />
    <glyph glyph-name="guillemotright" unicode="&#xbb;" horiz-adv-x="1485" 
d="M1438 539q0 -9 -15 -19q-127 -89 -278 -258q-155 -173 -225 -311q-9 -9 -15 -2q-26 28 -104 65q-31 15 -135 52q-11 3 -9 12q77 154 134 239q112 172 219 211q14 8 14 11q0 6 -12 12q-100 51 -160 172q-31 92 -109 274q-4 12 7 19q29 8 133 47q26 10 139 49q10 3 10 -6
q11 -164 131 -309q73 -88 260 -238q15 -8 15 -20zM799 539q0 -9 -15 -19q-127 -89 -278 -258q-155 -173 -225 -311q-9 -9 -15 -2q-26 28 -104 65q-31 15 -135 52q-11 3 -9 12q77 154 134 239q112 172 219 211q14 8 14 11q0 6 -12 12q-100 51 -160 172q-31 92 -109 274
q-4 12 7 19q29 8 133 47q16 6 139 49q10 5 10 -6q11 -164 131 -309q73 -88 260 -238q15 -8 15 -20z" />
    <glyph glyph-name="ellipsis" unicode="&#x2026;" horiz-adv-x="2513" 
d="M2363 84q0 -58 -117 -95q-97 -30 -206 -30q-97 0 -161 46q-71 51 -71 140q0 136 258 136q112 0 200 -53q97 -58 97 -144zM1522 84q0 -58 -118 -95q-97 -30 -206 -30q-97 0 -161 46q-70 51 -70 140q0 136 258 136q111 0 200 -53q97 -58 97 -144zM705 84q0 -58 -118 -95
q-97 -30 -206 -30q-97 0 -161 46q-70 51 -70 140q0 136 258 136q111 0 199 -53q98 -58 98 -144z" />
    <glyph glyph-name="nonbreakingspace" unicode="&#xa0;" horiz-adv-x="410" 
 />
    <glyph glyph-name="Agrave" unicode="&#xc0;" horiz-adv-x="1880" 
d="M1931 174q-32 -59 -100 -178q-164 8 -229 8q-225 0 -492 -45q25 172 25 340q0 185 -31 289q-165 16 -514 55q-33 -117 -76 -235q-49 -135 -106 -230q59 -14 305 -26q-19 -129 -19 -236q-227 76 -424 125q-131 33 -336 70q28 36 68 92l53 73q36 -15 115 -51
q151 208 272 604q128 415 138 682q149 18 276 45q131 29 283 80q148 -241 325 -727q81 -235 215 -622q19 -52 111 -81q71 -16 141 -32zM1167 1069q0 137 -186 137q-135 0 -244 -72q-114 -75 -114 -173q0 -130 223 -130q321 0 321 238zM1047 1731q0 -24 -2 -33q-3 -14 -23 -2
q-49 29 -121 43q-58 11 -117 22q-65 14 -106 41q-123 82 -123 199q0 57 30 98q35 47 93 47q141 0 207 -100q69 -103 98 -194q24 -74 64 -121z" />
    <glyph glyph-name="Atilde" unicode="&#xc3;" horiz-adv-x="1880" 
d="M1931 174q-32 -59 -100 -178q-164 8 -229 8q-225 0 -492 -45q25 172 25 340q0 185 -31 289q-165 16 -514 55q-33 -117 -76 -235q-49 -135 -106 -230q59 -14 305 -26q-19 -129 -19 -236q-227 76 -424 125q-131 33 -336 70q28 36 68 92l53 73q36 -15 115 -51
q151 208 272 604q128 415 138 682q149 18 276 45q131 29 283 80q148 -241 325 -727q81 -235 215 -622q19 -52 111 -81q71 -16 141 -32zM1167 1069q0 137 -186 137q-135 0 -244 -72q-114 -75 -114 -173q0 -130 223 -130q321 0 321 238zM1286 1978q-79 -303 -221 -303
q-98 0 -242 117q-103 84 -147 84q-38 0 -75 -44q-12 -15 -79 -116q-53 27 -53 47q21 122 93 219q76 103 157 103q78 0 200 -99q50 -40 101.5 -80t83.5 -40q34 0 63 40q33 54 66 107q30 -12 53 -35z" />
    <glyph glyph-name="Otilde" unicode="&#xd5;" 
d="M1628 997q0 -187 -96 -440q-111 -291 -278 -474q-228 -249 -523 -249q-271 0 -476 237q-212 246 -212 593q0 331 219 574q241 267 625 267q741 0 741 -508zM1356 719q0 140 -158 236q-154 96 -371 96q-196 0 -382 -110q-195 -115 -195 -253q0 -161 181 -267
q157 -91 335 -91q224 0 409 127q181 123 181 262zM1358 1941q-79 -303 -221 -303q-98 0 -242 117q-103 84 -147 84q-38 0 -75 -44q-12 -15 -79 -116q-53 27 -53 47q21 122 93 219q76 103 157 103q78 0 200 -99q50 -40 101.5 -80t83.5 -40q34 0 63 40q33 54 66 107
q30 -12 53 -35z" />
    <glyph glyph-name="OE" unicode="&#x152;" horiz-adv-x="2716" 
d="M2689 432q0 -245 -180 -371q-170 -118 -484 -118q-86 0 -389 22q-65 5 -157 29q-82 22 -136 22q-43 0 -133 -19l-145 -32q-146 -26 -266 -26q-347 0 -547 185q-211 197 -211 564q0 396 201 629q218 252 626 252q123 0 340 -37q265 -45 551 -45q1 0 239.5 11t528.5 11
q-54 -102 -93 -224l-58 -202q-39 -1 -83 -5q-40 -5 -48 -5q-22 0 -23 12q-6 143 -45 203q-57 88 -313 88q-88 0 -201 -10q-64 -137 -64 -324q0 -42 11 -200q78 6 135 13q137 17 141 32q10 36 10 51q0 45 -32 84q-28 27 -56 53q46 25 87 43q100 43 161 45q21 -41 21 -112
q0 -22 -2 -66t-2 -65q0 -70 41 -244q4 -12 4 -14q0 -13 -17 -13q-218 23 -485 23q9 -337 148 -470q120 -115 390 -116q83 0 157 34q67 30 67 52q0 10 -25 10q-7 0 -40.5 -2t-57.5 -2q-112 0 -189 55t-77 144q0 96 151 169q147 70 330 70q219 0 219 -184zM1327 817
q0 146 -144.5 244t-355.5 98q-199 0 -381 -113q-190 -120 -190 -268q0 -161 165 -286q158 -119 341 -119q233 0 396 124q169 128 169 320z" />
    <glyph glyph-name="oe" unicode="&#x153;" horiz-adv-x="2335" 
d="M2320 518q0 -7 -18 -10q-190 36 -860 143q-9 2 -14 2q-19 0 -22 -31q-2 -18 -3 -137q-2 -238 105 -349q81 -83 206 -83q50 0 92 14q37 13 37 25q0 6 -12 8q-123 29 -150 43q-116 60 -116 197q0 58 68 99q74 44 198 44q72 0 149 -14q232 -43 232 -172q0 -132 -104 -219
q-149 -125 -488 -125q-274 0 -432 174q-42 -78 -174 -140q-140 -67 -287 -67q-259 0 -470 166q-222 175 -222 418q0 245 227 423q233 183 567 183q150 0 261 -40q107 -39 143 -103q44 74 205 112q127 29 284 29q363 0 495 -140q89 -95 89 -300q0 -113 14 -150zM1946 829
q0 49 -79 86t-192 37q-325 0 -325 -104q0 -105 366 -105q230 0 230 86zM1206 582q0 64 -109 105q-112 42 -292 42q-186 0 -372 -101q-181 -98 -181 -190q0 -65 120 -103q106 -34 255 -34q190 0 381 88q198 92 198 193z" />
    <glyph glyph-name="endash" unicode="&#x2013;" horiz-adv-x="1288" 
d="M1186 743q0 -18 -16 -63q-18 -54 -21 -72q-62 10 -172 10q-96 0 -397 -10t-361 -10q-106 0 -113 23q-4 15 -4 49q0 85 48 192q322 -24 510 -40q370 -32 509 -56q17 -3 17 -23z" />
    <glyph glyph-name="emdash" unicode="&#x2014;" horiz-adv-x="1942" 
d="M1839 731q0 -30 -20 -119q-199 0 -525.5 -4t-470.5 -4q-407 0 -702 19q-19 1 -19 43q0 57 31 165l1686 -59q20 -1 20 -41z" />
    <glyph glyph-name="quotedblleft" unicode="&#x201c;" horiz-adv-x="1421" 
d="M1319 1294q0 -66 -80 -107q-76 -38 -188 -38q-132 0 -208 58q-73 55 -73 145q0 68 40 157q39 85 77 109q55 18 82 18q16 0 16 -12q0 -3 -12 -25q-33 -56 -33 -90q0 -45 68 -45q22 0 79 9q29 4 41 4q80 0 135.5 -52t55.5 -131zM651 1288q0 -66 -80 -107q-76 -38 -188 -38
q-132 0 -206.5 56t-74.5 147q0 68 39.5 155t77.5 111q55 18 82 18q16 0 16 -12q0 -3 -12 -25q-33 -56 -33 -90q0 -45 68 -45q22 0 80 8q29 4 41 4q79 0 134.5 -51.5t55.5 -130.5z" />
    <glyph glyph-name="quotedblright" unicode="&#x201d;" horiz-adv-x="1421" 
d="M1319 1440q0 -69 -39.5 -156t-77.5 -110q-55 -19 -82 -19q-16 0 -16 12q0 4 12 25q33 57 33 90q0 45 -68 45q-22 0 -80 -8q-28 -4 -40 -4q-80 0 -135.5 51.5t-55.5 130.5q0 67 80 107q76 38 188 38q132 0 208 -57q73 -55 73 -145zM651 1434q0 -69 -39 -156t-77 -111
q-56 -18 -82 -18q-17 0 -17 12q0 4 13 25q32 56 32 90q0 45 -67 45q-23 0 -80 -8q-29 -4 -41 -4q-80 0 -135.5 51.5t-55.5 130.5q0 67 81 107q75 38 188 38q132 0 208 -57q72 -55 72 -145z" />
    <glyph glyph-name="quoteleft" unicode="&#x2018;" horiz-adv-x="754" 
d="M651 1288q0 -66 -80 -107q-76 -38 -188 -38q-132 0 -206.5 56t-74.5 147q0 68 39.5 155t77.5 111q55 18 82 18q16 0 16 -12q0 -3 -12 -25q-33 -56 -33 -90q0 -45 68 -45q22 0 80 8q29 4 41 4q79 0 134.5 -51.5t55.5 -130.5z" />
    <glyph glyph-name="quoteright" unicode="&#x2019;" horiz-adv-x="754" 
d="M651 1434q0 -69 -39 -156t-77 -111q-56 -18 -82 -18q-17 0 -17 12q0 4 13 25q32 56 32 90q0 45 -67 45q-23 0 -80 -8q-29 -4 -41 -4q-80 0 -135.5 51.5t-55.5 130.5q0 67 81 107q75 38 188 38q132 0 208 -57q72 -55 72 -145z" />
    <glyph glyph-name="divide" unicode="&#xf7;" horiz-adv-x="838" 
d="M523 944q0 -44 -30.5 -75.5t-74.5 -31.5q-43 0 -73.5 31.5t-30.5 75.5t30.5 75t73.5 31q44 0 74.5 -31t30.5 -75zM768 625h-698v126h698v-126zM523 430q0 -44 -30.5 -75t-74.5 -31q-43 0 -73.5 31t-30.5 75t30.5 75.5t73.5 31.5q44 0 74.5 -31.5t30.5 -75.5z" />
    <glyph glyph-name="ydieresis" unicode="&#xff;" horiz-adv-x="1745" 
d="M1821 936l-11 -117q-134 44 -157 43q-37 -2 -60 -125q-17 -91 -41 -350q-25 -273 -55 -373q-63 -207 -174 -293q-144 -110 -449 -110q-467 0 -673 139q-65 44 -111 136q-45 89 -45 167q0 102 105 156q99 51 272 51q178 0 299 -66q110 -60 110 -135q0 -152 -213 -213
q-18 -5 -152 -31q-73 -15 -73 -34q0 -43 221 -43q166 0 236 37q117 62 182 198q47 97 47 164q-3 24 -341 285q-346 268 -457 326q-38 0 -226 -101q-16 -9 -16 8q0 42 1 109t1 88v57q497 81 762 221q25 -45 78 -135q-50 -13 -168 -30q0 -108 195 -297q165 -159 280 -217
q55 82 142 272q85 186 85 221q-210 -1 -305 4q15 63 55 203q292 -11 656 -215zM1432 1335q0 -51 -84 -81q-75 -27 -180 -27q-81 0 -133 38q-58 42 -58 115q0 109 209 109q96 0 171 -47.5t75 -106.5zM875 1333q0 -52 -92 -83q-77 -25 -174 -25q-79 0 -131 39q-56 42 -56 114
q0 109 209 109q100 0 174 -50q70 -47 70 -104z" />
    <glyph glyph-name="Ydieresis" unicode="&#x178;" horiz-adv-x="1903" 
d="M1843 868q0 -324 -561 -364q7 -299 234 -383q54 -21 122 -21q21 0 82 6q0 -8 -27 -54q-34 -59 -83 -118q-245 64 -486 64q-269 0 -641 -80q-66 73 -143 172q-16 21 10 21q-2 0 45 -4.5t92 -4.5q150 0 183 23q86 59 86 158q0 78 -62 215q-20 -4 -49 -4q-260 0 -430 135
q-158 126 -158 293q0 239 344 397q5 2 4 5q-2 4 -10 5q-115 16 -338 82q-14 3 -8 21q35 93 86 153q9 11 23 6q214 -80 633 -227q22 -7 4 -16q-287 -142 -287 -355q0 -233 391 -233q77 0 123 4q423 38 444 309q2 8 2 27q0 67 -30 148q-32 86 -82 143q24 0 -283 8
q-34 83 -61 194q257 -19 809 -47q-21 -58 -60 -147q-9 -1 -205 -4q287 -303 287 -527zM1333 1800q0 -51 -84 -81q-75 -27 -180 -27q-81 0 -133 38q-58 42 -58 115q0 109 209 109q96 0 171 -47.5t75 -106.5zM776 1798q0 -52 -92 -83q-77 -25 -174 -25q-79 0 -131 39
q-56 42 -56 114q0 109 209 109q100 0 174 -50q70 -47 70 -104z" />
    <glyph glyph-name="currency" unicode="&#xa4;" horiz-adv-x="1221" 
d="M1095 1099l-177 -178v-395l177 -177l-118 -118l-194 194h-330l-193 -194l-118 118l177 178v395l-177 177l118 118l194 -194h330l193 194zM754 574v302h-271v-303z" />
    <glyph glyph-name="guilsinglleft" unicode="&#x2039;" horiz-adv-x="852" 
d="M819 78q3 -9 -8 -12q-43 -14 -135 -52q-78 -37 -105 -65q-6 -7 -14 2q-71 138 -225 311q-151 169 -279 258q-14 10 -14 19q0 12 14 20q94 75 132 108q77 68 128 130q121 145 131 309q1 9 11 6q44 -15 139 -49q48 -19 133 -47q11 -7 6 -19q-25 -47 -56 -139
q-33 -96 -52 -135q-60 -121 -160 -172q-12 -6 -12 -12q0 -3 14 -11q106 -39 219 -211q56 -85 133 -239z" />
    <glyph glyph-name="guilsinglright" unicode="&#x203a;" horiz-adv-x="852" 
d="M809 539q0 -9 -14 -19q-128 -89 -279 -258q-155 -173 -225 -311q-9 -9 -15 -2q-26 28 -104 65q-31 15 -135 52q-11 3 -8 12q77 154 133 239q112 172 219 211q14 8 14 11q0 6 -12 12q-100 51 -160 172q-30 92 -108 274q-5 12 6 19q29 8 133 47q26 10 139 49q10 3 10 -6
q11 -164 132 -309q72 -88 260 -238q14 -8 14 -20z" />
    <glyph glyph-name="daggerdbl" unicode="&#x2021;" horiz-adv-x="1354" 
d="M1264 172q-2 -82 -45 -154q-48 -79 -113 -79q-49 0 -88 94q-16 38 -51 55q-68 32 -240 39q4 -178 8 -217.5t31 -48.5q123 -45 123 -92q0 -74 -85 -124q-76 -44 -167 -44q-221 0 -221 114q0 99 104 146q17 7 45 28q33 38 33 240q-152 0 -207 -6q-42 -5 -51 -25
q-39 -91 -43 -97q-23 -40 -53 -40q-71 0 -117 80q-41 71 -41 158q0 82 23 147q33 90 98 90q56 0 97 -33t50 -86q0 -17 19 -26q35 -36 221 -39q-8 162 -27 229t-65 88q-7 4 -6 15t8 14q49 38 65.5 97t24.5 220q-186 -3 -221 -38q-19 -10 -19 -27q-9 -53 -50 -86t-97 -33
q-65 0 -98 90q-23 65 -23 148q0 87 41 158q46 79 117 79q30 0 53 -40q4 -6 43 -97q9 -20 51 -25q55 -6 207 -6q0 203 -33 240q-12 14 -45 29q-104 47 -104 145q0 115 221 115q91 0 167 -45q85 -50 85 -123q0 -48 -123 -92q-27 -10 -31 -47q-4 -42 -8 -220q172 7 240 39
q35 17 51 56q39 94 88 94q65 0 113 -79q43 -72 45 -155q2 -97 -24 -166q-33 -87 -101 -86q-99 3 -133 103q-12 34 -48 47q-22 15 -233 22q7 -161 25 -220q15 -52 63 -97q17 -16 4 -27q-48 -38 -65 -94q-20 -63 -27 -225q211 7 233 22q36 13 48 48q34 100 133 102
q68 2 101 -86q26 -69 24 -166z" />
    <glyph glyph-name="periodcentered" unicode="&#xb7;" horiz-adv-x="885" 
d="M735 721q0 -61 -124 -99q-103 -32 -218 -32q-102 0 -169 48q-74 54 -74 148q0 142 272 142q117 0 211 -56q102 -61 102 -151z" />
    <glyph glyph-name="periodcentered" unicode="&#x2219;" horiz-adv-x="885" 
d="M735 721q0 -61 -124 -99q-103 -32 -218 -32q-102 0 -169 48q-74 54 -74 148q0 142 272 142q117 0 211 -56q102 -61 102 -151z" />
    <glyph glyph-name="quotesinglbase" unicode="&#x201a;" horiz-adv-x="754" 
d="M651 45q0 -69 -39 -155.5t-77 -110.5q-56 -19 -82 -19q-17 0 -17 13q0 3 13 24q32 57 32 90q0 45 -67 45q-23 0 -80 -8q-29 -4 -41 -4q-80 0 -135.5 52t-55.5 130q0 67 81 108q75 38 188 38q132 0 208 -58q72 -55 72 -145z" />
    <glyph glyph-name="quotedblbase" unicode="&#x201e;" horiz-adv-x="1421" 
d="M1319 51q0 -68 -40 -157q-39 -85 -77 -109q-55 -18 -82 -18q-16 0 -16 12q0 3 12 24q33 57 33 91q0 45 -68 45q-22 0 -80 -9q-28 -4 -40 -4q-80 0 -135.5 52t-55.5 131q0 66 80 107q76 38 188 38q132 0 208 -58q73 -55 73 -145zM651 45q0 -69 -39 -155.5t-77 -110.5
q-56 -19 -82 -19q-17 0 -17 13q0 3 13 24q32 57 32 90q0 45 -67 45q-23 0 -80 -8q-29 -4 -41 -4q-80 0 -135.5 52t-55.5 130q0 67 81 108q75 38 188 38q132 0 208 -58q72 -55 72 -145z" />
    <glyph glyph-name="perthousand" unicode="&#x2030;" horiz-adv-x="2488" 
d="M2431 418q0 -51 -12 -125q-21 -126 -90 -206q-94 -112 -263 -112q-142 0 -256 92q-120 97 -120 232q0 105 92 200q104 107 270 128q67 8 123 8q256 0 256 -217zM780 1276q0 -51 -12 -125q-21 -125 -90 -206q-94 -111 -262 -111q-143 0 -257 91q-120 97 -120 232
q0 105 92 200q105 107 270 128q67 8 123 8q256 0 256 -217zM1427 1462q-184 -232 -469 -678q-124 -195 -231 -383q-113 -196 -113 -223q0 -31 52 -67q55 -39 55 -43q0 -3 -82 -111q-74 23 -220 35q-126 9 -253 18q740 992 883 1327q16 39 16 52q0 55 -72 112q-10 8 0 19
l62 71q167 -97 372 -129zM1595 418q0 -51 -12 -125q-21 -126 -89 -206q-95 -112 -263 -112q-143 0 -257 92q-120 97 -120 232q0 105 92 200q105 107 271 128q66 8 122 8q256 0 256 -217zM2333 342q0 25 -25 43q-56 41 -197 41q-42 0 -65 -4q-78 -14 -157 -65
q-81 -54 -81 -97q0 -38 68 -60q57 -18 131 -18q111 0 218.5 53.5t107.5 106.5zM682 1202q0 25 -25 43q-55 41 -196 41q-42 0 -66 -4q-78 -14 -156 -65q-81 -54 -81 -97q0 -38 68 -59q56 -19 130 -19q111 0 218.5 53.5t107.5 106.5zM1497 342q0 25 -25 43q-55 41 -196 41
q-42 0 -66 -4q-78 -14 -156 -65q-81 -54 -81 -97q0 -38 68 -60q56 -18 130 -18q111 0 218.5 53.5t107.5 106.5z" />
    <glyph glyph-name="Acircumflex" unicode="&#xc2;" horiz-adv-x="1880" 
d="M1931 174q-32 -59 -100 -178q-164 8 -229 8q-225 0 -492 -45q25 172 25 340q0 185 -31 289q-165 16 -514 55q-33 -117 -76 -235q-49 -135 -106 -230q59 -14 305 -26q-19 -129 -19 -236q-227 76 -424 125q-131 33 -336 70q28 36 68 92l53 73q36 -15 115 -51
q151 208 272 604q128 415 138 682q149 18 276 45q131 29 283 80q148 -241 325 -727q81 -235 215 -622q19 -52 111 -81q71 -16 141 -32zM1167 1069q0 137 -186 137q-135 0 -244 -72q-114 -75 -114 -173q0 -130 223 -130q321 0 321 238zM1266 1747q-57 -55 -213 -90
q-134 179 -168 270q-35 -83 -115 -166q-84 -87 -143 -96l-156 143q243 161 319 295q16 29 56 25q50 -4 137 -15q38 -8 47 -30q74 -186 236 -336z" />
    <glyph glyph-name="Ecircumflex" unicode="&#xca;" horiz-adv-x="1755" 
d="M1729 442q0 -22 -3 -32q-29 -266 -237 -375q-157 -82 -442 -82q-44 0 -369 16q-56 3 -198 18q-121 13 -183 13q-126 0 -195 -49l7 256q32 16 79 16q71 0 158 -41q-136 396 -143 1161q-1 69 -58 91q-58 9 -135 29q-22 12 -22 85q0 45 6 56q88 -30 417 -64q334 -35 552 -35
q248 0 602 15q-55 -103 -94 -223q-28 -101 -56 -201q-14 -1 -67 -6q-42 -5 -66 -5q-20 0 -22 13q-8 142 -46 200q-56 88 -313 88q-20 0 -201 -8q-59 -138 -59 -336q0 -36 3 -99t3 -89q79 6 136 12q138 16 143 31q8 26 8 53q0 45 -32 83l-54 54q46 25 87 43q99 42 161 44
q20 -41 20 -113q0 -22 -3 -66t-3 -65q0 -73 41 -246q4 -18 0 -23q-3 -3 -12 -2q-84 12 -288 20q-94 4 -187 7q19 -346 149 -475q113 -113 379 -113q84 0 158 33q65 29 65 51q0 11 -22 11q-18 0 -48 -2.5t-51 -2.5q-195 0 -256 150q-10 25 -10 51q0 78 96 139q102 65 287 93
q55 8 96 8q222 0 222 -187zM1253 1704q-57 -55 -213 -90q-134 179 -168 270q-35 -83 -115 -166q-84 -87 -143 -96l-156 143q243 161 319 295q16 29 56 25q50 -4 137 -15q38 -8 47 -30q74 -186 236 -336z" />
    <glyph glyph-name="Aacute" unicode="&#xc1;" horiz-adv-x="1880" 
d="M1931 174q-32 -59 -100 -178q-164 8 -229 8q-225 0 -492 -45q25 172 25 340q0 185 -31 289q-165 16 -514 55q-33 -117 -76 -235q-49 -135 -106 -230q59 -14 305 -26q-19 -129 -19 -236q-227 76 -424 125q-131 33 -336 70q28 36 68 92l53 73q36 -15 115 -51
q151 208 272 604q128 415 138 682q149 18 276 45q131 29 283 80q148 -241 325 -727q81 -235 215 -622q19 -52 111 -81q71 -16 141 -32zM1167 1069q0 137 -186 137q-135 0 -244 -72q-114 -75 -114 -173q0 -130 223 -130q321 0 321 238zM1067 1948q0 -116 -125 -199
q-44 -29 -124 -45q-129 -26 -138 -28q-48 -14 -71 -29q-17 -8 -21 -8q-13 0 -12 39q32 37 55 102q49 139 105 213q75 100 206 100q59 0 91 -43q34 -46 34 -102z" />
    <glyph glyph-name="Edieresis" unicode="&#xcb;" horiz-adv-x="1755" 
d="M1729 442q0 -22 -3 -32q-29 -266 -237 -375q-157 -82 -442 -82q-44 0 -369 16q-56 3 -198 18q-121 13 -183 13q-126 0 -195 -49l7 256q32 16 79 16q71 0 158 -41q-136 396 -143 1161q-1 69 -58 91q-58 9 -135 29q-22 12 -22 85q0 45 6 56q88 -30 417 -64q334 -35 552 -35
q248 0 602 15q-55 -103 -94 -223q-28 -101 -56 -201q-14 -1 -67 -6q-42 -5 -66 -5q-20 0 -22 13q-8 142 -46 200q-56 88 -313 88q-20 0 -201 -8q-59 -138 -59 -336q0 -36 3 -99t3 -89q79 6 136 12q138 16 143 31q8 26 8 53q0 45 -32 83l-54 54q46 25 87 43q99 42 161 44
q20 -41 20 -113q0 -22 -3 -66t-3 -65q0 -73 41 -246q4 -18 0 -23q-3 -3 -12 -2q-84 12 -288 20q-94 4 -187 7q19 -346 149 -475q113 -113 379 -113q84 0 158 33q65 29 65 51q0 11 -22 11q-18 0 -48 -2.5t-51 -2.5q-195 0 -256 150q-10 25 -10 51q0 78 96 139q102 65 287 93
q55 8 96 8q222 0 222 -187zM1286 1752q0 -51 -84 -81q-75 -27 -180 -27q-81 0 -133 38q-58 42 -58 115q0 109 209 109q96 0 171 -47.5t75 -106.5zM729 1750q0 -52 -92 -83q-77 -25 -174 -25q-79 0 -131 39q-56 42 -56 114q0 109 209 109q100 0 174 -50q70 -47 70 -104z" />
    <glyph glyph-name="Egrave" unicode="&#xc8;" horiz-adv-x="1755" 
d="M1729 442q0 -22 -3 -32q-29 -266 -237 -375q-157 -82 -442 -82q-44 0 -369 16q-56 3 -198 18q-121 13 -183 13q-126 0 -195 -49l7 256q32 16 79 16q71 0 158 -41q-136 396 -143 1161q-1 69 -58 91q-58 9 -135 29q-22 12 -22 85q0 45 6 56q88 -30 417 -64q334 -35 552 -35
q248 0 602 15q-55 -103 -94 -223q-28 -101 -56 -201q-14 -1 -67 -6q-42 -5 -66 -5q-20 0 -22 13q-8 142 -46 200q-56 88 -313 88q-20 0 -201 -8q-59 -138 -59 -336q0 -36 3 -99t3 -89q79 6 136 12q138 16 143 31q8 26 8 53q0 45 -32 83l-54 54q46 25 87 43q99 42 161 44
q20 -41 20 -113q0 -22 -3 -66t-3 -65q0 -73 41 -246q4 -18 0 -23q-3 -3 -12 -2q-84 12 -288 20q-94 4 -187 7q19 -346 149 -475q113 -113 379 -113q84 0 158 33q65 29 65 51q0 11 -22 11q-18 0 -48 -2.5t-51 -2.5q-195 0 -256 150q-10 25 -10 51q0 78 96 139q102 65 287 93
q55 8 96 8q222 0 222 -187zM1090 1682q0 -24 -2 -33q-3 -14 -23 -2q-49 29 -121 43q-58 11 -117 22q-65 14 -106 41q-123 82 -123 199q0 57 30 98q35 47 93 47q141 0 207 -100q69 -103 98 -194q24 -74 64 -121z" />
    <glyph glyph-name="Iacute" unicode="&#xcd;" horiz-adv-x="1079" 
d="M1077 -18q0 -13 -14 -13q-11 0 -178.5 16.5t-278.5 16.5q-180 0 -633 -74q0 37 29 181q1 2 86 18q92 17 127 55q26 28 66 307q45 303 45 531q0 200 -41 276q-9 21 -41 21q-23 0 -61 -12.5t-44 -12.5q-17 0 -58.5 61t-41.5 91q0 14 37 14q134 0 435 33q345 37 507 80
q6 6 6 -51q0 -52 -18 -60q-133 -54 -177 -226q-24 -98 -47 -456q-4 -65 -4 -114q0 -346 80 -434q23 -25 64 -25q29 0 76.5 15.5t54.5 15.5q9 0 12 -29q12 -135 12 -225zM716 1948q0 -116 -125 -199q-44 -29 -124 -45q-129 -26 -138 -28q-48 -14 -71 -29q-17 -8 -21 -8
q-13 0 -12 39q32 37 55 102q49 139 105 213q75 100 206 100q59 0 91 -43q34 -46 34 -102z" />
    <glyph glyph-name="Icircumflex" unicode="&#xce;" horiz-adv-x="1079" 
d="M1077 -18q0 -13 -14 -13q-11 0 -178.5 16.5t-278.5 16.5q-180 0 -633 -74q0 37 29 181q1 2 86 18q92 17 127 55q26 28 66 307q45 303 45 531q0 200 -41 276q-9 21 -41 21q-23 0 -61 -12.5t-44 -12.5q-17 0 -58.5 61t-41.5 91q0 14 37 14q134 0 435 33q345 37 507 80
q6 6 6 -51q0 -52 -18 -60q-133 -54 -177 -226q-24 -98 -47 -456q-4 -65 -4 -114q0 -346 80 -434q23 -25 64 -25q29 0 76.5 15.5t54.5 15.5q9 0 12 -29q12 -135 12 -225zM916 1723q-57 -55 -213 -90q-134 179 -168 270q-35 -83 -115 -166q-84 -87 -143 -96l-156 143
q243 161 319 295q16 29 56 25q50 -4 137 -15q38 -8 47 -30q74 -186 236 -336z" />
    <glyph glyph-name="Idieresis" unicode="&#xcf;" horiz-adv-x="1079" 
d="M1077 -18q0 -13 -14 -13q-11 0 -178.5 16.5t-278.5 16.5q-180 0 -633 -74q0 37 29 181q1 2 86 18q92 17 127 55q26 28 66 307q45 303 45 531q0 200 -41 276q-9 21 -41 21q-23 0 -61 -12.5t-44 -12.5q-17 0 -58.5 61t-41.5 91q0 14 37 14q134 0 435 33q345 37 507 80
q6 6 6 -51q0 -52 -18 -60q-133 -54 -177 -226q-24 -98 -47 -456q-4 -65 -4 -114q0 -346 80 -434q23 -25 64 -25q29 0 76.5 15.5t54.5 15.5q9 0 12 -29q12 -135 12 -225zM998 1749q0 -51 -84 -81q-75 -27 -180 -27q-81 0 -133 38q-58 42 -58 115q0 109 209 109
q96 0 171 -47.5t75 -106.5zM441 1747q0 -52 -92 -83q-77 -25 -174 -25q-79 0 -131 39q-56 42 -56 114q0 109 209 109q100 0 174 -50q70 -47 70 -104z" />
    <glyph glyph-name="Igrave" unicode="&#xcc;" horiz-adv-x="1079" 
d="M1077 -18q0 -13 -14 -13q-11 0 -178.5 16.5t-278.5 16.5q-180 0 -633 -74q0 37 29 181q1 2 86 18q92 17 127 55q26 28 66 307q45 303 45 531q0 200 -41 276q-9 21 -41 21q-23 0 -61 -12.5t-44 -12.5q-17 0 -58.5 61t-41.5 91q0 14 37 14q134 0 435 33q345 37 507 80
q6 6 6 -51q0 -52 -18 -60q-133 -54 -177 -226q-24 -98 -47 -456q-4 -65 -4 -114q0 -346 80 -434q23 -25 64 -25q29 0 76.5 15.5t54.5 15.5q9 0 12 -29q12 -135 12 -225zM733 1682q0 -24 -2 -33q-3 -14 -23 -2q-49 29 -121 43q-58 11 -117 22q-65 14 -106 41
q-123 82 -123 199q0 57 30 98q35 47 93 47q141 0 207 -100q69 -103 98 -194q24 -74 64 -121z" />
    <glyph glyph-name="Oacute" unicode="&#xd3;" 
d="M1628 997q0 -187 -96 -440q-111 -291 -278 -474q-228 -249 -523 -249q-271 0 -476 237q-212 246 -212 593q0 331 219 574q241 267 625 267q741 0 741 -508zM1356 719q0 140 -158 236q-154 96 -371 96q-196 0 -382 -110q-195 -115 -195 -253q0 -161 181 -267
q157 -91 335 -91q224 0 409 127q181 123 181 262zM1017 1952q0 -116 -125 -199q-44 -29 -124 -45q-129 -26 -138 -28q-48 -14 -71 -29q-17 -8 -21 -8q-13 0 -12 39q32 37 55 102q49 139 105 213q75 100 206 100q59 0 91 -43q34 -46 34 -102z" />
    <glyph glyph-name="Ocircumflex" unicode="&#xd4;" 
d="M1628 997q0 -187 -96 -440q-111 -291 -278 -474q-228 -249 -523 -249q-271 0 -476 237q-212 246 -212 593q0 331 219 574q241 267 625 267q741 0 741 -508zM1356 719q0 140 -158 236q-154 96 -371 96q-196 0 -382 -110q-195 -115 -195 -253q0 -161 181 -267
q157 -91 335 -91q224 0 409 127q181 123 181 262zM1272 1686q-57 -55 -213 -90q-134 179 -168 270q-35 -83 -115 -166q-84 -87 -143 -96l-156 143q243 161 319 295q16 29 56 25q50 -4 137 -15q38 -8 47 -30q74 -186 236 -336z" />
    <glyph glyph-name="Ograve" unicode="&#xd2;" 
d="M1628 997q0 -187 -96 -440q-111 -291 -278 -474q-228 -249 -523 -249q-271 0 -476 237q-212 246 -212 593q0 331 219 574q241 267 625 267q741 0 741 -508zM1356 719q0 140 -158 236q-154 96 -371 96q-196 0 -382 -110q-195 -115 -195 -253q0 -161 181 -267
q157 -91 335 -91q224 0 409 127q181 123 181 262zM1127 1682q0 -24 -2 -33q-3 -14 -23 -2q-49 29 -121 43q-58 11 -117 22q-65 14 -106 41q-123 82 -123 199q0 57 30 98q35 47 93 47q141 0 207 -100q69 -103 98 -194q24 -74 64 -121z" />
    <glyph glyph-name="Uacute" unicode="&#xda;" horiz-adv-x="1753" 
d="M1749 1479q0 -52 -8 -101q-26 1 -76 9q-46 8 -63 8q-40 0 -41 -33q-23 -485 -24 -498q-20 -303 -67 -565q77 45 162 45q52 0 94 -14l15 -195q-9 0 -27.5 1t-27.5 1q-151 0 -353 -70q-183 -63 -307 -145q-21 -14 -34 -11q-11 3 -9 15q59 308 59 410q-149 -201 -347 -301
q-155 -78 -296 -78q-162 0 -259 97q-103 102 -103 284q0 291 185 583q120 190 286 339q-207 -4 -406 -23q-13 0 -10 8q55 109 74 164q3 9 14 8q255 -12 418 -12q157 0 363 6q-170 -229 -283 -493q-117 -272 -117 -453q0 -96 42 -157.5t114 -61.5q107 0 218 198
q118 209 181 543q53 282 53 555q0 17 -1 42t-1 28q0 20 27 14q192 -52 555 -147zM1103 1952q0 -116 -125 -199q-44 -29 -124 -45q-129 -26 -138 -28q-48 -14 -71 -29q-17 -8 -21 -8q-13 0 -12 39q32 37 55 102q49 139 105 213q75 100 206 100q59 0 91 -43q34 -46 34 -102z
" />
    <glyph glyph-name="Ucircumflex" unicode="&#xdb;" horiz-adv-x="1753" 
d="M1749 1479q0 -52 -8 -101q-26 1 -76 9q-46 8 -63 8q-40 0 -41 -33q-23 -485 -24 -498q-20 -303 -67 -565q77 45 162 45q52 0 94 -14l15 -195q-9 0 -27.5 1t-27.5 1q-151 0 -353 -70q-183 -63 -307 -145q-21 -14 -34 -11q-11 3 -9 15q59 308 59 410q-149 -201 -347 -301
q-155 -78 -296 -78q-162 0 -259 97q-103 102 -103 284q0 291 185 583q120 190 286 339q-207 -4 -406 -23q-13 0 -10 8q55 109 74 164q3 9 14 8q255 -12 418 -12q157 0 363 6q-170 -229 -283 -493q-117 -272 -117 -453q0 -96 42 -157.5t114 -61.5q107 0 218 198
q118 209 181 543q53 282 53 555q0 17 -1 42t-1 28q0 20 27 14q192 -52 555 -147zM1383 1766q-57 -55 -213 -90q-134 179 -168 270q-35 -83 -115 -166q-84 -87 -143 -96l-156 143q243 161 319 295q16 29 56 25q50 -4 137 -15q38 -8 47 -30q74 -186 236 -336z" />
    <glyph glyph-name="Ugrave" unicode="&#xd9;" horiz-adv-x="1753" 
d="M1749 1479q0 -52 -8 -101q-26 1 -76 9q-46 8 -63 8q-40 0 -41 -33q-23 -485 -24 -498q-20 -303 -67 -565q77 45 162 45q52 0 94 -14l15 -195q-9 0 -27.5 1t-27.5 1q-151 0 -353 -70q-183 -63 -307 -145q-21 -14 -34 -11q-11 3 -9 15q59 308 59 410q-149 -201 -347 -301
q-155 -78 -296 -78q-162 0 -259 97q-103 102 -103 284q0 291 185 583q120 190 286 339q-207 -4 -406 -23q-13 0 -10 8q55 109 74 164q3 9 14 8q255 -12 418 -12q157 0 363 6q-170 -229 -283 -493q-117 -272 -117 -453q0 -96 42 -157.5t114 -61.5q107 0 218 198
q118 209 181 543q53 282 53 555q0 17 -1 42t-1 28q0 20 27 14q192 -52 555 -147zM1114 1682q0 -24 -2 -33q-3 -14 -23 -2q-49 29 -121 43q-58 11 -117 22q-65 14 -106 41q-123 82 -123 199q0 57 30 98q35 47 93 47q141 0 207 -100q69 -103 98 -194q24 -74 64 -121z" />
    <glyph glyph-name="circumflex" unicode="&#x2c6;" horiz-adv-x="1075" 
d="M934 1139q-57 -55 -213 -90q-134 179 -168 270q-35 -83 -115 -166q-84 -87 -143 -96l-156 143q243 161 319 295q16 29 56 25q50 -4 137 -15q38 -8 47 -30q74 -186 236 -336z" />
    <glyph glyph-name="tilde" unicode="&#x2dc;" horiz-adv-x="1075" 
d="M936 1376q-79 -303 -221 -303q-98 0 -242 117q-103 84 -147 84q-38 0 -75 -44q-12 -15 -79 -116q-53 27 -53 47q21 122 93 219q76 103 157 103q78 0 200 -99q50 -40 101.5 -80t83.5 -40q34 0 63 40q33 54 66 107q30 -12 53 -35z" />
    <glyph glyph-name="macron" unicode="&#xaf;" horiz-adv-x="1075" 
d="M969 1221q0 -25 -43 -25q7 0 -316.5 -4t-455.5 -4q-35 0 -35 26q0 16 -1 65.5t-1 59.5q0 35 43 35q138 0 424.5 2t337.5 2q33 0 40 -5.5t7 -16.5v-135z" />
    <glyph glyph-name="macron" unicode="&#x2c9;" horiz-adv-x="1075" 
d="M969 1221q0 -25 -43 -25q7 0 -316.5 -4t-455.5 -4q-35 0 -35 26q0 16 -1 65.5t-1 59.5q0 35 43 35q138 0 424.5 2t337.5 2q33 0 40 -5.5t7 -16.5v-135z" />
    <glyph glyph-name="cedilla" unicode="&#xb8;" horiz-adv-x="1075" 
d="M807 -203q0 -104 -69 -183q-80 -93 -216 -93q-82 0 -151 40q-85 50 -113 146q48 22 80 27q52 -70 166 -70q178 0 178 82q0 66 -125 66q-75 0 -147 -35q-91 33 -109 100q52 58 129 156l164 -8q-39 -35 -129 -113l4 -8q51 39 133 39q87 0 146 -42t59 -104z" />
    <glyph glyph-name="Scaron" unicode="&#x160;" horiz-adv-x="1661" 
d="M1221 1938l-182 -118q-106 -76 -150 -153q-16 -28 -55 -24q-50 3 -137 14q-39 8 -48 31q-80 204 -235 336q87 84 238 108q72 -96 143 -288q27 63 117 145q94 83 153 92zM1636 575q0 -94 -37 -237q-49 -191 -270 -302q-230 -116 -594 -116q-357 0 -565 139
q-174 115 -174 263q0 95 73 163q83 78 240 99q78 10 160 10q169 0 267 -49q95 -47 95 -125q0 -118 -126 -199q-60 -39 -205 -90q-56 -19 -56 -35q0 -49 207 -49q163 0 276 47q140 58 140 168q0 16 -4 37q-57 292 -85 349q-60 118 -228 118q-44 0 -150.5 -11.5t-153.5 -11.5
q-323 0 -323 261q0 83 33 202q44 162 197 258q183 115 499 115q325 0 507 -102q165 -93 165 -236q0 -213 -340 -213q-166 0 -282 55q-109 51 -109 117q0 95 145 150q55 18 111 36q51 19 51 39q0 27 -70.5 47.5t-159.5 20.5q-110 0 -180 -35q-84 -42 -84 -125q0 -39 19 -86
l54 -180q31 -96 92 -138q80 -55 249 -55q15 0 95 3.5t120 3.5q192 0 284 -55q117 -71 117 -251z" />
    <glyph glyph-name="scaron" unicode="&#x161;" horiz-adv-x="1524" 
d="M1110 1520l-182 -118q-106 -76 -150 -153q-16 -28 -55 -24q-50 3 -137 14q-39 8 -48 31q-80 204 -235 336q87 84 238 108q72 -96 143 -288q27 63 117 145q94 83 153 92zM1462 362q0 -41 -6 -81q-29 -191 -283 -297q-235 -99 -593 -99q-245 0 -400 68q-133 58 -162 143
q-20 61 -20 103q0 145 276 182q93 12 172 12q144 0 228 -36t84 -99q0 -66 -61 -117q-76 -64 -230 -86q-92 -13 -92 -39q0 -28 162 -28q63 0 112 6q141 17 207 49q100 47 96 141q-13 305 -301 305q-29 0 -117.5 -7t-125.5 -7q-302 0 -302 207q0 49 9 88q33 159 181 254
q170 109 460 109q281 0 415 -51q117 -44 156 -142q25 -61 25 -96q0 -113 -240 -129q-45 -2 -98 -2q-318 0 -318 110q0 96 111 144q14 6 166 43q18 4 18 14q0 35 -155 35q-295 0 -295 -176q0 -41 16 -88q37 -106 116 -148q65 -35 179 -35q39 0 126 5.5t130 5.5q168 0 252 -51
q102 -61 102 -210z" />
    <glyph glyph-name="Zcaron" unicode="&#x17d;" horiz-adv-x="1901" 
d="M1473 1938l-182 -118q-106 -76 -150 -153q-16 -28 -55 -24q-50 3 -137 14q-39 8 -48 31q-80 204 -235 336q87 84 238 108q72 -96 143 -288q27 63 117 145q94 83 153 92zM1878 332q0 -43 -14 -88q-40 -125 -197 -214q-177 -100 -424 -100q-129 0 -383.5 38t-384.5 38
q-211 0 -459 -39q-7 -1 -11 3t-3 14q36 339 184 569q170 263 453 317q559 108 592 486q-106 5 -281 61q-120 39 -217 39q-61 0 -112.5 -14.5t-51.5 -30.5q0 -13 19 -16q297 -56 297 -209q0 -74 -112 -121q-107 -45 -263 -45q-346 0 -346 182q0 35 14 74q100 272 606 272
q114 0 337 -39t337 -39q62 0 228 19q12 3 12 -25q0 -338 -149 -521q-143 -176 -451 -236q-228 -45 -367 -234q-93 -126 -127 -278q21 2 58 2q123 0 282 -55q178 -60 264 -68q22 -2 66 -2q160 0 160 47q0 29 -160 63q-104 22 -157 57q-81 52 -103 156q-2 10 -2 23
q0 82 116 137q121 57 314 57q45 0 114 -6q156 -14 243 -93q79 -74 79 -181z" />
    <glyph glyph-name="zcaron" unicode="&#x17e;" horiz-adv-x="1686" 
d="M1344 1518l-182 -118q-106 -76 -150 -153q-16 -28 -55 -24q-50 3 -137 14q-39 8 -48 31q-80 204 -235 336q87 84 238 108q72 -96 143 -288q27 63 117 145q94 83 153 92zM1679 219q0 -131 -141 -227q-159 -107 -424 -107q-117 0 -347.5 37t-348.5 37q-167 0 -410 -41
q-8 -1 -10.5 2t-1.5 12q34 263 134 415q138 210 425 282q291 73 379 121q137 74 160 227q-85 3 -230 53q-113 39 -198 39q-58 0 -106 -12.5t-48 -26.5q0 -17 115 -31q78 -9 123 -49.5t45 -95.5q0 -66 -129 -105q-119 -35 -304 -34q-221 1 -221 153q0 118 121 192
q144 89 426 89q127 0 309.5 -35t302.5 -35q87 0 207 17q11 1 15 -4.5t4 -16.5q-13 -285 -156 -426q-123 -121 -389 -172q-176 -33 -307 -161q-107 -104 -131 -207q18 2 53 2q106 0 273 -51.5t270 -51.5q143 0 143 39q0 24 -66 40l-126 24q-187 34 -187 161q0 65 106.5 109.5
t274.5 44.5q395 0 395 -207z" />
    <glyph glyph-name="brokenbar" unicode="&#xa6;" horiz-adv-x="668" 
d="M514 1114q0 -157 -2 -235l-268 -2q-14 336 -72 720l322 33q20 -225 20 -516zM490 442q-27 -426 -78 -835q-152 -6 -228 -6q26 270 63 847q43 -1 243 -6z" />
    <glyph glyph-name="Eth" unicode="&#xd0;" horiz-adv-x="1724" 
d="M821 666q0 -31 -6 -41q-42 -22 -242 -61q-225 -44 -360 -44q-122 0 -168 19q-3 108 -22 239q144 -17 153 -17q412 0 610 75q35 -79 35 -170zM1714 512q0 -532 -663 -532q-104 0 -292.5 13t-269.5 13q-225 0 -331 -78l-21 256q74 49 154 49q54 0 104 -26
q-170 446 -170 1036q0 74 -56 102q-6 3 -120 33q-20 8 -20 121t8 129q224 -192 653 -192q46 0 130 5t124 5q351 0 537 -221q138 -163 207 -488q26 -126 26 -225zM1458 690q0 170 -148 266q-97 64 -309 115q-144 35 -313 35q-26 0 -35 -2q-22 -100 -22 -223q0 -252 65 -445
q86 -47 289 -47q217 0 340 73q133 78 133 228z" />
    <glyph glyph-name="eth" unicode="&#xf0;" horiz-adv-x="1530" 
d="M1464 764q0 -319 -191 -529q-217 -240 -618 -249h-61q-301 0 -425 83q-118 79 -118 263q0 77 15 162q29 170 107 290q128 193 362 211q26 2 32 2q120 0 248 -62q119 -57 209 -151q4 54 4 78q0 214 -115 375l-243 -168l-105 148l221 155q-101 81 -280 154q-9 4 -10 8
q2 4 12 4h47q229 0 395 -55l305 211l103 -150l-217 -147q301 -188 321 -584q2 -40 2 -49zM1036 532q0 16 -10 27q-63 68 -285 68q-56 0 -98 -4q-130 -13 -257 -70q-138 -61 -138 -119q0 -14 8 -26q55 -84 340 -84q54 0 88 4q114 13 233 81.5t119 122.5z" />
    <glyph glyph-name="Yacute" unicode="&#xdd;" horiz-adv-x="1903" 
d="M1843 868q0 -324 -561 -364q7 -299 234 -383q54 -21 122 -21q21 0 82 6q0 -8 -27 -54q-34 -59 -83 -118q-245 64 -486 64q-269 0 -641 -80q-66 73 -143 172q-16 21 10 21q-2 0 45 -4.5t92 -4.5q150 0 183 23q86 59 86 158q0 78 -62 215q-20 -4 -49 -4q-260 0 -430 135
q-158 126 -158 293q0 239 344 397q5 2 4 5q-2 4 -10 5q-115 16 -338 82q-14 3 -8 21q35 93 86 153q9 11 23 6q214 -80 633 -227q22 -7 4 -16q-287 -142 -287 -355q0 -233 391 -233q77 0 123 4q423 38 444 309q2 8 2 27q0 67 -30 148q-32 86 -82 143q24 0 -283 8
q-34 83 -61 194q257 -19 809 -47q-21 -58 -60 -147q-9 -1 -205 -4q287 -303 287 -527zM1116 1952q0 -116 -125 -199q-44 -29 -124 -45q-129 -26 -138 -28q-48 -14 -71 -29q-17 -8 -21 -8q-13 0 -12 39q32 37 55 102q49 139 105 213q75 100 206 100q59 0 91 -43
q34 -46 34 -102z" />
    <glyph glyph-name="yacute" unicode="&#xfd;" horiz-adv-x="1745" 
d="M1821 936l-11 -117q-134 44 -157 43q-37 -2 -60 -125q-17 -91 -41 -350q-25 -273 -55 -373q-63 -207 -174 -293q-144 -110 -449 -110q-467 0 -673 139q-65 44 -111 136q-45 89 -45 167q0 102 105 156q99 51 272 51q178 0 299 -66q110 -60 110 -135q0 -152 -213 -213
q-18 -5 -152 -31q-73 -15 -73 -34q0 -43 221 -43q166 0 236 37q117 62 182 198q47 97 47 164q-3 24 -341 285q-346 268 -457 326q-38 0 -226 -101q-16 -9 -16 8q0 42 1 109t1 88v57q497 81 762 221q25 -45 78 -135q-50 -13 -168 -30q0 -108 195 -297q165 -159 280 -217
q55 82 142 272q85 186 85 221q-210 -1 -305 4q15 63 55 203q292 -11 656 -215zM1208 1534q0 -116 -125 -199q-44 -29 -124 -45q-129 -26 -138 -28q-48 -14 -71 -29q-17 -8 -21 -8q-13 0 -12 39q32 37 55 102q49 139 105 213q75 100 206 100q59 0 91 -43q34 -46 34 -102z" />
    <glyph glyph-name="Thorn" unicode="&#xde;" horiz-adv-x="1782" 
d="M1769 889q0 -113 -49 -236q-167 -415 -540 -415q-33 0 -72 4q-146 15 -293 95q-93 51 -129 87q29 -114 92 -233q53 -98 107 -195q-399 -83 -817 -180q-11 29 -11 78q0 54 19 61l122 38q60 26 60 85v20q-59 454 -59 705q0 283 53 547q-58 -23 -121 -23q-72 0 -119 31
l19 250q289 -148 622 -148h54q-72 -193 -78 -319l184 82q164 60 358 69q42 2 64 2q277 0 415 -121q119 -105 119 -284zM1528 834q0 18 -10 36q-70 125 -406 125q-21 0 -113 -4q-143 -6 -293.5 -83t-150.5 -146q0 -21 10 -31q43 -52 170 -82q112 -26 240 -26q36 0 65 2
q193 13 336 71q152 62 152 138z" />
    <glyph glyph-name="thorn" unicode="&#xfe;" horiz-adv-x="1575" 
d="M1544 733q0 -83 -18 -194q-33 -201 -157 -329q-145 -151 -378 -151q-261 0 -442 185q58 -338 199 -652q-562 -76 -732 -112q-12 49 -12 84q0 44 14 49q170 58 170 131q0 -5 -6 80.5t-6 210.5q0 272 19 633q24 466 63 602q-84 -51 -164 -51q-32 0 -55 8l-23 248
q59 -19 146 -19q118 0 266 29q176 35 287 94q-124 -387 -121 -668q171 117 373 142q100 12 186 12q215 0 308 -87q83 -78 83 -245zM1268 604q0 49 -98 79q-101 32 -273 32q-141 0 -286.5 -74.5t-145.5 -140.5q0 -37 70 -64q82 -30 229 -30q178 0 341 65t163 133z" />
    <glyph glyph-name="minus" unicode="&#xad;" horiz-adv-x="1325" 
d="M1282 453q-182 30 -500 32q-55 1 -213 -4q-185 -5 -393 -59q-15 -4 -18 2q-38 107 -113 321q166 -19 537 -51q144 -8 206 -8q205 2 418 53q14 4 19 -4q0 -85 57 -282z" />
    <glyph glyph-name="minus" unicode="&#x2212;" horiz-adv-x="1325" 
d="M1282 453q-182 30 -500 32q-55 1 -213 -4q-185 -5 -393 -59q-15 -4 -18 2q-38 107 -113 321q166 -19 537 -51q144 -8 206 -8q205 2 418 53q14 4 19 -4q0 -85 57 -282z" />
    <glyph glyph-name="multiply" unicode="&#xd7;" horiz-adv-x="1325" 
d="M1229 924q-170 -117 -414 -342q149 -145 333 -258q12 -7 10 -16q-55 -54 -165 -255q-110 146 -156 203q-81 99 -168 189q-159 -156 -315 -379q-12 -19 -20 -15q-117 88 -133 99q-83 58 -142 83q146 108 456 359q-109 104 -149 138q-84 71 -163 118q-14 8 -12 14
q44 86 141 297q110 -163 343 -425l52 52q110 111 248 285q11 13 15 14q126 -99 239 -161z" />
    <glyph glyph-name="onesuperior" unicode="&#xb9;" horiz-adv-x="667" 
d="M659 534q0 -9 -4 -9q-9 0 -39.5 2.5t-65.5 2.5q-205 0 -322 -53q-7 -3 -10 4q-6 42 -6 102q0 165 62 387q48 171 101 283q-92 -71 -183 -71q-100 0 -149 71q-32 46 -32 113q0 83 54 124q65 48 164 48q120 0 120 -72q0 -103 -121 -169q-10 -6 -11 -11q0 -8 19 -8
q55 0 120 61q69 65 109 164q50 12 146 39q4 -1 7 -9q-99 -369 -99 -661q0 -142 31 -213q9 -21 49 -28q18 -2 48 -13q12 -8 12 -84z" />
    <glyph glyph-name="twosuperior" unicode="&#xb2;" horiz-adv-x="1057" 
d="M1044 696q0 -41 -3 -65q-9 -80 -86 -128q-72 -45 -171 -45q-74 0 -137 28q-219 97 -346 97q-66 0 -101 -28q-20 -16 -20 -53q0 -17 4 -37q-82 -8 -133 -40q-39 93 -39 191q0 159 92 265q103 118 286 124q106 4 155 37q63 42 101 163q25 81 25 129q0 65 -51 89
q-42 19 -151 20q-69 1 -129 -15q-55 -15 -55 -30q0 -8 13 -11q230 -55 230 -192q0 -98 -203 -98q-47 0 -99 7q-179 23 -179 138q0 102 86 174q123 102 387 102q200 0 328 -66q150 -78 150 -226q0 -311 -414 -325q-193 -6 -297 -81q-94 -68 -95 -177q52 121 247 121
q127 0 224 -45q24 -11 106 -63q52 -33 88 -33q62 0 62 40q0 67 -124 121q128 96 173 136q76 -76 76 -224z" />
    <glyph glyph-name="threesuperior" unicode="&#xb3;" horiz-adv-x="1101" 
d="M1068 809q0 -169 -145 -262q-152 -97 -445 -97q-212 0 -343 77q-87 53 -114 117q-9 23 -9 47q0 56 43 100q51 52 147 66q47 7 103 7q107 0 177 -31q65 -30 65 -70q0 -80 -84 -124q-25 -13 -128 -43q-36 -10 -36 -24q0 -10 35.5 -21t81.5 -11q287 0 276 119
q-15 173 -40 229q-49 112 -189 112q-31 0 -94 -10q-2 -1 -4 -1q-18 0 -42 72q287 47 357 243q10 29 11 51q1 48 -56 75q-49 23 -119 23q-57 0 -106.5 -16.5t-51.5 -32.5q-1 -13 83 -37q104 -30 104 -101q0 -33 -74 -70q-83 -41 -191 -41q-212 0 -212 133q0 20 4 36
q11 71 135 129q141 66 345 66q226 0 345 -85q101 -72 101 -182q0 -104 -119 -151q-63 -24 -231 -46q184 -13 264 -43q156 -58 156 -203z" />
    <glyph glyph-name="onehalf" unicode="&#xbd;" horiz-adv-x="2359" 
d="M2343 231q0 -41 -3 -65q-9 -80 -86 -128q-72 -45 -171 -45q-74 0 -137 28q-219 97 -346 97q-66 0 -101 -28q-20 -16 -20 -53q0 -17 4 -37q-82 -8 -133 -40q-39 93 -39 191q0 159 92 265q103 118 286 124q106 4 155 37q63 42 101 163q25 81 25 129q0 65 -51 89
q-42 19 -151 20q-69 1 -129 -15q-55 -15 -55 -30q0 -8 13 -11q230 -55 230 -192q0 -98 -203 -98q-47 0 -99 7q-179 23 -179 138q0 102 86 174q123 102 387 102q200 0 328 -66q150 -78 150 -226q0 -311 -414 -325q-193 -6 -297 -81q-94 -68 -95 -177q52 121 247 121
q127 0 224 -45q24 -11 106 -63q52 -33 88 -33q62 0 62 40q0 67 -124 121q128 96 173 136q76 -76 76 -224zM1622 1457q-224 -279 -527 -766q-201 -323 -278 -493q-8 -18 -8 -25q0 -26 38 -58l64 -46q4 -4 4 -9q0 1 -82 -110q-80 26 -233 38q-120 9 -240 17q177 236 547 760
q278 413 342 588q8 22 8 28q0 56 -70 113q-10 10 0 21q29 28 62 69q168 -98 373 -127zM659 534q0 -9 -4 -9q-9 0 -39.5 2.5t-65.5 2.5q-205 0 -322 -53q-7 -3 -10 4q-6 42 -6 102q0 165 62 387q48 171 101 283q-92 -71 -183 -71q-100 0 -149 71q-32 46 -32 113q0 83 54 124
q65 48 164 48q120 0 120 -72q0 -103 -121 -169q-10 -6 -11 -11q0 -8 19 -8q55 0 120 61q69 65 109 164q50 12 146 39q4 -1 7 -9q-99 -369 -99 -661q0 -142 31 -213q9 -21 49 -28q18 -2 48 -13q12 -8 12 -84z" />
    <glyph glyph-name="onequarter" unicode="&#xbc;" horiz-adv-x="2423" 
d="M1622 1457q-224 -279 -527 -766q-201 -323 -278 -493q-8 -18 -8 -25q0 -26 38 -58l64 -46q4 -4 4 -9q0 1 -82 -110q-80 26 -233 38q-120 9 -240 17q177 236 547 760q278 413 342 588q8 22 8 28q0 56 -70 113q-10 10 0 21q29 28 62 69q168 -98 373 -127zM659 534
q0 -9 -4 -9q-9 0 -39.5 2.5t-65.5 2.5q-205 0 -322 -53q-7 -3 -10 4q-6 42 -6 102q0 165 62 387q48 171 101 283q-92 -71 -183 -71q-100 0 -149 71q-32 46 -32 113q0 83 54 124q65 48 164 48q120 0 120 -72q0 -103 -121 -169q-10 -6 -11 -11q0 -8 19 -8q55 0 120 61
q69 65 109 164q50 12 146 39q4 -1 7 -9q-99 -369 -99 -661q0 -142 31 -213q9 -21 49 -28q18 -2 48 -13q12 -8 12 -84z" />
    <glyph glyph-name="threequarters" unicode="&#xbe;" horiz-adv-x="2791" 
d="M1991 1457q-224 -279 -527 -766q-201 -323 -278 -493q-8 -18 -8 -25q0 -26 38 -58l64 -46q4 -4 4 -9q0 1 -82 -110q-80 26 -233 38q-120 9 -240 17q177 236 547 760q278 413 342 588q8 22 8 28q0 56 -70 113q-10 10 0 21q29 28 62 69q168 -98 373 -127zM1068 802
q0 -169 -145 -262q-152 -97 -445 -97q-212 0 -343 77q-87 53 -114 117q-9 23 -9 47q0 56 43 100q51 52 147 66q47 7 103 7q107 0 177 -31q65 -30 65 -70q0 -80 -84 -124q-25 -13 -128 -43q-36 -10 -36 -24q0 -10 35.5 -21t81.5 -11q287 0 276 119q-15 173 -40 229
q-49 112 -189 112q-31 0 -94 -10q-2 -1 -4 -1q-18 0 -42 72q287 47 357 243q10 29 11 51q1 48 -56 75q-49 23 -119 23q-57 0 -106.5 -16.5t-51.5 -32.5q-1 -13 83 -37q104 -30 104 -101q0 -33 -74 -70q-83 -41 -191 -41q-212 0 -212 133q0 20 4 36q11 71 135 129
q141 66 345 66q226 0 345 -85q101 -72 101 -182q0 -104 -119 -151q-63 -24 -231 -46q184 -13 264 -43q156 -58 156 -203z" />
    <glyph glyph-name="glyph266" horiz-adv-x="1101" 
d="M1068 346q0 -169 -145 -262q-152 -97 -445 -97q-212 0 -343 77q-87 53 -114 117q-9 23 -9 47q0 56 43 100q51 52 147 66q47 7 103 7q107 0 177 -31q65 -30 65 -70q0 -80 -84 -124q-25 -13 -128 -43q-36 -10 -36 -24q0 -10 35.5 -21t81.5 -11q287 0 276 119
q-15 173 -40 229q-49 112 -189 112q-31 0 -94 -10q-2 -1 -4 -1q-18 0 -42 72q287 47 357 243q10 29 11 51q1 48 -56 75q-49 23 -119 23q-57 0 -106.5 -16.5t-51.5 -32.5q-1 -13 83 -37q104 -30 104 -101q0 -33 -74 -70q-83 -41 -191 -41q-212 0 -212 133q0 20 4 36
q11 71 135 129q141 66 345 66q226 0 345 -85q101 -72 101 -182q0 -104 -119 -151q-63 -24 -231 -46q184 -13 264 -43q156 -58 156 -203z" />
    <glyph glyph-name="Euro" unicode="&#x20ac;" horiz-adv-x="1858" 
d="M1843 1155q0 -111 -81 -160q-74 -45 -232 -45q-204 0 -325 57q-110 52 -111 128q-1 47 33 97q55 82 145 109q11 4 145 23q14 2 10 14q-9 31 -83 63q-90 38 -208 38q-167 0 -253 -127q-74 -109 -74 -287q0 -89 16 -184l1 -8h84q596 0 757 8q-9 -20 -49 -80
q-49 -76 -76 -111q-127 3 -385 3h-296q13 -58 26 -109q405 0 612 8q-11 -27 -43 -83q-44 -78 -68 -115q-124 4 -342 4l-99 -1q89 -217 247 -217q43 0 92 8q162 27 257 125q45 46 136 205q13 8 13 2q6 -49 6 -84q0 -174 -79 -310q-100 -173 -298 -210q-152 -29 -289 -29
q-506 0 -629 502q-212 -7 -372 -18q24 41 88 151q12 23 38 65q73 -4 215 -4q-5 51 -7 106q-198 -4 -346 -11q6 13 93 147q14 23 44 63q75 -5 214 -9q31 356 239 536q190 164 503 164q362 0 564 -144q167 -120 167 -280z" />
  </font>
</defs>
</svg>
