<?xml version="1.0" encoding="UTF-8" standalone="no"?>
<svg
   xmlns:dc="http://purl.org/dc/elements/1.1/"
   xmlns:cc="http://creativecommons.org/ns#"
   xmlns:rdf="http://www.w3.org/1999/02/22-rdf-syntax-ns#"
   xmlns:svg="http://www.w3.org/2000/svg"
   xmlns="http://www.w3.org/2000/svg"
   xmlns:sodipodi="http://sodipodi.sourceforge.net/DTD/sodipodi-0.dtd"
   xmlns:inkscape="http://www.inkscape.org/namespaces/inkscape"
   width="200.64331mm"
   height="89.63765mm"
   viewBox="0 0 200.64331 89.63765"
   version="1.1"
   id="svg8"
   inkscape:version="1.0.2-2 (e86c870879, 2021-01-15)"
   sodipodi:docname="css-rule-anatomy.svg">
  <defs
     id="defs2">
    <filter
       inkscape:collect="always"
       style="color-interpolation-filters:sRGB"
       id="filter1099"
       x="-3.6099406e-05"
       width="1.0000722"
       y="-0.00015842045"
       height="1.0003168">
      <feGaussianBlur
         inkscape:collect="always"
         stdDeviation="0.0012575019"
         id="feGaussianBlur1101" />
    </filter>
  </defs>
  <sodipodi:namedview
     id="base"
     pagecolor="#ffffff"
     bordercolor="#666666"
     borderopacity="1.0"
     inkscape:pageopacity="0.0"
     inkscape:pageshadow="2"
     inkscape:zoom="1"
     inkscape:cx="391.60168"
     inkscape:cy="204.17197"
     inkscape:document-units="mm"
     inkscape:current-layer="g187"
     inkscape:document-rotation="0"
     showgrid="false"
     inkscape:window-width="1350"
     inkscape:window-height="728"
     inkscape:window-x="0"
     inkscape:window-y="0"
     inkscape:window-maximized="0"
     showguides="true"
     inkscape:guide-bbox="true" />
  <metadata
     id="metadata5">
    <rdf:RDF>
      <cc:Work
         rdf:about="">
        <dc:format>image/svg+xml</dc:format>
        <dc:type
           rdf:resource="http://purl.org/dc/dcmitype/StillImage" />
        <dc:title></dc:title>
      </cc:Work>
    </rdf:RDF>
  </metadata>
  <g
     inkscape:groupmode="layer"
     id="g187"
     inkscape:label="Code below"
     transform="translate(-48.755422,-92.269296)">
    <g
       aria-label="h2 {
  border: 1px solid blue;
}"
       id="text191"
       style="font-size:5.64444px;line-height:1.25;font-family:sans-serif;stroke-width:0.264583;filter:url(#filter1099);opacity:0"
       class="other-rule">
      <path
         d="m 119.71612,158.28006 v 1.20441 q 0.17639,-0.10473 0.35553,-0.15434 0.18191,-0.0524 0.36656,-0.0524 0.29215,0 0.5209,0.0992 0.22875,0.0992 0.37758,0.31419 0.15159,0.21222 0.15159,0.53744 v 1.06109 q 0.21497,0 0.28112,0.0413 0.13229,0.0854 0.13229,0.24253 0,0.12402 -0.0854,0.20395 -0.0854,0.0772 -0.28939,0.0772 h -0.64492 q -0.20119,0 -0.28939,-0.0772 -0.0854,-0.0799 -0.0854,-0.20671 0,-0.15434 0.1323,-0.23977 0.0689,-0.0441 0.28112,-0.0413 v -1.02251 q 0,-0.21773 -0.0992,-0.30592 -0.12954,-0.11851 -0.3831,-0.11851 -0.18741,0 -0.33348,0.0744 -0.14332,0.0717 -0.38861,0.31419 v 1.05834 q 0.21773,0 0.28112,0.0413 0.13505,0.0854 0.13505,0.24253 0,0.12402 -0.0882,0.20395 -0.0854,0.0772 -0.28938,0.0772 h -0.64217 q -0.20395,0 -0.29214,-0.0772 -0.0854,-0.0799 -0.0854,-0.20671 0,-0.15434 0.13505,-0.23977 0.0661,-0.0441 0.28112,-0.0413 v -2.44464 h -0.0965 q -0.20395,0 -0.29214,-0.0772 -0.0854,-0.0799 -0.0854,-0.20671 0,-0.12402 0.0854,-0.20119 0.0882,-0.0799 0.29214,-0.0799 z"
         style="fill:#e45649;fill-opacity:1"
         id="path1026" />
      <path
         d="m 123.15846,161.2897 h 1.23748 q 0.10197,-0.0827 0.19292,-0.0827 0.12954,0 0.20395,0.0854 0.0772,0.0854 0.0772,0.29215 v 0.27009 h -2.57417 v -0.59807 q 1.52686,-1.25952 1.84381,-1.62057 0.15985,-0.18466 0.15985,-0.35002 0,-0.20671 -0.1819,-0.3638 -0.17914,-0.15985 -0.47956,-0.15985 -0.30316,0 -0.50436,0.17638 -0.10473,0.0937 -0.16812,0.27837 -0.0386,0.11575 -0.10748,0.16536 -0.0662,0.0496 -0.16537,0.0496 -0.11575,0 -0.20119,-0.0827 -0.0827,-0.0827 -0.0827,-0.19293 0,-0.16536 0.15158,-0.41341 0.15434,-0.24804 0.44648,-0.39687 0.2949,-0.14883 0.63941,-0.14883 0.53468,0 0.87643,0.32522 0.34176,0.32246 0.34176,0.78272 0,0.23427 -0.0992,0.43546 -0.0965,0.19844 -0.46853,0.55122 -0.29215,0.27836 -1.13826,0.9977 z"
         style="fill:#e45649;fill-opacity:1"
         id="path1028" />
      <path
         d="m 130.57505,160.48492 q 0.0992,0.113 0.13505,0.22049 0.0358,0.10473 0.0358,0.34175 v 0.89848 q 0,0.113 0.0413,0.15985 0.0441,0.0496 0.15985,0.0579 0.11576,0.011 0.19017,0.091 0.0744,0.0799 0.0744,0.19568 0,0.12127 -0.0854,0.20395 -0.0827,0.0827 -0.21222,0.0827 -0.18466,0 -0.35553,-0.0992 -0.17088,-0.0965 -0.29766,-0.31695 -0.0799,-0.14332 -0.0799,-0.33349 v -0.99494 q 0,-0.11851 -0.0386,-0.16261 -0.0386,-0.0441 -0.16536,-0.0579 -0.12678,-0.0165 -0.19569,-0.0909 -0.0661,-0.0744 -0.0661,-0.19568 0,-0.12402 0.0661,-0.19844 0.0689,-0.0744 0.19569,-0.0882 0.12953,-0.0165 0.15709,-0.0524 0.0468,-0.0551 0.0468,-0.17087 v -0.94258 q 0,-0.30317 0.22049,-0.52365 0.22049,-0.22325 0.50987,-0.22325 0.1323,0 0.21498,0.0827 0.0854,0.0827 0.0854,0.20395 0,0.113 -0.0744,0.19292 -0.0744,0.0799 -0.19292,0.0909 -0.11851,0.011 -0.14883,0.0496 -0.0496,0.0579 -0.0496,0.17088 v 0.89848 q 0,0.19017 -0.0386,0.2949 -0.0358,0.10197 -0.1323,0.21497 z"
         style="font-style:normal;font-variant:normal;font-weight:bold;font-stretch:normal;font-size:5.64444px;font-family:monospace;-inkscape-font-specification:'monospace Bold';fill:#383a42;fill-opacity:1;stroke-width:0.264583"
         id="path1030" />
      <path
         d="m 126.36102,165.53569 v 1.26779 q 0.2067,-0.13505 0.41892,-0.20119 0.21497,-0.0689 0.4327,-0.0689 0.58705,0 0.99495,0.40514 0.40789,0.40514 0.40789,0.9784 0,0.54846 -0.3886,0.91778 -0.38861,0.36656 -1.02526,0.36656 -0.226,0 -0.43546,-0.0579 -0.20946,-0.0579 -0.40514,-0.17088 v 0.13781 h -0.66146 q -0.20395,0 -0.29215,-0.0772 -0.0854,-0.0799 -0.0854,-0.2067 0,-0.12402 0.0882,-0.20119 0.0882,-0.0799 0.28939,-0.0799 h 0.0965 v -2.44464 h -0.0965 q -0.20395,0 -0.29215,-0.0772 -0.0854,-0.0799 -0.0854,-0.2067 0,-0.12403 0.0854,-0.2012 0.0882,-0.0799 0.29215,-0.0799 z m 1.68947,2.39778 q 0,-0.35002 -0.24529,-0.59255 -0.24529,-0.24254 -0.60083,-0.24254 -0.35277,0 -0.59806,0.24254 -0.24529,0.24253 -0.24529,0.58428 0,0.31144 0.22048,0.51263 0.22049,0.19844 0.62287,0.19844 0.40239,0 0.62288,-0.19844 0.22324,-0.20119 0.22324,-0.50436 z"
         style="fill:#50a14f;fill-opacity:1"
         id="path1032" />
      <path
         d="m 131.92829,167.90591 q 0,0.32522 -0.1819,0.63114 -0.17915,0.30317 -0.53744,0.48507 -0.35553,0.17915 -0.74414,0.17915 -0.38585,0 -0.73863,-0.17639 -0.35277,-0.17915 -0.53743,-0.48507 -0.18466,-0.30593 -0.18466,-0.63941 0,-0.339 0.18741,-0.66422 0.18742,-0.32797 0.53744,-0.51538 0.35278,-0.18741 0.73587,-0.18741 0.38585,0 0.74138,0.19292 0.35829,0.19017 0.5402,0.51539 0.1819,0.32246 0.1819,0.66421 z m -0.565,0.003 q 0,-0.27285 -0.19568,-0.50161 -0.26734,-0.30868 -0.7028,-0.30868 -0.38309,0 -0.63941,0.24529 -0.25631,0.24529 -0.25631,0.56775 0,0.26459 0.25907,0.4961 0.25907,0.22875 0.63665,0.22875 0.38034,0 0.63941,-0.22875 0.25907,-0.23151 0.25907,-0.49885 z"
         style="fill:#50a14f;fill-opacity:1"
         id="path1034" />
      <path
         d="m 133.73076,166.6078 v 0.35278 q 0.35553,-0.25632 0.55948,-0.34176 0.20671,-0.0854 0.38585,-0.0854 0.27561,0 0.53468,0.20395 0.17639,0.1378 0.17639,0.28111 0,0.12127 -0.0854,0.20671 -0.0827,0.0827 -0.20119,0.0827 -0.10473,0 -0.22049,-0.10473 -0.11575,-0.10473 -0.2067,-0.10473 -0.11851,0 -0.35554,0.14883 -0.23426,0.14883 -0.58704,0.44648 v 0.85163 h 0.80477 q 0.20395,0 0.28939,0.0799 0.0882,0.0772 0.0882,0.20395 0,0.12402 -0.0882,0.20394 -0.0854,0.0772 -0.28939,0.0772 h -1.70601 q -0.20395,0 -0.29214,-0.0772 -0.0854,-0.0799 -0.0854,-0.2067 0,-0.12402 0.0854,-0.20119 0.0882,-0.0799 0.29214,-0.0799 h 0.33624 v -1.37253 h -0.20395 q -0.20395,0 -0.29214,-0.0772 -0.0854,-0.0799 -0.0854,-0.2067 0,-0.12402 0.0854,-0.20119 0.0882,-0.0799 0.29214,-0.0799 z"
         style="fill:#50a14f;fill-opacity:1"
         id="path1036" />
      <path
         d="m 138.53184,165.53569 v 3.00963 h 0.0965 q 0.2012,0 0.28939,0.0799 0.0882,0.0772 0.0882,0.20395 0,0.12402 -0.0882,0.20394 -0.0854,0.0772 -0.28939,0.0772 h -0.66145 v -0.13781 q -0.19293,0.113 -0.40515,0.17088 -0.20946,0.0579 -0.43546,0.0579 -0.63665,0 -1.02526,-0.36656 -0.3886,-0.36932 -0.3886,-0.91778 0,-0.57326 0.4079,-0.9784 0.40789,-0.40514 0.99494,-0.40514 0.22048,0 0.4327,0.0689 0.21222,0.0661 0.41893,0.20119 v -0.7028 h -0.0965 q -0.20395,0 -0.29214,-0.0772 -0.0854,-0.0799 -0.0854,-0.20395 0,-0.12678 0.0854,-0.20395 0.0882,-0.0799 0.29214,-0.0799 z m -0.56499,2.39778 q 0,-0.35002 -0.2453,-0.59255 -0.24529,-0.24254 -0.60082,-0.24254 -0.35278,0 -0.59807,0.24254 -0.24529,0.24253 -0.24529,0.58428 0,0.31144 0.22049,0.51263 0.22048,0.19844 0.62287,0.19844 0.39963,0 0.62287,-0.19844 0.22325,-0.20119 0.22325,-0.50436 z"
         style="fill:#50a14f;fill-opacity:1"
         id="path1038" />
      <path
         d="m 142.04032,168.14569 h -2.31786 q 0.0882,0.22048 0.31144,0.35553 0.226,0.13505 0.60909,0.13505 0.3142,0 0.83509,-0.13505 0.21498,-0.0551 0.29766,-0.0551 0.113,0 0.19017,0.0799 0.0772,0.0799 0.0772,0.20119 0,0.11024 -0.0827,0.18741 -0.11025,0.10198 -0.53744,0.19569 -0.42719,0.0909 -0.82131,0.0909 -0.67799,0 -1.08589,-0.3831 -0.40514,-0.38309 -0.40514,-0.94258 0,-0.59531 0.43821,-0.96738 0.44097,-0.37482 1.01424,-0.37482 0.34451,0 0.63114,0.12126 0.28939,0.12127 0.42995,0.26183 0.19843,0.20395 0.32797,0.50436 0.0882,0.20946 0.0882,0.48507 z m -0.62563,-0.565 q -0.12953,-0.24253 -0.33899,-0.36104 -0.20947,-0.12127 -0.49885,-0.12127 -0.28663,0 -0.4961,0.12127 -0.20946,0.11851 -0.34175,0.36104 z"
         style="fill:#50a14f;fill-opacity:1"
         id="path1040" />
      <path
         d="m 143.89241,166.6078 v 0.35278 q 0.35553,-0.25632 0.55948,-0.34176 0.2067,-0.0854 0.38585,-0.0854 0.27561,0 0.53468,0.20395 0.17639,0.1378 0.17639,0.28111 0,0.12127 -0.0854,0.20671 -0.0827,0.0827 -0.2012,0.0827 -0.10473,0 -0.22048,-0.10473 -0.11576,-0.10473 -0.20671,-0.10473 -0.11851,0 -0.35553,0.14883 -0.23427,0.14883 -0.58704,0.44648 v 0.85163 h 0.80477 q 0.20395,0 0.28939,0.0799 0.0882,0.0772 0.0882,0.20395 0,0.12402 -0.0882,0.20394 -0.0854,0.0772 -0.28939,0.0772 h -1.70601 q -0.20395,0 -0.29214,-0.0772 -0.0854,-0.0799 -0.0854,-0.2067 0,-0.12402 0.0854,-0.20119 0.0882,-0.0799 0.29214,-0.0799 h 0.33624 v -1.37253 h -0.20395 q -0.20395,0 -0.29214,-0.0772 -0.0854,-0.0799 -0.0854,-0.2067 0,-0.12402 0.0854,-0.20119 0.0882,-0.0799 0.29214,-0.0799 z"
         style="fill:#50a14f;fill-opacity:1"
         id="path1042" />
      <path
         d="m 147.82257,166.98538 q 0,0.15985 -0.113,0.26734 -0.113,0.10749 -0.31144,0.10749 -0.19844,0 -0.31143,-0.10749 -0.113,-0.10749 -0.113,-0.26734 0,-0.15985 0.113,-0.26734 0.11299,-0.10748 0.31143,-0.10748 0.19844,0 0.31144,0.10748 0.113,0.10749 0.113,0.26734 z m 0.006,1.84933 q 0,0.15985 -0.113,0.26734 -0.113,0.10748 -0.31144,0.10748 -0.19843,0 -0.31143,-0.10748 -0.113,-0.10749 -0.113,-0.26734 0,-0.15985 0.113,-0.26734 0.113,-0.10749 0.31143,-0.10749 0.19844,0 0.31144,0.10749 0.113,0.10749 0.113,0.26734 z"
         style="font-style:normal;font-variant:normal;font-weight:bold;font-stretch:normal;font-size:5.64444px;font-family:monospace;-inkscape-font-specification:'monospace Bold';fill:#383a42;fill-opacity:1;stroke-width:0.264583"
         id="path1044" />
      <path
         d="m 154.45919,165.453 v 3.09232 h 0.57051 q 0.20395,0 0.28939,0.0799 0.0882,0.0772 0.0882,0.20395 0,0.12402 -0.0882,0.20394 -0.0854,0.0772 -0.28939,0.0772 h -1.70601 q -0.20395,0 -0.29214,-0.0772 -0.0854,-0.0799 -0.0854,-0.2067 0,-0.12402 0.0854,-0.20119 0.0882,-0.0799 0.29214,-0.0799 h 0.57051 v -2.35644 l -0.50436,0.13229 q -0.12127,0.0331 -0.1819,0.0331 -0.10749,0 -0.18742,-0.0854 -0.0772,-0.0854 -0.0772,-0.20946 0,-0.113 0.0579,-0.17639 0.0579,-0.0661 0.24254,-0.11575 z"
         style="fill:#986801;fill-opacity:1"
         id="path1046" />
      <path
         d="m 156.85698,168.79888 v 0.92604 h 0.339 q 0.20395,0 0.28938,0.0772 0.0882,0.0799 0.0882,0.20671 0,0.12402 -0.0882,0.20119 -0.0854,0.0799 -0.28938,0.0799 h -1.00046 q -0.20395,0 -0.29214,-0.0799 -0.0854,-0.0772 -0.0854,-0.20119 0,-0.12678 0.0882,-0.20671 0.0882,-0.0772 0.28939,-0.0772 h 0.0965 v -2.55213 h -0.0965 q -0.20395,0 -0.29214,-0.0772 -0.0854,-0.0799 -0.0854,-0.2067 0,-0.12402 0.0854,-0.20119 0.0882,-0.0799 0.29214,-0.0799 h 0.66146 v 0.19292 q 0.19844,-0.13504 0.41065,-0.20119 0.21222,-0.0661 0.43546,-0.0661 0.57878,0 0.98668,0.39411 0.4079,0.39137 0.4079,0.89848 0,0.55949 -0.48232,0.92329 -0.40238,0.30317 -0.90674,0.30317 -0.21773,0 -0.42995,-0.0634 -0.21222,-0.0634 -0.42168,-0.19017 z m 1.67569,-0.97014 q 0,-0.11851 -0.0937,-0.30041 -0.0937,-0.18466 -0.28939,-0.30593 -0.19293,-0.12402 -0.45475,-0.12402 -0.42168,0 -0.66973,0.31695 -0.16812,0.21773 -0.16812,0.41892 0,0.226 0.23978,0.44097 0.24253,0.21222 0.59807,0.21222 0.35828,0 0.59806,-0.21222 0.23978,-0.21221 0.23978,-0.44648 z"
         style="fill:#986801;fill-opacity:1"
         id="path1048" />
      <path
         d="m 161.36867,167.80945 0.85714,0.73587 q 0.15434,0.008 0.23151,0.0882 0.0772,0.0772 0.0772,0.19569 0,0.12402 -0.0882,0.20394 -0.0854,0.0772 -0.28939,0.0772 h -0.64217 q -0.20395,0 -0.29214,-0.0772 -0.0854,-0.0799 -0.0854,-0.20946 0,-0.0992 0.0606,-0.17363 0.0634,-0.0772 0.17088,-0.10473 l -0.42168,-0.3638 -0.42995,0.3638 q 0.12954,0.0331 0.18466,0.10197 0.0579,0.0689 0.0579,0.17639 0,0.12954 -0.0854,0.20946 -0.0854,0.0772 -0.28939,0.0772 h -0.63665 q -0.20395,0 -0.29214,-0.0772 -0.0854,-0.0799 -0.0854,-0.2067 0,-0.11576 0.0772,-0.19293 0.0772,-0.0799 0.23151,-0.0882 l 0.83784,-0.73863 -0.74138,-0.6339 q -0.14607,-0.011 -0.22324,-0.0882 -0.0744,-0.0799 -0.0744,-0.19568 0,-0.12402 0.0854,-0.20119 0.0882,-0.0799 0.29215,-0.0799 h 0.52916 q 0.20395,0 0.28939,0.0799 0.0882,0.0772 0.0882,0.19843 0,0.16261 -0.15434,0.26459 l 0.34175,0.28387 0.33624,-0.28939 q -0.15158,-0.10748 -0.15158,-0.24804 0,-0.13229 0.0854,-0.20946 0.0882,-0.0799 0.29215,-0.0799 h 0.52365 q 0.20395,0 0.28939,0.0799 0.0882,0.0772 0.0882,0.20395 0,0.11299 -0.0772,0.19292 -0.0744,0.0772 -0.22324,0.0882 z"
         style="fill:#986801;fill-opacity:1"
         id="path1050" />
      <path
         d="m 168.33052,167.26926 q -0.13781,-0.0854 -0.28939,-0.12678 -0.15158,-0.0441 -0.31695,-0.0441 -0.32797,0 -0.5209,0.10749 -0.0854,0.0469 -0.0854,0.10197 0,0.0634 0.11575,0.12403 0.0882,0.0441 0.39412,0.0854 0.56224,0.0772 0.78272,0.15434 0.28939,0.10198 0.44649,0.30317 0.15709,0.2012 0.15709,0.42444 0,0.30317 -0.26733,0.50712 -0.3831,0.2949 -0.99495,0.2949 -0.24529,0 -0.45475,-0.0441 -0.20671,-0.0413 -0.38034,-0.12403 -0.0413,0.0358 -0.0882,0.0551 -0.0469,0.0193 -0.0965,0.0193 -0.13229,0 -0.21221,-0.0854 -0.0772,-0.0882 -0.0772,-0.29214 v -0.19017 q 0,-0.20395 0.0772,-0.28939 0.0799,-0.0882 0.2067,-0.0882 0.10198,0 0.17088,0.0579 0.0689,0.0551 0.10749,0.19293 0.12953,0.11024 0.31143,0.16812 0.1819,0.0551 0.41893,0.0551 0.3886,0 0.60358,-0.12127 0.10197,-0.0606 0.10197,-0.12678 0,-0.11024 -0.14607,-0.1819 -0.14607,-0.0717 -0.60358,-0.12126 -0.68075,-0.0717 -0.90951,-0.27561 -0.22875,-0.2012 -0.22875,-0.4961 0,-0.30316 0.25631,-0.50436 0.34727,-0.2756 0.90951,-0.2756 0.19568,0 0.37483,0.0386 0.1819,0.0358 0.34726,0.113 0.0524,-0.0386 0.0965,-0.0579 0.0469,-0.0193 0.0854,-0.0193 0.11576,0 0.19293,0.0882 0.0772,0.0854 0.0772,0.28939 v 0.13781 q 0,0.18465 -0.0441,0.2508 -0.0882,0.12678 -0.23978,0.12678 -0.10197,0 -0.17914,-0.0634 -0.0772,-0.0634 -0.0992,-0.16812 z"
         style="fill:#986801;fill-opacity:1"
         id="path1052" />
      <path
         d="m 172.57487,167.90591 q 0,0.32522 -0.1819,0.63114 -0.17914,0.30317 -0.53743,0.48507 -0.35554,0.17915 -0.74414,0.17915 -0.38585,0 -0.73863,-0.17639 -0.35278,-0.17915 -0.53744,-0.48507 -0.18465,-0.30593 -0.18465,-0.63941 0,-0.339 0.18741,-0.66422 0.18741,-0.32797 0.53743,-0.51538 0.35278,-0.18741 0.73588,-0.18741 0.38585,0 0.74138,0.19292 0.35829,0.19017 0.54019,0.51539 0.1819,0.32246 0.1819,0.66421 z m -0.56499,0.003 q 0,-0.27285 -0.19568,-0.50161 -0.26734,-0.30868 -0.7028,-0.30868 -0.3831,0 -0.63941,0.24529 -0.25632,0.24529 -0.25632,0.56775 0,0.26459 0.25907,0.4961 0.25907,0.22875 0.63666,0.22875 0.38033,0 0.63941,-0.22875 0.25907,-0.23151 0.25907,-0.49885 z"
         style="fill:#986801;fill-opacity:1"
         id="path1054" />
      <path
         d="m 174.77697,165.53569 v 3.00963 h 0.678 q 0.20395,0 0.28939,0.0799 0.0882,0.0772 0.0882,0.20395 0,0.12402 -0.0882,0.20394 -0.0854,0.0772 -0.28939,0.0772 h -1.92099 q -0.20394,0 -0.29214,-0.0772 -0.0854,-0.0799 -0.0854,-0.2067 0,-0.12402 0.0854,-0.20119 0.0882,-0.0799 0.29214,-0.0799 h 0.678 v -2.44464 h -0.45475 q -0.2012,0 -0.28939,-0.0772 -0.0882,-0.0799 -0.0882,-0.2067 0,-0.12403 0.0854,-0.2012 0.0882,-0.0799 0.29215,-0.0799 z"
         style="fill:#986801;fill-opacity:1"
         id="path1056" />
      <path
         d="m 178.08426,165.53569 v 0.59806 h -0.67248 v -0.59806 z m 0.0772,1.07211 v 1.93752 h 0.678 q 0.20395,0 0.28938,0.0799 0.0882,0.0772 0.0882,0.20395 0,0.12402 -0.0882,0.20394 -0.0854,0.0772 -0.28938,0.0772 h -1.92099 q -0.20395,0 -0.29214,-0.0772 -0.0854,-0.0799 -0.0854,-0.2067 0,-0.12402 0.0854,-0.20119 0.0882,-0.0799 0.29214,-0.0799 h 0.678 v -1.37253 h -0.45475 q -0.2012,0 -0.28939,-0.0772 -0.0882,-0.0799 -0.0882,-0.2067 0,-0.12402 0.0854,-0.20119 0.0882,-0.0799 0.29215,-0.0799 z"
         style="fill:#986801;fill-opacity:1"
         id="path1058" />
      <path
         d="m 182.56564,165.53569 v 3.00963 h 0.0965 q 0.20119,0 0.28939,0.0799 0.0882,0.0772 0.0882,0.20395 0,0.12402 -0.0882,0.20394 -0.0854,0.0772 -0.28939,0.0772 h -0.66146 v -0.13781 q -0.19292,0.113 -0.40514,0.17088 -0.20946,0.0579 -0.43546,0.0579 -0.63665,0 -1.02526,-0.36656 -0.38861,-0.36932 -0.38861,-0.91778 0,-0.57326 0.4079,-0.9784 0.4079,-0.40514 0.99495,-0.40514 0.22048,0 0.4327,0.0689 0.21222,0.0661 0.41892,0.20119 v -0.7028 h -0.0965 q -0.20395,0 -0.29214,-0.0772 -0.0854,-0.0799 -0.0854,-0.20395 0,-0.12678 0.0854,-0.20395 0.0882,-0.0799 0.29214,-0.0799 z m -0.565,2.39778 q 0,-0.35002 -0.24529,-0.59255 -0.24529,-0.24254 -0.60082,-0.24254 -0.35278,0 -0.59807,0.24254 -0.24529,0.24253 -0.24529,0.58428 0,0.31144 0.22049,0.51263 0.22048,0.19844 0.62287,0.19844 0.39963,0 0.62287,-0.19844 0.22324,-0.20119 0.22324,-0.50436 z"
         style="fill:#986801;fill-opacity:1"
         id="path1060" />
      <path
         d="m 187.33089,165.53569 v 1.26779 q 0.20671,-0.13505 0.41893,-0.20119 0.21497,-0.0689 0.4327,-0.0689 0.58704,0 0.99494,0.40514 0.4079,0.40514 0.4079,0.9784 0,0.54846 -0.3886,0.91778 -0.38861,0.36656 -1.02526,0.36656 -0.226,0 -0.43546,-0.0579 -0.20946,-0.0579 -0.40515,-0.17088 v 0.13781 h -0.66145 q -0.20395,0 -0.29215,-0.0772 -0.0854,-0.0799 -0.0854,-0.2067 0,-0.12402 0.0882,-0.20119 0.0882,-0.0799 0.28939,-0.0799 h 0.0965 v -2.44464 h -0.0965 q -0.20395,0 -0.29215,-0.0772 -0.0854,-0.0799 -0.0854,-0.2067 0,-0.12403 0.0854,-0.2012 0.0882,-0.0799 0.29215,-0.0799 z m 1.68948,2.39778 q 0,-0.35002 -0.24529,-0.59255 -0.24529,-0.24254 -0.60083,-0.24254 -0.35277,0 -0.59807,0.24254 -0.24529,0.24253 -0.24529,0.58428 0,0.31144 0.22049,0.51263 0.22049,0.19844 0.62287,0.19844 0.40239,0 0.62288,-0.19844 0.22324,-0.20119 0.22324,-0.50436 z"
         style="fill:#986801;fill-opacity:1"
         id="path1062" />
      <path
         d="m 191.71305,165.53569 v 3.00963 h 0.678 q 0.20395,0 0.28938,0.0799 0.0882,0.0772 0.0882,0.20395 0,0.12402 -0.0882,0.20394 -0.0854,0.0772 -0.28938,0.0772 h -1.92099 q -0.20395,0 -0.29214,-0.0772 -0.0854,-0.0799 -0.0854,-0.2067 0,-0.12402 0.0854,-0.20119 0.0882,-0.0799 0.29214,-0.0799 h 0.678 v -2.44464 h -0.45476 q -0.20119,0 -0.28938,-0.0772 -0.0882,-0.0799 -0.0882,-0.2067 0,-0.12403 0.0854,-0.2012 0.0882,-0.0799 0.29214,-0.0799 z"
         style="fill:#986801;fill-opacity:1"
         id="path1064" />
      <path
         d="m 196.01804,166.6078 v 1.93752 q 0.17914,0 0.26458,0.0799 0.0854,0.0799 0.0854,0.20395 0,0.12402 -0.0882,0.20394 -0.0854,0.0772 -0.28939,0.0772 h -0.53744 v -0.12954 q -0.24253,0.11024 -0.46302,0.16536 -0.22048,0.0551 -0.41892,0.0551 -0.27836,0 -0.48231,-0.11576 -0.20395,-0.11851 -0.32246,-0.32522 -0.0854,-0.14882 -0.0854,-0.37207 v -1.21543 h -0.0965 q -0.20395,0 -0.29215,-0.0772 -0.0854,-0.0799 -0.0854,-0.2067 0,-0.12402 0.0854,-0.20119 0.0882,-0.0799 0.29215,-0.0799 h 0.66145 v 1.6812 q 0,0.17915 0.0854,0.26459 0.0882,0.0827 0.26734,0.0827 0.17088,0 0.36656,-0.0661 0.19844,-0.0689 0.48782,-0.24529 v -1.15204 h -0.20395 q -0.20395,0 -0.29214,-0.0772 -0.0854,-0.0799 -0.0854,-0.2067 0,-0.12402 0.0854,-0.20119 0.0882,-0.0799 0.29214,-0.0799 z"
         style="fill:#986801;fill-opacity:1"
         id="path1066" />
      <path
         d="m 199.62298,168.14569 h -2.31786 q 0.0882,0.22048 0.31144,0.35553 0.226,0.13505 0.60909,0.13505 0.3142,0 0.83509,-0.13505 0.21498,-0.0551 0.29766,-0.0551 0.113,0 0.19017,0.0799 0.0772,0.0799 0.0772,0.20119 0,0.11024 -0.0827,0.18741 -0.11025,0.10198 -0.53744,0.19569 -0.42719,0.0909 -0.82131,0.0909 -0.67799,0 -1.08589,-0.3831 -0.40514,-0.38309 -0.40514,-0.94258 0,-0.59531 0.43821,-0.96738 0.44097,-0.37482 1.01424,-0.37482 0.34451,0 0.63114,0.12126 0.28939,0.12127 0.42995,0.26183 0.19843,0.20395 0.32797,0.50436 0.0882,0.20946 0.0882,0.48507 z m -0.62563,-0.565 q -0.12953,-0.24253 -0.33899,-0.36104 -0.20946,-0.12127 -0.49885,-0.12127 -0.28663,0 -0.4961,0.12127 -0.20946,0.11851 -0.34175,0.36104 z"
         style="fill:#986801;fill-opacity:1"
         id="path1068" />
      <path
         d="m 202.27984,166.99916 q 0,0.15985 -0.113,0.26734 -0.113,0.10749 -0.31144,0.10749 -0.19568,0 -0.30868,-0.10749 -0.113,-0.11024 -0.113,-0.27009 0,-0.1571 0.11025,-0.26459 0.113,-0.11024 0.31143,-0.11024 0.19844,0 0.31144,0.10749 0.113,0.10748 0.113,0.27009 z m -0.87368,1.28709 h 0.71934 l -0.79651,1.2926 q -0.0772,0.12953 -0.15158,0.12953 -0.0689,0 -0.11851,-0.0413 -0.0469,-0.0413 -0.0469,-0.0882 0,-0.0358 0.0193,-0.0965 z"
         style="font-style:normal;font-variant:normal;font-weight:bold;font-stretch:normal;font-size:5.64444px;font-family:monospace;-inkscape-font-specification:'monospace Bold';fill:#383a42;fill-opacity:1;stroke-width:0.264583"
         id="path1070" />
      <path
         d="m 120.17087,174.99617 q -0.0965,-0.113 -0.13504,-0.21773 Q 120,174.67095 120,174.4863 v -0.89848 q 0,-0.113 -0.0441,-0.15986 -0.0413,-0.0496 -0.1571,-0.0606 -0.11575,-0.011 -0.19017,-0.091 -0.0744,-0.0799 -0.0744,-0.19292 0,-0.12127 0.0827,-0.20395 0.0854,-0.0827 0.21498,-0.0827 0.18465,0 0.35553,0.0992 0.17088,0.0965 0.29766,0.31695 0.0799,0.14332 0.0799,0.33073 v 0.94258 q 0,0.11851 0.0386,0.16536 0.0386,0.0441 0.16536,0.0579 0.12678,0.0138 0.19293,0.0882 0.0689,0.0744 0.0689,0.19844 0,0.12127 -0.0689,0.19568 -0.0662,0.0744 -0.19568,0.091 -0.12678,0.0138 -0.15434,0.0496 -0.0469,0.0551 -0.0469,0.17088 v 0.99494 q 0,0.30593 -0.22048,0.52641 -0.22049,0.22324 -0.50988,0.22324 -0.13229,0 -0.21773,-0.0827 -0.0827,-0.0827 -0.0827,-0.20395 0,-0.113 0.0744,-0.19292 0.0744,-0.0799 0.19293,-0.0909 0.11851,-0.011 0.14883,-0.0496 Q 120,176.56989 120,176.45689 v -0.89848 q 0,-0.23702 0.0331,-0.34175 0.0358,-0.10473 0.1378,-0.22049 z"
         style="font-style:normal;font-variant:normal;font-weight:bold;font-stretch:normal;font-size:5.64444px;font-family:monospace;-inkscape-font-specification:'monospace Bold';fill:#383a42;fill-opacity:1;stroke-width:0.264583"
         id="path1072" />
    </g>
  </g>
  <g
     inkscape:groupmode="layer"
     id="layer2"
     inkscape:label="Code"
     transform="translate(-48.755422,-92.269296)"
     sodipodi:insensitive="true">
    <g
       aria-label="h1 {   color: red;   font-size: 36px;   font-weight: bold; }"
       id="text26"
       style="font-size:5.64444px;line-height:1.25;font-family:sans-serif;stroke-width:0.264583"
       transform="translate(58.208352)">
      <path
         d="m 61.208911,115.86585 v 1.20441 q 0.176389,-0.10473 0.355534,-0.15434 0.181901,-0.0524 0.366558,-0.0524 0.292143,0 0.520898,0.0992 0.228754,0.0992 0.377582,0.31419 0.151584,0.21222 0.151584,0.53744 v 1.06109 q 0.214974,0 0.281119,0.0413 0.132292,0.0854 0.132292,0.24253 0,0.12403 -0.08544,0.20395 -0.08544,0.0772 -0.289388,0.0772 h -0.644921 q -0.201194,0 -0.289388,-0.0772 -0.08544,-0.0799 -0.08544,-0.2067 0,-0.15434 0.132292,-0.23978 0.0689,-0.0441 0.28112,-0.0413 v -1.02251 q 0,-0.21773 -0.09922,-0.30592 -0.129536,-0.11851 -0.383094,-0.11851 -0.187413,0 -0.333485,0.0744 -0.143316,0.0717 -0.388607,0.3142 v 1.05833 q 0.21773,0 0.28112,0.0413 0.135047,0.0854 0.135047,0.24253 0,0.12403 -0.08819,0.20395 -0.08544,0.0772 -0.289388,0.0772 h -0.642165 q -0.20395,0 -0.292144,-0.0772 -0.08544,-0.0799 -0.08544,-0.2067 0,-0.15434 0.135047,-0.23978 0.06615,-0.0441 0.28112,-0.0413 v -2.44464 h -0.09646 q -0.203949,0 -0.292144,-0.0772 -0.08544,-0.0799 -0.08544,-0.20671 0,-0.12402 0.08544,-0.20119 0.0882,-0.0799 0.292144,-0.0799 z"
         style="font-style:normal;font-variant:normal;font-weight:bold;font-stretch:normal;font-family:monospace;-inkscape-font-specification:'monospace Bold';fill:#e45649;fill-opacity:1"
         id="path1270" />
      <path
         d="m 65.467046,115.78317 v 3.09232 h 0.570507 q 0.20395,0 0.289388,0.0799 0.08819,0.0772 0.08819,0.20395 0,0.12403 -0.08819,0.20395 -0.08544,0.0772 -0.289388,0.0772 h -1.70601 q -0.203949,0 -0.292143,-0.0772 -0.08544,-0.0799 -0.08544,-0.2067 0,-0.12403 0.08544,-0.2012 0.08819,-0.0799 0.292143,-0.0799 h 0.570508 v -2.35645 l -0.504362,0.1323 q -0.121267,0.0331 -0.181901,0.0331 -0.107487,0 -0.187413,-0.0854 -0.07717,-0.0854 -0.07717,-0.20946 0,-0.113 0.05788,-0.17639 0.05788,-0.0662 0.242534,-0.11576 z"
         style="font-style:normal;font-variant:normal;font-weight:bold;font-stretch:normal;font-family:monospace;-inkscape-font-specification:'monospace Bold';fill:#e45649;fill-opacity:1"
         id="path1272" />
      <path
         d="m 72.067844,118.07071 q 0.09922,0.113 0.135047,0.22049 0.03583,0.10473 0.03583,0.34175 v 0.89848 q 0,0.113 0.04134,0.15986 0.0441,0.0496 0.159852,0.0579 0.115755,0.011 0.190169,0.0909 0.07441,0.0799 0.07441,0.19569 0,0.12126 -0.08544,0.20394 -0.08268,0.0827 -0.212218,0.0827 -0.184657,0 -0.355534,-0.0992 -0.170876,-0.0965 -0.297656,-0.31695 -0.07993,-0.14332 -0.07993,-0.33349 v -0.99494 q 0,-0.11851 -0.03858,-0.16261 -0.03859,-0.0441 -0.165364,-0.0579 -0.12678,-0.0165 -0.195682,-0.0909 -0.06615,-0.0744 -0.06615,-0.19569 0,-0.12402 0.06615,-0.19843 0.0689,-0.0744 0.195682,-0.0882 0.129535,-0.0165 0.157096,-0.0524 0.04685,-0.0551 0.04685,-0.17088 v -0.94258 q 0,-0.30317 0.220486,-0.52365 0.220486,-0.22324 0.509874,-0.22324 0.132291,0 0.214974,0.0827 0.08544,0.0827 0.08544,0.20395 0,0.113 -0.07441,0.19292 -0.07441,0.0799 -0.192925,0.0909 -0.118511,0.011 -0.148828,0.0496 -0.04961,0.0579 -0.04961,0.17088 v 0.89848 q 0,0.19017 -0.03858,0.2949 -0.03583,0.10198 -0.132291,0.21497 z"
         style="font-style:normal;font-variant:normal;font-weight:bold;font-stretch:normal;font-family:monospace;-inkscape-font-specification:'monospace Bold';fill:#383a42;fill-opacity:1"
         id="path1274" />
      <path
         d="m 69.446817,124.29557 q 0.101975,-0.0965 0.209462,-0.0965 0.121267,0 0.198437,0.0882 0.07993,0.0854 0.07993,0.28663 v 0.3638 q 0,0.20395 -0.07993,0.28939 -0.07717,0.0854 -0.203949,0.0854 -0.115755,0 -0.195681,-0.0662 -0.05788,-0.0496 -0.09095,-0.20119 -0.03307,-0.15434 -0.159852,-0.22876 -0.223242,-0.13229 -0.570508,-0.13229 -0.39963,0 -0.642165,0.23427 -0.239778,0.23427 -0.239778,0.59256 0,0.33072 0.23151,0.52365 0.23151,0.19017 0.768945,0.19017 0.352777,0 0.576019,-0.0717 0.132292,-0.0441 0.250803,-0.14883 0.118511,-0.10748 0.214974,-0.10748 0.115755,0 0.198437,0.0854 0.08544,0.0854 0.08544,0.2012 0,0.18741 -0.256315,0.35553 -0.380338,0.2508 -1.113454,0.2508 -0.658701,0 -1.025259,-0.27285 -0.496094,-0.36656 -0.496094,-1.00321 0,-0.60358 0.402387,-0.9977 0.402387,-0.39687 1.050065,-0.39687 0.234266,0 0.435459,0.0441 0.201194,0.0441 0.37207,0.13229 z"
         style="font-style:normal;font-variant:normal;font-weight:bold;font-stretch:normal;font-family:monospace;-inkscape-font-specification:'monospace Bold';fill:#50a14f;fill-opacity:1"
         id="path1276" />
      <path
         d="m 73.421076,125.4917 q 0,0.32522 -0.181901,0.63114 -0.179144,0.30317 -0.537434,0.48507 -0.355534,0.17915 -0.74414,0.17915 -0.385851,0 -0.738628,-0.17639 -0.352778,-0.17915 -0.537435,-0.48507 -0.184657,-0.30592 -0.184657,-0.63941 0,-0.339 0.187414,-0.66421 0.187413,-0.32798 0.537434,-0.51539 0.352778,-0.18741 0.735872,-0.18741 0.38585,0 0.741384,0.19292 0.35829,0.19017 0.54019,0.51539 0.181901,0.32246 0.181901,0.66421 z m -0.564995,0.003 q 0,-0.27285 -0.195681,-0.50161 -0.267339,-0.30868 -0.702799,-0.30868 -0.383094,0 -0.639409,0.24529 -0.256315,0.24529 -0.256315,0.56776 0,0.26458 0.259071,0.49609 0.259071,0.22875 0.636653,0.22875 0.380338,0 0.639409,-0.22875 0.259071,-0.23151 0.259071,-0.49885 z"
         style="font-style:normal;font-variant:normal;font-weight:bold;font-stretch:normal;font-family:monospace;-inkscape-font-specification:'monospace Bold';fill:#50a14f;fill-opacity:1"
         id="path1278" />
      <path
         d="m 75.62318,123.12148 v 3.00963 h 0.677994 q 0.20395,0 0.289388,0.0799 0.08819,0.0772 0.08819,0.20395 0,0.12402 -0.08819,0.20395 -0.08544,0.0772 -0.289388,0.0772 H 74.38019 q -0.203949,0 -0.292143,-0.0772 -0.08544,-0.0799 -0.08544,-0.20671 0,-0.12402 0.08544,-0.20119 0.08819,-0.0799 0.292143,-0.0799 h 0.677995 v -2.44464 h -0.454753 q -0.201193,0 -0.289387,-0.0772 -0.08819,-0.0799 -0.08819,-0.2067 0,-0.12402 0.08544,-0.20119 0.08819,-0.0799 0.292143,-0.0799 z"
         style="font-style:normal;font-variant:normal;font-weight:bold;font-stretch:normal;font-family:monospace;-inkscape-font-specification:'monospace Bold';fill:#50a14f;fill-opacity:1"
         id="path1280" />
      <path
         d="m 80.195508,125.4917 q 0,0.32522 -0.181901,0.63114 -0.179145,0.30317 -0.537435,0.48507 -0.355533,0.17915 -0.74414,0.17915 -0.38585,0 -0.738628,-0.17639 -0.352777,-0.17915 -0.537434,-0.48507 -0.184657,-0.30592 -0.184657,-0.63941 0,-0.339 0.187413,-0.66421 0.187413,-0.32798 0.537434,-0.51539 0.352778,-0.18741 0.735872,-0.18741 0.38585,0 0.741384,0.19292 0.35829,0.19017 0.540191,0.51539 0.181901,0.32246 0.181901,0.66421 z m -0.564996,0.003 q 0,-0.27285 -0.195681,-0.50161 -0.267339,-0.30868 -0.702799,-0.30868 -0.383094,0 -0.639409,0.24529 -0.256315,0.24529 -0.256315,0.56776 0,0.26458 0.259071,0.49609 0.259071,0.22875 0.636653,0.22875 0.380338,0 0.639409,-0.22875 0.259071,-0.23151 0.259071,-0.49885 z"
         style="font-style:normal;font-variant:normal;font-weight:bold;font-stretch:normal;font-family:monospace;-inkscape-font-specification:'monospace Bold';fill:#50a14f;fill-opacity:1"
         id="path1282" />
      <path
         d="m 81.997979,124.19359 v 0.35278 q 0.355534,-0.25632 0.559484,-0.34175 0.206705,-0.0854 0.38585,-0.0854 0.275607,0 0.534678,0.20395 0.176389,0.1378 0.176389,0.28112 0,0.12126 -0.08544,0.2067 -0.08268,0.0827 -0.201194,0.0827 -0.10473,0 -0.220486,-0.10474 -0.115755,-0.10473 -0.206705,-0.10473 -0.118511,0 -0.355534,0.14883 -0.234266,0.14883 -0.587044,0.44649 v 0.85162 h 0.804774 q 0.20395,0 0.289388,0.0799 0.08819,0.0772 0.08819,0.20395 0,0.12402 -0.08819,0.20395 -0.08544,0.0772 -0.289388,0.0772 h -1.70601 q -0.203949,0 -0.292144,-0.0772 -0.08544,-0.0799 -0.08544,-0.20671 0,-0.12402 0.08544,-0.20119 0.08819,-0.0799 0.292144,-0.0799 h 0.336241 v -1.37252 h -0.203949 q -0.20395,0 -0.292144,-0.0772 -0.08544,-0.0799 -0.08544,-0.20671 0,-0.12402 0.08544,-0.20119 0.08819,-0.0799 0.292144,-0.0799 z"
         style="font-style:normal;font-variant:normal;font-weight:bold;font-stretch:normal;font-family:monospace;-inkscape-font-specification:'monospace Bold';fill:#50a14f;fill-opacity:1"
         id="path1284" />
      <path
         d="m 85.928143,124.57117 q 0,0.15986 -0.112999,0.26734 -0.112999,0.10749 -0.311437,0.10749 -0.198437,0 -0.311436,-0.10749 -0.112999,-0.10748 -0.112999,-0.26734 0,-0.15985 0.112999,-0.26733 0.112999,-0.10749 0.311436,-0.10749 0.198438,0 0.311437,0.10749 0.112999,0.10748 0.112999,0.26733 z m 0.0055,1.84933 q 0,0.15985 -0.112999,0.26734 -0.112999,0.10749 -0.311437,0.10749 -0.198437,0 -0.311436,-0.10749 -0.112999,-0.10749 -0.112999,-0.26734 0,-0.15985 0.112999,-0.26734 0.112999,-0.10749 0.311436,-0.10749 0.198438,0 0.311437,0.10749 0.112999,0.10749 0.112999,0.26734 z"
         style="font-style:normal;font-variant:normal;font-weight:bold;font-stretch:normal;font-family:monospace;-inkscape-font-specification:'monospace Bold';fill:#383a42;fill-opacity:1"
         id="path1286" />
      <path
         d="m 92.159625,124.19359 v 0.35278 q 0.355534,-0.25632 0.559483,-0.34175 0.206706,-0.0854 0.385851,-0.0854 0.275607,0 0.534678,0.20395 0.176389,0.1378 0.176389,0.28112 0,0.12126 -0.08544,0.2067 -0.08268,0.0827 -0.201194,0.0827 -0.104731,0 -0.220486,-0.10474 -0.115755,-0.10473 -0.206705,-0.10473 -0.118511,0 -0.355534,0.14883 -0.234266,0.14883 -0.587044,0.44649 v 0.85162 h 0.804774 q 0.20395,0 0.289388,0.0799 0.08819,0.0772 0.08819,0.20395 0,0.12402 -0.08819,0.20395 -0.08544,0.0772 -0.289388,0.0772 h -1.70601 q -0.203949,0 -0.292144,-0.0772 -0.08544,-0.0799 -0.08544,-0.20671 0,-0.12402 0.08544,-0.20119 0.08819,-0.0799 0.292144,-0.0799 h 0.336241 v -1.37252 h -0.203949 q -0.20395,0 -0.292144,-0.0772 -0.08544,-0.0799 -0.08544,-0.20671 0,-0.12402 0.08544,-0.20119 0.08819,-0.0799 0.292144,-0.0799 z"
         style="font-style:normal;font-variant:normal;font-weight:bold;font-stretch:normal;font-family:monospace;-inkscape-font-specification:'monospace Bold';fill:#986801;fill-opacity:1"
         id="path1288" />
      <path
         d="m 97.081975,125.73148 h -2.317858 q 0.08819,0.22049 0.311436,0.35554 0.225998,0.13504 0.609093,0.13504 0.314192,0 0.83509,-0.13504 0.214974,-0.0551 0.297656,-0.0551 0.112999,0 0.190169,0.0799 0.07717,0.0799 0.07717,0.20119 0,0.11025 -0.08268,0.18742 -0.110243,0.10197 -0.537434,0.19568 -0.427192,0.0909 -0.82131,0.0909 -0.677995,0 -1.085894,-0.3831 -0.405143,-0.38309 -0.405143,-0.94257 0,-0.59532 0.438216,-0.96739 0.440972,-0.37482 1.014235,-0.37482 0.34451,0 0.631142,0.12127 0.289387,0.12126 0.429947,0.26182 0.198437,0.20395 0.327973,0.50436 0.08819,0.20947 0.08819,0.48507 z m -0.625629,-0.56499 q -0.129535,-0.24254 -0.338997,-0.36105 -0.209461,-0.12127 -0.498849,-0.12127 -0.286632,0 -0.496094,0.12127 -0.209461,0.11851 -0.341753,0.36105 z"
         style="font-style:normal;font-variant:normal;font-weight:bold;font-stretch:normal;font-family:monospace;-inkscape-font-specification:'monospace Bold';fill:#986801;fill-opacity:1"
         id="path1290" />
      <path
         d="m 100.34792,123.12148 v 3.00963 h 0.0965 q 0.20119,0 0.28938,0.0799 0.0882,0.0772 0.0882,0.20395 0,0.12402 -0.0882,0.20395 -0.0854,0.0772 -0.28938,0.0772 h -0.661463 v -0.13781 q -0.192925,0.113 -0.405142,0.17088 -0.209462,0.0579 -0.43546,0.0579 -0.636653,0 -1.02526,-0.36656 -0.388606,-0.36931 -0.388606,-0.91777 0,-0.57327 0.407899,-0.97841 0.407899,-0.40514 0.994943,-0.40514 0.220485,0 0.432703,0.0689 0.212218,0.0662 0.418923,0.20119 v -0.7028 h -0.09646 q -0.20395,0 -0.292144,-0.0772 -0.08544,-0.0799 -0.08544,-0.20395 0,-0.12677 0.08544,-0.20394 0.08819,-0.0799 0.292144,-0.0799 z m -0.564993,2.39778 q 0,-0.35002 -0.24529,-0.59255 -0.245291,-0.24254 -0.600824,-0.24254 -0.352778,0 -0.598068,0.24254 -0.245291,0.24253 -0.245291,0.58429 0,0.31143 0.220486,0.51263 0.220486,0.19843 0.622873,0.19843 0.39963,0 0.622872,-0.19843 0.223242,-0.2012 0.223242,-0.50437 z"
         style="font-style:normal;font-variant:normal;font-weight:bold;font-stretch:normal;font-family:monospace;-inkscape-font-specification:'monospace Bold';fill:#986801;fill-opacity:1"
         id="path1292" />
      <path
         d="m 103.12604,124.58495 q 0,0.15986 -0.11299,0.26734 -0.113,0.10749 -0.31144,0.10749 -0.19568,0 -0.30868,-0.10749 -0.113,-0.11024 -0.113,-0.27009 0,-0.1571 0.11024,-0.26458 0.113,-0.11025 0.31144,-0.11025 0.19844,0 0.31144,0.10749 0.11299,0.10749 0.11299,0.27009 z m -0.87367,1.28709 h 0.71933 l -0.7965,1.2926 q -0.0772,0.12954 -0.15158,0.12954 -0.0689,0 -0.11852,-0.0413 -0.0469,-0.0413 -0.0469,-0.0882 0,-0.0358 0.0193,-0.0965 z"
         style="font-style:normal;font-variant:normal;font-weight:bold;font-stretch:normal;font-family:monospace;-inkscape-font-specification:'monospace Bold';fill:#383a42;fill-opacity:1"
         id="path1294" />
      <path
         d="m 68.562117,132.01421 v 1.37253 h 0.804774 q 0.20395,0 0.289388,0.0799 0.08819,0.0772 0.08819,0.20395 0,0.12403 -0.08819,0.20395 -0.08544,0.0772 -0.289388,0.0772 h -1.70601 q -0.203949,0 -0.292144,-0.0772 -0.08544,-0.0799 -0.08544,-0.2067 0,-0.12403 0.08544,-0.2012 0.08819,-0.0799 0.292144,-0.0799 h 0.336241 v -1.37253 h -0.270095 q -0.20395,0 -0.292144,-0.0772 -0.08544,-0.0799 -0.08544,-0.2067 0,-0.12403 0.08544,-0.2012 0.08819,-0.0799 0.292144,-0.0799 h 0.270095 v -0.21498 q 0,-0.36931 0.275608,-0.61185 0.278363,-0.24529 0.804773,-0.24529 0.234267,0 0.540191,0.0441 0.30868,0.0413 0.394119,0.11851 0.08819,0.0772 0.08819,0.19844 0,0.12953 -0.07717,0.21222 -0.07717,0.0799 -0.190169,0.0799 -0.05237,0 -0.157096,-0.0193 -0.350022,-0.0689 -0.620117,-0.0689 -0.28112,0 -0.388607,0.0854 -0.104731,0.0827 -0.104731,0.2067 v 0.21498 h 0.87092 q 0.203949,0 0.289388,0.0799 0.08819,0.0772 0.08819,0.20395 0,0.12403 -0.08819,0.20395 -0.08544,0.0772 -0.289388,0.0772 z"
         style="font-style:normal;font-variant:normal;font-weight:bold;font-stretch:normal;font-family:monospace;-inkscape-font-specification:'monospace Bold';fill:#50a14f;fill-opacity:1"
         id="path1296" />
      <path
         d="m 73.421076,132.74733 q 0,0.32521 -0.181901,0.63114 -0.179144,0.30317 -0.537434,0.48507 -0.355534,0.17914 -0.74414,0.17914 -0.385851,0 -0.738628,-0.17639 -0.352778,-0.17914 -0.537435,-0.48507 -0.184657,-0.30592 -0.184657,-0.6394 0,-0.339 0.187414,-0.66422 0.187413,-0.32797 0.537434,-0.51538 0.352778,-0.18742 0.735872,-0.18742 0.38585,0 0.741384,0.19293 0.35829,0.19017 0.54019,0.51538 0.181901,0.32246 0.181901,0.66422 z m -0.564995,0.003 q 0,-0.27285 -0.195681,-0.5016 -0.267339,-0.30868 -0.702799,-0.30868 -0.383094,0 -0.639409,0.24529 -0.256315,0.24529 -0.256315,0.56775 0,0.26458 0.259071,0.49609 0.259071,0.22876 0.636653,0.22876 0.380338,0 0.639409,-0.22876 0.259071,-0.23151 0.259071,-0.49885 z"
         style="font-style:normal;font-variant:normal;font-weight:bold;font-stretch:normal;font-family:monospace;-inkscape-font-specification:'monospace Bold';fill:#50a14f;fill-opacity:1"
         id="path1298" />
      <path
         d="m 74.768797,131.44922 v 0.19017 q 0.15434,-0.1323 0.338997,-0.19844 0.187413,-0.0661 0.405143,-0.0661 0.501606,0 0.793749,0.31144 0.231511,0.24805 0.231511,0.65043 v 1.05007 q 0.179144,0 0.264583,0.0799 0.08544,0.0772 0.08544,0.20395 0,0.12403 -0.08819,0.20395 -0.08544,0.0772 -0.289388,0.0772 h -0.509874 q -0.203949,0 -0.292144,-0.0772 -0.08544,-0.0799 -0.08544,-0.2067 0,-0.12403 0.08544,-0.2012 0.08544,-0.0799 0.264583,-0.0799 v -1.0666 q 0,-0.18466 -0.09922,-0.2701 -0.129536,-0.11024 -0.388607,-0.11024 -0.195681,0 -0.344509,0.0772 -0.146072,0.0744 -0.37207,0.3197 v 1.05007 q 0.21773,0 0.28112,0.0413 0.135047,0.0827 0.135047,0.24253 0,0.12403 -0.08819,0.20395 -0.08544,0.0772 -0.289388,0.0772 h -0.642165 q -0.20395,0 -0.292144,-0.0772 -0.08544,-0.0799 -0.08544,-0.2067 0,-0.15434 0.132292,-0.23978 0.06615,-0.0413 0.283876,-0.0413 v -1.37253 q -0.179145,0 -0.264583,-0.0799 -0.08544,-0.0799 -0.08544,-0.20395 0,-0.12403 0.08544,-0.2012 0.08819,-0.0799 0.292143,-0.0799 z"
         style="font-style:normal;font-variant:normal;font-weight:bold;font-stretch:normal;font-family:monospace;-inkscape-font-specification:'monospace Bold';fill:#50a14f;fill-opacity:1"
         id="path1300" />
      <path
         d="m 78.588716,132.01421 v 1.13275 q 0,0.1819 0.07441,0.23978 0.115755,0.0909 0.413411,0.0909 0.432704,0 0.799262,-0.18466 0.14056,-0.0717 0.220486,-0.0717 0.110243,0 0.190169,0.0827 0.08268,0.0827 0.08268,0.2012 0,0.11024 -0.08819,0.19017 -0.135048,0.12953 -0.534679,0.23978 -0.396874,0.10748 -0.669726,0.10748 -0.52641,0 -0.790993,-0.226 -0.261827,-0.22875 -0.261827,-0.55948 v -1.24299 h -0.20395 q -0.203949,0 -0.292143,-0.0772 -0.08544,-0.0799 -0.08544,-0.2067 0,-0.12403 0.08544,-0.2012 0.08819,-0.0799 0.292143,-0.0799 h 0.20395 v -0.50988 q 0,-0.20395 0.07717,-0.28938 0.07993,-0.0882 0.206706,-0.0882 0.124023,0 0.201193,0.0882 0.07993,0.0854 0.07993,0.28938 v 0.50988 h 1.044552 q 0.20395,0 0.289388,0.0799 0.08819,0.0772 0.08819,0.20395 0,0.12403 -0.08819,0.20395 -0.08544,0.0772 -0.289388,0.0772 z"
         style="font-style:normal;font-variant:normal;font-weight:bold;font-stretch:normal;font-family:monospace;-inkscape-font-specification:'monospace Bold';fill:#50a14f;fill-opacity:1"
         id="path1302" />
      <path
         d="m 83.298847,132.60677 h -2.3592 v -0.51539 h 2.3592 z"
         style="font-style:normal;font-variant:normal;font-weight:bold;font-stretch:normal;font-family:monospace;-inkscape-font-specification:'monospace Bold';fill:#50a14f;fill-opacity:1"
         id="path1304" />
      <path
         d="m 86.1128,132.11067 q -0.137804,-0.0854 -0.289388,-0.12677 -0.151584,-0.0441 -0.316949,-0.0441 -0.327973,0 -0.520898,0.10748 -0.08544,0.0469 -0.08544,0.10198 0,0.0634 0.115755,0.12402 0.08819,0.0441 0.394119,0.0854 0.562239,0.0772 0.782725,0.15434 0.289388,0.10198 0.446484,0.30317 0.157096,0.20119 0.157096,0.42443 0,0.30317 -0.267339,0.50712 -0.383094,0.2949 -0.994943,0.2949 -0.245291,0 -0.454752,-0.0441 -0.206706,-0.0413 -0.380338,-0.12403 -0.04134,0.0358 -0.08819,0.0551 -0.04685,0.0193 -0.09646,0.0193 -0.132292,0 -0.212218,-0.0854 -0.07717,-0.0882 -0.07717,-0.29215 v -0.19017 q 0,-0.20394 0.07717,-0.28938 0.07993,-0.0882 0.206705,-0.0882 0.101975,0 0.170877,0.0579 0.0689,0.0551 0.107487,0.19293 0.129535,0.11024 0.311436,0.16812 0.181901,0.0551 0.418924,0.0551 0.388606,0 0.60358,-0.12127 0.101975,-0.0606 0.101975,-0.12678 0,-0.11024 -0.146072,-0.1819 -0.146072,-0.0717 -0.603581,-0.12127 -0.68075,-0.0717 -0.909504,-0.2756 -0.228754,-0.2012 -0.228754,-0.4961 0,-0.30317 0.256315,-0.50436 0.347265,-0.27561 0.909504,-0.27561 0.195681,0 0.374826,0.0386 0.181901,0.0358 0.347266,0.113 0.05236,-0.0386 0.09646,-0.0579 0.04685,-0.0193 0.08544,-0.0193 0.115755,0 0.192925,0.0882 0.07717,0.0854 0.07717,0.28939 v 0.1378 q 0,0.18466 -0.0441,0.25081 -0.08819,0.12677 -0.239779,0.12677 -0.101975,0 -0.179145,-0.0634 -0.07717,-0.0634 -0.09922,-0.16813 z"
         style="font-style:normal;font-variant:normal;font-weight:bold;font-stretch:normal;font-family:monospace;-inkscape-font-specification:'monospace Bold';fill:#50a14f;fill-opacity:1"
         id="path1306" />
      <path
         d="m 89.092115,130.3771 v 0.59807 h -0.672482 v -0.59807 z m 0.07717,1.07212 v 1.93752 h 0.677995 q 0.203949,0 0.289387,0.0799 0.08819,0.0772 0.08819,0.20395 0,0.12403 -0.08819,0.20395 -0.08544,0.0772 -0.289387,0.0772 h -1.920984 q -0.20395,0 -0.292144,-0.0772 -0.08544,-0.0799 -0.08544,-0.2067 0,-0.12403 0.08544,-0.2012 0.08819,-0.0799 0.292144,-0.0799 h 0.677994 v -1.37253 h -0.454752 q -0.201194,0 -0.289388,-0.0772 -0.08819,-0.0799 -0.08819,-0.2067 0,-0.12403 0.08544,-0.2012 0.08819,-0.0799 0.292144,-0.0799 z"
         style="font-style:normal;font-variant:normal;font-weight:bold;font-stretch:normal;font-family:monospace;-inkscape-font-specification:'monospace Bold';fill:#50a14f;fill-opacity:1"
         id="path1308" />
      <path
         d="m 91.972212,133.38674 h 0.992187 q 0.0083,-0.1571 0.08544,-0.23427 0.07993,-0.0799 0.195682,-0.0799 0.126779,0 0.203949,0.0882 0.07993,0.0854 0.07993,0.28939 v 0.5016 h -2.458418 v -0.46853 l 1.48828,-1.46899 h -0.865407 v 0.0551 q 0,0.2012 -0.07993,0.28939 -0.07717,0.0854 -0.20395,0.0854 -0.126779,0 -0.206705,-0.0854 -0.07717,-0.0882 -0.07717,-0.28939 l 0.0028,-0.62011 h 2.337151 v 0.46302 z"
         style="font-style:normal;font-variant:normal;font-weight:bold;font-stretch:normal;font-family:monospace;-inkscape-font-specification:'monospace Bold';fill:#50a14f;fill-opacity:1"
         id="path1310" />
      <path
         d="m 97.081975,132.98711 h -2.317858 q 0.08819,0.22048 0.311436,0.35553 0.225998,0.13505 0.609093,0.13505 0.314192,0 0.83509,-0.13505 0.214974,-0.0551 0.297656,-0.0551 0.112999,0 0.190169,0.0799 0.07717,0.0799 0.07717,0.2012 0,0.11024 -0.08268,0.18741 -0.110243,0.10198 -0.537434,0.19568 -0.427192,0.0909 -0.82131,0.0909 -0.677995,0 -1.085894,-0.38309 -0.405143,-0.3831 -0.405143,-0.94258 0,-0.59531 0.438216,-0.96738 0.440972,-0.37483 1.014235,-0.37483 0.34451,0 0.631142,0.12127 0.289387,0.12127 0.429947,0.26183 0.198437,0.20395 0.327973,0.50436 0.08819,0.20946 0.08819,0.48507 z m -0.625629,-0.565 q -0.129535,-0.24253 -0.338997,-0.36104 -0.209461,-0.12127 -0.498849,-0.12127 -0.286632,0 -0.496094,0.12127 -0.209461,0.11851 -0.341753,0.36104 z"
         style="font-style:normal;font-variant:normal;font-weight:bold;font-stretch:normal;font-family:monospace;-inkscape-font-specification:'monospace Bold';fill:#50a14f;fill-opacity:1"
         id="path1312" />
      <path
         d="m 99.477003,131.8268 q 0,0.15985 -0.112999,0.26734 -0.112999,0.10748 -0.311436,0.10748 -0.198438,0 -0.311437,-0.10748 -0.112999,-0.10749 -0.112999,-0.26734 0,-0.15985 0.112999,-0.26734 0.112999,-0.10749 0.311437,-0.10749 0.198437,0 0.311436,0.10749 0.112999,0.10749 0.112999,0.26734 z m 0.0055,1.84932 q 0,0.15986 -0.112999,0.26734 -0.112999,0.10749 -0.311436,0.10749 -0.198437,0 -0.311436,-0.10749 -0.113,-0.10748 -0.113,-0.26734 0,-0.15985 0.113,-0.26733 0.112999,-0.10749 0.311436,-0.10749 0.198437,0 0.311436,0.10749 0.112999,0.10748 0.112999,0.26733 z"
         style="font-style:normal;font-variant:normal;font-weight:bold;font-stretch:normal;font-family:monospace;-inkscape-font-specification:'monospace Bold';fill:#383a42;fill-opacity:1"
         id="path1314" />
      <path
         d="m 106.63177,132.06382 q 0.2508,0.17088 0.37483,0.39688 0.12402,0.22324 0.12402,0.5016 0,0.30041 -0.16536,0.55673 -0.16261,0.25356 -0.47405,0.38585 -0.31144,0.12953 -0.8158,0.12953 -0.65594,0 -0.98667,-0.20395 -0.18466,-0.11575 -0.18466,-0.2756 0,-0.12127 0.0799,-0.20395 0.0827,-0.0854 0.19843,-0.0854 0.0799,0 0.16537,0.0551 0.12127,0.0827 0.22875,0.11024 0.16537,0.0386 0.45476,0.0386 0.49333,0 0.71382,-0.12678 0.22049,-0.12954 0.22049,-0.3638 0,-0.17363 -0.12954,-0.33349 -0.12678,-0.16261 -0.34175,-0.2508 -0.12403,-0.0496 -0.41893,-0.0689 -0.14056,-0.008 -0.21773,-0.0854 -0.0744,-0.0799 -0.0744,-0.19568 0,-0.12127 0.0827,-0.20395 0.0827,-0.0827 0.20946,-0.0827 0.28112,0 0.30042,-0.003 0.11024,-0.011 0.22048,-0.0717 0.11024,-0.0606 0.17639,-0.16536 0.0689,-0.10749 0.0689,-0.22049 0,-0.17914 -0.15985,-0.30868 -0.1571,-0.13229 -0.47405,-0.13229 -0.40789,0 -0.62287,0.23702 -0.0634,0.0689 -0.10197,0.0882 -0.0579,0.0303 -0.12954,0.0303 -0.11575,0 -0.19844,-0.0827 -0.0827,-0.0827 -0.0827,-0.20395 0,-0.19017 0.25356,-0.36931 0.36931,-0.26183 0.92329,-0.26183 0.52365,0 0.8406,0.29766 0.31695,0.29765 0.31695,0.71658 0,0.21773 -0.0937,0.4079 -0.0937,0.18741 -0.28112,0.34726 z"
         style="font-style:normal;font-variant:normal;font-weight:bold;font-stretch:normal;font-family:monospace;-inkscape-font-specification:'monospace Bold';fill:#986801;fill-opacity:1"
         id="path1316" />
      <path
         d="m 108.68229,132.02248 q 0.20395,-0.17088 0.38861,-0.24805 0.18466,-0.0799 0.39412,-0.0799 0.44373,0 0.77721,0.35277 0.33349,0.35278 0.33349,0.8847 0,0.49334 -0.31144,0.79927 -0.30868,0.30316 -0.8406,0.30316 -0.44373,0 -0.73036,-0.2067 -0.28663,-0.20671 -0.43271,-0.63665 -0.14607,-0.42995 -0.14607,-0.95912 0,-0.6339 0.28939,-1.05282 0.28939,-0.42168 0.68075,-0.65319 0.39136,-0.23151 0.82682,-0.23151 0.34451,0 0.53468,0.13505 0.12402,0.0909 0.12402,0.23151 0,0.12402 -0.0827,0.20946 -0.0827,0.0827 -0.19844,0.0827 -0.0661,0 -0.19016,-0.0661 -0.0744,-0.0386 -0.14332,-0.0386 -0.2701,0 -0.55948,0.15434 -0.28939,0.15159 -0.50161,0.46854 -0.14607,0.22048 -0.21222,0.55121 z m 0.0827,0.87368 q 0.0882,0.33072 0.23702,0.45199 0.15158,0.12127 0.42995,0.12127 0.27836,0 0.42719,-0.14607 0.15158,-0.14607 0.15158,-0.39688 0,-0.28663 -0.17363,-0.4768 -0.17088,-0.19017 -0.38585,-0.19017 -0.17088,0 -0.36656,0.16812 -0.19293,0.16812 -0.3197,0.46854 z"
         style="font-style:normal;font-variant:normal;font-weight:bold;font-stretch:normal;font-family:monospace;-inkscape-font-specification:'monospace Bold';fill:#986801;fill-opacity:1"
         id="path1318" />
      <path
         d="m 111.89863,133.6403 v 0.92604 h 0.339 q 0.20395,0 0.28939,0.0772 0.0882,0.0799 0.0882,0.2067 0,0.12403 -0.0882,0.2012 -0.0854,0.0799 -0.28939,0.0799 h -1.00046 q -0.20395,0 -0.29214,-0.0799 -0.0854,-0.0772 -0.0854,-0.2012 0,-0.12678 0.0882,-0.2067 0.0882,-0.0772 0.28938,-0.0772 h 0.0965 v -2.55213 h -0.0965 q -0.20395,0 -0.29214,-0.0772 -0.0854,-0.0799 -0.0854,-0.2067 0,-0.12403 0.0854,-0.2012 0.0882,-0.0799 0.29214,-0.0799 h 0.66146 v 0.19292 q 0.19844,-0.13505 0.41066,-0.20119 0.21221,-0.0661 0.43546,-0.0661 0.57877,0 0.98667,0.39412 0.4079,0.39136 0.4079,0.89848 0,0.55948 -0.48231,0.92329 -0.40239,0.30316 -0.90675,0.30316 -0.21773,0 -0.42995,-0.0634 -0.21222,-0.0634 -0.42168,-0.19016 z m 1.67569,-0.97014 q 0,-0.11851 -0.0937,-0.30041 -0.0937,-0.18466 -0.28939,-0.30593 -0.19293,-0.12402 -0.45475,-0.12402 -0.42168,0 -0.66973,0.31695 -0.16812,0.21773 -0.16812,0.41892 0,0.226 0.23978,0.44097 0.24253,0.21222 0.59807,0.21222 0.35829,0 0.59807,-0.21222 0.23977,-0.21222 0.23977,-0.44648 z"
         style="font-style:normal;font-variant:normal;font-weight:bold;font-stretch:normal;font-family:monospace;-inkscape-font-specification:'monospace Bold';fill:#986801;fill-opacity:1"
         id="path1320" />
      <path
         d="m 116.41032,132.65087 0.85714,0.73587 q 0.15434,0.008 0.23151,0.0882 0.0772,0.0772 0.0772,0.19568 0,0.12403 -0.0882,0.20395 -0.0854,0.0772 -0.28939,0.0772 h -0.64216 q -0.20395,0 -0.29215,-0.0772 -0.0854,-0.0799 -0.0854,-0.20946 0,-0.0992 0.0606,-0.17363 0.0634,-0.0772 0.17087,-0.10473 l -0.42168,-0.3638 -0.42994,0.3638 q 0.12953,0.0331 0.18465,0.10197 0.0579,0.0689 0.0579,0.17639 0,0.12954 -0.0854,0.20946 -0.0854,0.0772 -0.28938,0.0772 h -0.63666 q -0.20395,0 -0.29214,-0.0772 -0.0854,-0.0799 -0.0854,-0.2067 0,-0.11576 0.0772,-0.19293 0.0772,-0.0799 0.23151,-0.0882 l 0.83785,-0.73863 -0.74139,-0.6339 q -0.14607,-0.011 -0.22324,-0.0882 -0.0744,-0.0799 -0.0744,-0.19568 0,-0.12403 0.0854,-0.2012 0.0882,-0.0799 0.29214,-0.0799 h 0.52917 q 0.20395,0 0.28938,0.0799 0.0882,0.0772 0.0882,0.19844 0,0.16261 -0.15434,0.26458 l 0.34175,0.28388 0.33624,-0.28939 q -0.15158,-0.10749 -0.15158,-0.24805 0,-0.13229 0.0854,-0.20946 0.0882,-0.0799 0.29214,-0.0799 h 0.52365 q 0.20395,0 0.28939,0.0799 0.0882,0.0772 0.0882,0.20395 0,0.113 -0.0772,0.19293 -0.0744,0.0772 -0.22325,0.0882 z"
         style="font-style:normal;font-variant:normal;font-weight:bold;font-stretch:normal;font-family:monospace;-inkscape-font-specification:'monospace Bold';fill:#986801;fill-opacity:1"
         id="path1322" />
      <path
         d="m 120.06212,131.84058 q 0,0.15985 -0.113,0.26734 -0.113,0.10749 -0.31143,0.10749 -0.19568,0 -0.30868,-0.10749 -0.113,-0.11024 -0.113,-0.2701 0,-0.15709 0.11024,-0.26458 0.113,-0.11024 0.31144,-0.11024 0.19843,0 0.31143,0.10748 0.113,0.10749 0.113,0.2701 z m -0.87367,1.28709 h 0.71933 l -0.7965,1.29259 q -0.0772,0.12954 -0.15159,0.12954 -0.0689,0 -0.11851,-0.0413 -0.0468,-0.0413 -0.0468,-0.0882 0,-0.0358 0.0193,-0.0965 z"
         style="font-style:normal;font-variant:normal;font-weight:bold;font-stretch:normal;font-family:monospace;-inkscape-font-specification:'monospace Bold';fill:#383a42;fill-opacity:1"
         id="path1324" />
      <path
         d="m 68.562117,139.26984 v 1.37252 h 0.804774 q 0.20395,0 0.289388,0.0799 0.08819,0.0772 0.08819,0.20395 0,0.12402 -0.08819,0.20395 -0.08544,0.0772 -0.289388,0.0772 h -1.70601 q -0.203949,0 -0.292144,-0.0772 -0.08544,-0.0799 -0.08544,-0.20671 0,-0.12402 0.08544,-0.20119 0.08819,-0.0799 0.292144,-0.0799 h 0.336241 v -1.37252 h -0.270095 q -0.20395,0 -0.292144,-0.0772 -0.08544,-0.0799 -0.08544,-0.20671 0,-0.12402 0.08544,-0.20119 0.08819,-0.0799 0.292144,-0.0799 h 0.270095 v -0.21497 q 0,-0.36932 0.275608,-0.61185 0.278363,-0.24529 0.804773,-0.24529 0.234267,0 0.540191,0.0441 0.30868,0.0413 0.394119,0.11851 0.08819,0.0772 0.08819,0.19843 0,0.12954 -0.07717,0.21222 -0.07717,0.0799 -0.190169,0.0799 -0.05237,0 -0.157096,-0.0193 -0.350022,-0.0689 -0.620117,-0.0689 -0.28112,0 -0.388607,0.0854 -0.104731,0.0827 -0.104731,0.20671 v 0.21497 h 0.87092 q 0.203949,0 0.289388,0.0799 0.08819,0.0772 0.08819,0.20395 0,0.12402 -0.08819,0.20395 -0.08544,0.0772 -0.289388,0.0772 z"
         style="font-style:normal;font-variant:normal;font-weight:bold;font-stretch:normal;font-family:monospace;-inkscape-font-specification:'monospace Bold';fill:#50a14f;fill-opacity:1"
         id="path1326" />
      <path
         d="m 73.421076,140.00295 q 0,0.32522 -0.181901,0.63114 -0.179144,0.30317 -0.537434,0.48507 -0.355534,0.17915 -0.74414,0.17915 -0.385851,0 -0.738628,-0.17639 -0.352778,-0.17915 -0.537435,-0.48507 -0.184657,-0.30593 -0.184657,-0.63941 0,-0.339 0.187414,-0.66421 0.187413,-0.32798 0.537434,-0.51539 0.352778,-0.18741 0.735872,-0.18741 0.38585,0 0.741384,0.19292 0.35829,0.19017 0.54019,0.51539 0.181901,0.32246 0.181901,0.66421 z m -0.564995,0.003 q 0,-0.27285 -0.195681,-0.50161 -0.267339,-0.30868 -0.702799,-0.30868 -0.383094,0 -0.639409,0.24529 -0.256315,0.24529 -0.256315,0.56775 0,0.26459 0.259071,0.4961 0.259071,0.22875 0.636653,0.22875 0.380338,0 0.639409,-0.22875 0.259071,-0.23151 0.259071,-0.49885 z"
         style="font-style:normal;font-variant:normal;font-weight:bold;font-stretch:normal;font-family:monospace;-inkscape-font-specification:'monospace Bold';fill:#50a14f;fill-opacity:1"
         id="path1328" />
      <path
         d="m 74.768797,138.70484 v 0.19017 q 0.15434,-0.13229 0.338997,-0.19844 0.187413,-0.0661 0.405143,-0.0661 0.501606,0 0.793749,0.31143 0.231511,0.24805 0.231511,0.65044 v 1.05006 q 0.179144,0 0.264583,0.0799 0.08544,0.0772 0.08544,0.20395 0,0.12402 -0.08819,0.20395 -0.08544,0.0772 -0.289388,0.0772 h -0.509874 q -0.203949,0 -0.292144,-0.0772 -0.08544,-0.0799 -0.08544,-0.20671 0,-0.12402 0.08544,-0.20119 0.08544,-0.0799 0.264583,-0.0799 v -1.0666 q 0,-0.18466 -0.09922,-0.27009 -0.129536,-0.11025 -0.388607,-0.11025 -0.195681,0 -0.344509,0.0772 -0.146072,0.0744 -0.37207,0.31971 v 1.05006 q 0.21773,0 0.28112,0.0413 0.135047,0.0827 0.135047,0.24254 0,0.12402 -0.08819,0.20395 -0.08544,0.0772 -0.289388,0.0772 h -0.642165 q -0.20395,0 -0.292144,-0.0772 -0.08544,-0.0799 -0.08544,-0.20671 0,-0.15434 0.132292,-0.23978 0.06615,-0.0413 0.283876,-0.0413 v -1.37252 q -0.179145,0 -0.264583,-0.0799 -0.08544,-0.0799 -0.08544,-0.20395 0,-0.12402 0.08544,-0.20119 0.08819,-0.0799 0.292143,-0.0799 z"
         style="font-style:normal;font-variant:normal;font-weight:bold;font-stretch:normal;font-family:monospace;-inkscape-font-specification:'monospace Bold';fill:#50a14f;fill-opacity:1"
         id="path1330" />
      <path
         d="m 78.588716,139.26984 v 1.13274 q 0,0.1819 0.07441,0.23978 0.115755,0.0909 0.413411,0.0909 0.432704,0 0.799262,-0.18466 0.14056,-0.0717 0.220486,-0.0717 0.110243,0 0.190169,0.0827 0.08268,0.0827 0.08268,0.20119 0,0.11025 -0.08819,0.19017 -0.135048,0.12954 -0.534679,0.23978 -0.396874,0.10749 -0.669726,0.10749 -0.52641,0 -0.790993,-0.226 -0.261827,-0.22876 -0.261827,-0.55948 v -1.24299 h -0.20395 q -0.203949,0 -0.292143,-0.0772 -0.08544,-0.0799 -0.08544,-0.20671 0,-0.12402 0.08544,-0.20119 0.08819,-0.0799 0.292143,-0.0799 h 0.20395 v -0.50987 q 0,-0.20395 0.07717,-0.28939 0.07993,-0.0882 0.206706,-0.0882 0.124023,0 0.201193,0.0882 0.07993,0.0854 0.07993,0.28939 v 0.50987 h 1.044552 q 0.20395,0 0.289388,0.0799 0.08819,0.0772 0.08819,0.20395 0,0.12402 -0.08819,0.20395 -0.08544,0.0772 -0.289388,0.0772 z"
         style="font-style:normal;font-variant:normal;font-weight:bold;font-stretch:normal;font-family:monospace;-inkscape-font-specification:'monospace Bold';fill:#50a14f;fill-opacity:1"
         id="path1332" />
      <path
         d="m 83.298847,139.86239 h -2.3592 v -0.51538 h 2.3592 z"
         style="font-style:normal;font-variant:normal;font-weight:bold;font-stretch:normal;font-family:monospace;-inkscape-font-specification:'monospace Bold';fill:#50a14f;fill-opacity:1"
         id="path1334" />
      <path
         d="m 85.506463,140.16556 -0.391362,1.0418 h -0.531923 l -0.474044,-1.93752 q -0.154341,-0.008 -0.234267,-0.0854 -0.07717,-0.0799 -0.07717,-0.19844 0,-0.12402 0.08544,-0.20119 0.08819,-0.0799 0.292143,-0.0799 h 0.526411 q 0.203949,0 0.289387,0.0799 0.08819,0.0772 0.08819,0.20395 0,0.12678 -0.09922,0.21497 -0.07441,0.0661 -0.292144,0.0661 l 0.214974,0.89572 0.350021,-0.91777 h 0.501606 l 0.352778,0.91777 0.220485,-0.89572 q -0.209461,0 -0.275607,-0.0413 -0.132292,-0.0854 -0.132292,-0.24254 0,-0.12402 0.08544,-0.20119 0.08819,-0.0799 0.292144,-0.0799 h 0.531922 q 0.203949,0 0.289388,0.0799 0.08819,0.0772 0.08819,0.20395 0,0.113 -0.07717,0.19292 -0.07441,0.0772 -0.223242,0.0882 l -0.46302,1.93752 h -0.523655 z"
         style="font-style:normal;font-variant:normal;font-weight:bold;font-stretch:normal;font-family:monospace;-inkscape-font-specification:'monospace Bold';fill:#50a14f;fill-opacity:1"
         id="path1336" />
      <path
         d="m 90.307544,140.24273 h -2.317858 q 0.08819,0.22049 0.311436,0.35553 0.225998,0.13505 0.609092,0.13505 0.314193,0 0.835091,-0.13505 0.214974,-0.0551 0.297656,-0.0551 0.112999,0 0.190169,0.0799 0.07717,0.0799 0.07717,0.20119 0,0.11025 -0.08268,0.18742 -0.110243,0.10197 -0.537435,0.19568 -0.427191,0.0909 -0.82131,0.0909 -0.677994,0 -1.085893,-0.3831 -0.405143,-0.38309 -0.405143,-0.94257 0,-0.59532 0.438216,-0.96739 0.440972,-0.37482 1.014235,-0.37482 0.34451,0 0.631141,0.12126 0.289388,0.12127 0.429948,0.26183 0.198437,0.20395 0.327973,0.50436 0.08819,0.20946 0.08819,0.48507 z m -0.625629,-0.56499 q -0.129535,-0.24254 -0.338997,-0.36105 -0.209462,-0.12127 -0.498849,-0.12127 -0.286632,0 -0.496094,0.12127 -0.209461,0.11851 -0.341753,0.36105 z"
         style="font-style:normal;font-variant:normal;font-weight:bold;font-stretch:normal;font-family:monospace;-inkscape-font-specification:'monospace Bold';fill:#50a14f;fill-opacity:1"
         id="path1338" />
      <path
         d="m 92.47933,137.63273 v 0.59807 h -0.672482 v -0.59807 z m 0.07717,1.07211 v 1.93752 h 0.677994 q 0.20395,0 0.289388,0.0799 0.08819,0.0772 0.08819,0.20395 0,0.12402 -0.08819,0.20395 -0.08544,0.0772 -0.289388,0.0772 h -1.920983 q -0.20395,0 -0.292144,-0.0772 -0.08544,-0.0799 -0.08544,-0.20671 0,-0.12402 0.08544,-0.20119 0.08819,-0.0799 0.292144,-0.0799 h 0.677994 v -1.37252 h -0.454752 q -0.201194,0 -0.289388,-0.0772 -0.08819,-0.0799 -0.08819,-0.20671 0,-0.12402 0.08544,-0.20119 0.08819,-0.0799 0.292144,-0.0799 z"
         style="font-style:normal;font-variant:normal;font-weight:bold;font-stretch:normal;font-family:monospace;-inkscape-font-specification:'monospace Bold';fill:#50a14f;fill-opacity:1"
         id="path1340" />
      <path
         d="m 96.28547,138.87296 v -0.16812 h 0.661458 q 0.203949,0 0.289387,0.0799 0.08819,0.0772 0.08819,0.20395 0,0.12402 -0.08819,0.20395 -0.08544,0.0772 -0.289387,0.0772 h -0.09646 v 2.05603 q 0,0.29765 -0.126779,0.51814 -0.124024,0.22324 -0.383095,0.38309 -0.259071,0.15986 -0.584287,0.15986 h -0.63941 q -0.203949,0 -0.292144,-0.0799 -0.08544,-0.0772 -0.08544,-0.20119 0,-0.12678 0.08544,-0.20671 0.08819,-0.0772 0.292144,-0.0772 h 0.622873 q 0.259071,0 0.402387,-0.14056 0.143316,-0.14056 0.143316,-0.35553 v -0.27561 q -0.187413,0.12127 -0.383094,0.1819 -0.192926,0.0606 -0.396875,0.0606 -0.57602,0 -0.964626,-0.38309 -0.388607,-0.38585 -0.388607,-0.95085 0,-0.56775 0.388607,-0.95084 0.388606,-0.38585 0.964626,-0.38585 0.214974,0 0.407899,0.0634 0.195681,0.0606 0.37207,0.18741 z m -0.0028,1.08314 q 0,-0.31144 -0.23151,-0.54019 -0.228755,-0.22876 -0.551215,-0.22876 -0.322461,0 -0.553971,0.22876 -0.228754,0.22875 -0.228754,0.54019 0,0.31419 0.228754,0.54295 0.23151,0.22599 0.553971,0.22599 0.32246,0 0.551215,-0.22599 0.23151,-0.22876 0.23151,-0.54295 z"
         style="font-style:normal;font-variant:normal;font-weight:bold;font-stretch:normal;font-family:monospace;-inkscape-font-specification:'monospace Bold';fill:#50a14f;fill-opacity:1"
         id="path1342" />
      <path
         d="m 98.46828,137.63273 v 1.2044 q 0.176389,-0.10473 0.355534,-0.15434 0.181901,-0.0524 0.366558,-0.0524 0.292143,0 0.520898,0.0992 0.228754,0.0992 0.37758,0.31419 0.15159,0.21222 0.15159,0.53743 v 1.06109 q 0.21497,0 0.28112,0.0413 0.13229,0.0854 0.13229,0.24254 0,0.12402 -0.0854,0.20395 -0.0854,0.0772 -0.28939,0.0772 h -0.644921 q -0.201193,0 -0.289387,-0.0772 -0.08544,-0.0799 -0.08544,-0.20671 0,-0.15434 0.132292,-0.23978 0.0689,-0.0441 0.28112,-0.0413 v -1.0225 q 0,-0.21773 -0.09922,-0.30593 -0.129536,-0.11851 -0.383094,-0.11851 -0.187414,0 -0.333485,0.0744 -0.143316,0.0717 -0.388607,0.31419 v 1.05833 q 0.21773,0 0.28112,0.0413 0.135047,0.0854 0.135047,0.24254 0,0.12402 -0.08819,0.20395 -0.08544,0.0772 -0.289388,0.0772 H 97.8647 q -0.20395,0 -0.292144,-0.0772 -0.08544,-0.0799 -0.08544,-0.20671 0,-0.15434 0.135047,-0.23978 0.06615,-0.0441 0.28112,-0.0413 v -2.44464 h -0.09646 q -0.203949,0 -0.292144,-0.0772 -0.08544,-0.0799 -0.08544,-0.2067 0,-0.12403 0.08544,-0.2012 0.08819,-0.0799 0.292144,-0.0799 z"
         style="font-style:normal;font-variant:normal;font-weight:bold;font-stretch:normal;font-family:monospace;-inkscape-font-specification:'monospace Bold';fill:#50a14f;fill-opacity:1"
         id="path1344" />
      <path
         d="m 102.29922,139.26984 v 1.13274 q 0,0.1819 0.0744,0.23978 0.11575,0.0909 0.41341,0.0909 0.4327,0 0.79926,-0.18466 0.14056,-0.0717 0.22049,-0.0717 0.11024,0 0.19016,0.0827 0.0827,0.0827 0.0827,0.20119 0,0.11025 -0.0882,0.19017 -0.13505,0.12954 -0.53468,0.23978 -0.39687,0.10749 -0.66972,0.10749 -0.52641,0 -0.791,-0.226 -0.26182,-0.22876 -0.26182,-0.55948 v -1.24299 h -0.20395 q -0.20395,0 -0.29215,-0.0772 -0.0854,-0.0799 -0.0854,-0.20671 0,-0.12402 0.0854,-0.20119 0.0882,-0.0799 0.29215,-0.0799 h 0.20395 v -0.50987 q 0,-0.20395 0.0772,-0.28939 0.0799,-0.0882 0.2067,-0.0882 0.12403,0 0.2012,0.0882 0.0799,0.0854 0.0799,0.28939 v 0.50987 h 1.04455 q 0.20395,0 0.28939,0.0799 0.0882,0.0772 0.0882,0.20395 0,0.12402 -0.0882,0.20395 -0.0854,0.0772 -0.28939,0.0772 z"
         style="font-style:normal;font-variant:normal;font-weight:bold;font-stretch:normal;font-family:monospace;-inkscape-font-specification:'monospace Bold';fill:#50a14f;fill-opacity:1"
         id="path1346" />
      <path
         d="m 106.25143,139.08242 q 0,0.15986 -0.113,0.26734 -0.113,0.10749 -0.31143,0.10749 -0.19844,0 -0.31144,-0.10749 -0.113,-0.10748 -0.113,-0.26734 0,-0.15985 0.113,-0.26734 0.113,-0.10748 0.31144,-0.10748 0.19843,0 0.31143,0.10748 0.113,0.10749 0.113,0.26734 z m 0.006,1.84933 q 0,0.15985 -0.11299,0.26734 -0.113,0.10749 -0.31144,0.10749 -0.19844,0 -0.31144,-0.10749 -0.113,-0.10749 -0.113,-0.26734 0,-0.15985 0.113,-0.26734 0.113,-0.10749 0.31144,-0.10749 0.19844,0 0.31144,0.10749 0.11299,0.10749 0.11299,0.26734 z"
         style="font-style:normal;font-variant:normal;font-weight:bold;font-stretch:normal;font-family:monospace;-inkscape-font-specification:'monospace Bold';fill:#383a42;fill-opacity:1"
         id="path1348" />
      <path
         d="m 111.88761,137.63273 v 1.26779 q 0.2067,-0.13505 0.41892,-0.20119 0.21497,-0.0689 0.4327,-0.0689 0.58705,0 0.99495,0.40514 0.4079,0.40514 0.4079,0.97841 0,0.54846 -0.38861,0.91777 -0.38861,0.36656 -1.02526,0.36656 -0.226,0 -0.43546,-0.0579 -0.20946,-0.0579 -0.40514,-0.17088 v 0.13781 h -0.66146 q -0.20395,0 -0.29214,-0.0772 -0.0854,-0.0799 -0.0854,-0.20671 0,-0.12402 0.0882,-0.20119 0.0882,-0.0799 0.28939,-0.0799 h 0.0965 v -2.44464 h -0.0965 q -0.20395,0 -0.29214,-0.0772 -0.0854,-0.0799 -0.0854,-0.2067 0,-0.12403 0.0854,-0.2012 0.0882,-0.0799 0.29214,-0.0799 z m 1.68947,2.39778 q 0,-0.35002 -0.24529,-0.59255 -0.24529,-0.24254 -0.60082,-0.24254 -0.35278,0 -0.59807,0.24254 -0.24529,0.24253 -0.24529,0.58428 0,0.31144 0.22048,0.51263 0.22049,0.19844 0.62288,0.19844 0.40238,0 0.62287,-0.19844 0.22324,-0.20119 0.22324,-0.50436 z"
         style="font-style:normal;font-variant:normal;font-weight:bold;font-stretch:normal;font-family:monospace;-inkscape-font-specification:'monospace Bold';fill:#986801;fill-opacity:1"
         id="path1350" />
      <path
         d="m 117.45488,140.00295 q 0,0.32522 -0.1819,0.63114 -0.17915,0.30317 -0.53744,0.48507 -0.35553,0.17915 -0.74414,0.17915 -0.38585,0 -0.73863,-0.17639 -0.35277,-0.17915 -0.53743,-0.48507 -0.18466,-0.30593 -0.18466,-0.63941 0,-0.339 0.18741,-0.66421 0.18742,-0.32798 0.53744,-0.51539 0.35278,-0.18741 0.73587,-0.18741 0.38585,0 0.74138,0.19292 0.35829,0.19017 0.5402,0.51539 0.1819,0.32246 0.1819,0.66421 z m -0.565,0.003 q 0,-0.27285 -0.19568,-0.50161 -0.26734,-0.30868 -0.7028,-0.30868 -0.38309,0 -0.63941,0.24529 -0.25631,0.24529 -0.25631,0.56775 0,0.26459 0.25907,0.4961 0.25907,0.22875 0.63665,0.22875 0.38034,0 0.63941,-0.22875 0.25907,-0.23151 0.25907,-0.49885 z"
         style="font-style:normal;font-variant:normal;font-weight:bold;font-stretch:normal;font-family:monospace;-inkscape-font-specification:'monospace Bold';fill:#986801;fill-opacity:1"
         id="path1352" />
      <path
         d="m 119.65698,137.63273 v 3.00963 h 0.67799 q 0.20395,0 0.28939,0.0799 0.0882,0.0772 0.0882,0.20395 0,0.12402 -0.0882,0.20395 -0.0854,0.0772 -0.28939,0.0772 h -1.92098 q -0.20395,0 -0.29214,-0.0772 -0.0854,-0.0799 -0.0854,-0.20671 0,-0.12402 0.0854,-0.20119 0.0882,-0.0799 0.29214,-0.0799 h 0.67799 v -2.44464 h -0.45475 q -0.20119,0 -0.28939,-0.0772 -0.0882,-0.0799 -0.0882,-0.2067 0,-0.12403 0.0854,-0.2012 0.0882,-0.0799 0.29214,-0.0799 z"
         style="font-style:normal;font-variant:normal;font-weight:bold;font-stretch:normal;font-family:monospace;-inkscape-font-specification:'monospace Bold';fill:#986801;fill-opacity:1"
         id="path1354" />
      <path
         d="m 124.05843,137.63273 v 3.00963 h 0.0965 q 0.2012,0 0.28939,0.0799 0.0882,0.0772 0.0882,0.20395 0,0.12402 -0.0882,0.20395 -0.0854,0.0772 -0.28939,0.0772 h -0.66146 v -0.13781 q -0.19292,0.113 -0.40514,0.17088 -0.20946,0.0579 -0.43546,0.0579 -0.63665,0 -1.02526,-0.36656 -0.3886,-0.36931 -0.3886,-0.91777 0,-0.57327 0.40789,-0.97841 0.4079,-0.40514 0.99495,-0.40514 0.22048,0 0.4327,0.0689 0.21222,0.0661 0.41892,0.20119 v -0.7028 h -0.0965 q -0.20395,0 -0.29214,-0.0772 -0.0854,-0.0799 -0.0854,-0.20395 0,-0.12678 0.0854,-0.20395 0.0882,-0.0799 0.29214,-0.0799 z m -0.565,2.39778 q 0,-0.35002 -0.24529,-0.59255 -0.24529,-0.24254 -0.60082,-0.24254 -0.35278,0 -0.59807,0.24254 -0.24529,0.24253 -0.24529,0.58428 0,0.31144 0.22049,0.51263 0.22048,0.19844 0.62287,0.19844 0.39963,0 0.62287,-0.19844 0.22324,-0.20119 0.22324,-0.50436 z"
         style="font-style:normal;font-variant:normal;font-weight:bold;font-stretch:normal;font-family:monospace;-inkscape-font-specification:'monospace Bold';fill:#986801;fill-opacity:1"
         id="path1356" />
      <path
         d="m 126.83656,139.0962 q 0,0.15986 -0.113,0.26734 -0.113,0.10749 -0.31144,0.10749 -0.19568,0 -0.30868,-0.10749 -0.113,-0.11024 -0.113,-0.27009 0,-0.1571 0.11024,-0.26459 0.113,-0.11024 0.31144,-0.11024 0.19844,0 0.31144,0.10749 0.113,0.10749 0.113,0.27009 z m -0.87368,1.28709 h 0.71934 l -0.79651,1.2926 q -0.0772,0.12953 -0.15158,0.12953 -0.0689,0 -0.11852,-0.0413 -0.0469,-0.0413 -0.0469,-0.0882 0,-0.0358 0.0193,-0.0965 z"
         style="font-style:normal;font-variant:normal;font-weight:bold;font-stretch:normal;font-family:monospace;-inkscape-font-specification:'monospace Bold';fill:#383a42;fill-opacity:1"
         id="path1358" />
      <path
         d="m 61.663663,147.09321 q -0.09646,-0.113 -0.135047,-0.21773 -0.03583,-0.10748 -0.03583,-0.29214 v -0.89848 q 0,-0.113 -0.0441,-0.15985 -0.04134,-0.0496 -0.157097,-0.0606 -0.115755,-0.011 -0.190169,-0.0909 -0.07441,-0.0799 -0.07441,-0.19292 0,-0.12127 0.08268,-0.20395 0.08544,-0.0827 0.214974,-0.0827 0.184657,0 0.355534,0.0992 0.170876,0.0965 0.297656,0.31695 0.07993,0.14332 0.07993,0.33073 v 0.94258 q 0,0.11851 0.03858,0.16536 0.03858,0.0441 0.165365,0.0579 0.126779,0.0138 0.192925,0.0882 0.0689,0.0744 0.0689,0.19844 0,0.12127 -0.0689,0.19568 -0.06615,0.0744 -0.195682,0.0909 -0.126779,0.0138 -0.15434,0.0496 -0.04685,0.0551 -0.04685,0.17088 v 0.99494 q 0,0.30593 -0.220486,0.52641 -0.220486,0.22324 -0.509874,0.22324 -0.132291,0 -0.21773,-0.0827 -0.08268,-0.0827 -0.08268,-0.20395 0,-0.113 0.07441,-0.19292 0.07441,-0.0799 0.192925,-0.091 0.118512,-0.011 0.148828,-0.0496 0.04961,-0.0579 0.04961,-0.17088 v -0.89848 q 0,-0.23702 0.03307,-0.34175 0.03583,-0.10473 0.137803,-0.22049 z"
         style="font-style:normal;font-variant:normal;font-weight:bold;font-stretch:normal;font-size:5.64444px;font-family:monospace;-inkscape-font-specification:'monospace Bold';fill:#383a42;fill-opacity:1;stroke-width:0.264583"
         id="path1360" />
    </g>
  </g>
  <g
     inkscape:label="Markings"
     inkscape:groupmode="layer"
     id="layer1"
     transform="translate(-48.755422,-92.269296)"
     sodipodi:insensitive="true">
    <g
       id="g889"
       transform="translate(58.208352)"
       style="opacity:0"
       class="rule">
      <g
         id="g882"
         class="rule">
        <g
           id="g1218">
          <text
             xml:space="preserve"
             style="font-size:8.46667px;line-height:1.25;font-family:sans-serif;fill:#ae8800;fill-opacity:0.937255;stroke-width:0.264583"
             x="84.137497"
             y="98.424995"
             id="text878"><tspan
               sodipodi:role="line"
               id="tspan876"
               x="84.137497"
               y="98.424995"
               style="font-size:8.46667px;fill:#ae8800;fill-opacity:0.937255;stroke-width:0.264583">Regra</tspan></text>
          <g
             id="g1209">
            <rect
               style="fill:none;fill-opacity:1;stroke:#ae8700;stroke-width:0.8;stroke-miterlimit:4;stroke-dasharray:2.4, 0.8;stroke-dashoffset:0;stroke-opacity:0.937255"
               id="rect872"
               width="76.704575"
               height="42.439762"
               x="55.678108"
               y="111.37415" />
            <path
               style="fill:none;stroke:#ae8800;stroke-width:0.8;stroke-linecap:butt;stroke-linejoin:miter;stroke-miterlimit:4;stroke-dasharray:2.4, 0.8;stroke-dashoffset:0;stroke-opacity:0.937255"
               d="M 95.327493,111.03146 V 100.97729"
               id="path874" />
          </g>
        </g>
      </g>
    </g>
    <g
       id="g1242"
       class="declaration"
       transform="translate(58.208352)"
       style="opacity:0">
      <g
         id="g1233">
        <rect
           style="font-variation-settings:normal;opacity:1;vector-effect:none;fill:none;fill-opacity:1;stroke:#ae8700;stroke-width:0.797648;stroke-linecap:butt;stroke-linejoin:miter;stroke-miterlimit:4;stroke-dasharray:2.39294, 0.797648;stroke-dashoffset:0;stroke-opacity:0.937255;stop-color:#000000;stop-opacity:1"
           id="rect891"
           width="42.001904"
           height="7.8706665"
           x="64.856339"
           y="121.21272" />
        <path
           style="font-variation-settings:normal;opacity:1;vector-effect:none;fill:none;fill-opacity:1;stroke:#ae8700;stroke-width:0.8;stroke-linecap:butt;stroke-linejoin:miter;stroke-miterlimit:4;stroke-dasharray:2.4, 0.8;stroke-dashoffset:0;stroke-opacity:0.937255;stop-color:#000000;stop-opacity:1"
           d="m 106.88887,125.46765 h 38.75966"
           id="path910"
           sodipodi:nodetypes="cc" />
      </g>
      <text
         xml:space="preserve"
         style="font-size:8.46667px;line-height:1.25;font-family:sans-serif;fill:#ae8800;fill-opacity:0.937255;stroke-width:0.264583"
         x="144.26613"
         y="128.14929"
         id="text878-6"><tspan
           sodipodi:role="line"
           id="tspan876-6"
           x="144.26613"
           y="128.14929"
           style="font-size:8.46667px;fill:#ae8800;fill-opacity:0.937255;stroke-width:0.264583">Declarao</tspan></text>
    </g>
    <g
       id="g1268"
       class="property"
       transform="translate(58.208352)"
       style="opacity:0">
      <text
         xml:space="preserve"
         style="font-size:8.46667px;line-height:1.25;font-family:sans-serif;fill:#ae8800;fill-opacity:0.937255;stroke-width:0.264583"
         x="48.06321"
         y="168.20369"
         id="text878-9-1"><tspan
           sodipodi:role="line"
           id="tspan876-3-0"
           x="48.06321"
           y="168.20369"
           style="font-size:8.46667px;fill:#ae8800;fill-opacity:0.937255;stroke-width:0.264583">Propriedade</tspan></text>
      <g
         id="g1261">
        <rect
           style="font-variation-settings:normal;opacity:1;vector-effect:none;fill:none;fill-opacity:1;stroke:#ae8800;stroke-width:0.799999;stroke-linecap:butt;stroke-linejoin:miter;stroke-miterlimit:4;stroke-dasharray:2.4, 0.799999;stroke-dashoffset:0;stroke-opacity:0.937255;stop-color:#000000;stop-opacity:1"
           id="rect994"
           width="39.537964"
           height="7.8086538"
           x="64.857513"
           y="135.50127" />
        <path
           style="font-variation-settings:normal;opacity:1;vector-effect:none;fill:none;fill-opacity:1;stroke:#ae8800;stroke-width:0.8;stroke-linecap:butt;stroke-linejoin:miter;stroke-miterlimit:4;stroke-dasharray:2.4, 0.8;stroke-dashoffset:0;stroke-opacity:0.937255;stop-color:#000000;stop-opacity:1"
           d="m 83.476041,143.40416 v 18.78542"
           id="path1119"
           sodipodi:nodetypes="cc" />
      </g>
    </g>
    <g
       id="g1257"
       class="value"
       transform="translate(58.208352)"
       style="opacity:0">
      <text
         xml:space="preserve"
         style="font-size:8.46667px;line-height:1.25;font-family:sans-serif;fill:#ae8800;fill-opacity:0.937255;stroke-width:0.264583"
         x="110.79012"
         y="168.99124"
         id="text878-9-1-7"><tspan
           sodipodi:role="line"
           id="tspan876-3-0-3"
           x="110.79012"
           y="168.99124"
           style="font-size:8.46667px;fill:#ae8800;fill-opacity:0.937255;stroke-width:0.264583">Valor</tspan></text>
      <g
         id="g1250">
        <rect
           style="font-variation-settings:normal;opacity:1;vector-effect:none;fill:none;fill-opacity:1;stroke:#ae8800;stroke-width:0.799999;stroke-linecap:butt;stroke-linejoin:miter;stroke-miterlimit:4;stroke-dasharray:2.4, 0.799999;stroke-dashoffset:0;stroke-opacity:0.937255;stop-color:#000000;stop-opacity:1"
           id="rect996"
           width="15.341271"
           height="7.8577237"
           x="109.63396"
           y="135.45219" />
        <path
           style="font-variation-settings:normal;opacity:1;vector-effect:none;fill:none;fill-opacity:1;stroke:#ae8800;stroke-width:0.8;stroke-linecap:butt;stroke-linejoin:miter;stroke-miterlimit:4;stroke-dasharray:2.4, 0.8;stroke-dashoffset:0;stroke-opacity:0.937255;stop-color:#000000;stop-opacity:1"
           d="m 117.87187,143.00729 v 19.18229"
           id="path1121"
           sodipodi:nodetypes="cc" />
      </g>
    </g>
    <g
       id="g1229"
       class="selector"
       style="opacity:0"
       transform="translate(58.208352)">
      <text
         xml:space="preserve"
         style="font-size:8.46667px;line-height:1.25;font-family:sans-serif;fill:#ae8800;fill-opacity:0.937255;stroke-width:0.264583"
         x="48.20145"
         y="101.45403"
         id="text878-9"><tspan
           sodipodi:role="line"
           id="tspan876-3"
           x="48.20145"
           y="101.45403"
           style="font-size:8.46667px;fill:#ae8800;fill-opacity:0.937255;stroke-width:0.264583">Seletor</tspan></text>
      <g
         id="g1222">
        <rect
           style="font-variation-settings:normal;opacity:1;vector-effect:none;fill:none;fill-opacity:1;stroke:#ae8700;stroke-width:0.8;stroke-linecap:butt;stroke-linejoin:miter;stroke-miterlimit:4;stroke-dasharray:2.4, 0.8;stroke-dashoffset:0;stroke-opacity:0.937255;stop-color:#000000;stop-opacity:1"
           id="rect942"
           width="11.029449"
           height="8.2983828"
           x="58.026802"
           y="113.14537" />
        <path
           style="font-variation-settings:normal;opacity:1;vector-effect:none;fill:none;fill-opacity:1;stroke:#ae8800;stroke-width:0.8;stroke-linecap:butt;stroke-linejoin:miter;stroke-miterlimit:4;stroke-dasharray:2.4, 0.8;stroke-dashoffset:0;stroke-opacity:0.937255;stop-color:#000000;stop-opacity:1"
           d="M 63.727077,113.49266 V 102.8286"
           id="path944" />
      </g>
    </g>
  </g>
</svg>
