<?xml version="1.0" encoding="UTF-8" standalone="no"?>
<svg
   xmlns:dc="http://purl.org/dc/elements/1.1/"
   xmlns:cc="http://creativecommons.org/ns#"
   xmlns:rdf="http://www.w3.org/1999/02/22-rdf-syntax-ns#"
   xmlns:svg="http://www.w3.org/2000/svg"
   xmlns="http://www.w3.org/2000/svg"
   xmlns:sodipodi="http://sodipodi.sourceforge.net/DTD/sodipodi-0.dtd"
   xmlns:inkscape="http://www.inkscape.org/namespaces/inkscape"
   viewBox="0 0 490 255"
   version="1.1"
   id="svg6397"
   sodipodi:docname="flex-wrap.svg"
   inkscape:version="1.0.1 (3bc2e813f5, 2020-09-07)">
  <metadata
     id="metadata6403">
    <rdf:RDF>
      <cc:Work
         rdf:about="">
        <dc:format>image/svg+xml</dc:format>
        <dc:type
           rdf:resource="http://purl.org/dc/dcmitype/StillImage" />
      </cc:Work>
    </rdf:RDF>
  </metadata>
  <defs
     id="defs6401" />
  <sodipodi:namedview
     pagecolor="#ffffff"
     bordercolor="#666666"
     borderopacity="1"
     objecttolerance="10"
     gridtolerance="10"
     guidetolerance="10"
     inkscape:pageopacity="0"
     inkscape:pageshadow="2"
     inkscape:window-width="1848"
     inkscape:window-height="1009"
     id="namedview6399"
     showgrid="false"
     inkscape:zoom="1.6784314"
     inkscape:cx="276.05793"
     inkscape:cy="166.87541"
     inkscape:window-x="72"
     inkscape:window-y="34"
     inkscape:window-maximized="1"
     inkscape:current-layer="svg6397" />
  <title
     id="title6270">flex-wrap</title>
  <g
     id="752eaa31-eeae-47a7-b3b6-9520aadb2cec"
     data-name="Layer 10"
     transform="translate(0,14)">
    <path
       d="m 479.7,182.87 a 7.73,7.73 0 0 0 -1.62,-3.21 q 0.35,-23.88 0.7,-47.75 c 0.2,-13.85 0.43,-27.7 0.61,-41.54 0.1,-7.91 -0.46,-15.89 -0.47,-23.84 a 38.65,38.65 0 0 0 1,-22.4 5.77,5.77 0 0 0 -3.23,-4.13 v -0.67 c 0.21,-4 0.69,-8.49 -1.69,-12 -2.38,-3.51 -6,-4.24 -10,-4.31 -18.21,-0.36 -36.44,-0.3 -54.65,-0.35 q -54.66,-0.13 -109.3,0.58 -28.53,0.36 -57.05,1 A 1010.12,1010.12 0 0 0 131,19.1 13,13 0 0 0 122.65,22.57 L 65.16,20.25 a 10.72,10.72 0 0 0 -6.78,2.59 l -27.75,-3 C 27.76,15.45 21.38,17.47 17.02,21.58 A 17.19,17.19 0 0 0 11.57,24.71 23.84,23.84 0 0 0 5,34.26 C 3.72,37.7 3.17,41.69 4.46,44.7 1.82,54.83 1.7,65.7 2.54,76.51 c 1.53,19.61 1.65,39.26 1.53,58.93 -0.13,20.81 -0.55,41.62 -0.12,62.43 0.18,9 -1.39,21.81 3.85,29.63 4.51,6.74 13,8.13 20.51,8.21 20.54,0.23 41.07,-1.92 61.57,-3.09 a 551.22,551.22 0 0 1 61.78,0.42 c 41.57,2.31 83.11,2.27 124.73,2.27 47.05,0 94.14,0.52 141.17,-1.05 a 12.48,12.48 0 0 0 2.68,-0.41 c 0.21,0 0.41,0.09 0.62,0.12 a 5.72,5.72 0 0 0 1.6,1.12 c 10.63,4.91 21.77,3.48 31.15,-1.76 1.69,0.42 3.39,0.83 5.07,1.27 a 2.66,2.66 0 0 0 0.39,0.07 6.38,6.38 0 0 0 5.12,0.81 c 6,-1.41 9.67,-7.48 12.05,-12.6 a 58.64,58.64 0 0 0 3.46,-40.01 z M 56.16,63.91 A 13.8,13.8 0 0 0 54.22,65 h -0.13 c 2.8,-2.51 2.72,-1.95 2.07,-1.09 z M 26,82.46 v 0 c -0.59,0.74 -0.49,0.54 0,0 z m 8.2,101.78 a 0.47,0.47 0 0 0 -0.06,0.34 c 0.13,0.33 -1.86,0.13 0.06,-0.34 z m -0.84,-78.15 c -1.25,-0.28 -0.06,-2.3 0,0 z M 427.53,92.63 a 35.85,35.85 0 0 0 5.28,-3.78 c 0.23,1 0.47,2.05 0.73,3.07 q -3,0.38 -6.01,0.71 z"
       fill="#995db5"
       id="path6272" />
    <path
       d="m 473.58,28.07 c -36.72,-9.29 -74.72,-8.48 -112.26,-6.73 -18.8,0.87 -37.59,2 -56.4,2.09 -19.54,0.14 -39.08,-0.77 -58.59,-1.53 -19.51,-0.76 -39.21,-1.48 -58.82,-1.2 -19.35,0.27 -38.56,2 -57.82,3.64 -19.26,1.64 -38.5,3.11 -57.8,2.41 C 62.3,26.41 52.8,25.19 43.24,24.41 35.15,23.75 25.18,22.54 17.32,25.16 10,27.6 6.45,34.74 6.89,41.88 a 11.26,11.26 0 0 0 -0.61,2 A 81,81 0 0 0 5,60.27 C 3.49,84.13 4.14,108 8.52,131.64 a 2.92,2.92 0 0 0 0.72,1.54 C 9,155 8.35,176.82 7.6,198.63 7.28,207.75 7,216.88 6.47,226 c -0.19,3.35 2.87,4.49 5.51,3.18 3.28,-1.63 5.1,-5.72 5.3,-9.19 1.11,-19.25 1.55,-38.56 2.06,-57.83 0.55,-20.89 1.47,-41.93 0.68,-62.83 -0.09,-2.58 -0.29,-5.17 -0.55,-7.75 0.7,-5.81 1.49,-11.6 2,-17.36 A 103.55,103.55 0 0 0 21.19,49.84 68.83,68.83 0 0 0 18.69,39.15 c -0.1,-0.32 -0.2,-0.7 -0.31,-1.09 a 12.64,12.64 0 0 1 1.42,-0.25 c 17.87,-1.39 35.91,2.63 53.8,2.83 18.65,0.21 37.26,-1.37 55.82,-3 18.28,-1.6 36.53,-3 54.89,-3.25 18.36,-0.25 36.61,0.44 54.9,1.16 18.29,0.72 36.54,1.55 54.79,1.62 18.25,0.07 36.32,-0.87 54.46,-1.75 40.07,-1.93 80.69,-3.55 119.92,6.37 5.54,1.39 11.9,-12.03 5.2,-13.72 z"
       opacity="0.2"
       id="path6274" />
    <path
       d="m 479.84,215 c 0,-1.65 0,-3.31 0,-5 q -0.1,-14.13 -0.23,-28.26 -0.37,-43.59 -0.71,-87.16 c -0.15,-18.79 -0.62,-37.6 -0.45,-56.39 0,-5.11 1.45,-11.62 -3.63,-14.89 -4.38,-2.83 -11.38,-1.72 -16.33,-1.85 -2.71,-0.07 -5.41,-0.17 -8.12,-0.2 -2.92,0 -5.85,0 -8.77,0 H 314.15 q -89.34,0 -178.67,0 c -33.1,0 -66.19,0.12 -99.28,0.07 -4.52,0 -9,-0.07 -13.55,0 -4.55,0.07 -11,-0.48 -14.86,2.64 -3.5,2.83 -2.37,6.68 -2.5,10.64 a 1.08,1.08 0 0 0 0,0.19 c -0.14,45.66 -0.44,91.31 -0.67,137 q -0.08,16.29 -0.16,32.57 c 0,6.48 -0.44,13.25 0.45,19.68 1.44,10.38 16.31,9.29 24.18,9.28 6.82,0 13.55,-0.18 20.36,0 3.45,0.11 6.93,0 10.38,0 l 132.89,-0.3 176.33,-0.43 60,-0.16 c 13.45,0 28.12,1.06 41.32,-0.74 3.05,-0.42 6.65,-1.2 8.13,-4.24 1.67,-3.28 1.26,-8.81 1.34,-12.45 z m -2.65,5.72 c -0.18,2.41 0.09,5.8 -2.21,7.45 -1.5,1.09 -4.38,1.35 -6.1,1.52 -6.27,0.62 -12.7,0.37 -19,0.49 -2.64,0 -5.29,0 -7.94,0 l -44.83,0.11 -163,0.4 -152.57,0.4 c -10.56,0 -21.18,0.36 -31.75,0.09 -5.05,-0.12 -10,-0.35 -15.11,-0.14 -6.69,0.27 -14.55,0.85 -21,-1.08 -5.32,-1.59 -6.45,-3.82 -6.82,-8.88 -0.14,-1.88 -0.3,-3.79 -0.34,-5.68 -0.1,-4.94 0,-9.9 0,-14.84 L 6.72,47.35 q 0,-6.27 0,-12.53 a 0.7,0.7 0 0 0 0,-0.14 c 0.22,-4.93 -0.86,-9.08 5.42,-10.84 3.21,-0.9 7.14,-0.6 10.46,-0.64 4.31,0 8.61,0 12.92,0 h 15.32 q 27.12,0 54.24,0.05 l 168.31,0.06 h 148 c 9.6,0 19.21,-0.09 28.81,0 h 0.38 c 4,0 7.92,0.2 11.88,0.31 4.9,0.13 12.24,-0.85 13.86,5.26 0.88,3.32 0,7.25 0,10.74 q 0.09,11.1 0.17,22.2 0.56,74.41 1.1,148.83 c 0,1.45 0.06,2.9 0,4.35 -0.04,2 -0.27,3.84 -0.4,5.71 z"
       fill="#1e1e1e"
       id="path6276" />
    <path
       d="m 111.8,47.87 c -0.47,-2.86 -3.85,-1.8 -5.34,-0.6 a 8.47,8.47 0 0 0 -3,7.75 128.07,128.07 0 0 1 1.7,20.13 c 0,5.2 0.32,11.56 -0.84,17 -7.93,2.91 -18.75,1.16 -26.6,0.79 A 233,233 0 0 1 48,90 c -4.53,-0.8 -9.49,10 -4.13,11 a 238.57,238.57 0 0 0 30.64,3 c 9.77,0.45 20.25,1.43 29.67,-1.81 9.42,-3.24 8.9,-15.08 9.4,-23.35 A 138.14,138.14 0 0 0 111.8,47.87 Z"
       opacity="0.15"
       id="path6278" />
    <path
       d="m 192.35,49.07 c -0.66,-7.09 -9.08,0.18 -8.65,4.8 a 153.5,153.5 0 0 1 -1,37.25 c -4,0.48 -8.24,0.32 -12.09,0.43 q -7.26,0.2 -14.52,0 C 146.77,91.34 137.3,89.78 128,90.62 c -4.45,0.4 -8.27,11.35 -2,10.79 5.08,-0.46 10.28,0.38 15.36,0.68 5.08,0.3 10.31,0.48 15.47,0.51 q 6.78,0 13.55,-0.24 c 4.35,-0.17 9.87,0.32 14,-1.16 7.86,-2.82 7,-15.8 7.63,-22.41 a 159,159 0 0 0 0.34,-29.72 z"
       opacity="0.15"
       id="path6280" />
    <path
       d="m 311.92,71.92 a 128.72,128.72 0 0 1 1.35,-21.75 c 0.23,-1.58 0,-4.32 -2.14,-4.42 l -1.47,-0.08 c -4.23,-0.2 -8.48,8.78 -5.33,10.65 a 142.3,142.3 0 0 0 -1.1,17.51 q 0,5.31 0.45,10.61 c 0.16,1.92 0.38,3.84 0.61,5.75 0,0.06 0,0.12 0,0.17 a 76.76,76.76 0 0 1 -9.34,-0.1 c -4,-0.06 -7.91,-0.19 -11.86,-0.27 q -12.44,-0.26 -24.87,-0.27 c -16.57,0 -33.15,0.14 -49.73,0.32 -4.67,0 -9.24,11 -4.13,11 27.52,-0.29 55,-0.54 82.54,0.14 9.56,0.23 25.77,2.3 26.42,-11.35 0.3,-5.83 -1.26,-12.01 -1.4,-17.91 z"
       opacity="0.15"
       id="path6282" />
    <path
       d="m 453.22,49 c 0,-2.64 -2.17,-3.64 -4.41,-2.54 -2.49,1.22 -4.27,4.64 -4.24,7.35 0.07,6.77 0,13.54 -0.38,20.31 q -0.26,4.83 -0.66,9.65 c -0.18,2.12 -0.14,5.06 -0.53,7.57 -3.36,1.33 -8.9,1.23 -11.63,1.24 a 92.89,92.89 0 0 1 -13,-1.16 203.8,203.8 0 0 0 -30.73,-2.09 c -9.82,0.12 -19.62,0.86 -29.43,1.34 -5.11,0.25 -10.22,0.43 -15.33,0.43 -2.5,0 -13.89,0.71 -14.73,-0.61 -2.82,-4.37 -10,5.11 -7.45,9.07 1.76,2.74 5.92,2.16 8.77,2.3 3.7,0.17 7.41,0.24 11.11,0.21 7.77,-0.06 15.52,-0.52 23.27,-1 16.07,-0.91 32,-1.27 48,0.94 6.61,0.91 13.15,1.86 19.83,1.3 5.93,-0.5 13.46,-1.29 17.15,-6.59 3.94,-5.66 3.21,-15 3.68,-21.66 0.59,-8.6 0.81,-17.31 0.71,-26.06 z"
       opacity="0.15"
       id="path6284" />
    <path
       d="m 106.89,43.89 c -0.12,-1 -2.53,-3.14 -5.76,-3.12 -2.44,0 -51.43,-0.07 -53.77,0 -1,0 -5.43,0.33 -5.72,0.78 a 9.82,9.82 0 0 0 -1.15,4.56 c 0,0.77 -0.33,43.62 -0.23,45.18 0,0.7 4.1,3.27 6.11,3.31 2.38,0.05 57.6,0.32 58.26,0 a 5,5 0 0 0 2.31,-4 C 107,89.3 107,44.91 106.89,43.89 Z"
       fill="#f7941f"
       id="path6286" />
    <path
       d="m 185.85,42.91 c -0.1,-1 -2.5,-1.86 -2.83,-1.93 -0.7,-0.14 -59.78,-0.6 -61.76,-0.53 -0.85,0 -2.71,4.45 -2.68,5.65 0,0.78 0,44.66 0,44.66 0.08,1.57 4.55,4.2 6.25,4.24 2,0 57.91,-0.08 58.48,-0.42 a 5.93,5.93 0 0 0 2.52,-4 c 0.01,-1.28 0.17,-46.65 0.02,-47.67 z"
       fill="#f7941f"
       id="path6288" />
    <path
       d="m 446.87,44.89 c -0.13,-1 -2.84,-3.84 -3.22,-3.91 -0.83,-0.14 -120.2,-0.7 -121,-0.34 -0.64,0.27 -3.82,4.26 -3.78,5.47 0,0.77 -0.43,42.05 -0.33,43.62 0.05,0.7 4.1,3.89 4.7,4.48 1.08,1.08 117.33,0.92 119.59,0.53 0.82,-0.14 4.06,-2.91 4.12,-4.18 0.06,-1.27 0.05,-44.65 -0.08,-45.67 z"
       fill="#f7941f"
       id="path6290" />
    <path
       d="m 306.48,88.43 c -0.22,2 -1.65,5.63 -5,5.64 -1.45,0 -97.89,0.8 -99.33,0.11 -1.1,-0.54 -3.88,-1.92 -3.82,-4.25 0.05,-1.51 -0.88,-38.78 -0.71,-41.82 a 6.57,6.57 0 0 1 1.7,-3.94 c 1.85,-2.1 5.84,-2.4 9.27,-2.48 4.09,-0.1 92.82,-1.72 94,-1 2.66,1.56 4.41,6.42 4.52,8.9 0.11,2.48 -0.42,36.86 -0.63,38.84 z"
       fill="#f7941f"
       id="path6292" />
    <path
       d="m 445.54,44.92 c -1,-3.9 -5.57,-3.33 -8.75,-3.37 a 148.85,148.85 0 0 0 -16.08,0.77 c -11,-0.55 -22.1,-1 -33.14,-0.81 -9.9,0.16 -19.75,1.35 -29.64,1.47 -10.87,0.14 -21.59,-2.15 -32.47,-1.46 -2.82,0.18 -4.76,3.27 -4.79,5.92 q -0.29,21.18 -0.19,42.37 c 0,5.29 6.5,-0.17 6.49,-3.6 q -0.09,-18.28 0.14,-36.58 c 8.94,0.06 17.81,1.61 26.78,1.59 10.2,0 20.38,-1.31 30.59,-1.47 18.78,-0.3 37.63,1.15 56.39,2 3,0.1 5.32,-4.21 4.67,-6.83 z"
       fill="#ffffff"
       opacity="0.25"
       id="path6294" />
    <path
       d="m 304.46,45.7 c -1.41,-2.36 -3.6,-2.36 -6.15,-2.6 -3.9,-0.36 -7.82,-0.63 -11.73,-0.94 -7.28,-0.59 -14.61,-1.45 -21.92,-1.52 -6.69,-0.07 -13.2,2 -19.83,1.76 -7.53,-0.29 -15.05,0.3 -22.58,-0.21 -5.59,-0.38 -13.16,-1.86 -18.56,0.17 -4.9,1.85 -6.58,4.73 -6.85,9.53 A 131.67,131.67 0 0 0 197.75,75 c 0.53,4.41 0,13 5.31,14.36 2.73,0.68 4.76,-3.93 4.8,-5.92 0.12,-7 0.44,-14.09 1,-21.12 a 80.94,80.94 0 0 1 1.72,-10.78 11.3,11.3 0 0 0 0.34,-3.62 q 3.63,0.12 7.24,0.34 c 5.75,0.36 11.47,1 17.18,1.73 10.18,1.34 19.72,-1.46 29.89,-0.95 5.43,0.28 10.85,0.81 16.26,1.25 l 7.82,0.62 c 1.95,0.16 8.37,-0.3 9.53,1.64 2.01,3.26 7.43,-3.82 5.62,-6.85 z"
       fill="#ffffff"
       opacity="0.25"
       id="path6296" />
    <path
       d="m 447.33,49.61 c 0,-1.49 0,-3 -0.08,-4.49 a 0.64,0.64 0 0 0 0,-0.43 c -1.31,-3.84 -3.48,-4.31 -6.88,-4.38 -4.7,-0.09 -9.4,-0.1 -14.1,-0.15 C 410.52,40 394.77,40 379,39.9 l -41.09,-0.18 c -2.38,0 -4.76,0 -7.15,0 -2.82,0 -9.28,-0.81 -11.49,1.41 -1.59,1.59 -1.39,5.4 -1.46,7.47 -0.42,12.32 -0.67,24.73 -0.64,37.06 0,2.31 -0.45,5.19 1.05,7 1.5,1.81 4.5,2.85 6.72,3.07 3.39,0.34 6.95,0.06 10.34,0.08 q 43.17,0.31 86.34,0.53 c 3.81,0 7.59,-0.12 11.4,-0.24 5.95,-0.2 14.37,1.29 14.51,-6.59 0.27,-13.28 -0.05,-26.61 -0.2,-39.9 z m -1.66,31.79 q 0,3.39 -0.06,6.79 c 0,3.41 -0.42,5.11 -4.8,5.52 -5.25,0.5 -10.74,0.35 -16,0.41 -25.32,0.32 -50.69,-0.34 -76,-0.49 l -17.32,-0.11 c -2.93,0 -6.25,0.44 -9,-0.78 -4.48,-2 -3,-10.68 -2.94,-14.89 q 0.15,-10.74 0.32,-21.5 c 0,-2.37 0.05,-4.74 0.11,-7.11 0.1,-3.81 -0.22,-6.84 4.54,-7.23 3.26,-0.27 6.55,-0.21 9.83,-0.2 l 32.59,0.11 50.08,0.16 h 18.89 c 3.68,0 8.23,-1.33 9.92,3 v 0 c 0.86,12 -0.06,24.33 -0.16,36.32 z"
       fill="#1e1e1e"
       id="path6298" />
    <path
       d="m 307.35,58.08 c 0,-4.73 2.44,-14.8 -3.1,-17.45 -2.45,-1.18 -6.4,-0.9 -9.16,-1 -22.61,-0.54 -45.3,0.17 -67.91,0.53 -2.26,0 -4.53,0.06 -6.79,0.11 -3.86,0.07 -7.71,0.16 -11.56,0.24 -3.32,0.08 -7.29,-0.25 -10,2.08 -3.37,2.9 -2.38,8.69 -2.32,12.67 q 0.12,9.78 0.3,19.55 c 0.08,4.43 -0.12,9 0.34,13.41 0.2,1.88 0.21,4.79 1.89,6 2.43,1.77 8.11,1 10.88,1.09 9.13,0.29 18.24,0.28 27.38,0.27 h 39.84 10.53 c 5.15,0 10.38,0.07 15.48,-0.85 4,-0.72 4.07,-2.57 4.09,-6.29 a 0.5,0.5 0 0 0 0,-0.13 c 0.76,-9.96 0.13,-20.21 0.11,-30.23 z m -23.58,35.53 h -7.62 q -15.88,0 -31.76,0 c -8.32,0 -16.64,0.06 -24.95,0 l -2.65,-0.06 c -4.42,-0.14 -10.72,0.77 -14.95,-0.69 -3.9,-1.35 -2.74,-9.08 -2.79,-12.94 -0.14,-10.08 -1.35,-20.76 -0.33,-30.8 0.63,-6.23 4.65,-6.12 9.42,-6.23 q 6.12,-0.14 12.25,-0.24 c 1.69,0 3.39,-0.06 5.08,-0.08 21,-0.31 41.92,-0.68 62.89,-0.66 3.28,0 6.58,0 9.87,0.13 3.83,0.19 6.58,1.39 7.32,6.17 0.49,3.21 -0.11,6.7 -0.05,9.94 0.17,10 1.06,20.27 0.3,30.23 a 0.43,0.43 0 0 0 0,0.17 c -0.47,7.71 -16.86,5.09 -22.03,5.06 z"
       fill="#1e1e1e"
       id="path6300" />
    <path
       d="m 184.55,42.32 c -11.13,0 -22.25,-0.24 -33.35,-1 -8.27,-0.52 -21.43,-3.73 -28.84,1.42 -2.9,2 -3.93,5.12 -3.79,8.5 a 115.35,115.35 0 0 1 -0.66,17.12 c -0.9,8.86 -1,17.94 4.15,25.61 2.49,3.7 6.25,-4 5.91,-6.09 a 87.08,87.08 0 0 1 -1,-19.42 c 0.18,-2.81 0.73,-5.58 0.85,-8.38 0.12,-3 -1.74,-7.4 -0.92,-10.15 a 6.89,6.89 0 0 0 0.24,-1.22 36.87,36.87 0 0 1 4.16,-0.2 c 8.17,-0.11 16.43,1.1 24.61,1.49 q 12.74,0.6 25.5,0.52 c 3.59,0.02 6.98,-8.21 3.14,-8.2 z"
       fill="#ffffff"
       opacity="0.25"
       id="path6302" />
    <path
       d="m 187,87 c 0,-5.26 -0.07,-10.53 -0.12,-15.79 -0.09,-9.32 0.24,-18.76 -0.34,-28.07 a 0.61,0.61 0 0 0 0,-0.4 c -0.66,-2.21 -2.66,-2.3 -4.6,-2.4 -3.78,-0.19 -7.58,-0.22 -11.37,-0.31 -10.77,-0.25 -21.55,-0.42 -32.33,-0.61 -4.47,-0.08 -15.78,-1.73 -19.21,1.57 -2,1.89 -1.41,5.83 -1.49,8.47 -0.12,4.09 -0.12,8.18 -0.18,12.27 -0.12,8.16 -1.05,16.75 -0.38,24.88 0.35,4.25 1.85,8.88 6.59,9.67 2.29,0.38 5,0 7.26,0 q 16.4,0 32.78,-0.07 c 4.71,0 9.43,-0.06 14.14,-0.13 1.87,0 4.7,0.42 6.41,-0.52 3.07,-1.7 2.84,-5.7 2.84,-8.56 z m -2.23,1.29 c 0,2.62 -0.39,5 -3.18,5.47 -3.07,0.55 -6.65,0.11 -9.76,0.14 -9.83,0.08 -19.66,0.1 -29.48,0.12 h -12.51 c -1.86,0 -4.36,0.45 -6.18,0 -6.82,-1.71 -4.3,-18.11 -4.24,-23 0.09,-7.42 0,-14.88 0.27,-22.3 0.06,-1.31 -0.18,-4.14 0.45,-5.27 1.32,-2.36 6.23,-2.05 8.58,-2.1 1.58,0 3.17,0 4.75,0.08 l 29.74,0.47 14.4,0.21 c 1.4,0 6.84,-0.84 7.54,1 v 0 C 186.08,58 184.9,73.3 184.81,88.24 Z"
       fill="#1e1e1e"
       id="path6304" />
    <path
       d="m 103.35,41.92 a 200.4,200.4 0 0 0 -33.14,0.43 1.39,1.39 0 0 0 -1.58,-1.17 c -1.36,0.08 -2.81,0.18 -4.3,0.32 A 78.34,78.34 0 0 1 53.4,41.21 3.6,3.6 0 0 0 50.8,42.49 l -5.34,-0.62 c -2.92,-0.34 -7,6.35 -3.8,8 0.48,-0.18 0.77,-0.22 0.87,-0.14 -0.05,0.12 -0.11,0.24 -0.17,0.36 h 0.11 a 4.52,4.52 0 0 1 -0.58,0.67 4.15,4.15 0 0 0 -0.29,4.46 c -1,4 -0.85,8.43 -0.94,12.35 A 182.71,182.71 0 0 0 41.47,89 c 0.36,3.93 4.33,1.81 5.58,-0.45 2.86,-5.21 2.14,-10.18 1.92,-15.9 a 92.2,92.2 0 0 1 1.56,-20.31 l 0.19,-0.09 a 58.48,58.48 0 0 1 5.87,-0.54 l 5,0.58 a 3.78,3.78 0 0 0 2.87,-1.46 c 2.7,-0.3 5.4,-0.56 8.1,-0.76 a 190.84,190.84 0 0 1 27.68,0 c 3.51,0.33 7.06,-7.87 3.11,-8.15 z"
       fill="#ffffff"
       opacity="0.25"
       id="path6306" />
    <path
       d="m 108,86.23 c 0.17,-5.55 0.12,-11.11 0.08,-16.66 -0.06,-8.45 0.2,-17.06 -0.46,-25.5 a 0.55,0.55 0 0 0 0,-0.38 c -1.67,-4.58 -5.29,-3.78 -9.51,-3.87 -2.74,-0.06 -5.48,-0.07 -8.21,-0.07 H 61.47 c -2.94,0 -5.88,0 -8.82,0 -2.94,0 -8.75,-0.74 -11.47,1 -3.24,2.11 -1.78,15.12 -1.84,18.62 -0.15,8.8 -0.51,17.62 -0.47,26.43 0,3.31 -0.3,7.9 3.35,9.57 2.33,1.06 6.73,0.41 9.32,0.45 q 14.94,0.25 29.89,0.49 c 3.3,0 6.58,-0.14 9.87,-0.09 a 74.15,74.15 0 0 0 10.11,-0.14 c 1.64,-0.2 4.62,-0.09 5.75,-1.55 1.32,-1.72 0.77,-6.33 0.84,-8.3 z m -2.28,1.47 a 25.39,25.39 0 0 1 -0.26,4.09 c -0.42,1.88 -0.16,1.58 -2.4,1.78 -5.73,0.54 -11.4,0.42 -17.14,0.53 -7.55,0.15 -15.15,-0.25 -22.7,-0.37 L 50.84,93.54 c -1.21,0 -2.42,-0.05 -3.63,-0.06 -3.85,0 -6,-3.14 -6.13,-6.88 -0.14,-6.18 0.17,-12.41 0.26,-18.59 0.1,-6.51 0.25,-13 0.29,-19.54 0,-1.84 -0.6,-5.08 1.18,-6.08 1.78,-1 5.07,-0.45 7,-0.52 2.11,-0.08 4.21,-0.09 6.32,-0.09 h 28.3 9.06 c 3.78,0 10.88,-1.52 12.76,2.46 1.05,14.21 0.13,29.18 -0.54,43.46 z"
       fill="#1e1e1e"
       id="path6308" />
    <path
       d="m 452,169.15 c -0.69,-7.09 -9.1,0.19 -8.65,4.81 0.66,6.73 1.21,13.48 1.24,20.25 0,3.31 -0.08,6.63 -0.38,9.93 -0.1,1 -0.22,2.09 -0.33,3.13 a 14.18,14.18 0 0 0 -1.83,0.3 c -1.75,0.47 -3.47,1 -5.25,1.28 a 90.47,90.47 0 0 1 -13.36,1.06 c -7,0.24 -13.91,0.24 -20.89,-0.2 -8.3,-0.52 -16.59,-1.37 -24.91,-1.69 -8.32,-0.32 -17,1.16 -25.14,-0.41 -4.51,-0.87 -9.49,9.95 -4.13,11 6.41,1.22 12.93,0.26 19.4,0.28 7,0 14.06,0.58 21.07,1.12 a 265.92,265.92 0 0 0 36.8,0.64 c 6,-0.37 11.48,-2.08 17.31,-3 5.06,-0.77 8.12,-3.84 9.05,-9.06 2.3,-12.89 1.27,-26.51 0,-39.44 z"
       opacity="0.15"
       id="path6310" />
    <path
       d="m 338,174.1 a 34.42,34.42 0 0 1 -1.9,-5.62 c -0.34,-1.61 -0.39,-3.07 -2.08,-3.81 -4.34,-1.89 -9.71,7.33 -6.65,10 0,0.25 0.09,0.6 0.18,1.06 0.09,0.46 0.11,0.78 0.17,1.18 a 23.75,23.75 0 0 0 1.69,3.87 c 1.63,3.66 1,7.08 0.17,10.86 -1.12,5 -1.59,10 -2.28,15 -1.33,0.13 -2.67,0.25 -4,0.36 -1.94,0.17 -3.89,0.31 -5.84,0.45 -4.86,0.33 -9.74,0.57 -14.61,0.73 -9.43,0.3 -18.86,0.24 -28.29,-0.1 -4.67,-0.17 -9.33,10.79 -4.13,11 11.05,0.4 22.11,0.4 33.16,-0.09 q 8.29,-0.36 16.56,-1.07 c 4.26,-0.37 9,0.07 12.18,-3.22 3.4,-3.53 2.74,-8.49 3.29,-13 0.61,-5 2,-9.75 2.91,-14.67 0.82,-4.29 1.11,-8.79 -0.53,-12.93 z"
       opacity="0.15"
       id="path6312" />
    <path
       d="m 259.54,168.94 c 0,-0.85 -0.37,-2.43 -1.33,-2.8 l -1.62,-0.62 c -4.7,-1.82 -10.36,8.7 -6,10.39 l 0.33,0.12 c 0.08,5.87 0,11.73 -0.27,17.59 -0.16,3.15 -0.41,6.29 -0.62,9.44 a 36.73,36.73 0 0 0 -0.12,4.69 v 0.05 c -3.42,0.44 -7.47,0 -10.24,0 -5,-0.07 -9.95,-0.42 -14.93,-0.45 -9.73,-0.07 -20.49,3.36 -29.93,0.24 -4.81,-1.59 -10.35,9 -6,10.39 9.66,3.2 19.13,0.53 29,0.36 10.28,-0.19 20.55,1.19 30.8,-0.26 3.9,-0.55 6.8,-1.65 8.88,-5.21 2.32,-4 1,-7.51 1,-11.79 0,-10.71 1.27,-21.39 1.05,-32.14 z"
       opacity="0.15"
       id="path6314" />
    <path
       d="m 174.94,164.6 c -1.58,-5.82 -9.51,2.81 -8.33,7.16 1.67,6.15 1.49,12.38 1,18.68 -0.27,3.39 -0.64,6.77 -1,10.15 -0.17,1.72 0.22,7.55 -0.86,8.79 -1.72,2 -10.77,0.52 -14,0.39 -6.76,-0.28 -13.54,-0.29 -20.3,-0.38 -27.08,-0.37 -54.16,-0.37 -81.24,-1 -4.67,-0.1 -9.3,10.86 -4.13,11 32.62,0.72 65.24,0.57 97.85,1.26 11.21,0.23 27.25,2.41 30,-12.53 1.31,-7 1.57,-14.48 2.16,-21.6 0.7,-7.4 0.81,-14.7 -1.15,-21.92 z"
       opacity="0.15"
       id="path6316" />
    <path
       d="m 329.48,206.36 c 0,0 1.43,4.08 -3.23,5.09 -1.15,0.25 -57.05,0.9 -58.05,0 -2.42,-2.15 -2.19,-9.39 -2.19,-9.39 0,0 -1.12,-33 -0.79,-36 0.15,-1.37 -0.42,-3.3 1.58,-4.45 3.65,-2.09 58.59,-2.35 60.65,-1.47 5.02,2.13 2.03,46.22 2.03,46.22 z"
       fill="#f7941f"
       id="path6318" />
    <path
       d="m 253.64,161.78 c -0.2,-1 -3,-2.1 -5.17,-2.62 -0.54,-0.13 -61.24,-1.23 -63.43,0.28 -1.31,0.91 -1.84,7.61 -1.8,8.39 0,0 0.24,39.79 0.39,41.35 0.08,0.7 2.66,2.47 3.6,3.06 1.73,1.08 55.78,0.11 59.42,0.39 6.66,0.51 6.48,-3.91 6.58,-5.19 0.1,-1.28 0.61,-44.64 0.41,-45.66 z"
       fill="#f7941f"
       id="path6320" />
    <path
       d="m 40,208.23 c 0.23,1 4.21,4.62 4.93,4.68 1.56,0.15 118.71,-0.32 120.33,-0.42 4.05,-0.25 4.68,-6.28 4.63,-7.06 l -0.28,-38.16 c -0.18,-1.56 0,-7.33 -3.09,-7.9 C 164.24,159 46,159 44.79,159.29 a 4.12,4.12 0 0 0 -3.41,4 c -0.12,1.28 -1.63,43.92 -1.38,44.94 z"
       fill="#f7941f"
       id="path6322" />
    <path
       d="m 447.74,164.58 c -0.2,-1 -3.65,-4.9 -5.85,-5.42 -0.55,-0.13 -93.13,-1.75 -96.15,0.28 -3.02,2.03 -3.27,7.61 -3.23,8.39 l -0.08,36.65 c 0.16,1.57 0.56,6.33 1.59,6.73 7.34,2.84 93.36,0.64 97,0.92 6.65,0.51 6.47,-5.91 6.58,-7.19 0.11,-1.28 0.34,-39.34 0.14,-40.36 z"
       fill="#f7941f"
       id="path6324" />
    <path
       d="m 165.76,161.8 c -20.65,-1.42 -41.34,-2.86 -62,-2.32 -9.73,0.26 -19.46,1 -29.2,0.77 -7.31,-0.18 -14.57,-0.93 -21.8,-0.25 a 2.48,2.48 0 0 0 -2.31,0.1 c -0.22,0.1 -0.45,0.18 -0.68,0.26 -1.14,0.18 -2.29,0.4 -3.43,0.67 -2.43,0.58 -4.9,5.49 -3.58,7.37 a 34.68,34.68 0 0 0 -0.2,5.57 q -1,13.07 -1.9,26.13 a 1.9,1.9 0 0 0 0.76,1.84 13.11,13.11 0 0 0 2.5,9.3 c 2.4,3.2 7.69,-4 5.58,-6.79 -4.05,-5.4 0.26,-13.48 0.35,-19.67 a 59.58,59.58 0 0 0 -0.34,-6.27 c -0.09,-3.54 -0.2,-8.42 0.53,-10.27 7.72,-0.84 15.52,0.18 23.31,0.27 9.77,0.12 19.52,-0.64 29.29,-0.84 20,-0.4 40.08,1 60.07,2.37 3.44,0.24 7,-7.96 3.05,-8.24 z"
       fill="#ffffff"
       opacity="0.25"
       id="path6326" />
    <path
       d="m 251.63,160.83 c -3.23,-2.2 -8.08,-1.7 -11.83,-1.87 q -7.23,-0.33 -14.45,-0.2 -7.22,0.13 -14.44,0.71 a 27.6,27.6 0 0 0 -6.13,0.88 c -4.75,-0.26 -9.51,-0.55 -14.26,-0.84 a 2.64,2.64 0 0 0 -1,0.12 c -2.56,-2.69 -5.71,3.49 -5.83,5.42 q -0.53,8.16 -0.69,16.33 c 0,2 0.83,2.45 1.93,2.16 l 0.06,2.05 q 0.38,11.29 0.74,22.59 c 0.17,5.31 6.6,-0.15 6.48,-3.6 -0.28,-8.71 -0.63,-17.43 -0.84,-26.15 -0.07,-3.09 0.58,-6.84 0.58,-10.41 l 8.19,0.48 c 0.5,0.55 1.31,0.71 2.46,0.13 a 384.92,384.92 0 0 0 45.19,0.22 c 2.89,-0.19 7.06,-5.85 3.84,-8.02 z"
       fill="#ffffff"
       opacity="0.25"
       id="path6328" />
    <path
       d="m 327.39,160.32 a 118.45,118.45 0 0 0 -28.8,-2.29 123.3,123.3 0 0 0 -12.86,1.27 c -2.68,0.41 -5.42,1.2 -8.17,1.78 a 2.28,2.28 0 0 0 -1.14,-0.61 c -5.89,-1.34 -12.9,2.58 -11.82,9.56 a 5,5 0 0 0 1.35,3 54.64,54.64 0 0 0 -1.34,11.28 110.39,110.39 0 0 0 0.45,16.86 c 0.4,3.8 0.11,9.22 3.64,11.53 2.43,1.6 5.11,-2.91 5.41,-4.7 a 151.28,151.28 0 0 0 1.95,-19.24 c 0.21,-6.12 -1.05,-13.06 1.52,-18.79 a 4.45,4.45 0 0 0 0.37,-1.39 c 0.85,-0.2 1.71,-0.39 2.57,-0.55 a 109.12,109.12 0 0 1 15,-1.76 118,118 0 0 1 28.8,2.3 c 3.35,0.67 7.1,-7.44 3.07,-8.25 z"
       fill="#ffffff"
       opacity="0.25"
       id="path6330" />
    <path
       d="m 445.68,162.28 -1.7,-0.54 a 2.46,2.46 0 0 0 -1,-0.08 c -11.83,-2.26 -24.12,-2 -36.11,-2.59 -12.66,-0.6 -25.37,-1.47 -38,-1.42 -6.67,0 -18.23,-1.06 -22.8,4.66 -1.4,1.21 -2.64,3.1 -2.64,4.6 v 22.79 c 0,6.31 -0.58,12.92 1.56,19 1.46,4.11 6,-1.29 6.28,-3.48 a 141.29,141.29 0 0 0 0.3,-32.82 c -0.16,-1.39 -0.35,-2.77 -0.54,-4.16 l -0.18,-1.28 0.47,-0.16 1.9,-0.24 c 1.64,-0.19 3.29,-0.32 4.93,-0.42 6.06,-0.37 12.14,-0.23 18.21,0 10.57,0.37 21.15,0.92 31.72,1.41 11.29,0.52 22.76,0.39 33.86,2.79 2.98,0.6 6.87,-7.08 3.74,-8.06 z"
       fill="#ffffff"
       opacity="0.25"
       id="path6332" />
    <path
       d="m 448.62,200.73 c 0,-7.09 -0.07,-14.18 -0.13,-21.27 -0.05,-4.92 0.32,-10.09 -0.24,-15 a 0.53,0.53 0 0 0 0,-0.39 c -3.11,-7.88 -12.21,-6 -18.87,-6 -13.16,-0.15 -26.32,-0.22 -39.49,-0.3 -8.05,-0.05 -16.1,-0.08 -24.15,-0.15 -6.06,-0.05 -12.76,-1 -18.67,0.64 -4.79,1.34 -5.66,5.73 -5.61,10.15 0.11,11.16 -0.07,22.32 -0.13,33.48 0,4.11 -0.75,9.73 4.05,11 5.86,1.59 13.11,0.81 19.18,1 22.91,0.6 45.79,-0.35 68.71,-0.63 3.71,0 10.1,1.06 13,-1.62 2.9,-2.68 2.36,-7.35 2.35,-10.91 z m -2,4 c -0.16,2.49 -0.56,5.33 -3.41,6.16 -1.46,0.42 -3.78,0 -5.33,0 -19.8,-0.08 -39.64,1.29 -59.43,1 -6,-0.09 -11.92,-0.31 -17.88,-0.46 l -6.11,-0.13 c -1.7,0 -3.4,0 -5.09,-0.19 -4.19,-0.36 -5.61,-2.54 -5.79,-6.69 -0.41,-9.4 0,-18.9 0,-28.3 0,-3 -0.15,-6.08 0,-9.1 0.21,-5.73 3.4,-7 8.41,-7.4 a 107.66,107.66 0 0 1 10.78,0 c 6.38,0.15 12.76,0.09 19.14,0.13 l 39.57,0.19 15.43,0.07 c 4.18,0 7.78,-0.16 10,4.55 1,9.38 0,19.46 -0.1,28.88 -0.1,3.77 0.02,7.56 -0.21,11.33 z"
       fill="#1e1e1e"
       id="path6334" />
    <path
       d="m 331.22,175.68 c -0.06,-3.7 -0.36,-7.54 -0.79,-11.21 -0.29,-2.52 -0.79,-4.73 -3.36,-5.62 -3.29,-1.14 -7.54,-0.4 -10.95,-0.6 -3.82,-0.21 -7.6,-0.34 -11.43,-0.32 -9,0.07 -18,0.43 -27,0.58 -3.58,0.06 -7.78,0 -11,1.85 -2.49,1.45 -2.59,3.24 -2.66,5.91 -0.27,11.54 0.8,23.08 0.85,34.61 0,4.77 -0.52,11.48 5.5,12.12 a 92.42,92.42 0 0 0 10.79,0.14 0.91,0.91 0 0 0 0.77,0.38 c 7.73,0 15.47,0.13 23.2,0 h 1.23 0.13 c 3.33,-0.08 6.67,-0.19 10,-0.38 3.33,-0.19 6.81,0 10,-0.77 3.9,-0.93 3.52,-2.64 3.73,-6 0,0 0,-0.08 0,-0.12 0.7,-4.59 0.48,-9.48 0.61,-14.1 0.16,-5.48 0.46,-11 0.38,-16.47 z m -5.68,34.94 a 21.83,21.83 0 0 1 -4.05,0.28 c -3.43,0.2 -6.86,0.38 -10.29,0.49 -1.51,0.05 -3,0.07 -4.52,0.1 a 0.82,0.82 0 0 0 -0.28,-0.06 c -9.65,-0.17 -19.3,-0.42 -28.95,-0.42 -3.3,0 -8.43,1.05 -9.88,-2.72 -0.85,-2.24 -0.46,-4.85 -0.47,-7.2 0,-10.24 -0.68,-20.48 -0.78,-30.72 a 25.51,25.51 0 0 1 0,-4.1 c 0.93,-5.87 6.83,-5.39 11.38,-5.47 7.64,-0.13 15.28,-0.39 22.92,-0.54 6.46,-0.12 12.86,0.25 19.3,0.33 a 24.56,24.56 0 0 1 4.93,0.15 c 3.46,0.8 3.38,3.13 3.68,6.17 0.3,3.04 0.66,6 0.75,8.91 0.15,5.08 -0.07,10.21 -0.13,15.29 -0.05,4.9 0.41,10.21 -0.38,15.07 v 0 a 0.53,0.53 0 0 0 -0.05,0.18 c -0.26,2.32 0.22,3.38 -3.18,4.26 z"
       fill="#1e1e1e"
       id="path6336" />
    <path
       d="m 254.36,162 a 0.69,0.69 0 0 0 -0.08,-0.58 c -3.08,-5.06 -14.24,-3.38 -19,-3.44 q -13.92,-0.19 -27.82,-0.33 c -2.71,0 -5.42,0 -8.14,0.08 -2.72,0.08 -5.49,0.13 -8.24,0.23 -1.64,0.06 -4.36,-0.3 -5.91,0.38 -4.17,1.85 -3,12.16 -3,16.2 0,9.36 -0.18,18.74 -0.1,28.1 0,3 -0.62,7.54 2,9.48 3.42,2.52 10,1.49 14.09,1.59 9.5,0.23 19,0.54 28.45,0.39 5.43,-0.08 10.86,-0.37 16.3,-0.39 3.72,0 8.77,1 10.79,-3 1,-2 0.69,-4.81 0.71,-7 0,-5.22 0,-10.43 0.05,-15.65 0.02,-8.54 0.84,-17.58 -0.1,-26.06 z m -1.65,18 q -0.22,12.39 -0.53,24.79 c -0.07,3.15 0.23,6.19 -4,6.74 -4.55,0.59 -9.65,-0.05 -14.25,0.07 -8,0.22 -16,0.33 -24.05,0.12 -4.49,-0.13 -9,-0.26 -13.47,-0.35 -2.33,0 -4.68,0 -7,-0.27 -4,-0.4 -5,-3.31 -5.14,-6.93 -0.29,-7.14 0,-14.35 0,-21.49 0,-6.27 -0.67,-13 0.53,-19.2 0.49,-2.53 0.2,-3.1 2.64,-3.28 2.44,-0.18 5,-0.23 7.46,-0.3 3.44,-0.1 6.89,-0.22 10.34,-0.23 7.92,0 15.84,0.13 23.76,0.2 l 13.71,0.12 c 2.93,0 8.26,-0.6 10.24,2.11 0.61,5.82 -0.13,12.08 -0.24,17.9 z"
       fill="#1e1e1e"
       id="path6338" />
    <path
       d="m 171,205.3 c 0,-12 -0.07,-24 -0.21,-36.05 -0.05,-4.19 1.21,-9.91 -3.9,-10.86 -5.11,-0.95 -11.3,-0.27 -16.66,-0.32 -24.37,-0.23 -48.74,-0.61 -73.1,-0.51 -8.84,0 -17.7,-0.24 -26.53,0.22 -3.06,0.15 -7.5,-0.2 -9.38,2.84 -1.33,2.13 -1,5.11 -1.14,7.55 -0.3,7.19 -0.35,14.4 -0.51,21.6 -0.12,5.91 -1,12.39 -0.26,18.29 a 0.78,0.78 0 0 0 0,0.37 c 2.15,7.45 12.23,5.57 18.2,5.64 3.65,0.05 7.29,0.05 10.93,0.05 q 20.1,0 40.21,0 c 12.09,0 24.18,0 36.27,0 5.49,0 11,-0.11 16.47,-0.34 2.35,-0.1 6,0 8,-1.59 2,-1.59 1.61,-4.62 1.61,-6.89 z m -4.65,5.84 c -3,1.22 -7.42,0.67 -10.53,0.75 -3.11,0.08 -6.23,0.16 -9.34,0.19 -8.73,0.06 -17.47,0 -26.21,0 H 75.09 64.04 c -3,0 -6,0 -9,0 -4.46,0 -12.51,1.23 -14.31,-4.11 0,0 0,0 0,-0.05 -0.48,-4.14 0.19,-8.74 0.32,-12.87 q 0.34,-10.4 0.73,-20.79 c 0.07,-2 0.12,-4.11 0.23,-6.15 0.21,-3.95 0.62,-7.76 5.33,-8.11 7,-0.53 14.14,-0.28 21.2,-0.25 q 34.41,0.15 68.82,0.42 l 16.35,0.14 h 3.72 c 1.89,0 3.78,-0.05 5.66,0 4,0.08 5.16,-0.06 5.35,4.06 0.51,11 0.27,22.06 0.37,33.07 0,2.26 0,4.51 0.05,6.77 -0.02,2.79 0.5,5.66 -2.56,6.93 z"
       fill="#1e1e1e"
       id="path6340" />
    <path
       d="m 15.08,143.19 a 24.42,24.42 0 0 0 1.08,10 c 0.47,1.46 2.79,0.83 2.31,-0.64 a 22.7,22.7 0 0 1 -1,-9.4 c 0.16,-1.54 -2.24,-1.53 -2.4,0 z"
       fill="#ffffff"
       id="path6342" />
    <path
       d="m 23.35,125 a 41.48,41.48 0 0 0 -5.27,8.09 c -0.68,1.38 1.39,2.6 2.07,1.21 a 39,39 0 0 1 4.9,-7.6 c 1,-1.19 -0.71,-2.89 -1.7,-1.7 z"
       fill="#ffffff"
       id="path6344" />
    <path
       d="m 39,113.19 a 44.1,44.1 0 0 0 -8.49,5 c -1.21,0.92 0,3 1.22,2.07 a 43.5,43.5 0 0 1 8.49,-5 c 1.4,-0.63 0.18,-2.7 -1.22,-2.07 z"
       fill="#ffffff"
       id="path6346" />
    <path
       d="M 57.79,108.36 A 77.73,77.73 0 0 0 48.21,110 c -1.5,0.37 -0.86,2.68 0.64,2.32 a 73.09,73.09 0 0 1 8.94,-1.6 c 1.52,-0.17 1.54,-2.57 0,-2.4 z"
       fill="#ffffff"
       id="path6348" />
    <path
       d="m 79.65,108.6 a 126.78,126.78 0 0 0 -13.36,-0.71 1.2,1.2 0 0 0 0,2.4 126.78,126.78 0 0 1 13.36,0.71 c 1.54,0.16 1.53,-2.24 0,-2.4 z"
       fill="#ffffff"
       id="path6350" />
    <path
       d="m 101.5,112.07 c -4,-0.77 -8,-1.5 -12.06,-2.15 -1.51,-0.25 -2.16,2.07 -0.64,2.31 4,0.65 8,1.39 12.06,2.16 1.51,0.29 2.16,-2 0.64,-2.32 z"
       fill="#ffffff"
       id="path6352" />
    <path
       d="m 120.46,115.35 c -3.37,-0.51 -6.72,-1.08 -10.06,-1.68 -1.52,-0.27 -2.16,2 -0.64,2.32 3.34,0.59 6.7,1.17 10.06,1.68 1.51,0.22 2.16,-2.09 0.64,-2.32 z"
       fill="#ffffff"
       id="path6354" />
    <path
       d="m 145.15,119.17 -15.78,-2.44 c -1.51,-0.23 -2.16,2.08 -0.63,2.31 q 7.88,1.23 15.77,2.44 c 1.52,0.23 2.17,-2.08 0.64,-2.31 z"
       fill="#ffffff"
       id="path6356" />
    <path
       d="m 165.74,122.17 q -5.49,-0.77 -11,-1.57 c -1.51,-0.22 -2.16,2.09 -0.64,2.32 3.66,0.53 7.32,1.06 11,1.56 1.51,0.21 2.16,-2.1 0.64,-2.31 z"
       fill="#ffffff"
       id="path6358" />
    <path
       d="m 189.16,125.35 -14.47,-2 c -1.51,-0.21 -2.16,2.11 -0.63,2.31 l 14.46,2 c 1.51,0.2 2.17,-2.11 0.64,-2.31 z"
       fill="#ffffff"
       id="path6360" />
    <path
       d="m 208.21,127.85 q -5.19,-0.66 -10.38,-1.35 c -1.52,-0.2 -1.51,2.2 0,2.4 q 5.19,0.69 10.38,1.35 c 1.53,0.19 1.52,-2.21 0,-2.4 z"
       fill="#ffffff"
       id="path6362" />
    <path
       d="m 231,130.63 q -6.88,-0.81 -13.78,-1.66 c -1.53,-0.19 -1.52,2.22 0,2.4 q 6.89,0.85 13.78,1.66 c 1.53,0.18 1.52,-2.23 0,-2.4 z"
       fill="#ffffff"
       id="path6364" />
    <path
       d="m 249.91,132.72 c -3.39,-0.35 -6.77,-0.72 -10.16,-1.09 -1.53,-0.17 -1.52,2.23 0,2.4 3.39,0.37 6.77,0.74 10.16,1.09 1.54,0.17 1.53,-2.24 0,-2.4 z"
       fill="#ffffff"
       id="path6366" />
    <path
       d="m 269.78,134.71 c -3.61,-0.39 -7.22,-0.74 -10.83,-1.09 -1.54,-0.15 -1.53,2.25 0,2.4 3.61,0.35 7.22,0.7 10.83,1.09 1.53,0.16 1.52,-2.24 0,-2.4 z"
       fill="#ffffff"
       id="path6368" />
    <path
       d="m 288.36,135.83 c -3.32,-0.1 -6.65,-0.26 -10,-0.47 -1.55,-0.1 -1.54,2.3 0,2.4 3.32,0.21 6.65,0.37 10,0.47 1.55,0.05 1.55,-2.35 0,-2.4 z"
       fill="#ffffff"
       id="path6370" />
    <path
       d="m 307.28,136.26 a 69.71,69.71 0 0 1 -10.42,0.2 c -1.54,-0.08 -1.54,2.32 0,2.4 a 69.71,69.71 0 0 0 10.42,-0.2 c 1.52,-0.16 1.53,-2.56 0,-2.4 z"
       fill="#ffffff"
       id="path6372" />
    <path
       d="m 323,135.65 c -2.06,0.15 -4.12,0.26 -6.18,0.36 -1.53,0.07 -1.54,2.47 0,2.4 2.06,-0.1 4.12,-0.21 6.18,-0.36 1.53,-0.1 1.54,-2.5 0,-2.4 z"
       fill="#ffffff"
       id="path6374" />
    <path
       d="m 344.17,134.93 a 80.12,80.12 0 0 0 -12.19,0.53 c -1.52,0.2 -0.87,2.52 0.64,2.31 a 76.79,76.79 0 0 1 11.55,-0.44 1.2,1.2 0 0 0 0,-2.4 z"
       fill="#ffffff"
       id="path6376" />
    <path
       d="m 366.93,133.74 q -6.9,0.69 -13.82,1.16 c -1.53,0.11 -1.54,2.51 0,2.4 q 6.92,-0.48 13.82,-1.16 c 1.52,-0.15 1.54,-2.55 0,-2.4 z"
       fill="#ffffff"
       id="path6378" />
    <path
       d="m 387.39,131.64 q -6.12,0.71 -12.25,1.33 c -1.52,0.15 -1.54,2.55 0,2.4 q 6.12,-0.63 12.25,-1.33 c 1.52,-0.17 1.53,-2.58 0,-2.4 z"
       fill="#ffffff"
       id="path6380" />
    <path
       d="m 409.41,128.35 c -4.14,0.47 -8.23,1.33 -12.38,1.8 -1.51,0.18 -1.53,2.58 0,2.4 4.15,-0.47 8.24,-1.33 12.38,-1.8 1.52,-0.18 1.53,-2.58 0,-2.4 z"
       fill="#ffffff"
       id="path6382" />
    <path
       d="m 427,124.11 c -3.2,1 -6.44,1.89 -9.7,2.67 -1.5,0.36 -0.87,2.67 0.64,2.31 3.26,-0.77 6.49,-1.68 9.7,-2.67 1.47,-0.45 0.84,-2.77 -0.64,-2.31 z"
       fill="#ffffff"
       id="path6384" />
    <path
       d="m 448.61,114.41 a 70.83,70.83 0 0 1 -12.72,6.7 c -1.41,0.58 -0.79,2.9 0.64,2.32 a 74,74 0 0 0 13.29,-7 c 1.28,-0.85 0.08,-2.93 -1.21,-2.07 z"
       fill="#ffffff"
       id="path6386" />
    <path
       d="m 462.6,102.29 a 64.48,64.48 0 0 1 -6.17,6.31 c -1.16,1 0.54,2.72 1.7,1.69 A 63.38,63.38 0 0 0 464.3,104 c 1,-1.17 -0.69,-2.87 -1.7,-1.69 z"
       fill="#ffffff"
       id="path6388" />
    <path
       d="m 467.37,85.15 a 25.17,25.17 0 0 1 -0.61,8.34 1.2020087,1.2020087 0 0 0 2.32,0.63 27.33,27.33 0 0 0 0.69,-9 c -0.13,-1.52 -2.53,-1.54 -2.4,0 z"
       fill="#ffffff"
       id="path6390" />
    <path
       d="m 457.25,71.68 a 13.68,13.68 0 0 1 7.17,5.15 c 0.89,1.24 3,0 2.07,-1.21 a 16.36,16.36 0 0 0 -8.6,-6.26 c -1.48,-0.45 -2.11,1.86 -0.64,2.32 z"
       fill="#ffffff"
       id="path6392" />
    <path
       d="m 30.91,162.52 c -0.21,-1.53 -2.44,-1 -2.54,0.35 -0.17,2.15 -0.44,4.37 -0.49,6.57 -1.48,-2.7 -3.15,-5.28 -4.8,-7.89 -0.82,-1.3 -2.9,-0.1 -2.07,1.22 1.86,2.94 3.75,5.87 5.37,9 a 44,44 0 0 0 -7.08,0.32 0.91,0.91 0 0 0 0,1.74 87.89,87.89 0 0 0 10.13,0.65 1.35,1.35 0 0 0 1.28,-1.68 c -0.5,-3.47 0.66,-6.87 0.2,-10.28 z"
       fill="#ffffff"
       id="path6394" />
  </g>
  <text
     xml:space="preserve"
     style="font-size:12px;line-height:1.25;font-family:monospace;-inkscape-font-specification:monospace"
     x="97.015663"
     y="21.599691"
     id="text6968"><tspan
       sodipodi:role="line"
       id="tspan6966"
       x="97.015663"
       y="21.599691">nowrap (padrão), ou wrap, ou wrap-reverse</tspan></text>
</svg>
