<?xml version="1.0" encoding="UTF-8" standalone="no"?>
<svg
   xmlns:dc="http://purl.org/dc/elements/1.1/"
   xmlns:cc="http://creativecommons.org/ns#"
   xmlns:rdf="http://www.w3.org/1999/02/22-rdf-syntax-ns#"
   xmlns:svg="http://www.w3.org/2000/svg"
   xmlns="http://www.w3.org/2000/svg"
   xmlns:sodipodi="http://sodipodi.sourceforge.net/DTD/sodipodi-0.dtd"
   xmlns:inkscape="http://www.inkscape.org/namespaces/inkscape"
   viewBox="0 0 487.76602 348.78998"
   version="1.1"
   id="svg1027"
   sodipodi:docname="grid-element-vs-item.svg"
   width="487.76602"
   height="348.78998"
   inkscape:version="1.0.1 (3bc2e813f5, 2020-09-07)">
  <metadata
     id="metadata1033">
    <rdf:RDF>
      <cc:Work
         rdf:about="">
        <dc:format>image/svg+xml</dc:format>
        <dc:type
           rdf:resource="http://purl.org/dc/dcmitype/StillImage" />
        <dc:title></dc:title>
      </cc:Work>
    </rdf:RDF>
  </metadata>
  <defs
     id="defs1031" />
  <sodipodi:namedview
     pagecolor="#ffffff"
     bordercolor="#666666"
     borderopacity="1"
     objecttolerance="10"
     gridtolerance="10"
     guidetolerance="10"
     inkscape:pageopacity="0"
     inkscape:pageshadow="2"
     inkscape:window-width="1848"
     inkscape:window-height="1009"
     id="namedview1029"
     showgrid="false"
     inkscape:zoom="1.4918367"
     inkscape:cx="245.53608"
     inkscape:cy="126.94134"
     inkscape:window-x="72"
     inkscape:window-y="34"
     inkscape:window-maximized="1"
     inkscape:current-layer="svg1027"
     fit-margin-left="0"
     fit-margin-top="5"
     fit-margin-bottom="5"
     fit-margin-right="0" />
  <path
     d="m 473.66871,61.306848 c -42.59,-9.37 -80.11,-11.56 -122.87,-3.37 -78.84,-1.84 -268.239999,1.02 -289.169999,-1.27 -14.35,-5.48 -59.24,-11.86 -53.6,30.09 -0.34,0.94 1.71,149.730002 -1.85,160.680002 -1.77,5.46 -2.08,23 4.85,23.52 26.18,1.94 166.299999,10.79 175.449999,0 4.34,3.3 209,5.23 214.66,1 l 61.3,4 c 27.22,1.81 14.6,-79 14,-108.38 -0.68,-30.03 1.68,-105.290002 -2.77,-106.270002 z"
     fill="#ffffff"
     id="path943" />
  <path
     d="m 189.85871,55.666848 c -1.34,19.87 -0.83,40 -1,59.920002 q -0.22,28.71 -0.15,57.42 0.06,41.84 0.53,83.66 c 0.06,5 0.22,11.16 0.29,15.56 a 1.28,1.28 0 0 0 2.55,0 c -0.78,-49.57 -0.93,-99.19 -0.74,-148.77 0.08,-22.55 1.16,-45.250002 0.44,-67.790002 a 1,1 0 0 0 -1.95,0 z m 99.56,0.71 c -0.87,19.89 -0.05,40 0,59.870002 q 0,28.52 -0.05,57 -0.11,41.07 -0.36,82.12 v 15.42 a 1.28,1.28 0 0 0 2.55,0 c 0.35,-48.1 0.5,-98 0.4,-146.62 -0.05,-22.54 0.74,-45.320002 -0.54,-67.820002 a 1,1 0 0 0 -1.95,0 z"
     fill="#1e1e1e"
     id="path945" />
  <path
     d="m 475.07871,115.87685 c -15,-0.37 -30,-0.52 -45,-0.66 q -22,-0.19 -44,-0.21 -32.49,0 -65,0.08 -54.47,0.15 -108.92,0.39 l -174.999999,0.72 -27.27,0.13 a 1.25,1.25 0 0 0 0,2.5 q 92.369999,-0.3 184.739999,-0.8 57.93,-0.26 115.86,-0.46 34.58,-0.12 69.16,-0.15 22.71,0 45.42,0.14 c 14.56,0.08 29.13,0.35 43.7,0.27 h 6.37 a 1,1 0 0 0 0,-1.92 z m 1.58,100.36 c -15.54,-0.22 -31.07,-0.21 -46.6,-0.23 q -55.67,-0.08 -111.34,-0.06 l -134.6,-0.05 H 29.288711 c -5.81,0 -12.39,-0.87 -18.15,0 a 5.48,5.48 0 0 1 -0.81,0 1.25,1.25 0 0 0 0,2.5 H 457.69871 c 5.7,0 12.51,0.92 18.14,-0.17 a 4.49,4.49 0 0 1 0.82,0 1,1 0 0 0 0,-1.92 z"
     fill="#1e1e1e"
     id="path947" />
  <path
     d="m 478.24871,243.85685 c 0,-10.69 -0.51,-154.460002 -0.31,-171.560002 0.07,-6.06 1.45,-14.59 -6.22,-16.37 -6.48,-1.51 -14.2,-1 -20.82,-1.07 -2.51,0 -379.089999,0.15 -413.709999,0.12 h -2.77 c -7.2,0 -22.79,-2.61 -24.72,7.4 a 0.76,0.76 0 0 0 0,0.26 c -1.08,10 -1,200.110002 -0.22,203.700002 0.54,2.57 1.3,4.34 3.81,5.3 5.28,2 12.45,2.14 18,2.13 h 3.8 c 12.19,-0.07 125.669999,-0.29 170.219999,-0.39 41.08,-0.09 232,-0.33 246.69,-0.6 5.6,-0.1 11.45,0.16 17,-0.62 4.08,-0.58 7.64,-1.89 8.5,-6.3 1.36,-6.96 0.76,-14.92 0.75,-22 z m -6.87,25.49 c -2.42,1.2 -16,1.05 -19.37,1.11 -7.15,0.13 -155.53,0.36 -201.12,0.47 -53.19,0.13 -194.609999,0.47 -212.139999,0.58 -1.69,0 -15,-0.22 -19.67,-0.93 -3.15,-0.48 -6,-0.43 -7.38,-3.86 -0.82,-2.1 -0.66,-4.9 -0.7,-7.13 -0.92,-43.67 -0.13,-170.250002 0,-189.810002 0,-2.3 -0.12,-4.67 0.1,-7 1.79,-8.79 18.16,-6 24.93,-6 0.91,0 405.559999,0.06 414.689999,0.16 5.68,0.07 11.4,0.28 17.07,0.7 2.25,0.16 3.93,0.1 5.7,1.56 3.33,2.73 2.45,7.48 2.35,11.32 v 20.72 q 0.09,76.540002 0.17,153.090002 c 0,6.87 1.63,21.92 -4.63,25.02 z"
     fill="#1e1e1e"
     id="path949" />
  <path
     d="m 190.78871,68.276848 c 0.21,-4.36 -5.27,0.18 -5.4,3 -0.31,6.49 1.29,38.350002 -1,40.260002 -3.42,3 -144.739999,2.32 -159.549999,0.94 -2.89,-0.27 -5.88,6.55 -2.58,6.86 14,1.3 124.919999,0.38 139.129999,0.31 7.42,0 19.52,1.74 25.27,-3 8.4,-5.93 3.74,-40.150002 4.13,-48.370002 z"
     opacity="0.2"
     id="path951" />
  <path
     d="m 185.60871,106.88685 c -0.19,2.55 -0.75,4.57 -2.87,5.87 -0.53,0.32 -157.309999,0.15 -160.909999,0 -1.55,-0.07 -6.06,0 -7,-3.24 -1,-1.26 -0.4,-44.490002 0.51,-46.000002 1.67,-2.7 5.75,-3.09 8.84,-3.2 3.67,-0.12 150.099999,-2 158.259999,0.3 2.4,2 3.68,7.63 3.78,10.82 0.1,3.19 -0.42,32.900002 -0.61,35.450002 z"
     fill="#f78100"
     opacity="0.85"
     id="path953" />
  <path
     d="m 181.03871,60.886848 c -3.86,-1.58 -157.999999,-0.28 -160.079999,0.57 -4.12,1.69 -4.78,5.79 -5.16,9.77 a 358.45,358.45 0 0 0 -1.48,39.320002 c 0.07,4.42 5.45,-0.13 5.4,-3 -0.16,-10.880002 0.71,-38.740002 1.78,-39.880002 1.07,-1.14 28.84,-1.22 39.49,-1.28 25.69,-0.14 97.649999,0.72 100.609999,0.69 4.78,-0.06 11.18,-1.51 15.69,0.34 2.91,1.16 6.48,-5.41 3.75,-6.53 z"
     fill="#ffffff"
     opacity="0.2"
     id="path955" />
  <path
     d="m 186.27871,99.066848 c 0.14,-6.06 0.47,-12.13 0.49,-18.19 0,-3.72 -0.07,-16.15 -1.07,-18.23 -1.52,-3.19 -5.78,-3.19 -8.87,-3.51 -10.59,-1.1 -148.839999,-0.18 -152.699999,0.06 -3.45,0.22 -8.35,0.27 -9.74,3.93 -2,5.24 -1.21,12.45 -1.25,17.94 0,4 -0.32,21.710002 0.2,26.580002 0.41,3.92 1.38,5.47 5.44,6 10.65,1.32 66.14,0.49 82.939999,0.42 16.29,-0.06 71.73,-0.24 75.74,-0.43 1.79,-0.09 4.86,0.37 6.43,-0.56 4,-2.38 2.41,-10.28 2.42,-13.840002 a 0.7,0.7 0 0 0 -0.03,-0.17 z m -4.33,12.410002 c -2.32,0.9 -14.45,0.33 -17.19,0.32 -3.19,0 -104.289999,0.6 -130.599999,0.38 -1.32,0 -10.75,-0.29 -14.13,-0.6 -4.52,-0.42 -4.6,-3.22 -4.71,-7.25 -0.2,-7.710002 0.23,-28.300002 0.33,-30.820002 0.12,-3.09 -0.74,-9.4 2.5,-11.06 4.41,-2.28 12.23,-1.29 17.08,-1.36 2.64,0 67.849999,-0.13 97.819999,-0.22 7.71,0 31.41,0 35.55,-0.14 4.14,-0.14 12.06,-0.9 14.82,2.43 2.06,2.51 1.73,15.51 1.74,18.14 0,3.24 -0.24,15.09 -0.3,17.77 a 0.7,0.7 0 0 0 0,0.14 c -0.17,3.510002 1.31,10.630002 -2.91,12.270002 z"
     fill="#f78100"
     id="path957" />
  <path
     d="m 291.34871,93.846848 c 0.12,-9 -0.89,-17.88 -0.53,-27 0.18,-4.36 -5.29,0.18 -5.4,3 -0.32,7.73 2.07,39.160002 -2,41.000002 -2.81,1.26 -56.64,0.86 -80.09,0.9 -2.92,0 -5.78,6.86 -2.58,6.86 24.61,0 49.43,0.88 74,-0.37 5.25,-0.27 10.54,-0.27 13.73,-5.1 3.53,-5.31 2.79,-13.250002 2.87,-19.290002 z"
     opacity="0.2"
     id="path959" />
  <path
     d="m 196.34871,61.496848 c 3,-2.46 84.82,-3.14 87.88,-0.12 2.25,3.7 1.93,47.000002 1,48.520002 -3.34,4.46 -81.8,3.19 -88.48,0.89 -3.32,-1.93 -3.38,-46.840002 -0.4,-49.290002 z"
     fill="#f78100"
     opacity="0.85"
     id="path961" />
  <path
     d="m 284.00871,62.186848 c -9.72,-4.34 -84,-2.08 -86.74,0.57 -5,4.87 -3.87,37 -0.93,45.260002 1.53,4.34 7.37,-2.17 6.24,-5.37 -2.63,-7.430002 -2.48,-15.070002 -2.22,-22.840002 0.08,-2.24 0.17,-4.48 0.17,-6.72 a 38.29,38.29 0 0 1 -0.3,-4.5 c 0.23,0.16 16.87,-0.89 24.36,-1 q 12.91,-0.18 25.84,-0.11 c 9.39,0 20.42,-1.37 29.08,2.49 3.43,1.54 7.77,-6.3 4.5,-7.78 z"
     fill="#ffffff"
     opacity="0.2"
     id="path963" />
  <path
     d="m 286.75871,69.826848 c -0.23,-3.53 0.23,-9 -3.87,-10 -4.95,-1.26 -10.79,-0.78 -15.87,-0.85 -7.3,-0.11 -14.62,0 -21.92,0 h -29.29 c -4.9,0 -9.79,0.41 -14.66,0.87 -1.32,0.13 -3.58,0 -4.8,0.67 -2.52,1.48 -2,4.92 -2,7.35 v 0.13 c -0.67,9.85 -0.43,19.8 -0.77,29.66 -0.12,3.580002 -0.83,12.340002 2.89,14.440002 1.81,1 5,0.87 7,1 a 75.54,75.54 0 0 0 8.9,0.16 c 17.46,-0.91 35,0.52 52.39,-0.11 5.7,-0.2 11.41,-0.1 17.1,-0.37 5,-0.24 5.09,-3.72 5.13,-8.1 0.09,-11.590002 0.57,-23.290002 -0.23,-34.850002 z m -1.69,23.84 c -0.13,3.42 -0.34,6.830002 -0.37,10.250002 0,3.18 0.56,6 -3.33,6.61 -5.19,0.75 -46.34,0 -61.46,0.09 -4.72,0 -9.39,0.59 -14.13,0.39 -2.3,-0.1 -7.35,0.37 -8.85,-1.41 -2.2,-2.63 -1.51,-9.660002 -1.45,-12.880002 0.2,-9.55 -0.23,-19.16 0.27,-28.71 a 0.74,0.74 0 0 0 0,-0.14 c 0.11,-1.56 0.13,-5 1.58,-5.75 a 8.29,8.29 0 0 1 2.42,-0.27 c 2.78,-0.26 13.84,-0.88 16.58,-0.88 7.59,0 51.93,0.12 53.95,0.17 2.68,0.07 5.35,0.12 8,0.29 3.26,0.21 5.07,-0.14 5.73,3.26 1.08,5.52 0.37,11.13 0.66,16.7 0.26,4.09 0.56,8.16 0.4,12.28 z"
     fill="#f78100"
     id="path965" />
  <path
     d="m 291.55871,127.95685 c -0.05,-4.41 -5.44,0.14 -5.4,3 0.3,23.34 0.4,74.35 0,76.37 -0.41,2.37 -6.46,5.82 -5.77,5.78 -2.67,0.39 -65.5,-0.24 -74.91,-0.2 -2.93,0 -5.79,6.88 -2.58,6.86 22.39,-0.1 72.69,0.05 75.27,-0.33 a 15.92,15.92 0 0 0 13.39,-14.19 c 1.13,-13.35 0.15,-65.01 0,-77.29 z"
     opacity="0.2"
     id="path967" />
  <path
     d="m 195.96871,121.96685 c 1.84,-1.09 85.43,-3.59 89.19,1.68 2.17,2.47 1.59,84.84 0,87.66 -2.41,3.85 -83.29,2.17 -86.77,1.21 -1.27,-0.35 -2.2,-2.11 -3.22,-3 -2.38,-1.98 -2.24,-86.31 0.8,-87.55 z"
     fill="#f78100"
     opacity="0.85"
     id="path969" />
  <path
     d="m 283.26871,122.95685 c -15.52,-0.22 -76.74,-2.11 -83.08,-0.22 -2.77,0.82 -5.4,3.9 -4.48,6.79 a 13.91,13.91 0 0 0 -1.44,3 c -0.9,2.8 0,68.63 1.54,75.52 0.8,3.62 5.81,-1.75 5.21,-4.48 -2.66,-12.16 -1.64,-52 -1.73,-58.87 -0.06,-4.59 -0.74,-13.64 3.43,-15.26 4.17,-1.62 32.73,0 38.48,0 13.16,0.1 26.32,0.15 39.49,0.33 2.92,0.09 5.8,-6.77 2.58,-6.81 z"
     fill="#ffffff"
     opacity="0.2"
     id="path971" />
  <path
     d="m 287.31871,169.50685 c -0.14,-11.42 -0.51,-22.86 -0.24,-34.29 0.08,-3.28 1.09,-8.28 -0.4,-11.31 -1.2,-2.45 -4.67,-3.14 -7.16,-3.5 -5.43,-0.78 -11.3,-0.14 -16.84,-0.14 -14.34,0 -54.38,0 -60.06,0.23 -2,0.08 -6.31,-0.62 -7.78,1.13 -1.73,2.08 -1.24,10.77 -1.23,10.82 -0.64,10.85 -0.85,55.64 -0.52,67.11 0.1,3.52 -0.38,7.78 1.24,11 1.38,2.76 3.57,2.84 6.39,3.16 5.06,0.58 64.06,0.87 68.41,0.71 4.16,-0.16 10.56,0.87 14.48,-1 3.18,-1.55 3.82,-5.43 4.05,-8.64 0.83,-11.55 -0.19,-23.7 -0.34,-35.28 z m -1.88,33.92 c -0.13,3.41 -0.49,7.37 -4.55,8.33 -2.56,0.61 -75.89,0.16 -79.07,-0.16 -2.69,-0.27 -4.68,0 -5.82,-3 -0.92,-2.42 -0.58,-5.56 -0.65,-8.1 -0.34,-11.62 -1,-57.08 -0.32,-68.09 v -0.13 c 0.25,-2.53 -0.06,-8.28 1.9,-9.62 1.79,-1.22 7.67,-0.33 10,-0.4 4.23,-0.13 56.26,0 59.94,0.08 3.23,0 6.48,-0.15 9.71,0 2.43,0.1 6.89,0.23 8.26,2.89 0.92,1.79 0.23,6.09 0.18,8 -0.21,9.78 0.54,66.22 0.42,70.2 z"
     fill="#f78100"
     id="path973" />
  <path
     d="m 477.89871,67.236848 c -0.24,-4.43 -5.56,0.12 -5.41,3 0.35,6.32 -0.16,26.13 -0.19,29.780002 0,2.84 0.24,9.76 -2.58,11 -1.72,0.74 -148.26,0.49 -161.76,0.66 -2.92,0 -5.77,6.9 -2.58,6.86 26.85,-0.34 129.61,1 154,-0.83 4.84,-0.37 10.44,-0.14 14.32,-3.62 5.75,-5.21 4.71,-37.490002 4.2,-46.850002 z"
     opacity="0.2"
     id="path975" />
  <path
     d="m 296.93871,60.926848 c 3.95,-1.56 173.14,-2.57 174.31,0.3 1,1.26 1.94,46.420002 1,47.900002 -1.67,2.7 -6.25,2.09 -9.34,2.19 -3.68,0.13 -163.53,2 -166.24,-0.29 -2.36,-2.02 -3.52,-47.060002 0.27,-50.100002 z"
     fill="#f78100"
     opacity="0.85"
     id="path977" />
  <path
     d="m 466.31871,60.716848 c -13.25,-0.37 -112.93,1.88 -135.7,1.55 -3.37,0 -20.46,-2.23 -24.83,-0.78 a 2.15,2.15 0 0 0 -0.36,-0.11 c -8.25,-1.86 -8.17,12.79 -8.56,17.39 -0.8,9.37 -2.78,21.720002 1.36,30.520002 1.3,2.77 5.9,-3 4.65,-5.66 -2.47,-5.250002 -1.45,-13.310002 -1.2,-18.950002 0.13,-3 1.12,-14.46 1.14,-14.69 a 6.57,6.57 0 0 0 3.24,-2.72 c 3.35,-0.38 13.22,1.58 14.2,1.64 3.34,0.18 30.31,0.22 40.46,0.09 20.59,-0.27 89.31,-1.8 103,-1.42 2.94,0.09 5.84,-6.77 2.6,-6.86 z"
     fill="#ffffff"
     opacity="0.2"
     id="path979" />
  <path
     d="m 472.49871,61.296848 c -1.4,-2.67 -5.28,-2.45 -7.9,-2.54 -28.3,-0.88 -118.28,0 -134.89,0 h -16.46 c -3.63,0.09 -7.28,0.43 -10.9,0.72 -1.61,0.13 -4,0 -5.46,0.74 -4.55,2.46 -2.6,11.76 -2.61,15.58 a 0.66,0.66 0 0 0 0,0.15 c -0.21,8.26 -0.44,16.42 -0.22,24.680002 0.07,2.91 -0.68,9.38 2.37,11.18 3.05,1.8 9.82,1 13.38,1 11.51,0 23,0.15 34.55,0.13 q 50.18,0 100.35,-0.16 c 2.9,0 5.81,0 8.71,-0.07 5,-0.13 11.06,0.74 16,-0.33 3.73,-0.82 3.86,-4.82 4,-8.06 0.43,-9.000002 -0.15,-17.850002 -0.1,-26.850002 0.06,-4.52 1.41,-11.92 -0.82,-16.17 z m -1.3,43.100002 c -0.18,3.22 -0.16,5.48 -3.81,5.85 -2.69,0.27 -5.52,0.1 -8.23,0.15 -3.82,0.07 -7.64,0.17 -11.46,0.18 q -45.28,0.06 -90.56,0.18 c -10.61,0 -21.26,0.4 -31.87,0.16 -7.86,-0.18 -15.74,0.32 -23.6,-0.16 -2.92,-0.18 -4.68,0.16 -5.42,-3.06 -0.8,-3.4 -0.51,-7.29 -0.64,-10.760002 -0.14,-4 -0.15,-7.93 -0.07,-11.93 0.06,-3 0.11,-6 0.19,-9 v -0.16 c 0.14,-3.7 -1,-9.52 1.31,-12.69 1.59,-2.19 5.06,-1.72 7.72,-1.89 3.64,-0.22 7.25,-0.49 10.89,-0.5 h 52 c 30.51,0 61,-0.06 91.55,0.08 2.52,0 8.18,-0.65 10.24,0.58 3.59,2.16 1.57,14.12 1.62,17.72 0.05,3.42 0.3,6.84 0.45,10.25 0.29,5 -0.05,10.03 -0.31,15.000002 z"
     fill="#f78100"
     id="path981" />
  <path
     d="m 477.10871,127.38685 c -0.16,-4.42 -5.51,0.13 -5.41,3 0.41,11.49 0.41,77.81 0.1,78.57 -1.51,3.7 -7.14,3.51 -10.36,3.73 -15.9,1 -137.22,0.87 -153.92,0.57 -2.92,-0.05 -5.81,6.8 -2.58,6.86 35.47,0.63 149,0.13 158.2,-0.94 17.88,-0.69 14.28,-13.65 14.48,-18.32 0.39,-9.54 0.02,-58.53 -0.51,-73.47 z"
     opacity="0.2"
     id="path983" />
  <path
     d="m 296.17871,121.48685 c 2.93,-1.28 173.65,-1.78 175.29,0.33 1,1.26 1.39,87.63 0.48,89.11 -1.67,2.7 -16.65,2.36 -20.33,2.48 0,0 -153.6,0.18 -154.62,-0.68 -0.27,-0.22 -2.25,-4 -2.25,-4 0,0 -0.46,-86.06 1.43,-87.24 z"
     fill="#f78100"
     opacity="0.85"
     id="path985" />
  <path
     d="m 467.00871,122.28685 c -14.26,-1 -132.72,1.14 -147.52,0.69 -5.27,-0.16 -12.16,-2.38 -17.26,-0.55 -3.66,1.3 -4.72,4.77 -5.24,8.24 -2,13.3 -1.67,70.1 -0.64,77.68 0.61,4.42 5.8,-0.11 5.41,-3 -2.07,-15.24 -0.14,-75.9 0.49,-77.46 0,1 13.23,1.92 15.73,2 33.32,0.68 66.73,-0.74 100.06,-1.08 15.42,-0.15 31,-0.65 46.39,0.37 2.91,0.16 5.86,-6.67 2.58,-6.89 z"
     fill="#ffffff"
     opacity="0.2"
     id="path987" />
  <path
     d="m 473.64871,190.92685 c 0,-2.58 -0.06,-5.18 -0.1,-7.76 q -0.21,-16.67 -0.41,-33.32 c -0.1,-8.58 1,-17.74 -0.13,-26.2 -0.7,-5.38 -5,-3.89 -9.57,-4 -3.63,-0.09 -7.27,-0.24 -10.9,-0.28 -14.8,-0.14 -29.63,0.11 -44.43,0.17 l -67.3,0.26 -21.56,0.09 h -4.17 c -2.55,0 -5.11,-0.07 -7.66,0 -3,0.06 -7.76,-0.42 -10.67,0.58 -4.55,1.57 -2.65,12.51 -2.66,16 a 0.76,0.76 0 0 0 0,0.16 c -0.13,17.25 -0.4,34.5 -0.6,51.75 0,4.05 0.1,8.09 0.18,12.14 0.08,4.05 -1.34,11.38 3.57,13.08 4.72,1.64 11,1.2 15.89,1.07 3.85,-0.09 7.66,0 11.49,0.11 36.83,0.94 73.81,-0.1 110.65,-0.18 h 15.75 c 3.19,0 6.38,0.05 9.57,0 3.19,-0.05 10,0.46 12,-2.88 1.37,-2.36 0.6,-6.42 0.69,-9 0.13,-3.98 0.35,-7.89 0.37,-11.79 z m -2.24,0 c 0,3.13 -0.21,6.28 -0.31,9.42 -0.09,2.62 0.87,9.29 -1.35,10.86 -2,1.4 -6.22,1 -8.56,1.06 -2.8,0.08 -5.59,0 -8.38,0 h -10.36 q -55.72,0.09 -111.44,0.23 c -4.33,0 -8.66,-0.21 -13,-0.17 a 154.54,154.54 0 0 1 -16.53,-0.25 c -1.08,-0.1 -3,0 -4,-0.57 -2.21,-1.32 -1.8,-5.12 -1.81,-7.26 0,-4.26 -0.27,-8.52 -0.33,-12.78 -0.26,-16.45 0.1,-32.92 0.15,-49.36 v -5.53 a 0.47,0.47 0 0 0 0,-0.14 c 0.09,-2.55 -0.13,-5.12 0.08,-7.67 0.07,-1 0.2,-5.1 1,-6 1.58,-1.76 8.64,-1 10.8,-1 3,0 6,0.05 8.95,0.06 h 15.87 l 60.37,-0.16 53.63,-0.17 c 4,0 8,0 12.05,0.15 3.34,0.09 6.71,0 10,0.26 2,0.14 2,-0.24 2.58,1.75 0.44,1.43 0.2,3.46 0.2,5 0,4.21 -0.21,8.41 -0.19,12.62 0.14,16.5 0.73,33.06 0.58,49.62 z"
     fill="#f78100"
     id="path989" />
  <path
     d="m 190.31871,127.52685 c 0,-4.41 -5.44,0.14 -5.4,3 0.15,11.46 0.35,64.81 0.29,67.76 -0.08,3.75 1.15,10.11 -2.29,12.38 -4.81,3.17 -139.169999,2.46 -156.319999,2 -2.91,-0.07 -5.82,6.78 -2.58,6.86 35.55,0.92 152.079999,-0.3 157.679999,-2.07 11.83,-3.75 8.73,-13.49 8.92,-22.19 0.16,-7.75 -0.06,-52.92 -0.3,-67.74 z"
     opacity="0.2"
     id="path991" />
  <path
     d="m 13.558711,129.95685 c 0.19,-2.55 4.35,-7.87 6.94,-8.06 1.28,-0.36 161.419999,-1.88 163.769999,1.59 2.35,6.91 1.46,82.38 0.55,83.86 -1.67,2.7 -4.28,5.1 -7.37,5.2 -3.68,0.13 -154.829999,1 -155.849999,0.17 -5.34,-1.58 -7.5,-8.1 -7.6,-11.29 -0.1,-3.19 -0.62,-68.92 -0.44,-71.47 z"
     fill="#f78100"
     opacity="0.85"
     id="path993" />
  <path
     d="m 181.05871,122.95685 c -30.25,-1.27 -131.409999,-0.89 -151.669999,-0.43 -4.66,0.11 -15.86,-2.65 -15.07,12 -0.34,7.25 -1.29,55.31 0.54,71.75 0.49,4.43 5.73,-0.11 5.41,-3 -1.5,-13.42 -0.55,-73.74 -0.48,-74.35 0.46,0.46 3.21,0.54 3.05,0.51 2.47,0.38 77.379999,-1.21 112.189999,-0.64 14.48,0.24 29,0.37 43.45,1 2.91,0.14 5.84,-6.7 2.58,-6.84 z"
     fill="#ffffff"
     opacity="0.2"
     id="path995" />
  <path
     d="m 186.38871,177.46685 v -41.71 c 0,-3.41 0.86,-9.15 -1,-12.32 -2.33,-4 -12.5,-2.61 -16.09,-2.77 -1.61,-0.07 -34.75,0 -49.75,0.06 -20.479999,0.08 -74.549999,0.3 -81.099999,0.34 -6.55,0.04 -14.58,-1.56 -20.6,1 -6.37,2.73 -5,10 -5,15.55 a 0.76,0.76 0 0 0 0,0.16 c 0,16.06 -0.15,52.19 -0.13,54.19 0,5.42 -1.34,15.16 3.5,19.15 6,4.95 15.75,2.43 22.7,2.68 2.1,0.07 4.12,0.45 6.22,0.47 35.06,0.33 114.549999,-0.15 119.219999,-0.22 4.67,-0.07 9.85,0.12 14.57,-0.64 7.42,-1.19 7.46,-6.76 7.68,-13.07 0.32,-7.67 -0.23,-15.2 -0.22,-22.87 z m -1.93,21.25 c -0.07,1.81 0,3.75 -0.2,5.55 -0.6,4.39 -2.59,6.66 -6.94,7.07 -4.08,0.4 -8.3,0.39 -12.4,0.46 -3.09,0.05 -6.18,0 -9.27,0 q -51.46,0.09 -102.929999,0.22 c -3.07,0 -6.21,0.22 -9.27,0 a 69.18,69.18 0 0 0 -10,-0.2 c -5.15,0.4 -12.95,0.89 -16.42,-3.48 -3.47,-4.37 -2.32,-12 -2.4,-17.35 -0.23,-16.2 -0.2,-32.4 -0.3,-48.6 v -4.66 a 0.5,0.5 0 0 0 0,-0.13 c 0.2,-5.54 -0.93,-12.82 6.11,-14.25 4.42,-0.9 9.27,-0.38 13.76,-0.35 h 17.6 l 55.069999,-0.16 50.28,-0.17 c 3.13,0 6.27,-0.08 9.4,0 3.13,0.08 6.25,0.3 9.37,0.44 4.43,0.2 7.7,-0.41 8.18,4.88 0.3,3.26 0.18,6.55 0.17,9.83 -0.07,15.83 -0.83,31.85 -0.15,47.67 0.22,4.47 0.5,8.68 0.34,13.23 z"
     fill="#f78100"
     id="path997" />
  <path
     d="m 190.92871,228.66685 c -0.57,-4.42 -5.78,0.12 -5.41,3 0.28,2.19 0.31,26.49 -0.64,31.28 a 21,21 0 0 1 -4.76,3.17 c -3.83,1.58 -142.379999,1.17 -151.999999,1 -2.92,0 -5.81,6.81 -2.58,6.86 28.36,0.51 141.339999,-0.76 148.789999,-1.44 3.51,-0.32 8.13,-0.19 11,-2.59 a 16.57,16.57 0 0 0 4.53,-6.9 c 1.33,-4.83 1.38,-31.99 1.07,-34.38 z"
     opacity="0.2"
     id="path999" />
  <path
     d="m 13.868711,229.51685 c 0.19,-2.55 3.13,-6.5 5.25,-7.8 2.62,-0.55 155.549999,0.27 159.149999,0.45 1.56,0.07 5.91,3.68 6.92,4.93 1.01,1.25 0.54,34.57 -0.37,36.05 -1.67,2.7 -5.25,3.09 -8.34,3.19 -3.68,0.13 -152.839999,1.32 -156.329999,0.36 -1.27,-0.35 -6.25,-7.28 -6.35,-10.48 -0.1,-3.2 -0.13,-24.15 0.07,-26.7 z"
     fill="#f78100"
     opacity="0.85"
     id="path1001" />
  <path
     d="m 181.44871,222.29685 c -12.38,-0.75 -56.15,1.47 -65.69,1.48 -17.569999,0 -76.299999,-0.49 -87.999999,-1.75 -3.63,-0.39 -7.28,-1.67 -10,1.35 -2.72,3.02 -3.4,7.63 -3.14,11.52 0,0.55 -0.21,17.49 0.23,25.64 0.24,4.43 5.56,-0.12 5.4,-3 -0.52,-9.8 -0.95,-19.57 0.9,-29.24 0.77,0.09 6.67,0.87 9,1.06 5.22,0.44 27.36,1.16 33.2,1.2 7,0.06 58.769999,0.14 77.639999,0 12.68,-0.1 25.31,-2.16 38,-1.39 2.8,0.17 5.74,-6.67 2.46,-6.87 z"
     fill="#ffffff"
     opacity="0.2"
     id="path1003" />
  <path
     d="m 186.92871,244.60685 c -0.07,-4.94 0.31,-9.91 -0.27,-14.82 -0.42,-3.53 -0.73,-6.12 -4.2,-7.52 -4.68,-1.87 -10.45,-1.59 -15.38,-1.69 -24.8,-0.54 -49.68,0 -74.489999,0 l -57.03,0.09 c -5.77,0 -14,-1.74 -19,1.66 -4.68,3.19 -3.45,10.11 -3.55,14.89 a 1,1 0 0 0 0,0.19 v 9.69 c 0,4.44 -0.84,9.62 0.83,13.83 3,7.54 11.31,7.53 18.11,7.45 10.31,-0.11 130.489999,-0.43 133.309999,-0.48 7.56,-0.14 20.72,1.88 21.71,-8.48 0.45,-4.88 0.03,-9.92 -0.04,-14.81 z m -2.17,13.46 c -0.86,6.79 -4.59,7 -10.12,7.2 -3.08,0.12 -13.34,0.34 -15.4,0.35 -27.53,0.11 -109.409999,0.63 -122.809999,0.79 -4.62,0.06 -10.37,0.91 -14.61,-0.54 -8.35,-2.86 -7.19,-11.31 -7.31,-18.48 q -0.09,-5 -0.14,-10.08 a 0.42,0.42 0 0 0 0,-0.12 c 0.23,-3.81 -0.75,-9.91 2.42,-12.81 2.73,-2.49 8.16,-1.83 11.56,-1.83 2.2,0 4.4,0.05 6.6,0.06 3.08,0 35,0.05 47.81,0.06 l 79.849999,0.05 c 3.21,0 6.34,0.1 9.56,0.27 2.57,0.13 5.42,0 7.88,0.8 4.22,1.43 4.28,4 4.58,7.92 0.36,4.57 0,9.22 0,13.82 0.11,4.14 0.65,8.5 0.13,12.54 z"
     fill="#f78100"
     id="path1005" />
  <path
     d="m 291.89871,254.54685 c -0.13,-8.77 -0.45,-17.5 -0.18,-26.28 0.13,-4.37 -5.32,0.17 -5.41,3 -0.23,7.39 -0.15,31.31 -0.87,33.66 -1.85,3.68 -76.15,1.45 -82.28,1.38 -2.92,0 -5.8,6.82 -2.58,6.86 16.61,0.2 66.54,0.78 74.86,0.18 3.68,-0.27 8.25,-0.28 11.33,-2.63 a 20.59,20.59 0 0 0 3.25,-4.7 c 1.83,-3.69 1.94,-7.35 1.88,-11.47 z"
     opacity="0.2"
     id="path1007" />
  <path
     d="m 286.11871,259.08685 c -0.2,2.56 0.35,5.26 -1.77,6.56 -2.14,2.18 -86.15,2.72 -88.34,-0.59 -1,-1.26 -2.12,-35.89 0,-39.21 1.67,-2.7 5.25,-3.08 8.34,-3.19 3.68,-0.13 77.24,-0.67 79.08,0.8 4.29,3.65 2.88,33.08 2.69,35.63 z"
     fill="#f78100"
     opacity="0.85"
     id="path1009" />
  <path
     d="m 280.55871,223.55685 c -6.84,-0.48 -61.82,0 -69,0.15 -5.68,0.15 -12.39,-0.35 -14.52,6.23 -0.2,0.6 -2.37,6.92 -2.4,8.69 -0.14,8.28 1.59,17 2.41,25.21 0.44,4.43 5.69,-0.11 5.4,-3 -0.44,-4.49 -1.57,-20 -2,-22.9 l 0.09,-0.05 a 41.6,41.6 0 0 1 7,-3.62 8.65,8.65 0 0 0 3.25,-3.81 c 2.17,0 46.87,-0.94 48.91,-1.06 6.26,-0.37 12,0.58 18.22,1 2.95,0.27 5.91,-6.61 2.64,-6.84 z"
     fill="#ffffff"
     opacity="0.2"
     id="path1011" />
  <path
     d="m 286.81871,251.41685 v -0.13 c 0.19,-4 0.47,-7.88 0.38,-11.86 -0.09,-3.98 1.39,-13.68 -2.6,-16.65 -2.73,-2 -8.6,-1.58 -11.77,-1.72 -3.17,-0.14 -6.56,0.31 -9.86,0.34 -15.64,0.12 -31.29,-0.4 -46.93,-0.27 -5.24,0 -10.85,-0.16 -16,0.49 -6.19,0.77 -6.07,6.18 -6.27,11.27 -0.22,5.61 0,10.87 0.2,16.43 0.19,4.65 -1.44,10.73 0.23,15.18 1.46,3.88 7.82,3 11.15,3.14 3.65,0.16 7.28,0.37 10.93,0.37 h 49.16 c 6,0 12,0.3 17.91,-1 6.36,-1.42 3.51,-10.77 3.47,-15.59 z m -1.58,10.25 c -0.56,4.12 -4.33,4 -8,4.27 -4.07,0.31 -8.19,0.09 -12.27,0.06 -5.92,0 -45.1,0.23 -58.74,-0.42 -2.38,-0.11 -7.84,0.46 -9.48,-1.35 -1.64,-1.81 -0.85,-6.3 -0.79,-8.66 0.09,-3.79 0,-7.38 -0.25,-11.16 -0.33,-5.43 -1.63,-18.89 5.24,-20.55 2.93,-0.7 6.8,-0.15 9.82,-0.25 1.67,-0.06 3.35,-0.14 5,-0.16 13.84,-0.13 27.69,0.16 41.53,0.2 6.74,0 13.45,-0.73 20.17,-0.23 3.74,0.28 6.31,0.14 7.44,4.39 0.95,3.55 0.48,8 0.63,11.65 0.15,4 0,7.87 -0.18,11.83 v 0.16 c -0.2,3.3 0.32,6.9 -0.12,10.22 z"
     fill="#f78100"
     id="path1013" />
  <path
     d="m 478.24871,228.94685 c 0,-4.41 -5.43,0.14 -5.4,3 0.07,9.64 0.14,19.32 -0.28,29 0,0.19 -3.21,4.31 -4.12,4.5 -3.07,0.64 -152,0.85 -165.29,0.8 -2.92,0 -5.79,6.85 -2.58,6.86 29.2,0.1 58.4,0.55 87.6,0.5 13.28,0 26.51,-0.55 39.78,-0.76 12.32,-0.2 25.31,1.27 37.54,-0.36 5.51,-0.74 11.21,-3.2 12.1,-9.15 1.68,-11.19 0.74,-23.15 0.65,-34.39 z"
     opacity="0.2"
     id="path1015" />
  <path
     d="m 296.78871,223.52685 c 7.93,-3.33 167.33,-2.42 174.74,0.59 2.31,4.19 0.93,39.1 0,40.58 -1.27,2 -169.41,4.81 -174.81,-0.6 -4.16,-3.29 -3.42,-37.65 0.07,-40.57 z"
     fill="#f78100"
     opacity="0.85"
     id="path1017" />
  <path
     d="m 468.73871,225.40685 a 22.92,22.92 0 0 0 -11.57,-1.65 2.89,2.89 0 0 0 -1.76,1.06 c -1.39,-0.1 -16.58,-0.37 -22.83,0 -4.37,0.23 -8.71,0.27 -13.08,0.24 -11.24,-0.09 -83.34,-1.84 -108.13,-1.51 -4.81,0.06 -9.66,-0.12 -12.9,4.26 -5,6.76 -2.57,28 -1.62,35 0.6,4.42 5.8,-0.12 5.41,-3 -0.73,-5.35 -1,-21.56 -0.72,-24.27 0.09,-1.05 -0.13,-3.18 0.46,-4.05 0.59,-0.87 0.58,-0.62 1.92,-0.9 2.79,-0.59 88.43,1.16 112,1.37 4.07,0 24.61,-0.9 30.85,-0.59 6.24,0.31 12.49,1 18.78,0.8 2.16,-0.16 6.16,-5.5 3.19,-6.76 z"
     fill="#ffffff"
     opacity="0.2"
     id="path1019" />
  <path
     d="m 474.17871,245.35685 c -0.13,-2.31 -0.57,-4.45 -0.53,-6.8 0.07,-3.84 1.19,-10.83 -1.06,-14.25 -2.25,-3.42 -9.73,-2.75 -13.16,-2.9 -2.23,-0.1 -4.46,-0.23 -6.69,-0.25 h -11.62 c -16.13,0 -100.44,-0.19 -126.45,0.08 -5.69,0.06 -13.52,-0.52 -18.76,2.14 a 0.67,0.67 0 0 0 -0.33,0.38 c -1.64,1.7 -1.65,5.14 -1.85,7.29 -0.41,4.35 -0.43,19.42 -0.33,22.58 0.09,3 -0.27,8.49 2,10.92 2.15,2.27 7.12,2.45 10.12,2.68 5,0.39 20.26,0.84 23,0.84 32.1,0 114.54,-0.51 123.66,-0.67 3.68,-0.06 7.36,-0.38 11,-0.39 2.24,0 5,0.64 7.07,-0.35 3.87,-1.8 3.31,-7.13 3.45,-10.7 0.14,-3.57 0.69,-7.12 0.48,-10.6 z m -2.31,2.69 c -0.13,2.91 -0.36,11.36 -0.64,12.54 -0.69,2.92 -3,4.33 -6,4.23 -10,-0.35 -20.33,0.37 -30.38,0.42 q -47,0.26 -94,0.57 c -7.43,0 -31.58,-0.18 -36.22,-0.57 a 20.57,20.57 0 0 1 -5.11,-0.88 c -3.84,-1.36 -3.94,-4.18 -4.23,-7.79 a 189.25,189.25 0 0 1 -0.33,-20.49 c 0.08,-2.84 -0.54,-9.2 1.7,-11.41 3.36,-1.55 7.83,-1.05 11.43,-1.29 2.22,-0.14 8.15,-0.23 8.9,-0.23 4.09,0 109.51,-0.19 135.84,0.14 1.89,0 12.45,0 15.35,1 3.82,1.35 3.3,5.4 3.35,8.83 0.08,4.92 0.57,10.05 0.34,14.93 z"
     fill="#f78100"
     id="path1021" />
  <path
     d="m 5.558711,280.44685 c -0.29,-1 -1.14,-1.74 -1.4,-2.85 a 36.26,36.26 0 0 0 -1.09,-4.49 c -0.22,-0.6 -1.21,-0.75 -1.36,0 a 9.62,9.62 0 0 0 0.63,5.79 c 0.47,1.15 1.25,2.71 2.71,2.46 a 0.74,0.74 0 0 0 0.51,-0.91 z m 14.17,1.9 c -1.35,-0.72 -3.23,-0.6 -4.73,-0.8 a 22.94,22.94 0 0 0 -4.9,-0.21 c -0.61,0 -1.06,1 -0.35,1.31 a 13.45,13.45 0 0 0 4.64,1.09 c 1.57,0.11 3.68,0.55 5.16,0 a 0.76,0.76 0 0 0 0.18,-1.36 z m 450.379999,-0.8 c -1.15,-1 -3.65,-0.53 -5,-0.57 a 21.24,21.24 0 0 0 -5.74,0.42 0.72,0.72 0 0 0 0,1.37 21.64,21.64 0 0 0 5.74,0.4 c 1.4,-0.05 3.88,0.39 5,-0.58 a 0.75,0.75 0 0 0 0,-1 z m 15.13,-9.17 c -0.57,0.81 -0.46,2.13 -0.61,3.08 a 5,5 0 0 1 -1.49,3.3 c -1.9,1.67 -4.62,1.89 -7,2.3 -0.86,0.15 -0.54,1.31 0.19,1.39 3.21,0.38 6.18,0.16 8.55,-2.29 a 6.42,6.42 0 0 0 1.67,-3.65 c 0.21,-1.23 0.6,-3 0,-4.13 a 0.74,0.74 0 0 0 -1.28,0 z m 0.13,-209.370002 c -0.48,1.23 -0.19,6.74 0.18,7.94 a 0.72,0.72 0 0 0 1.37,0 c 0.36,-1.2 0.65,-6.71 0.17,-7.94 a 0.9,0.9 0 0 0 -1.72,0 z m -3.68,-15.81 c 1.4,1.51 2.63,2.23 3.21,4.38 0.45,1.69 0.52,3.54 0.81,5.28 0.11,0.7 1.21,0.65 1.36,0 0.85,-3.7 0,-10.45 -4.85,-10.93 -0.68,-0.07 -0.92,0.83 -0.53,1.27 z m -17.03,-0.85 c 1.44,0.83 9.76,0.78 12,0.43 0.71,-0.11 0.65,-1.21 0,-1.37 -2.23,-0.54 -10.53,-1.1 -12,-0.34 a 0.74,0.74 0 0 0 0,1.28 z m -302.1,-0.51 c 1.38,1.12 10.93,0.58 13.28,0.16 a 0.72,0.72 0 0 0 0,-1.37 c -2.35,-0.42 -11.9,-1 -13.28,0.16 a 0.74,0.74 0 0 0 0,1.05 z m -20.78,0 c 1.12,1.09 10,0.58 12.12,0.16 a 0.72,0.72 0 0 0 0,-1.37 c -2.13,-0.43 -11,-0.94 -12.12,0.16 a 0.76,0.76 0 0 0 0,1.05 z m -21.22,0.13 c 1.63,1.1 12.31,0.45 14.88,0.05 a 0.72,0.72 0 0 0 0,-1.37 c -2.57,-0.4 -13.25,-1 -14.88,0 a 0.75,0.75 0 0 0 0,1.28 z m -20,-0.13 c 1.22,1.1 10.33,0.58 12.54,0.15 a 0.71,0.71 0 0 0 0,-1.36 c -2.21,-0.43 -11.32,-1 -12.54,0.16 a 0.76,0.76 0 0 0 0,1.05 z m -16.699999,-0.17 c 0.88,1.18 8.78,0.76 10.71,0.31 a 0.71,0.71 0 0 0 -0.01,-1.31 c -1.93,-0.45 -9.83,-0.87 -10.71,0.31 a 0.7,0.7 0 0 0 0,0.74 z m -17.17,0.16 c 0.73,0.87 9.09,0.59 11,0.16 a 0.71,0.71 0 0 0 0,-1.36 c -1.94,-0.43 -10.3,-0.72 -11,0.16 a 0.76,0.76 0 0 0 0,1 z m -17.22,0 c 0.72,0.87 9.05,0.59 11,0.16 a 0.71,0.71 0 0 0 0,-1.36 c -1.93,-0.43 -10.26,-0.71 -11,0.16 a 0.75,0.75 0 0 0 0,1 z m -16.91,0 c 0.74,0.88 9.14,0.59 11.09,0.16 a 0.71,0.71 0 0 0 0,-1.36 c -1.95,-0.44 -10.35,-0.72 -11.09,0.15 a 0.78,0.78 0 0 0 0,1 z m -18.69,0.27 c 2.45,0.53 11.48,0.2 13.42,-0.11 a 0.71,0.71 0 0 0 0,-1.36 c -1.95,-0.37 -11,-0.64 -13.42,0 a 0.75,0.75 0 0 0 0,1.43 z m 317.489999,-0.26 c 1.38,1.12 4.66,0.53 6.31,0.57 a 33.15,33.15 0 0 0 7,-0.41 0.72,0.72 0 0 0 0,-1.37 33.15,33.15 0 0 0 -7,-0.41 c -1.66,0 -4.93,-0.55 -6.31,0.57 a 0.75,0.75 0 0 0 0,1.05 z m -21.8,0 c 1.35,1.11 10.81,0.58 13.13,0.16 a 0.72,0.72 0 0 0 0,-1.37 c -2.32,-0.42 -11.78,-1 -13.13,0.16 a 0.74,0.74 0 0 0 0,1.05 z m -21.92,0 c 1.21,1.1 10.32,0.58 12.53,0.16 a 0.72,0.72 0 0 0 0,-1.37 c -2.21,-0.42 -11.32,-1 -12.53,0.16 a 0.74,0.74 0 0 0 0,1.05 z m -18.29,-0.01 c 0.74,0.87 9.1,0.59 11,0.16 a 0.71,0.71 0 0 0 0,-1.36 c -1.94,-0.43 -10.3,-0.71 -11,0.16 a 0.77,0.77 0 0 0 0,1 z m -16.7,-0.16 c 0.88,1.18 8.78,0.76 10.71,0.31 a 0.71,0.71 0 0 0 0,-1.36 c -1.93,-0.45 -9.83,-0.87 -10.71,0.31 a 0.7,0.7 0 0 0 0,0.74 z m -17.17,0.16 c 0.73,0.87 9.1,0.59 11,0.16 a 0.71,0.71 0 0 0 0.08,-1.32 c -2,-0.43 -10.31,-0.71 -11,0.16 a 0.76,0.76 0 0 0 0,1 z m 207.08,0.01 c 1.35,1.11 10.81,0.58 13.13,0.16 a 0.72,0.72 0 0 0 0,-1.37 c -2.32,-0.42 -11.78,-1 -13.13,0.16 a 0.76,0.76 0 0 0 0,1.05 z m -21.82,0 c 1.22,1.1 10.32,0.58 12.54,0.16 a 0.72,0.72 0 0 0 0,-1.37 c -2.22,-0.42 -11.32,-1 -12.54,0.16 a 0.76,0.76 0 0 0 0,1.05 z m -19.18,0 c 1.21,1.1 10.32,0.58 12.54,0.15 a 0.71,0.71 0 0 0 0,-1.36 c -2.22,-0.43 -11.32,-1 -12.54,0.16 a 0.74,0.74 0 0 0 0,1.05 z m -22.09,0.11 c 1.34,1 11.54,0.45 13.94,0 a 0.71,0.71 0 0 0 0,-1.36 c -2.4,-0.41 -12.6,-1 -13.94,0 a 0.76,0.76 0 0 0 0,1.28 z m -25.81,0 c 2,1.14 6,0.42 8.21,0.47 a 54.65,54.65 0 0 0 8.68,-0.43 0.71,0.71 0 0 0 0.01,-1.32 54.65,54.65 0 0 0 -8.68,-0.43 c -2.24,0 -6.18,-0.67 -8.21,0.47 a 0.75,0.75 0 0 0 0,1.28 z m -135.4,-0.12 c 0.73,0.87 9.05,0.58 11,0.16 a 0.71,0.71 0 0 0 0,-1.36 c -1.94,-0.42 -10.26,-0.71 -11,0.16 a 0.75,0.75 0 0 0 0,1 z m -16.95,0 c 0.74,0.88 9.14,0.59 11.09,0.16 a 0.71,0.71 0 0 0 0,-1.36 c -2,-0.44 -10.35,-0.72 -11.09,0.15 a 0.78,0.78 0 0 0 0,1 z m -18.64,0.27 c 2.44,0.53 11.47,0.2 13.41,-0.11 a 0.71,0.71 0 0 0 0,-1.36 c -2,-0.37 -11,-0.64 -13.41,0 a 0.75,0.75 0 0 0 0,1.43 z m 145.32,236.230002 c -1.37,-1.12 -4.65,-0.53 -6.31,-0.57 a 33.06,33.06 0 0 0 -7,0.41 0.72,0.72 0 0 0 0,1.37 33.06,33.06 0 0 0 7,0.41 c 1.67,0 4.93,0.55 6.31,-0.57 a 0.74,0.74 0 0 0 0,-1 z m 20.79,0 c -1.11,-1.09 -10,-0.58 -12.12,-0.16 a 0.72,0.72 0 0 0 0,1.37 c 2.14,0.43 11,0.94 12.12,-0.16 a 0.74,0.74 0 0 0 0,-1 z m 21.29,-0.11 c -1.63,-1.09 -12.32,-0.45 -14.88,-0.05 a 0.72,0.72 0 0 0 0,1.37 c 2.56,0.4 13.25,1.05 14.88,0 a 0.75,0.75 0 0 0 0,-1.28 z m 19.93,0.11 c -1.21,-1.1 -10.32,-0.58 -12.53,-0.15 a 0.71,0.71 0 0 0 0,1.36 c 2.21,0.43 11.32,0.95 12.53,-0.16 a 0.74,0.74 0 0 0 0,-1 z m 16.7,0.16 c -0.87,-1.18 -8.78,-0.76 -10.7,-0.31 a 0.71,0.71 0 0 0 0,1.36 c 1.92,0.45 9.83,0.87 10.7,-0.31 a 0.7,0.7 0 0 0 0,-0.74 z m 17.18,-0.15 c -0.74,-0.87 -9.1,-0.59 -11,-0.16 a 0.71,0.71 0 0 0 0,1.36 c 1.94,0.43 10.3,0.71 11,-0.16 a 0.77,0.77 0 0 0 0,-1 z m 15.83,0.15 c 0,-0.06 0,0 0.06,0.13 a 0.86,0.86 0 0 0 -0.62,-0.62 c -1.46,-0.49 -3.46,-0.23 -5,-0.28 a 13.84,13.84 0 0 0 -4.06,0.46 0.71,0.71 0 0 0 0,1.36 13.51,13.51 0 0 0 4.06,0.46 c 1.52,-0.05 3.52,0.21 5,-0.28 a 0.86,0.86 0 0 0 0.62,-0.62 c 0,0.37 0,-0.45 -0.06,-0.61 z m 14.52,-0.33 a 0.91,0.91 0 0 0 -0.62,-0.63 c -1.38,-0.48 -7.34,-0.19 -8.66,0.18 a 0.71,0.71 0 0 0 0,1.36 c 1.32,0.37 7.27,0.67 8.66,0.18 a 0.88,0.88 0 0 0 0.62,-0.62 1.3,1.3 0 0 0 0,-0.44 z m -295.03,0.17 c -1.37,-1.12 -4.65,-0.53 -6.31,-0.57 a 33.06,33.06 0 0 0 -7,0.41 0.72,0.72 0 0 0 0,1.37 33.06,33.06 0 0 0 7,0.41 c 1.67,0 4.93,0.55 6.31,-0.57 a 0.74,0.74 0 0 0 0,-1 z m 21.79,0 c -1.34,-1.11 -10.8,-0.58 -13.12,-0.16 a 0.72,0.72 0 0 0 0,1.37 c 2.32,0.42 11.78,1 13.12,-0.16 a 0.74,0.74 0 0 0 0,-1 z m 21.94,0 c -1.21,-1.1 -10.32,-0.58 -12.53,-0.16 a 0.72,0.72 0 0 0 0,1.37 c 2.21,0.42 11.31,0.95 12.53,-0.16 a 0.76,0.76 0 0 0 0,-1 z m 18.28,0.01 c -0.73,-0.87 -9.09,-0.59 -11,-0.16 a 0.71,0.71 0 0 0 0,1.36 c 1.95,0.43 10.31,0.71 11,-0.16 a 0.75,0.75 0 0 0 0,-1 z m 16.7,0.15 c -0.87,-1.18 -8.78,-0.76 -10.7,-0.31 a 0.71,0.71 0 0 0 0,1.36 c 1.92,0.45 9.83,0.87 10.7,-0.31 a 0.7,0.7 0 0 0 0,-0.74 z m 17.18,-0.15 c -0.74,-0.87 -9.1,-0.59 -11,-0.16 a 0.71,0.71 0 0 0 0,1.36 c 1.94,0.43 10.3,0.71 11,-0.16 a 0.77,0.77 0 0 0 0,-1 z m -202.429999,-0.01 c -0.66,-0.85 -3.82,-0.52 -5.14,-0.57 a 20.91,20.91 0 0 0 -5.59,0.41 0.72,0.72 0 0 0 0,1.37 20.94,20.94 0 0 0 5.59,0.41 c 1.32,0 4.47,0.29 5.14,-0.57 a 0.77,0.77 0 0 0 0,-1 z m -17.88,-0.33 c -1.33,-0.49 -3.24,-0.24 -4.64,-0.28 a 12.06,12.06 0 0 0 -3.78,0.45 0.72,0.72 0 0 0 0,1.37 12,12 0 0 0 3.78,0.45 c 1.4,0 3.31,0.21 4.64,-0.28 a 0.89,0.89 0 0 0 0,-1.71 z m 36.78,0.33 c -1.21,-1.1 -10.32,-0.58 -12.53,-0.16 a 0.72,0.72 0 0 0 0,1.37 c 2.21,0.42 11.31,0.95 12.53,-0.16 a 0.74,0.74 0 0 0 0,-1 z m 17.5,0 c -1.22,-1.1 -10.33,-0.58 -12.54,-0.15 a 0.71,0.71 0 0 0 0,1.36 c 2.21,0.43 11.32,0.95 12.54,-0.16 a 0.76,0.76 0 0 0 0,-1 z m 22.039999,-0.11 c -1.35,-1 -11.539999,-0.45 -13.939999,0 a 0.71,0.71 0 0 0 0,1.36 c 2.4,0.41 12.589999,0.95 13.939999,0 a 0.76,0.76 0 0 0 0,-1.28 z m 25.8,0 c -2,-1.14 -6,-0.42 -8.21,-0.47 a 54.58,54.58 0 0 0 -8.67,0.43 0.71,0.71 0 0 0 0,1.36 54.58,54.58 0 0 0 8.67,0.43 c 2.24,-0.05 6.18,0.67 8.21,-0.47 a 0.74,0.74 0 0 0 0,-1.28 z m 135.41,0.12 c -0.73,-0.87 -9.06,-0.58 -11,-0.16 a 0.71,0.71 0 0 0 0,1.36 c 1.93,0.42 10.26,0.71 11,-0.16 a 0.77,0.77 0 0 0 0,-1 z m 16.94,0 c -0.73,-0.88 -9.14,-0.59 -11.09,-0.16 a 0.71,0.71 0 0 0 0,1.36 c 2,0.44 10.35,0.72 11.09,-0.15 a 0.76,0.76 0 0 0 0,-1.05 z m 18.65,-0.27 c -2.44,-0.53 -5.15,-0.27 -7.65,-0.3 a 33.8,33.8 0 0 0 -5.77,0.41 0.71,0.71 0 0 0 0,1.36 28.67,28.67 0 0 0 5.77,0.51 c 2.5,0 5.24,0.13 7.65,-0.55 a 0.75,0.75 0 0 0 0,-1.43 z M 2.368711,57.306848 c 0.51,-1.78 0.11,-3.61 0.42,-5.39 0.53,-2.94 3.14,-4.46 5.73,-5.4 0.71,-0.26 0.67,-1.43 -0.18,-1.39 -3.17,0.15 -5.94,1.45 -7.16,4.56 a 13.64,13.64 0 0 0 -0.24,7.62 0.75,0.75 0 0 0 1.43,0 z m 484.729999,32.69 c 0.83,-1.44 0.78,-9.76 0.42,-12 -0.11,-0.71 -1.21,-0.65 -1.36,0 -0.54,2.23 -1.1,10.52 -0.34,12 a 0.74,0.74 0 0 0 1.28,0 z m -0.54,133.300002 c 1.12,-1.38 0.52,-4.66 0.57,-6.31 a 33.15,33.15 0 0 0 -0.41,-7 0.72,0.72 0 0 0 -1.37,0 33.15,33.15 0 0 0 -0.41,7 c 0,1.66 -0.55,4.92 0.57,6.31 a 0.75,0.75 0 0 0 1,0 z m 0,21.79 c 1.12,-1.35 0.59,-10.81 0.16,-13.13 a 0.71,0.71 0 0 0 -1.36,0 c -0.42,2.32 -1,11.78 0.16,13.13 a 0.73,0.73 0 0 0 1,0 z m 0,21.93 c 1.11,-1.21 0.59,-10.32 0.16,-12.53 a 0.71,0.71 0 0 0 -1.36,0 c -0.43,2.21 -0.95,11.32 0.16,12.53 a 0.73,0.73 0 0 0 1,0 z m 0,-154.87 c 1.12,-1.35 0.59,-10.81 0.16,-13.130002 a 0.71,0.71 0 0 0 -1.36,0 c -0.42,2.320002 -1,11.780002 0.16,13.130002 a 0.75,0.75 0 0 0 1,0 z m 0,21.77 c 1.11,-1.22 0.59,-10.32 0.16,-12.54 a 0.71,0.71 0 0 0 -1.36,0 c -0.43,2.22 -0.95,11.32 0.16,12.54 a 0.75,0.75 0 0 0 1,0 z m 0,19.23 c 1.11,-1.21 0.59,-10.33 0.16,-12.54 a 0.71,0.71 0 0 0 -1.36,0 c -0.43,2.22 -0.95,11.32 0.16,12.54 a 0.75,0.75 0 0 0 1,0 z m 0.14,22.04 c 1,-1.34 0.45,-11.54 0,-13.94 a 0.71,0.71 0 0 0 -1.36,0 c -0.41,2.4 -0.95,12.6 0,13.94 a 0.76,0.76 0 0 0 1.28,0 z m 0,25.81 c 1.13,-2 0.42,-6 0.47,-8.21 a 54.65,54.65 0 0 0 -0.43,-8.68 0.71,0.71 0 0 0 -1.36,0 53.49,53.49 0 0 0 -0.43,8.68 c 0,2.24 -0.67,6.18 0.47,8.21 a 0.75,0.75 0 0 0 1.28,0 z M 0.558711,63.006848 c -0.47,1.23 -0.18,6.74 0.18,7.94 a 0.72,0.72 0 0 0 1.37,0 c 0.37,-1.2 0.65,-6.71 0.17,-7.94 a 0.9,0.9 0 0 0 -1.72,0 z m 1.77,26.99 c 0.83,-1.44 0.78,-9.76 0.43,-12 -0.11,-0.71 -1.21,-0.65 -1.37,0 -0.54,2.23 -1.1,10.52 -0.34,12 a 0.74,0.74 0 0 0 1.28,0 z m -0.51,133.300002 c 1.12,-1.38 0.53,-4.66 0.57,-6.31 a 33.15,33.15 0 0 0 -0.41,-7 0.72,0.72 0 0 0 -1.37,0 33.15,33.15 0 0 0 -0.41,7 c 0,1.66 -0.55,4.92 0.57,6.31 a 0.75,0.75 0 0 0 1,0 z m 0,21.79 c 1.11,-1.35 0.58,-10.81 0.16,-13.13 a 0.72,0.72 0 0 0 -1.37,0 c -0.42,2.32 -1,11.78 0.16,13.13 a 0.74,0.74 0 0 0 1,0 z m 0,21.93 c 1.1,-1.21 0.58,-10.32 0.16,-12.53 a 0.72,0.72 0 0 0 -1.37,0 c -0.42,2.21 -0.95,11.32 0.16,12.53 a 0.74,0.74 0 0 0 1,0 z m 0,-154.87 c 1.11,-1.35 0.58,-10.81 0.16,-13.130002 a 0.72,0.72 0 0 0 -1.37,0 c -0.42,2.320002 -1,11.780002 0.16,13.130002 a 0.76,0.76 0 0 0 1,0 z m 0,21.77 c 1.1,-1.22 0.58,-10.32 0.16,-12.54 a 0.72,0.72 0 0 0 -1.37,0 c -0.42,2.22 -0.95,11.29 0.16,12.54 a 0.76,0.76 0 0 0 1,0 z m 0,19.23 c 1.1,-1.21 0.58,-10.32 0.15,-12.54 a 0.71,0.71 0 0 0 -1.36,0 c -0.43,2.22 -0.95,11.32 0.16,12.54 a 0.75,0.75 0 0 0 1,0 z m 0.11,22.04 c 1,-1.34 0.45,-11.54 0,-13.94 a 0.71,0.71 0 0 0 -1.36,0 c -0.41,2.4 -0.95,12.6 0,13.94 a 0.76,0.76 0 0 0 1.28,0 z m 0,25.81 c 1.14,-2 0.42,-6 0.47,-8.21 a 54.65,54.65 0 0 0 -0.43,-8.68 0.71,0.71 0 0 0 -1.36,0 54.65,54.65 0 0 0 -0.43,8.68 c 0.05,2.24 -0.67,6.18 0.47,8.21 a 0.75,0.75 0 0 0 1.28,0 z"
     fill="#919191"
     id="path1023" />
  <text
     xml:space="preserve"
     style="font-size:21.3333px;line-height:1.25;font-family:monospace;-inkscape-font-specification:monospace"
     x="140.63602"
     y="25.970634"
     id="text1037"><tspan
       sodipodi:role="line"
       id="tspan1035"
       x="140.63602"
       y="25.970634"
       style="font-style:italic;font-variant:normal;font-weight:bold;font-stretch:normal;font-size:21.3333px;font-family:Purisa;-inkscape-font-specification:Purisa;fill:#00b18c;fill-opacity:1">elemento grid</tspan></text>
  <text
     xml:space="preserve"
     style="font-style:italic;font-variant:normal;font-weight:bold;font-stretch:normal;font-size:21.3333px;line-height:1.25;font-family:Purisa;-inkscape-font-specification:Purisa;font-variant-ligatures:normal;font-variant-position:normal;font-variant-caps:normal;font-variant-numeric:normal;font-variant-alternates:normal;font-variant-east-asian:normal;font-feature-settings:normal;font-variation-settings:normal;text-indent:0;text-align:start;text-decoration:none;text-decoration-line:none;text-decoration-style:solid;text-decoration-color:#000000;letter-spacing:normal;word-spacing:normal;text-transform:none;writing-mode:lr-tb;direction:ltr;text-orientation:mixed;dominant-baseline:auto;baseline-shift:baseline;text-anchor:start;white-space:normal;shape-padding:0;shape-margin:0;inline-size:0;opacity:1;vector-effect:none;fill:#000000;fill-opacity:1;stroke-width:1;stroke-linecap:butt;stroke-linejoin:miter;stroke-miterlimit:4;stroke-dasharray:none;stroke-dashoffset:0;stroke-opacity:1;stop-color:#000000;stop-opacity:1"
     x="204.1888"
     y="318.27271"
     id="text1041"
     transform="translate(-32.515664,20.226623)"><tspan
       sodipodi:role="line"
       id="tspan1039"
       x="204.1888"
       y="318.27271"
       style="fill:#7b9c02;fill-opacity:1">filhos de grid</tspan></text>
  <path
     style="font-variation-settings:normal;opacity:1;vector-effect:none;fill:none;fill-opacity:1;stroke:#7b9c02;stroke-width:2.13543;stroke-linecap:butt;stroke-linejoin:miter;stroke-miterlimit:4;stroke-dasharray:51.2504, 2.13543;stroke-dashoffset:0;stroke-opacity:1;stop-color:#000000;stop-opacity:1"
     d="m 132.98802,256.22312 c 36.48273,47.21463 42.99179,57.81206 42.99179,57.81206"
     id="path1059"
     sodipodi:nodetypes="cc" />
  <path
     style="font-variation-settings:normal;opacity:1;vector-effect:none;fill:none;fill-opacity:1;stroke:#7b9c02;stroke-width:2.13543;stroke-linecap:butt;stroke-linejoin:miter;stroke-miterlimit:4;stroke-dasharray:51.2504, 2.13543;stroke-dashoffset:0;stroke-opacity:1;stop-color:#000000;stop-opacity:1"
     d="m 244.76475,254.35234 4.79493,63.26957"
     id="path1061"
     sodipodi:nodetypes="cc" />
  <path
     style="font-variation-settings:normal;opacity:1;vector-effect:none;fill:none;fill-opacity:1;stroke:#7b9c02;stroke-width:2.13543;stroke-linecap:butt;stroke-linejoin:miter;stroke-miterlimit:4;stroke-dasharray:51.2504, 2.13543;stroke-dashoffset:0;stroke-opacity:1;stop-color:#000000;stop-opacity:1"
     d="m 362.99267,244.48373 -52.89316,70.12222"
     id="path1063"
     sodipodi:nodetypes="cc" />
  <path
     style="fill:none;stroke:#989698;stroke-width:2.13543;stroke-linecap:butt;stroke-linejoin:miter;stroke-miterlimit:4;stroke-dasharray:6.4063, 2.13543;stroke-dashoffset:0;stroke-opacity:1"
     d="m 238.04593,29.672315 v 15.57695"
     id="path1065" />
</svg>
