<?xml version="1.0" encoding="UTF-8" standalone="no"?>
<svg
   xmlns:dc="http://purl.org/dc/elements/1.1/"
   xmlns:cc="http://creativecommons.org/ns#"
   xmlns:rdf="http://www.w3.org/1999/02/22-rdf-syntax-ns#"
   xmlns:svg="http://www.w3.org/2000/svg"
   xmlns="http://www.w3.org/2000/svg"
   xmlns:sodipodi="http://sodipodi.sourceforge.net/DTD/sodipodi-0.dtd"
   xmlns:inkscape="http://www.inkscape.org/namespaces/inkscape"
   viewBox="0 0 427.49069 346.48178"
   version="1.1"
   id="svg1167"
   sodipodi:docname="grid-column-row.svg"
   width="427.49069"
   height="346.48178"
   inkscape:version="1.0.1 (3bc2e813f5, 2020-09-07)">
  <metadata
     id="metadata1173">
    <rdf:RDF>
      <cc:Work
         rdf:about="">
        <dc:format>image/svg+xml</dc:format>
        <dc:type
           rdf:resource="http://purl.org/dc/dcmitype/StillImage" />
        <dc:title></dc:title>
      </cc:Work>
    </rdf:RDF>
  </metadata>
  <defs
     id="defs1171" />
  <sodipodi:namedview
     pagecolor="#ffffff"
     bordercolor="#666666"
     borderopacity="1"
     objecttolerance="10"
     gridtolerance="10"
     guidetolerance="10"
     inkscape:pageopacity="0"
     inkscape:pageshadow="2"
     inkscape:window-width="1848"
     inkscape:window-height="1009"
     id="namedview1169"
     showgrid="false"
     fit-margin-left="2"
     fit-margin-top="30"
     fit-margin-bottom="2"
     fit-margin-right="2"
     inkscape:zoom="1.7002343"
     inkscape:cx="144.95832"
     inkscape:cy="197.68241"
     inkscape:window-x="72"
     inkscape:window-y="34"
     inkscape:window-maximized="1"
     inkscape:current-layer="svg1167" />
  <path
     d="m 379.76541,273.25975 c 14.84,-17.55 2,-47.71 6.11,-75.28 0.39,-8.28 0,-109.71 0.12,-114.54 0,-1 18.87,-59.749999 -42.93,-46.25 -1.74,-0.2 -155.17,-4.86 -193.6,-3.51 -29.38,-12.399999 -44.24,11.45 -102.319997,0.28 -50.8,-5.419999 -35,25.82 -35,25.89 -12.65,15 0.17,28.15 -0.13,30.82 -1.2,10.75 -1.07,68.71 -1.94,70.6 -2.18,4.71 -8.58,23.95 -1,43.66 -6.89,12.68 3.49,42.41 -1.13,82.63 2.63,19 24.7,29.47 60,20.33 27.09,11.86 97.759997,0.37 150.999997,2.65 23.69,-0.19 89.07,-3.07 90.78,-3.36 -0.23,7.12 52.68,6.19 58.44,5.68 25.73,-1.81 21.14,-32.81 11.6,-39.6 z"
     fill="#ffffff"
     id="path1139" />
  <path
     d="m 53.525413,34.58975 c -1.24,21.68 -0.37,267.46 -0.3,274.26 a 1.28,1.28 0 0 0 2.55,0 c -0.23,-21.52 -0.89,-154.38 -0.76,-199.28 0.08,-25 1,-50 0.46,-75 a 1,1 0 0 0 -1.95,0 z m 51.809997,0.73 c -0.72,21.78 -0.06,43.66 -0.07,65.45 0,23.64 -0.71,200.6 -0.76,208.08 a 1.28,1.28 0 0 0 2.55,0 c 0.15,-21.4 0.33,-42.81 0.42,-64.22 0.19,-44.93 0.94,-184.54 -0.19,-209.31 a 1,1 0 0 0 -2,0 z m 180.01,0 c -0.72,21.86 -0.14,113.2 -0.21,137 q -0.19,57.42 -0.56,114.85 c -0.05,7.54 0,15.09 -0.06,22.62 a 1.28,1.28 0 0 0 2.55,0 c 0.14,-20.79 1.36,-249.59 0.23,-274.42 a 1,1 0 0 0 -1.95,0 z m 54.65,273.53 c 1,-21.89 0.32,-266.12 0.3,-273.53 a 1.28,1.28 0 0 0 -2.55,0 c 0.06,21.18 -0.56,248.58 0.3,273.53 a 1,1 0 0 0 2,0 z"
     fill="#1e1e1e"
     id="path1141" />
  <path
     d="m 382.53541,95.74975 c -54.78,-1.52 -360.889997,0.38 -372.889997,0.45 a 1.25,1.25 0 0 0 0,2.5 c 33.67,-0.2 345.689997,-0.83 372.919997,-1 a 1,1 0 0 0 0,-1.93 z m 1.58,96.68 c -56.43,0.75 -362.849997,0.54 -374.499997,0.44 a 1.26,1.26 0 0 0 0,2.51 c 33.18,0.27 346.189997,0.34 374.499997,-1 a 1,1 0 0 0 0,-1.92 z"
     fill="#1e1e1e"
     id="path1143" />
  <path
     d="m 393.50541,38.48975 h -4.67 a 0.4,0.4 0 0 0 0,0.8 h 4.67 a 0.4,0.4 0 0 0 0,-0.8 z m 9.06,-0.08 c -1.79,0 -3.58,0.05 -5.38,0.06 a 0.4,0.4 0 0 0 0,0.8 c 1.8,0 3.59,0 5.38,-0.06 a 0.4,0.4 0 0 0 0,-0.8 z m -9.06,57.75 h -4.67 a 0.4,0.4 0 0 0 0,0.8 h 4.67 a 0.4,0.4 0 0 0 0,-0.8 z m 9.06,-0.11 c -1.79,0 -3.58,0 -5.38,0.06 a 0.4,0.4 0 0 0 0,0.8 c 1.8,0 3.59,0 5.38,-0.06 a 0.4,0.4 0 0 0 0,-0.8 z m -9.06,97 h -4.67 a 0.4,0.4 0 0 0 0,0.8 h 4.67 a 0.4,0.4 0 0 0 0,-0.8 z m 9.06,-0.1 c -1.79,0 -3.58,0 -5.38,0.06 a 0.4,0.4 0 0 0 0,0.8 c 1.8,0 3.59,0 5.38,-0.06 a 0.4,0.4 0 0 0 0,-0.8 z m -9.06,113.37 h -4.67 a 0.4,0.4 0 0 0 0,0.8 h 4.67 a 0.4,0.4 0 0 0 0,-0.8 z m 9.06,-0.08 c -1.79,0 -3.58,0.05 -5.38,0.06 a 0.4,0.4 0 0 0 0,0.8 c 1.8,0 3.59,0 5.38,-0.06 a 0.4,0.4 0 0 0 0,-0.8 z"
     fill="#757575"
     id="path1145" />
  <path
     d="m 347.53407,331.62873 -1.88,0.1 c -0.41913,0.0222 -0.49821,0.60738 -0.1,0.74 0.43713,0.13011 0.88593,0.21719 1.34,0.26 -0.34,3.34 -0.12,6.73 -0.34,10.07 -0.5,0 -1,0.08 -1.5,0.1 -0.94292,0.0195 -0.74339,1.47497 0.17,1.24 0.62243,-0.12188 1.25582,-0.17885 1.89,-0.17 0.32697,-0.0104 0.58961,-0.27303 0.6,-0.6 0.3,-3.71 0.21,-7.45 0.4,-11.16 0.006,-0.32266 -0.25734,-0.58571 -0.58,-0.58 z"
     id="path1968" />
  <path
     d="m 333.04999,331.50144 c -0.59434,-0.0985 -1.20208,-0.0815 -1.79,0.05 -0.24,0 -0.52,0.21 -0.49,0.5 0.25838,3.77711 0.2216,7.56862 -0.11,11.34 0.005,0.29984 0.25011,0.54005 0.55,0.54 0.56707,0.0716 1.13972,0.0883 1.71,0.05 0.74,0 0.74,-1.18 0,-1.15 -0.39641,0.02 -0.79359,0.02 -1.19,0 -0.15,-3.43 0.31,-6.9 0.06,-10.32 l 1.26,-0.06 c 0.54786,-0.0797 0.54786,-0.8703 0,-0.95 z"
     id="path1966" />
  <path
     d="m 293.50194,331.71501 c -0.003,-0.25592 -0.17398,-0.47942 -0.42,-0.55 -0.66389,-0.14271 -1.35365,-0.10822 -2,0.1 -0.49883,0.15129 -0.40104,0.88469 0.12,0.9 l 1.15,-0.16 c 0.07,0.25 -0.06,3.73 -0.09,5.1 -0.03,1.37 -0.09,4.87 -0.1,5.15 h -1.12 c -0.86,0.05 -0.85,1.41 0,1.34 0.56,-0.05 1.12,-0.06 1.68,-0.1 0.31,0 0.66,-0.27 0.62,-0.62 -0.12,-1.17 0,-3.43 0.06,-5.13 0.15244,-2.00626 0.18583,-4.01979 0.1,-6.03 z"
     id="path1960" />
  <path
     id="path1942"
     d="m 286.08486,333.35248 c -0.0846,0.007 -0.17039,0.0423 -0.24414,0.11133 -0.90738,0.84759 -1.68701,1.82144 -2.31836,2.89063 -0.77,1.1 -1.47062,2.24015 -2.14062,3.41015 -0.2327,0.39406 0.0522,0.89216 0.50976,0.89063 1.21,0 2.44969,0.0998 3.67969,0.0898 v 1.59961 c 0,0.53 1.08117,0.88016 1.20117,0.16016 0.10041,-0.60482 0.14902,-1.21699 0.14844,-1.83008 0.23,0 0.44992,-7.8e-4 0.66992,-0.0508 0.86,-0.0333 0.81117,-1.32239 -0.0488,-1.28906 h -0.67968 v -1.21094 c 0.0833,-1.43219 -0.0309,-2.86856 -0.33985,-4.26953 0.067,-0.29553 -0.18383,-0.52344 -0.4375,-0.50196 z m -0.61328,2.55274 c 0.11703,0.0423 0.67261,3.15728 0.25781,3.24414 -0.41481,0.0869 -2.20507,-0.10156 -2.20507,-0.10156 0,0 1.83023,-3.18485 1.94726,-3.14258 z" />
  <path
     d="m 280.76035,333.43805 c 0.51,0 0.69,-0.85 0.13,-0.94 -0.69481,-0.11 -1.3966,-0.17015 -2.1,-0.18 -0.29271,0 -0.53,0.23729 -0.53,0.53 0.16,2.37 0.12,4.74 0.1,7.11 -0.0882,1.33188 -0.0882,2.66812 0,4 0.0421,0.14835 0.16035,0.26282 0.31,0.3 0.6347,0.11388 1.27599,0.18736 1.92,0.22 0.72,0.08 0.75,-1.15 0,-1.14 -0.21,0 -1.18,-0.14 -1.39,0.1 0,-0.16 0.19,-7.8 0.16,-10.07 0.46441,0.0565 0.93226,0.0799 1.4,0.07 z"
     id="path1932" />
  <path
     d="m 108.77764,333.87801 c -0.9,-2.38 -4.35,-1.36 -5.74,-0.12 -0.4,0.36 0.11,1 0.56,0.73 0.45,-0.27 4.57,-2.09 4.09,0.62 -0.21,1.2 -2,1.47 -2.92,1.65 -0.61,0.11 -0.46,1.08 0.14,1.07 0.44332,-0.0604 0.89391,-0.04 1.33,0.06 0.87,0.29 1.77,1.46 1.19,2.43 -0.9427,1.28683 -2.90292,1.15864 -3.67,-0.24 -0.28,-0.59 -1.18,-0.07 -0.89,0.52 1.19196,2.05565 4.1091,2.1938 5.49,0.26 0.57846,-0.91634 0.57846,-2.08366 0,-3 -0.23291,-0.33766 -0.55482,-0.60418 -0.93,-0.77 1.24376,-0.52913 1.84174,-1.95099 1.35,-3.21 z"
     id="path1930" />
  <path
     d="m 113.78909,338.07403 c 0,-2 0,-4.08 -0.05,-6.12 -0.0104,-0.32697 -0.27303,-0.58961 -0.6,-0.6 -0.77,-0.05 -1.69,-0.34 -2.34,0.17 -0.37,0.3 0,0.87 0.36,0.88 h 0.07 c 0.4415,-0.0126 0.88325,0.0142 1.32,0.08 0.06,2 0,4 0.05,6.06 v 3.54 c 0.0128,0.21648 0.0128,0.43352 0,0.65 -0.15,-0.31 -1.41,-0.06 -1.76,-0.07 -0.74,0 -0.71,1.22 0,1.13 0.71,-0.09 1.54,0 2.29,-0.12 0.23,0 0.52,-0.15 0.56,-0.42 0.16834,-1.72142 0.20177,-3.45337 0.1,-5.18 z"
     id="path1916" />
  <path
     d="m 100.11879,342.80554 c -0.419047,0.13811 -0.851407,0.23195 -1.289997,0.28 l 0.21,-10.31 c 0.33154,-0.0489 0.66846,-0.0489 0.999997,0 0.56047,0.0383 0.6706,-0.7785 0.12,-0.89 -0.521697,-0.19278 -1.088647,-0.22756 -1.629997,-0.1 -0.27567,0.005 -0.49944,0.22448 -0.51,0.5 -0.0933,3.79333 -0.19,7.58333 -0.29,11.37 0,0.29823 0.24176,0.54 0.54,0.54 0.73,-0.07 1.43,-0.16 2.149997,-0.3 0.72,-0.14 0.46,-1.31 -0.3,-1.09 z"
     id="path1914" />
  <path
     d="m 57.38448,340.65082 c -1.281669,-0.0816 -2.566645,-0.0983 -3.85,-0.05 1.93,-1.63 4.06,-3.59 3.77,-6.24 -0.32,-3 -4.34,-2.11 -5.83,-0.59 -0.5,0.5 0.24,1.21 0.76,0.76 0.9,-0.78 3.45,-1.88 3.9,0 0.03397,0.77515 -0.168287,1.54235 -0.58,2.2 -0.88,1.64 -2.78,2.91 -4.15,4.12 -0.338109,0.37701 -0.08591,0.97748 0.42,1 1.853923,-0.0851 3.711475,-0.045 5.56,0.12 0.83,0.09 0.84,-1.26 0,-1.32 z"
     id="path1912" />
  <path
     d="m 61.40445,331.07163 c -0.700536,-0.03 -1.402318,-0.01 -2.1,0.06 -0.76,0.1 -0.81,1.3 0,1.23 0.51,0 1,-0.08 1.52,-0.1 0,2 -0.09,10 -0.08,10.15 -0.21,-0.17 -0.86,0 -1.19,0 -0.52,0.09 -0.47,0.88 0,1 0.65864,0.18304 1.358084,0.15506 2,-0.08 0.181859,-0.10497 0.292779,-0.30004 0.29,-0.51 0,-3.74 0,-7.48 0.09,-11.21 -0.0228,-0.2845 -0.245976,-0.51189 -0.53,-0.54 z"
     id="path1910" />
  <path
     d="m 48.947389,331.31717 -2.17,0.08 c -0.321936,0.005 -0.580046,0.26802 -0.58,0.59 l -0.15,11 c 0.0053,0.32361 0.266394,0.58465 0.59,0.59 0.693483,0.0815 1.392313,0.10828 2.09,0.08 0.54,0 0.73,-0.91 0.14,-1 -0.59,-0.09 -1.09,-0.14 -1.63,-0.19 0,-3.3 0.08,-6.6 0.12,-9.9 h 1.59 c 0.833333,0 0.833333,-1.25 0,-1.25 z"
     id="path1908" />
  <path
     d="m 4.76,342.6658 c -0.51,0 -1,0.08 -1.52,0.1 0,-1.81333 0.02,-3.62333 0.06,-5.43 v -3.73 c -0.05008,-0.3817 -0.05008,-0.7683 0,-1.15 0.322295,0.10603 0.66098,0.15344 1,0.14 0.53,-0.05 0.75,-0.9 0.13,-1 -0.621218,-0.17519 -1.278782,-0.17519 -1.9,0 -0.253277,0.0766 -0.43,0.30557 -0.44,0.57 0,3.74 0,7.48 -0.09,11.21 0,0.32033 0.259675,0.58 0.58,0.58 0.700348,0.0283 1.401794,0.0116 2.1,-0.05 0.85,-0.11 0.89,-1.31 0.08,-1.24 z"
     id="path1906" />
  <path
     d="m 17.325128,332.07959 c -0.05365,-0.20008 -0.209925,-0.35635 -0.41,-0.41 -0.740505,-0.14794 -1.499291,-0.18166 -2.25,-0.1 -0.546002,0.10974 -0.546002,0.89026 0,1 0.45,0.06 1.79,0.25 1.51,-0.13 0.11,0.15 0,3.62 0,4.87 0,1.78 -0.06,3.56 -0.09,5.33 h -1.6 c -0.79,0 -0.79,1.26 0,1.23 l 2.17,-0.08 c 0.323606,-0.005 0.58465,-0.26639 0.59,-0.59 0,-1.89 0.07,-3.79 0.1,-5.69 0.131272,-1.80788 0.124586,-3.62314 -0.02,-5.43 z"
     id="path1149" />
  <path
     d="m 392.49647,332.41428 a 0.6,0.6 0 0 0 -0.6,-0.59 11.67,11.67 0 0 0 -1.67,0.07 0.54,0.54 0 0 0 0,1 6.34,6.34 0 0 0 1.07,0.07 c 0,3.31 0,6.65 0.33,9.95 h -1.67 c -0.77,0 -0.77,1.24 0,1.2 0.77,-0.04 1.5,-0.06 2.26,-0.07 a 0.55,0.55 0 0 0 0.54,-0.54 c -0.34,-3.69 -0.24,-7.39 -0.26,-11.09 z"
     id="path1995" />
  <path
     d="m 376.88159,343.12023 c -0.13,0 -1.37,0 -1.51,0.23 v -0.57 c -0.08,-1 0,-2.14 0,-3.2 0,-1.38 0.06,-2.77 0,-4.16 0,-0.56 -0.05,-1.13 -0.08,-1.7 -0.09,-1.27 0.11,-1.06 1.36,-0.94 0.59,0.06 0.69,-0.88 0.13,-1 a 5.57,5.57 0 0 0 -2.37,-0.08 0.59,0.59 0 0 0 -0.43,0.56 c 0.29,2.43 0.36,4.9 0.43,7.34 a 38.84,38.84 0 0 0 0,4.18 0.47,0.47 0 0 0 0.33,0.34 14.39,14.39 0 0 0 2.08,0.23 c 0.82,0.04 0.82,-1.3 0.06,-1.23 z"
     id="path1993" />
  <path
     d="m 55.005413,319.34975 v -4.67 a 0.4,0.4 0 0 0 -0.8,0 v 4.67 a 0.4,0.4 0 0 0 0.8,0 z m 0.08,9.06 -0.06,-5.36 a 0.4,0.4 0 0 0 -0.8,0 l 0.06,5.38 a 0.4,0.4 0 0 0 0.8,0 z m 229.729997,-4.68 v 4.68 a 0.4,0.4 0 0 0 0.8,0 v -4.68 a 0.4,0.4 0 0 0 -0.8,0 z m -0.08,-9.05 q 0,2.69 0.06,5.37 a 0.4,0.4 0 0 0 0.8,0 q 0,-2.69 -0.06,-5.37 a 0.4,0.4 0 0 0 -0.8,0 z m 54.59,4.67 v -4.67 a 0.4,0.4 0 0 0 -0.8,0 v 4.67 a 0.4,0.4 0 0 0 0.8,0 z m 0.08,9.06 c 0,-1.79 0,-3.59 -0.06,-5.38 a 0.4,0.4 0 0 0 -0.8,0 c 0,1.79 0,3.59 0.06,5.38 a 0.4,0.4 0 0 0 0.8,0 z m 43.16,-9.06 v -4.67 a 0.4,0.4 0 0 0 -0.8,0 v 4.67 a 0.4,0.4 0 0 0 0.8,0 z m 0.08,9.06 -0.06,-5.38 a 0.4,0.4 0 0 0 -0.8,0 l 0.06,5.38 a 0.4,0.4 0 0 0 0.8,0 z m -276,-8.56 v -5.17 a 0.4,0.4 0 0 0 -0.8,0 v 5.17 a 0.4,0.4 0 0 0 0.8,0 z m 0.08,8.56 c 0,-1.63 0,-3.25 -0.06,-4.88 a 0.4,0.4 0 0 0 -0.8,0 c 0,1.63 0,3.25 0.06,4.88 a 0.4,0.4 0 0 0 0.8,0 z m -96.289997,-9.06 v -4.67 a 0.4,0.4 0 0 0 -0.8,0 v 4.67 a 0.4,0.4 0 0 0 0.8,0 z m 0.08,9.06 c 0,-1.79 0,-3.59 -0.06,-5.38 a 0.4,0.4 0 0 0 -0.8,0 c 0,1.79 0,3.59 0.06,5.38 a 0.4,0.4 0 0 0 0.8,0 z"
     fill="#757575"
     id="path1153" />
  <path
     d="m 385.69541,273.14975 c -0.0467,-24 -0.0833,-48 -0.11,-72 l -0.2,-144.72 c 0,-6.41 2.32,-16.19 -3.13,-20.33 -1.75,-1.33 -3.78,-1.38 -5.89,-1.57 -4.62,-0.4 -44.66,-0.77 -58,-0.76 -54.59,0 -283.259997,0.08 -284.999997,0.07 -7.17,0 -22,-2.389999 -23.84,7.42 -0.01493,0.08602 -0.01493,0.173977 0,0.26 -1.12,12.36 -0.19,25.24 -0.24,37.63 -0.11,27 -0.69,216.38 -0.55,219.08 0.14,2.7 0.18,6.09 1.84,8.25 2.19,2.85 8,2.81 11.27,3.22 5.77,0.73 11.58,0.55 17.37,0.52 16.83,-0.06 331.749997,-0.86 337.289997,-1.64 4,-0.56 7.34,-1.81 8.47,-6 1.13,-4.19 0.73,-23.97 0.72,-29.43 z m -2.22,16.62 c -0.08,5.74 0.8,14.58 -6.08,16.45 -6,1.65 -27.61,0.84 -31.3,0.85 -18.54,0.05 -166.74,0.48 -222.31,0.66 -22,0.07 -92.309997,1.27 -104.899997,-0.67 -2.57,-0.4 -5.66,-0.3 -7.07,-2.94 -0.84,-1.58 -0.79,-4.1 -0.88,-5.84 -0.13,-2.33 -0.1,-9.11 -0.1,-10.16 0,-6.41 -0.19,-243.35 0.06,-246.37 v -0.05 c 1.83,-8.94 19.65,-6 26.43,-5.95 1.1,0 316.449997,0.13 320.999997,0.15 1.07,0 18.25,0.56 19.86,0.95 5,1.21 5.39,5.66 5.26,10.17 -1.13,38.44 -0.07,77.06 0,115.51 -0.03,42.4 0.62,84.85 0.03,127.24 z"
     fill="#1e1e1e"
     id="path1155"
     sodipodi:nodetypes="ccccccccccsccccsccccccccscccccccc" />
  <path
     d="m 343.91541,50.81975 c -3.17,-7.11 -12.7,3.8 -10.41,8.94 0.26,0.58 -1.61,93.86 0.37,117.38 0.88,10.44 -6.23,11.58 -7.56,11.84 -13,2.54 -224.37,2.48 -252.109997,1.62 -5.83,-0.18 -2.3,11.4 4.19,11.6 25.769997,0.8 95.499997,1.46 108.589997,0.89 5,-0.21 67,1.88 94.14,1.34 14.41,-0.28 29,-0.82 43.26,-3.24 7.82,-1.33 15.31,-3.1 18.51,-11.38 8.15,-10.76 2.08,-136.63 1.02,-138.99 z"
     opacity="0.2"
     id="path1157" />
  <path
     d="m 56.885413,48.55975 c 0.28,-3.17 3.42,-8.44 7.06,-9 1.84,-0.31 241.829997,-0.74 241.829997,-0.74 5.12,0.21 25.9,1.15 27.28,2.75 3.42,4 1.43,132.89 1.21,137.77 -0.09,2.19 -1.72,10.75 -15.18,10.22 -5.23,0.16 -242.459997,3.54 -253.259997,-0.05 -6.88,-2.3 -8.89,-9.07 -9,-13 -0.11,-3.93 -0.18,-124.77 0.06,-127.95 z"
     fill="#f78100"
     opacity="0.85"
     id="path1159" />
  <path
     d="m 327.97541,41.35975 c -25.93,-1.79 -255.639997,-4 -260.259997,-1 -4.79,3.14 -7.29,8.85 -8.07,14.36 -1.76,12.41 0.07,96.93 0.15,126.32 0,3.31 2.74,4.56 5.51,3.19 3.14,-1.55 5.34,-5.77 5.34,-9.18 -0.07,-24 -1.07,-96.7 -0.87,-109.09 0.05,-3 0.52,-12.19 0.69,-14.09 h 0.09 c 1.31,0.36 11.74,0.28 15.37,0.37 25.999997,0.66 51.999997,1.42 78.069997,1.52 25.8,0.1 51.53,-1.23 77.31,-1.49 27.22,-0.28 54.39,1 81.54,2.85 5.8,0.37 11.7,-13.3 5.13,-13.76 z"
     fill="#ffffff"
     opacity="0.2"
     id="path1161" />
  <path
     d="m 335.22541,90.93975 c -0.08,-10 0.26,-41.2 -0.64,-46.68 -0.62,-3.78 -1.93,-4.93 -5.78,-5.52 -7.27,-1.11 -15.05,-1 -22.4,-1 -21.92,-0.23 -209.159997,-0.21 -228.999997,0 -5.16,0.06 -12.55,-0.69 -16.58,3.31 -4.56,4.46 -2.87,11.43 -3,17.08 0,0.07 -1,100.36 -0.7,110.47 0.18,5.43 -0.74,12.75 2.56,17.51 3.2,4.61 10.22,5.22 15.32,5.74 3.78,0.38 230.629997,-0.73 232.939997,-0.8 6.63,-0.21 14.63,0.78 21,-1.6 5.16,-1.93 6.09,-6.11 6.33,-11.15 1.43,-29.06 0.2,-58.25 -0.05,-87.36 z m -2.17,86.44 c -0.15,3.13 -0.07,6.87 -3,8.89 a 12.21,12.21 0 0 1 -5.41,1.78 c -3.86,0.52 -17.31,0.73 -20.1,0.77 -6.69,0.1 -217.109997,1 -223.719997,1.06 a 50.7,50.7 0 0 1 -13,-1.5 c -5.31,-1.4 -7.68,-4.59 -8.17,-10 -0.43,-4.65 -0.5,-9.44 -0.57,-14.12 0,-3.47 0.27,-103.68 0.28,-106 0,-0.05 -0.61,-8.39 0.58,-12.19 2.06,-6.57 9.24,-6.29 14.85,-6.41 4.23,-0.1 241.059997,0.42 249.929997,0.86 2.62,0.13 6.23,-0.17 7.53,2.39 1.2,2.37 0.8,6.32 0.85,9 0.09,3.76 0.37,79.63 0.58,108.59 -0.04,5.61 -0.37,11.23 -0.63,16.88 z"
     fill="#f78100"
     id="path1163" />
  <path
     d="m 162.95541,124.95975 a 1.05,1.05 0 1 0 -1,1.33 h 0.07 a 1,1 0 0 0 1,-1.26 z m 3.69,-9.33 c -0.26,3.2 0.34,6.41 0.19,9.62 -0.06,1.38 2.08,1.38 2.15,0 a 77.36,77.36 0 0 0 -0.45,-9.62 1,1 0 0 0 -1.89,0 z m 0.83,-2.94 h 0.07 a 0.92,0.92 0 0 0 0.63,-0.67 0.7,0.7 0 0 0 0.11,-0.23 1.44,1.44 0 0 0 0,-0.77 0.9,0.9 0 0 0 -1.49,-0.39 c -0.2,0.24 -0.42,0.37 -0.53,0.69 a 1.07,1.07 0 0 0 0.11,0.94 1,1 0 0 0 1.1,0.43 z m 8.11,11.77 c -1,1.1 -1.38,-3.24 -1.4,-3.43 -0.07,-0.93 -0.15,-1.87 -0.19,-2.81 v -1.62 h 1.43 c 1.62,0 1.38,-2.58 -0.3,-2.24 a 8.25,8.25 0 0 1 -1.1,0.13 11.77,11.77 0 0 0 -0.24,-2.45 c -0.16,-0.72 -1.08,-0.55 -1.31,0 a 8.56,8.56 0 0 0 -0.59,2.48 h -0.61 c -1,0 -1.34,1.67 -0.25,1.87 0.26,0 0.53,0.08 0.79,0.11 0,0.91 0.09,1.81 0.14,2.66 a 19.12,19.12 0 0 0 0.72,5.59 c 0.76,2 3.14,2.83 4.48,0.92 0.66,-0.93 -0.8,-2.03 -1.57,-1.21 z m 9.34,-9.7 a 5.61,5.61 0 0 0 -5.93,3.17 7.9,7.9 0 0 0 -0.48,1.66 0.89,0.89 0 0 0 -0.09,0.8 5.23,5.23 0 0 0 2,4.69 c 2.33,1.71 5.45,1.2 7.67,-0.45 1.05,-0.78 0.08,-2.56 -1.05,-1.8 -1.44,1 -3,1.72 -4.76,1 a 3.08,3.08 0 0 1 -1.88,-2.68 c 2.88,0.06 5.79,-0.19 8.65,-0.33 a 1.1,1.1 0 0 0 1.06,-1.39 6.64,6.64 0 0 0 -5.19,-4.67 z m -4.28,4.29 c 1.16,-3.46 4.82,-2.63 6.58,-0.39 -2.18,0.11 -4.39,0.2 -6.58,0.39 z m 26.1,-4.45 a 5.4,5.4 0 0 0 -5.7,2 3.47,3.47 0 0 0 -0.85,-0.93 4.2,4.2 0 0 0 -5.78,0.23 4.4,4.4 0 0 0 -0.27,-0.77 0.7,0.7 0 0 0 -1.21,0 c -0.62,1.43 -0.4,3 -0.39,4.49 v 5.65 a 1.08,1.08 0 0 0 2.16,0 c 0,-1.88 -0.07,-3.76 -0.1,-5.65 v -1.61 a 6,6 0 0 1 1.88,-1.39 2.15,2.15 0 0 1 3,1.56 c 0.32,2.29 -0.18,5 -0.28,7.27 -0.06,1.39 2.08,1.38 2.16,0 0.12,-2.17 0.23,-4.41 0.14,-6.6 a 4.66,4.66 0 0 1 2.3,-2.1 3.24,3.24 0 0 1 1.32,-0.35 c 1,0.09 1.57,1.32 1.71,2.26 0.31,2.12 -0.29,4.46 -0.29,6.6 a 1.08,1.08 0 0 0 2.16,0 35.52,35.52 0 0 0 0.11,-7.36 c -0.17,-1.39 -0.66,-2.78 -2.07,-3.3 z m 9.42,4.36 a 25,25 0 0 0 -4.81,0.67 c -0.51,0.35 -0.75,1.2 0.16,1.49 a 23.64,23.64 0 0 0 4.61,0 c 1.44,-0.07 1.52,-2.22 0.04,-2.16 z m 12.55,0.31 c -0.14,-1.43 -0.34,-3 -1.48,-4 -1.82,-1.61 -6,-0.85 -7.26,1.14 a 0.76,0.76 0 0 0 0.85,1.1 c 2.08,-0.71 5.27,-2.06 5.68,1.18 0,0.31 0.07,0.64 0.1,1 a 5.68,5.68 0 0 0 -4.81,-0.92 4.43,4.43 0 0 0 -2.92,4.85 c 0.5,3.85 5.39,3.64 8.1,1.63 v 0.4 c 0.1,1.42 2.34,1.43 2.23,0 -0.15,-2.13 -0.28,-4.26 -0.49,-6.38 z m -4.49,5.06 c -1.23,0.37 -3.37,0.39 -3.38,-1.33 0,-3.7 3.89,-2.15 5.92,-1.22 v 0.66 a 6.4,6.4 0 0 1 -2.54,1.89 z"
     fill="#1e1e1e"
     id="path1165" />
  <path
     d="m 9.406342,332.90615 c -0.74,0.43 -2.55,1.65 -2.3,2.66 a 0.5,0.5 0 0 0 0.82,0.22 c 0.45,-0.37 0.83,-0.8 1.23,-1.19 a 64,64 0 0 1 -0.22,7.33 c -0.07,0.77 1.12,0.76 1.19,0 a 71.23,71.23 0 0 0 0.15,-8.52 0.58,0.58 0 0 0 -0.87,-0.5 z"
     id="path1783" />
  <path
     style="fill:#000000;fill-opacity:1;stroke:none;stroke-width:0.943829px;stroke-linecap:butt;stroke-linejoin:miter;stroke-opacity:1"
     d="m 342.94764,333.00766 c 0,0 -5.65557,0.17012 -6.02386,0.10704 -0.36829,-0.0631 -0.68403,3.16801 -0.68403,3.16801 0,0 5.67015,-0.0778 5.59102,2.80569 -0.0791,2.88341 -5.55065,1.91477 -5.55065,1.91477 0,0 -0.6077,1.18461 -0.1412,1.37804 0.4665,0.19344 6.8542,0.55701 6.92731,-2.75321 0.0731,-3.31024 -3.4539,-4.26163 -3.4539,-4.26163 l -1.97183,-0.18108 0.52289,-1.011 c 0,0 4.3596,0.19316 4.6939,-0.0516 0.3343,-0.24475 0.0904,-1.11505 0.0904,-1.11505 z"
     id="path2007" />
  <path
     style="fill:#000000;fill-opacity:1;stroke:none;stroke-width:1px;stroke-linecap:butt;stroke-linejoin:miter;stroke-opacity:1"
     d="m 383.81153,333.00664 c 0,0 -3.60719,4.49906 -4.08842,6.07371 -0.48122,1.57464 -0.19519,4.7537 3.42383,4.51544 3.61902,-0.23825 4.35178,-2.27928 4.12725,-3.71514 -0.22453,-1.43586 -1.51043,-1.89345 -3.00851,-1.85105 -1.29221,0.0366 -2.58765,1.09341 -2.58765,1.09341 0,0 0.56553,1.77183 0.93856,0.9027 0.41714,-0.97189 3.46051,-1.00884 3.11423,0.52585 -0.5147,2.28112 -4.77421,1.98154 -4.65279,-0.49832 0.11723,-2.39424 4.20591,-6.46513 4.20591,-6.46513 0,0 -0.49791,-0.99745 -0.86456,-0.98627 -0.36665,0.0112 -0.60785,0.4048 -0.60785,0.4048 z"
     id="path2009"
     sodipodi:nodetypes="csssscssscsc" />
  <path
     d="m 411.00365,43.774035 c -0.51,0 -1,0.08 -1.52,0.100001 0,-1.81333 0.02,-3.62333 0.06,-5.43 v -3.73 c -0.0501,-0.3817 -0.0501,-0.7683 0,-1.15 0.32229,0.10603 0.66098,0.15344 1,0.14 0.53,-0.05 0.75,-0.9 0.13,-1 -0.62122,-0.17519 -1.27878,-0.17519 -1.9,0 -0.25328,0.0766 -0.43,0.30557 -0.44,0.57 0,3.74 0,7.48 -0.09,11.209999 0,0.32033 0.25967,0.58 0.58,0.58 0.70035,0.0283 1.40179,0.0116 2.1,-0.05 0.85,-0.11 0.89,-1.31 0.08,-1.24 z"
     id="path1906-6" />
  <path
     d="m 423.56878,33.187826 c -0.0537,-0.20008 -0.20993,-0.35635 -0.41,-0.41 -0.74051,-0.14794 -1.49929,-0.18166 -2.25,-0.1 -0.54601,0.10974 -0.54601,0.89026 0,1 0.45,0.06 1.79,0.25 1.51,-0.13 0.11,0.15 0,3.62 0,4.87 0,1.78 -0.06,3.56 -0.09,5.329999 h -1.6 c -0.79,0 -0.79,1.26 0,1.23 l 2.17,-0.08 c 0.3236,-0.005 0.58465,-0.26639 0.59,-0.589999 0,-1.89 0.07,-3.79 0.1,-5.69 0.13127,-1.80788 0.12458,-3.62314 -0.02,-5.43 z"
     id="path1149-2" />
  <path
     d="m 415.64999,34.014386 c -0.74,0.43 -2.55,1.65 -2.3,2.66 a 0.5,0.5 0 0 0 0.82,0.22 c 0.45,-0.37 0.83,-0.8 1.23,-1.19 a 64,64 0 0 1 -0.22,7.33 c -0.07,0.77 1.12,0.76 1.19,0 a 71.23,71.23 0 0 0 0.15,-8.52 0.58,0.58 0 0 0 -0.87,-0.5 z"
     id="path1783-9" />
  <path
     d="m 420.94073,98.996044 c -1.28167,-0.0816 -2.56665,-0.0983 -3.85,-0.05 1.93,-1.63 4.06,-3.59 3.77,-6.24 -0.32,-3 -4.34,-2.11 -5.83,-0.59 -0.5,0.5 0.24,1.21 0.76,0.76 0.9,-0.78 3.45,-1.88 3.9,0 0.034,0.77515 -0.16829,1.54235 -0.58,2.2 -0.88,1.64 -2.78,2.91 -4.15,4.12 -0.33811,0.37701 -0.0859,0.977476 0.42,0.999996 1.85392,-0.0851 3.71147,-0.045 5.56,0.12 0.83,0.09 0.84,-1.259996 0,-1.319996 z"
     id="path1912-1" />
  <path
     d="m 424.9607,89.416854 c -0.70054,-0.03 -1.40232,-0.01 -2.1,0.06 -0.76,0.1 -0.81,1.3 0,1.23 0.51,0 1,-0.08 1.52,-0.1 0,2 -0.09,9.999996 -0.08,10.149996 -0.21,-0.17 -0.86,0 -1.19,0 -0.52,0.09 -0.47,0.88 0,1 0.65864,0.18304 1.35808,0.15506 2,-0.08 0.18185,-0.10497 0.29277,-0.30004 0.29,-0.51 0,-3.739996 0,-7.479996 0.09,-11.209996 -0.0228,-0.2845 -0.24598,-0.51189 -0.53,-0.54 z"
     id="path1910-2" />
  <path
     d="m 412.50363,89.662394 -2.17,0.08 c -0.32193,0.005 -0.58004,0.26802 -0.58,0.59 l -0.15,10.999996 c 0.005,0.32361 0.2664,0.58465 0.59,0.59 0.69349,0.0815 1.39232,0.10828 2.09,0.08 0.54,0 0.73,-0.91 0.14,-1 -0.59,-0.09 -1.09,-0.14 -1.63,-0.19 0,-3.299996 0.08,-6.599996 0.12,-9.899996 h 1.59 c 0.83334,0 0.83334,-1.25 0,-1.25 z"
     id="path1908-7" />
  <path
     d="m 417.10643,189.77996 c -0.9,-2.38 -4.35,-1.36 -5.74,-0.12 -0.4,0.36 0.11,1 0.56,0.73 0.45,-0.27 4.57,-2.09 4.09,0.62 -0.21,1.2 -2,1.47 -2.92,1.65 -0.61,0.11 -0.46,1.08 0.14,1.07 0.44332,-0.0604 0.89391,-0.04 1.33,0.06 0.87,0.29 1.77,1.46 1.19,2.43 -0.9427,1.28683 -2.90292,1.15864 -3.67,-0.24 -0.28,-0.59 -1.18,-0.07 -0.89,0.52 1.19196,2.05565 4.1091,2.1938 5.49,0.26 0.57846,-0.91634 0.57846,-2.08366 0,-3 -0.23291,-0.33766 -0.55482,-0.60418 -0.93,-0.77 1.24376,-0.52913 1.84174,-1.95099 1.35,-3.21 z"
     id="path1930-0" />
  <path
     d="m 422.11788,193.97598 c 0,-2 0,-4.08 -0.05,-6.12 -0.0104,-0.32697 -0.27303,-0.58961 -0.6,-0.6 -0.77,-0.05 -1.69,-0.34 -2.34,0.17 -0.37,0.3 0,0.87 0.36,0.88 h 0.07 c 0.4415,-0.0126 0.88325,0.0142 1.32,0.08 0.06,2 0,4 0.05,6.06 v 3.54 c 0.0128,0.21648 0.0128,0.43352 0,0.65 -0.15,-0.31 -1.41,-0.06 -1.76,-0.07 -0.74,0 -0.71,1.22 0,1.13 0.71,-0.09 1.54,0 2.29,-0.12 0.23,0 0.52,-0.15 0.56,-0.42 0.16834,-1.72142 0.20177,-3.45337 0.1,-5.18 z"
     id="path1916-9" />
  <path
     d="m 408.44758,198.70749 c -0.41905,0.13811 -0.85141,0.23195 -1.29,0.28 l 0.21,-10.31 c 0.33154,-0.0489 0.66846,-0.0489 1,0 0.56047,0.0383 0.6706,-0.7785 0.12,-0.89 -0.5217,-0.19278 -1.08865,-0.22756 -1.63,-0.1 -0.27567,0.005 -0.49944,0.22448 -0.51,0.5 -0.0933,3.79333 -0.19,7.58333 -0.29,11.37 0,0.29823 0.24176,0.54 0.54,0.54 0.73,-0.07 1.43,-0.16 2.15,-0.3 0.72,-0.14 0.46,-1.31 -0.3,-1.09 z"
     id="path1914-3" />
  <path
     d="m 422.58172,301.75062 c -0.003,-0.25592 -0.17398,-0.47942 -0.42,-0.55 -0.66389,-0.14271 -1.35365,-0.10822 -2,0.1 -0.49883,0.15129 -0.40104,0.88469 0.12,0.9 l 1.15,-0.16 c 0.07,0.25 -0.06,3.73 -0.09,5.1 -0.03,1.37 -0.09,4.87 -0.1,5.15 h -1.12 c -0.86,0.05 -0.85,1.41 0,1.34 0.56,-0.05 1.12,-0.06 1.68,-0.1 0.31,0 0.66,-0.27 0.62,-0.62 -0.12,-1.17 0,-3.43 0.06,-5.13 0.15244,-2.00626 0.18583,-4.01979 0.1,-6.03 z"
     id="path1960-6" />
  <path
     id="path1942-0"
     d="m 415.16464,303.38809 c -0.0846,0.007 -0.17039,0.0423 -0.24414,0.11133 -0.90738,0.84759 -1.68701,1.82144 -2.31836,2.89063 -0.77,1.1 -1.47062,2.24015 -2.14062,3.41015 -0.2327,0.39406 0.0522,0.89216 0.50976,0.89063 1.21,0 2.44969,0.0998 3.67969,0.0898 v 1.59961 c 0,0.53 1.08117,0.88016 1.20117,0.16016 0.10041,-0.60482 0.14902,-1.21699 0.14844,-1.83008 0.23,0 0.44992,-7.8e-4 0.66992,-0.0508 0.86,-0.0333 0.81117,-1.32239 -0.0488,-1.28906 h -0.67968 v -1.21094 c 0.0833,-1.43219 -0.0309,-2.86856 -0.33985,-4.26953 0.067,-0.29553 -0.18383,-0.52344 -0.4375,-0.50196 z m -0.61328,2.55274 c 0.11703,0.0423 0.67261,3.15728 0.25781,3.24414 -0.41481,0.0869 -2.20507,-0.10156 -2.20507,-0.10156 0,0 1.83023,-3.18485 1.94726,-3.14258 z" />
  <path
     d="m 409.84013,303.47366 c 0.51,0 0.69,-0.85 0.13,-0.94 -0.69481,-0.11 -1.3966,-0.17015 -2.1,-0.18 -0.29271,0 -0.53,0.23729 -0.53,0.53 0.16,2.37 0.12,4.74 0.1,7.11 -0.0882,1.33188 -0.0882,2.66812 0,4 0.0421,0.14835 0.16035,0.26282 0.31,0.3 0.6347,0.11388 1.27599,0.18736 1.92,0.22 0.72,0.08 0.75,-1.15 0,-1.14 -0.21,0 -1.18,-0.14 -1.39,0.1 0,-0.16 0.19,-7.8 0.16,-10.07 0.46441,0.0565 0.93226,0.0799 1.4,0.07 z"
     id="path1932-6" />
</svg>
