<?xml version="1.0" encoding="UTF-8"?>
<!DOCTYPE svg PUBLIC "-//W3C//DTD SVG 1.1//EN" "http://www.w3.org/Graphics/SVG/1.1/DTD/svg11.dtd">
<svg version="1.2" width="6.17mm" height="6.17mm" viewBox="199 184 617 617" preserveAspectRatio="xMidYMid" fill-rule="evenodd" stroke-width="28.222" stroke-linejoin="round" xmlns="http://www.w3.org/2000/svg" xmlns:ooo="http://xml.openoffice.org/svg/export" xmlns:xlink="http://www.w3.org/1999/xlink" xmlns:presentation="http://sun.com/xmlns/staroffice/presentation" xmlns:smil="http://www.w3.org/2001/SMIL20/" xmlns:anim="urn:oasis:names:tc:opendocument:xmlns:animation:1.0" xml:space="preserve">
 <defs class="ClipPathGroup">
  <clipPath id="presentation_clip_path" clipPathUnits="userSpaceOnUse">
   <rect x="199" y="184" width="617" height="617"/>
  </clipPath>
 </defs>
 <defs class="TextShapeIndex">
  <g ooo:slide="id1" ooo:id-list="id3 id4 id5 id6"/>
 </defs>
 <defs class="EmbeddedBulletChars">
  <g id="bullet-char-template(57356)" transform="scale(0.00048828125,-0.00048828125)">
   <path d="M 580,1141 L 1163,571 580,0 -4,571 580,1141 Z"/>
  </g>
  <g id="bullet-char-template(57354)" transform="scale(0.00048828125,-0.00048828125)">
   <path d="M 8,1128 L 1137,1128 1137,0 8,0 8,1128 Z"/>
  </g>
  <g id="bullet-char-template(10146)" transform="scale(0.00048828125,-0.00048828125)">
   <path d="M 174,0 L 602,739 174,1481 1456,739 174,0 Z M 1358,739 L 309,1346 659,739 1358,739 Z"/>
  </g>
  <g id="bullet-char-template(10132)" transform="scale(0.00048828125,-0.00048828125)">
   <path d="M 2015,739 L 1276,0 717,0 1260,543 174,543 174,936 1260,936 717,1481 1274,1481 2015,739 Z"/>
  </g>
  <g id="bullet-char-template(10007)" transform="scale(0.00048828125,-0.00048828125)">
   <path d="M 0,-2 C -7,14 -16,27 -25,37 L 356,567 C 262,823 215,952 215,954 215,979 228,992 255,992 264,992 276,990 289,987 310,991 331,999 354,1012 L 381,999 492,748 772,1049 836,1024 860,1049 C 881,1039 901,1025 922,1006 886,937 835,863 770,784 769,783 710,716 594,584 L 774,223 C 774,196 753,168 711,139 L 727,119 C 717,90 699,76 672,76 641,76 570,178 457,381 L 164,-76 C 142,-110 111,-127 72,-127 30,-127 9,-110 8,-76 1,-67 -2,-52 -2,-32 -2,-23 -1,-13 0,-2 Z"/>
  </g>
  <g id="bullet-char-template(10004)" transform="scale(0.00048828125,-0.00048828125)">
   <path d="M 285,-33 C 182,-33 111,30 74,156 52,228 41,333 41,471 41,549 55,616 82,672 116,743 169,778 240,778 293,778 328,747 346,684 L 369,508 C 377,444 397,411 428,410 L 1163,1116 C 1174,1127 1196,1133 1229,1133 1271,1133 1292,1118 1292,1087 L 1292,965 C 1292,929 1282,901 1262,881 L 442,47 C 390,-6 338,-33 285,-33 Z"/>
  </g>
  <g id="bullet-char-template(9679)" transform="scale(0.00048828125,-0.00048828125)">
   <path d="M 813,0 C 632,0 489,54 383,161 276,268 223,411 223,592 223,773 276,916 383,1023 489,1130 632,1184 813,1184 992,1184 1136,1130 1245,1023 1353,916 1407,772 1407,592 1407,412 1353,268 1245,161 1136,54 992,0 813,0 Z"/>
  </g>
  <g id="bullet-char-template(8226)" transform="scale(0.00048828125,-0.00048828125)">
   <path d="M 346,457 C 273,457 209,483 155,535 101,586 74,649 74,723 74,796 101,859 155,911 209,963 273,989 346,989 419,989 480,963 531,910 582,859 608,796 608,723 608,648 583,586 532,535 482,483 420,457 346,457 Z"/>
  </g>
  <g id="bullet-char-template(8211)" transform="scale(0.00048828125,-0.00048828125)">
   <path d="M -4,459 L 1135,459 1135,606 -4,606 -4,459 Z"/>
  </g>
 </defs>
 <defs class="TextEmbeddedBitmaps"/>
 <g class="SlideGroup">
  <g>
   <g id="id1" class="Slide" clip-path="url(#presentation_clip_path)">
    <g class="Page">
     <g class="com.sun.star.drawing.CustomShape">
      <g id="id3">
       <rect class="BoundingBox" stroke="none" fill="none" x="198" y="183" width="619" height="619"/>
       <path fill="rgb(255,255,153)" stroke="none" d="M 506,184 C 680,184 814,317 814,491 814,665 680,799 506,799 332,799 199,665 199,491 199,317 332,184 506,184 Z M 199,184 L 199,184 Z M 815,800 L 815,800 Z"/>
       <path fill="none" stroke="rgb(52,101,164)" d="M 506,184 C 680,184 814,317 814,491 814,665 680,799 506,799 332,799 199,665 199,491 199,317 332,184 506,184 Z"/>
       <path fill="none" stroke="rgb(52,101,164)" d="M 199,184 L 199,184 Z"/>
       <path fill="none" stroke="rgb(52,101,164)" d="M 815,800 L 815,800 Z"/>
      </g>
     </g>
     <g class="com.sun.star.drawing.CustomShape">
      <g id="id4">
       <rect class="BoundingBox" stroke="none" fill="none" x="341" y="326" width="98" height="98"/>
       <path fill="rgb(0,0,0)" stroke="none" d="M 389,327 C 415,327 436,348 436,374 436,400 415,421 389,421 363,421 342,400 342,374 342,348 363,327 389,327 Z M 342,327 L 342,327 Z M 437,422 L 437,422 Z"/>
       <path fill="none" stroke="rgb(52,101,164)" d="M 389,327 C 415,327 436,348 436,374 436,400 415,421 389,421 363,421 342,400 342,374 342,348 363,327 389,327 Z"/>
       <path fill="none" stroke="rgb(52,101,164)" d="M 342,327 L 342,327 Z"/>
       <path fill="none" stroke="rgb(52,101,164)" d="M 437,422 L 437,422 Z"/>
      </g>
     </g>
     <g class="com.sun.star.drawing.CustomShape">
      <g id="id5">
       <rect class="BoundingBox" stroke="none" fill="none" x="578" y="326" width="98" height="98"/>
       <path fill="rgb(0,0,0)" stroke="none" d="M 626,327 C 652,327 673,348 673,374 673,400 652,421 626,421 600,421 579,400 579,374 579,348 600,327 626,327 Z M 579,327 L 579,327 Z M 674,422 L 674,422 Z"/>
       <path fill="none" stroke="rgb(52,101,164)" d="M 626,327 C 652,327 673,348 673,374 673,400 652,421 626,421 600,421 579,400 579,374 579,348 600,327 626,327 Z"/>
       <path fill="none" stroke="rgb(52,101,164)" d="M 579,327 L 579,327 Z"/>
       <path fill="none" stroke="rgb(52,101,164)" d="M 674,422 L 674,422 Z"/>
      </g>
     </g>
     <g class="com.sun.star.drawing.CustomShape">
      <g id="id6">
       <rect class="BoundingBox" stroke="none" fill="none" x="317" y="441" width="380" height="245"/>
       <path fill="rgb(255,0,0)" stroke="none" d="M 320,579 L 322,585 324,591 326,596 329,602 332,607 336,614 341,619 344,624 349,629 355,634 361,639 367,643 374,647 381,651 388,655 395,659 403,662 411,665 419,668 428,670 437,673 446,675 455,678 464,679 473,680 482,681 492,682 501,682 511,682 520,682 530,681 539,680 548,679 557,678 566,677 575,675 584,672 593,670 601,667 609,664 617,661 624,657 631,653 638,649 645,645 651,641 657,636 663,631 668,626 672,621 678,616 682,611 685,606 688,600 690,595 692,589 694,583 633,576 632,580 630,584 629,588 627,592 624,595 622,599 619,603 616,606 612,609 608,612 605,616 600,619 595,621 590,624 585,627 580,629 575,631 570,633 564,635 558,636 553,637 547,639 541,640 534,641 528,642 522,642 516,643 509,643 503,643 496,643 490,642 484,642 478,641 471,640 465,639 459,637 454,636 448,633 442,631 437,629 432,627 427,625 422,622 418,619 414,617 409,614 406,610 402,607 398,604 395,601 392,597 390,593 387,590 385,586 384,582 382,578 381,574 320,579 Z M 695,684 L 695,684 Z M 318,442 L 318,442 Z"/>
       <path fill="none" stroke="rgb(52,101,164)" d="M 320,579 L 322,585 324,591 326,596 329,602 332,607 336,614 341,619 344,624 349,629 355,634 361,639 367,643 374,647 381,651 388,655 395,659 403,662 411,665 419,668 428,670 437,673 446,675 455,678 464,679 473,680 482,681 492,682 501,682 511,682 520,682 530,681 539,680 548,679 557,678 566,677 575,675 584,672 593,670 601,667 609,664 617,661 624,657 631,653 638,649 645,645 651,641 657,636 663,631 668,626 672,621 678,616 682,611 685,606 688,600 690,595 692,589 694,583 633,576 632,580 630,584 629,588 627,592 624,595 622,599 619,603 616,606 612,609 608,612 605,616 600,619 595,621 590,624 585,627 580,629 575,631 570,633 564,635 558,636 553,637 547,639 541,640 534,641 528,642 522,642 516,643 509,643 503,643 496,643 490,642 484,642 478,641 471,640 465,639 459,637 454,636 448,633 442,631 437,629 432,627 427,625 422,622 418,619 414,617 409,614 406,610 402,607 398,604 395,601 392,597 390,593 387,590 385,586 384,582 382,578 381,574 320,579 Z"/>
       <path fill="none" stroke="rgb(52,101,164)" d="M 695,684 L 695,684 Z"/>
       <path fill="none" stroke="rgb(52,101,164)" d="M 318,442 L 318,442 Z"/>
      </g>
     </g>
    </g>
   </g>
  </g>
 </g>
</svg>